<svg xmlns="http://www.w3.org/2000/svg"><defs><font id="AbrilFatface" horiz-adv-x="458"><font-face font-family="Abril Fatface" panose-1="2 0 5 3 0 0 0 2 0 3" ascent="1058" descent="-291" alphabetic="0"/><glyph glyph-name="space" horiz-adv-x="180"/><glyph unicode="!" glyph-name="exclam" horiz-adv-x="377" d="M178 178v86q0 86-32 204t-33 162 23 62 58 19q76 0 76-81 0-47-35-164t-35-203v-85h-22ZM148-10l-18 21-19 54 20 54 55 22 56-18 21-55-20-57-57-21Z"/><glyph unicode="&quot;" glyph-name="quotedbl" horiz-adv-x="334" d="m227 481-29 266q40 20 65 20 34 0 34-37 0-23-9-66l-40-183h-21Zm-148 0L50 747q40 20 65 20 34 0 34-37 0-23-9-66l-40-183H79Z"/><glyph unicode="#" glyph-name="numbersign" horiz-adv-x="608" d="M163 0h-25l27 169H45l16 92h117l26 146H84l15 93h117l21 140h26l-22-140h172l21 140h26l-22-140h128l-14-93H426l-24-146h126l-14-92H390L362 0h-25l28 169H191L163 0Zm238 407H229l-26-146h174l24 146Z"/><glyph unicode="$" glyph-name="dollar" horiz-adv-x="565" d="m258 691 23 1q21 0 39-3v81h28v-85q19-4 51-13t46-10 24 20h10l7-197h-15q-63 121-123 161V440q82-27 129-75t48-141-47-154T348-6v-65h-28v62q-6-1-23-1t-39 3v-64h-28v67L111 19q-16 0-27-29H71l-9 232h16Q140 87 230 35v225q-80 28-122 77T65 471t43 143 122 73v83h28v-79Zm54-680h8v219q-22 9-61 21h-1V22q27-11 54-11Zm-54 456q40-13 62-18v212q-25 11-42 11t-20-1V467Zm172-354q0 67-82 106V15q36 9 59 34t23 64ZM155 573q0-63 75-95v189q-34-10-54-35t-21-59Z"/><glyph unicode="%" glyph-name="percent" horiz-adv-x="768" d="m488-10-44 46-45 120 48 123 127 49 124-43 45-122-49-126-127-47Zm36 256-1-21-1-68 1-67 5-43 15-32 29-9 28 9 15 34q6 37 6 97t-1 81-5 45-15 31-28 9-28-8-15-33ZM154 0l421 700h40L195 0h-41Zm-35 373-44 46-45 120 48 123 127 49 124-43 45-122-49-126-127-47Zm36 256-1-21-1-68 1-67 5-43 15-32 29-9 28 9 15 34q6 38 6 97t-1 81-5 45-15 31-28 9-28-8-15-33Z"/><glyph unicode="&amp;" glyph-name="ampersand" horiz-adv-x="822" d="M515-226q49 0 75 47t27 116-53 140q-76-87-209-87T144 35 65 177q0 67 36 108t121 60q-88 80-88 174t66 143 166 49 148-36 50-97q0-106-161-162 20-13 73-46 111-72 157-116 15 71 17 146h-79v20h174v-20h-70q-2-94-19-169 43-48 65-92t22-111q0-108-76-193t-173-85q-65 0-101 27t-36 69 23 65 60 24q80 0 80-72 0-15-6-36h-35q-18-53 36-53ZM379 16q106 0 168 82-46 48-129 104-143 94-182 128-15-32-15-130t39-141 119-43Zm-56 674-27-23-27-75 24-84 92-80q42 22 52 53t11 91q0 118-87 118-38 0-65-23Z"/><glyph unicode="'" glyph-name="quotesingle" horiz-adv-x="186" d="M79 481 50 747q40 20 65 20 34 0 34-37 0-23-9-66l-40-183H79Z"/><glyph unicode="(" glyph-name="parenleft" horiz-adv-x="351" d="m90 61-20 80-20 180 35 205 110 176 176 76v-20q-57-2-81-40-27-41-32-93-7-71-7-179V159q0-190 31-243 29-51 89-53v-21q-79 1-142 42T128-7Z"/><glyph unicode=")" glyph-name="parenright" horiz-adv-x="351" d="m261 558 20-80 20-180-35-205L156-83l-176-76v20q57 2 81 39Q88-58 93-6q7 71 7 179v287q0 190-31 244-29 50-89 52v21q79-1 142-42t101-109Z"/><glyph unicode="*" glyph-name="asterisk" horiz-adv-x="529" d="m465 608-183-33 132-35q16-4 25-8t19-14 10-26q0-47-68-74L271 561l45-188q-33-26-60-26t-41 11-14 31 9 47l43 126-124-144q-27 10-47 29t-21 43 15 34 47 18l119 33-178 33q-4 16-4 38t12 43 37 21q16 0 27-8t28-25l91-87-44 175q33 26 60 26t41-11 14-31-13-56l-39-104 89 89q32 32 56 32t37-18 13-43-4-41Z"/><glyph unicode="+" glyph-name="plus" horiz-adv-x="530" d="M492 301H281V92h-38v209H38v33h205v196h38V334h211v-33Z"/><glyph unicode="," glyph-name="comma" horiz-adv-x="262" d="m86-156-12 15q62 53 81 82t19 65-31 40L95 3q-23 8-41 28T35 84t23 56 65 23 68-32 26-85-31-102T86-156Z"/><glyph unicode="-" glyph-name="hyphen" horiz-adv-x="352" d="M50 278v30h252v-30H50Z"/><glyph unicode="." glyph-name="period" horiz-adv-x="265" d="M88-10 67 15 45 77l22 62 64 25 65-21 24-63-22-66-66-24Z"/><glyph unicode="/" glyph-name="slash" horiz-adv-x="351" d="m8-97 295 892h40L49-97H8Z"/><glyph unicode="0" glyph-name="zero" horiz-adv-x="664" d="m181-10-75 98-76 274 81 262 221 87 221-86 81-274-81-274-226-87Zm54 398v-89q0-97 1-137t11-83 29-55 47-13 40 3 24 12 18 19 11 30 8 37 4 50q2 64 2 129v88q0 196-14 253t-83 58-83-59-15-243Z"/><glyph unicode="1" glyph-name="one" horiz-adv-x="425" d="M127 674 17 660l-2 20 226 31h81V19h78V0H22v19h105v655Z"/><glyph unicode="2" glyph-name="two" horiz-adv-x="552" d="m35 625 58 43 174 43 178-43 63-129q0-28-5-50t-22-47-34-44-57-50q-60-48-126-95t-77-56l-61-44h240q69 0 98 30t41 94h17L512 0H42v116l101 93q103 94 146 167t43 162-19 121-64 33-63-23-18-44 6-37h30q8-21 8-50t-25-51-66-22-63 26-23 67q0 67 58 110Z"/><glyph unicode="3" glyph-name="three" horiz-adv-x="573" d="m42 624 60 43 178 44q228 0 228-159 0-65-53-107t-154-60v-2q124-9 183-58t59-127q0-96-77-152T250-10q-54 0-100 12T67 49t-37 85 23 76 65 27 65-21 24-51-8-51h-31q-6-16-6-33 0-71 84-71 59 0 80 45t22 130-20 123-61 59q-36-8-87-13l-3 22q88 9 115 42t28 117-16 121-56 37-55-23-17-45 6-37h29q8-21 8-50t-25-51-66-22-63 26-23 67q0 66 60 109Z"/><glyph unicode="4" glyph-name="four" horiz-adv-x="603" d="M182 0v19h94v160H5v19l282 502h173V203h99v87h19V105h-19v74h-99V19h69V0H182ZM37 203h239v421L37 203Z"/><glyph unicode="5" glyph-name="five" horiz-adv-x="540" d="m308 329-16 38-75 38-127-43-17 8v319l16 12q61-9 185-21t143-13 28 9 15 33l15-2q-15-153-39-182-13-15-33-15t-84 17l-218 57-5-194q73 39 151 39t130-17 80-49q53-59 53-143 0-107-76-168T223-10q-72 0-133 30-33 17-53 48t-21 73 23 69 65 27 65-20 24-53-9-56h-33q-6-16-6-37t17-41 50-20 50 10 26 26 14 47q6 46 6 141Z"/><glyph unicode="6" glyph-name="six" horiz-adv-x="616" d="M34 308q0 193 86 298t238 105q103 0 158-41t55-109q0-38-24-65t-65-28-64 21-24 51 8 52h32q6 16 6 36 0 63-71 63t-104-73-34-254q52 81 151 81t156-53 57-161-75-174-201-67Q34-10 34 308Zm263 104-23-25-32-60-9-90v-77l3-51 8-43 14-29q16-26 51-26t52 13 26 46q12 47 12 117t0 93-3 48-6 39-12 25q-13 20-47 20Z"/><glyph unicode="7" glyph-name="seven" horiz-adv-x="510" d="m181-10-31 29-31 73 29 96 129 168 165 191H186q-71 0-93-17t-36-84H41l11 254h448V592L389 398q-74-131-94-187t-21-108 30-94l-7-12q-28-7-62-7-54 0-85 29Z"/><glyph unicode="8" glyph-name="eight" horiz-adv-x="611" d="M249 368q-97 5-151 48T44 529q0 84 67 133t196 49 195-46 66-123-51-122-147-52v-3q216-18 216-183 0-96-67-144T308-10Q25-10 25 181q0 169 224 184v3Zm146-93-18 40-69 40-70-40-18-133 17-132 71-39 70 39 17 132ZM264 690l-12-35-13-96 1-81 4-43 12-33q17-24 55-24 34 0 51 24 13 19 14 56t1 99-12 97-57 36Z"/><glyph unicode="9" glyph-name="nine" horiz-adv-x="616" d="M584 393q0-194-84-298T265-10q-105 0-164 40T41 134q0 40 24 69t65 30 64-21 24-51-8-52h-30q-7-15-7-38t21-42 64-19q67 0 97 73t32 254q-52-81-158-81-90 0-148 58T23 473q0 120 79 179t204 59q278 0 278-318ZM321 289l23 25 32 60 9 90v77l-3 51-7 43-13 29q-15 26-55 26-45 0-67-36-17-29-20-100-1-25-1-67t0-66 3-48 6-39 12-25q13-20 47-20Z"/><glyph unicode=":" glyph-name="colon" horiz-adv-x="265" d="m88 321-21 25-22 62 22 62 64 25 65-21 24-63-22-66-66-24Zm0-331L67 15 45 77l22 62 64 25 65-21 24-63-22-66-66-24Z"/><glyph unicode=";" glyph-name="semicolon" horiz-adv-x="262" d="m86-156-12 15q62 53 81 82t19 65-31 40L95 3q-23 8-41 28T35 84t23 56 65 23 68-32 26-85-31-102T86-156Zm-7 477-21 25-22 62 22 62 64 25 65-21 24-63-22-66-66-24Z"/><glyph unicode="&lt;" glyph-name="less" horiz-adv-x="530" d="M491 86 39 280v26l452 191v-35L93 294l398-171V86Z"/><glyph unicode="=" glyph-name="equal" horiz-adv-x="530" d="M492 190H38v33h454v-33ZM38 379h454v-33H38v33Z"/><glyph unicode="&gt;" glyph-name="greater" horiz-adv-x="530" d="m39 497 452-194v-26L39 86v35l398 170L39 460v37Z"/><glyph unicode="?" glyph-name="question" horiz-adv-x="580" d="m58 623 59 44 168 44 169-42 60-124q0-54-26-95t-74-85L263 231v-58h-25v210q0 17 11 28l62 63q29 29 40 54t11 67q0 97-90 97-43 0-63-23t-20-44 6-37h32q8-21 8-50t-25-51-66-22-63 26-23 67q0 65 59 109ZM211-10l-18 21-19 54 20 54 55 22 56-18 21-55-20-57-57-21Z"/><glyph unicode="@" glyph-name="at" horiz-adv-x="879" d="M433 395q48 0 87-37l17 30h109l-32-182q-12-72-12-109t11-56 46-19q45 0 84 58t40 157q0 146-85 229t-236 84-258-102T98 174q0-88 31-154t85-105q105-74 245-74t238 83l16-18q-44-41-112-65t-143-24-143 21-125 63-88 111-32 158q0 175 110 288t287 114q153 0 247-86t95-242q0-125-52-188T605-7 477 65Q451-5 380-5T271 39t-38 108q0 121 62 184t138 64Zm48-265 34 214q-29 30-62 30t-54-31-32-79q-18-86-18-167t51-81q29 0 51 32t30 82Z"/><glyph unicode="A" glyph-name="A" horiz-adv-x="694" d="m432 19-73 216H161L84 19h75V0H6v19h47l255 687h82L642 19h46V0H361v19h71ZM264 519l-94-262h181l-87 262Z"/><glyph unicode="B" glyph-name="B" horiz-adv-x="659" d="M21 700h299q139 0 208-37t70-127q0-137-165-164v-2q200-25 200-174 0-109-82-152T315 0H21v19h65v662H21v19Zm260-346V19h47q55 0 77 38t22 112v53q0 66-27 99t-96 33h-23Zm0 327V373h26q52 0 72 31t21 97v47q0 74-18 103t-69 30h-32Z"/><glyph unicode="C" glyph-name="C" horiz-adv-x="690" d="M400 691q-155 0-155-299v-79q0-142 41-222t121-81q110 0 202 214h18L620 1h-11q-6 11-11 15t-14 5-73-15-128-16q-163 0-252 88T41 342t93 273 252 96q61 0 119-15t69-16 15 4 11 16h11l8-217h-18q-45 101-92 154t-109 54Z"/><glyph unicode="D" glyph-name="D" horiz-adv-x="755" d="M714 362q0-206-116-287Q491 0 304 0H21v19h66v662H21v19h309q192 0 288-78t96-260ZM282 19h38q101 0 144 71t44 240v58q0 225-86 271-41 22-116 22h-24V19Z"/><glyph unicode="E" glyph-name="E" horiz-adv-x="624" d="M21 700h520l10-198h-18q-42 101-88 138t-135 38h-35V369h34q47 0 79 35t45 96h15V204h-17q-18 75-48 107t-84 32h-24V22h38q92 0 156 55t89 141h20L570 0H21v22h59v656H21v22Z"/><glyph unicode="F" glyph-name="F" horiz-adv-x="592" d="M21 700h520l10-208h-18q-37 108-85 147t-145 39h-28V353h45q48 0 80 35t44 96h15V188h-17q-16 75-44 107t-78 32h-45V22h124V0H21v22h59v656H21v22Z"/><glyph unicode="G" glyph-name="G" horiz-adv-x="723" d="M390 10q49 0 62 18t14 61v194h-64v22h288v-22h-39V1h-15q-18 25-51 25-14 0-83-18T383-10q-163 0-252 88T41 342t93 273 252 96q61 0 122-15t72-16 15 4 11 16h11l8-217h-18q-49 97-98 152t-111 56q-153 0-153-299v-79q0-150 37-226t108-77Z"/><glyph unicode="H" glyph-name="H" horiz-adv-x="749" d="M21 700h312v-19h-58V371h199v310h-59v19h313v-19h-59V19h59V0H415v19h59v326H275V19h58V0H21v19h59v662H21v19Z"/><glyph unicode="I" glyph-name="I" horiz-adv-x="355" d="M25 700h305v-19h-55V19h55V0H25v19h55v662H25v19Z"/><glyph unicode="J" glyph-name="J" horiz-adv-x="517" d="M176 700h325v-19h-55V249q0-135-61-196T202-9Q121-9 74 22t-48 87q0 43 24 67t65 25 62-21 21-50-11-60h-39q-9-15-9-28t13-23 36-10q40 0 51 31t12 137v504h-75v19Z"/><glyph unicode="K" glyph-name="K" horiz-adv-x="734" d="M25 700h305v-19h-55V365l8 2 282 314h-79v19h175v-19h-60L429 489 669 19h54V0H402v19h47L284 338l-9-2V19h55V0H25v19h55v662H25v19Z"/><glyph unicode="L" glyph-name="L" horiz-adv-x="596" d="M21 700h360v-22H275V22h36q85 0 135 52t103 160h21L551 0H21v22h59v656H21v22Z"/><glyph unicode="M" glyph-name="M" horiz-adv-x="840" d="M548 700h267v-19h-55V19h55V0H510v19h55v625h-4L411 0H286L110 647h-4V19h55V0H25v19h55v662H25v19h270l133-515 120 515Z"/><glyph unicode="N" glyph-name="N" horiz-adv-x="670" d="M590 681V0H450L107 647V19h55V0H25v19h55v662H25v19h276l262-502v483h-55v19h137v-19h-55Z"/><glyph unicode="O" glyph-name="O" horiz-adv-x="748" d="M501 309v74q0 183-18 231-20 55-57 68-21 8-51 8t-51-8-36-28-22-42-14-62q-6-58-6-171v-72q0-122 9-173t24-74q31-49 96-49 79 0 102 66t24 232ZM206-10l-82 90-83 262 88 270 251 99 244-93 83-266-83-267-251-95Z"/><glyph unicode="P" glyph-name="P" horiz-adv-x="634" d="M15 700h294q151 0 225-43t74-156q0-124-90-171-84-43-235-43h-8V19h125V0H15v19h65v662H15v19Zm260-19V306h21q60 0 83 41t23 133v48q0 85-21 119t-79 34h-27Z"/><glyph unicode="Q" glyph-name="Q" horiz-adv-x="748" d="M41 339q0 175 88 273t251 99 244-93 83-266Q707 25 423-1v-7q57-6 84-31t42-66 25-57 33-15q38 0 45 80l22-2q-2-66-41-101t-108-35-108 34-58 102q-13 41-22 53t-23 12q-28 0-74-41l-14 16q40 40 91 49v6Q181 10 111 99T41 339Zm460-30v74q0 183-18 231-20 55-57 68-21 8-51 8t-51-8-36-28-22-42-14-62q-6-58-6-171v-72q0-122 9-173t24-74q31-49 96-49 79 0 102 66t24 232Z"/><glyph unicode="R" glyph-name="R" horiz-adv-x="716" d="M328 354h-53V19h65V0H15v19h65v662H15v19h302q130 0 184-13t77-33q48-39 48-124t-42-121-128-44v-3q81-11 113-48t32-124v-53q0-52 5-70t24-18 28 16 20 70l17-2q-11-85-38-114T547-10 431 28t-35 145v73q0 56-14 82t-54 26Zm-53 327V373h32q57 0 84 35t28 114v29q0 79-26 104t-85 26h-33Z"/><glyph unicode="S" glyph-name="S" horiz-adv-x="600" d="M325 11q50 0 88 27t39 81-41 84-118 50-111 38-66 42q-62 52-62 161 0 89 63 153t174 64q53 0 110-15t72-16 25 20h11l7-202h-16q-48 87-100 139t-114 53-96-28-34-76 40-73 100-42 77-22 46-16 45-22 37-29 31-39q27-48 27-114 0-108-67-173T314-10q-57 0-130 15t-82 15q-14 0-27-30H61L51 228h17q44-87 112-152t145-65Z"/><glyph unicode="T" glyph-name="T" horiz-adv-x="683" d="m636 700 10-251h-19q-44 133-78 181t-98 49h-12V21h85V0H159v21h85v658h-13q-64 0-99-50T55 449H36l10 251h590Z"/><glyph unicode="U" glyph-name="U" horiz-adv-x="683" d="m271 121 31-49 114-49 126 51 44 155v452h-65v19h146v-19h-55V236q0-124-55-185T363-10 150 48 76 247v434H21v19h315v-19h-65V213q0-92 31-141Z"/><glyph unicode="V" glyph-name="V" horiz-adv-x="685" d="m430 181 174 500h-78v19h153v-19h-47L391-10h-84L52 681H6v19h327v-19h-71l168-500Z"/><glyph unicode="W" glyph-name="W" horiz-adv-x="1015" d="m424 202 83 288-60 191h-57v19h310v-19h-59l149-473 120 473H809v19h200v-19h-66L759-10h-89L522 442 392-10h-87L53 681H6v19h325v-19h-70l163-479Z"/><glyph unicode="X" glyph-name="X" horiz-adv-x="711" d="M700 0H358v19h66L275 283 116 19h106V0H15v19h67l175 294L48 680H-6v20h337v-20h-68l135-242 151 242H445v20h205v-20h-66L415 410 642 19h58V0Z"/><glyph unicode="Y" glyph-name="Y" horiz-adv-x="641" d="m397 371 142 313H438v16h197v-16h-66L418 350V19h61V0H162v19h61v312L53 684H6v16h320v-16h-65l136-313Z"/><glyph unicode="Z" glyph-name="Z" horiz-adv-x="612" d="M559 700v-22L263 23h34q90 0 158 57t99 164h18L560 0H48v19l299 659h-41q-89 0-135-39T67 479H49l15 221h495Z"/><glyph unicode="[" glyph-name="bracketleft" horiz-adv-x="329" d="M349-142v-18H61v941h288v-18h-45q-37 0-47-9t-11-43V-89q0-37 9-45t48-8h46Z"/><glyph unicode="\" glyph-name="backslash" horiz-adv-x="351" d="M49 795 344-97h-42L8 795h41Z"/><glyph unicode="]" glyph-name="bracketright" horiz-adv-x="328" d="M-20-160v18h46q38 0 47 8t10 45v800q0 34-10 43t-48 9h-45v18h288v-941H-20Z"/><glyph unicode="^" glyph-name="asciicircum" horiz-adv-x="560" d="m500 300-37-15-190 336L98 284l-38 16 189 364h49l202-364Z"/><glyph unicode="_" glyph-name="underscore" horiz-adv-x="500" d="M500-106H0v37h500v-37Z"/><glyph unicode="`" glyph-name="grave" horiz-adv-x="500" d="m246 723 63-191-11-7-134 111q-29 26-29 50t16 39 48 8l47-10Z"/><glyph unicode="a" glyph-name="a" horiz-adv-x="549" d="M250 235h29v77q0 95-10 127t-41 33q-18 0-32-9t-15-26 6-34h25q8-21 8-50t-25-51-63-22q-86 0-86 83 0 123 209 123 119 0 164-40t46-149V94q0-52 29-52 34 0 40 103l15-1q-4-88-33-121t-95-33q-120 0-138 74-13-38-39-56t-76-18Q20-10 20 111q0 71 56 97t174 27ZM210 60l5-15 21-15 29 25 14 71v93h-7q-62 0-62-91v-16q0-52 5-67Z"/><glyph unicode="b" glyph-name="b" horiz-adv-x="588" d="m375 372-10 35-39 36-52-36-23-99V122q0-43 17-73t50-30 45 44 12 154v52q0 103-10 138ZM251 750V400q38 86 130 86 187 0 187-249 0-127-51-187T362-10q-52 0-79 16t-38 53l-7-59H10v18h55v714H10v18h241Z"/><glyph unicode="c" glyph-name="c" horiz-adv-x="483" d="M290 468q-44 0-63-48t-19-159v-52q0-99 22-142t81-43 94 40 45 91l18-2q-19-86-70-124-52-39-143-39-116 0-178 62T15 235t70 186 197 65q89 0 136-34t47-87-22-76-62-24-64 21-24 62q0 18 5 36h33q7 20 7 36 0 48-48 48Z"/><glyph unicode="d" glyph-name="d" horiz-adv-x="588" d="m213 102 11-34 40-35 51 26 22 77v218q0 43-17 73t-50 30-45-44-12-154v-52q0-105 11-139ZM350 0l-11 70q-34-80-138-80-86 0-133 62T20 237q0 249 198 249 88 0 116-49v295h-61v18h250V18h49V0H350Z"/><glyph unicode="e" glyph-name="e" horiz-adv-x="516" d="M144-10 80 56 15 241l72 182 185 63q227 0 218-228H208v-39q0-98 25-148t87-50q116 0 152 124l18-3q-19-72-68-112T273-10Q144-10 80 56Zm65 288h103v49q0 81-9 110t-38 30-42-31-14-109v-49Z"/><glyph unicode="f" glyph-name="f" horiz-adv-x="383" d="M313 756q-38 0-50-28t-12-92V476h132v-18H251V18h122V0H10v18h55v440H7v18h58v4q0 144 55 218t184 75q85 0 122-33t37-78-23-66-61-22-58 19-21 45 6 50h38q20 68-31 68Z"/><glyph unicode="g" glyph-name="g" horiz-adv-x="522" d="m411 528 28 17q6 31-24 31-43 0-43-66 0-26 7-60 76-51 76-130t-55-124-149-44q-39 0-81 8-44-28-44-42t64-14h102q227 0 227-163 0-88-68-139t-214-52q-247 0-247 107 0 58 77 80l60-27q-8-29-8-55 0-86 128-86 78 0 120 29t42 72-25 57-102 15h-97q-81 0-116 27T34 35t25 66 89 66Q32 200 32 319q0 75 54 121t162 46q65 0 111-25-6 27-6 49 0 56 30 81t67 25 59-19 23-54-18-50-43-17-42 13-18 39ZM199 341v-54q0-67 11-91t35-24 34 23 11 97v49q0 78-10 102t-33 25-36-25-12-102Z"/><glyph unicode="h" glyph-name="h" horiz-adv-x="616" d="M10 750h241V384q16 46 49 74t100 28q155 0 155-167V18h56V0H328v18h41v325q0 60-8 77t-29 18q-32 0-56-42t-25-102V18h43V0H10v18h55v714H10v18Z"/><glyph unicode="i" glyph-name="i" horiz-adv-x="317" d="m104 545-22 27-23 67 24 66 75 26 76-23 26-67-25-70-78-26ZM6 476h245V18h56V0H10v18h55v440H6v18Z"/><glyph unicode="j" glyph-name="j" horiz-adv-x="311" d="M251 476V86q0-164-56-250T10-250q-83 0-121 33t-39 77 26 67 65 24 58-21 20-48-6-50h-38q-16-27-5-46t42-19 42 34T65-56v514H0v18h251Zm-148 69-22 27-23 67 24 66 75 26 76-23 26-67-25-70-78-26Z"/><glyph unicode="k" glyph-name="k" horiz-adv-x="620" d="M337 0v18h46L270 250l-19-5V18h46V0H10v18h55v714H6v18h245V265l16 6 225 187h-94v18h197v-18h-70L406 357 579 18h36V0H337Z"/><glyph unicode="l" glyph-name="l" horiz-adv-x="316" d="M6 750h245V18h56V0H10v18h55v714H6v18Z"/><glyph unicode="m" glyph-name="m" horiz-adv-x="888" d="M10 476h241v-92q33 102 145 102t137-108q35 108 147 108 147 0 147-167V18h56V0H606v18h35v325q0 76-13 89-6 6-16 6-29 0-51-39t-22-99V18h36V0H318v18h35v325q0 76-13 89-6 6-16 6-28 0-50-42t-23-102V18h36V0H10v18h55v440H10v18Z"/><glyph unicode="n" glyph-name="n" horiz-adv-x="616" d="M12 476h241v-92q16 46 49 74t100 28q155 0 155-167V18h56V0H330v18h41v325q0 60-8 77t-29 18q-32 0-56-42t-25-102V18h43V0H12v18h55v440H12v18Z"/><glyph unicode="o" glyph-name="o" horiz-adv-x="543" d="M333 197v85q0 97-10 141t-49 45q-22 0-35-12t-20-42q-9-45-9-137v-78q0-109 6-131t14-36q11-24 43-24 39 0 51 45 9 32 9 144ZM146-10 82 54 18 237l68 184 193 65 185-59 61-182q0-255-254-255-125 0-189 64Z"/><glyph unicode="p" glyph-name="p" horiz-adv-x="588" d="m375 372-10 35-39 36-52-37-23-101V122q0-43 17-73t50-30 45 44 12 154v52q0 103-10 138ZM249 476v-79q39 89 138 89 86 0 133-62t48-188-51-186-155-60q-48 0-72 12t-39 37v-259h129v-18H10v18h55v678H12v18h237Z"/><glyph unicode="q" glyph-name="q" horiz-adv-x="588" d="m213 104 10-35 39-36 52 36 23 99v186q0 43-17 73t-49 30q-35 0-46-44t-12-154v-52q0-103 10-138Zm124-324V76q-38-86-130-86Q20-10 20 239q0 127 51 187t155 60q83 0 117-63l7 53h228v-18h-55v-678h49v-18H235v18h102Z"/><glyph unicode="r" glyph-name="r" horiz-adv-x="495" d="M344 448q-37 0-65-48t-28-114V18h71V0H10v18h55v440H10v18h241v-96q13 51 50 78t84 28 76-26 30-75-22-75-67-26-67 30-6 83h36q25 51-21 51Z"/><glyph unicode="s" glyph-name="s" horiz-adv-x="434" d="M33-10v179h12q26-87 70-122t110-35q102 0 102 65 0 28-25 42-39 22-100 34-68 18-114 48-55 36-55 114t48 124 128 47q49 0 101-23 19-8 29-8t17 7 17 26h11V335h-12q-51 130-158 130-47 0-70-16t-23-42q0-15 7-23t11-13 13-8 15-7 18-7 19-5q68-17 98-29t57-31q55-38 55-122T364 34 227-10q-62 0-120 29-12 8-19 8-22 0-43-37H33Z"/><glyph unicode="t" glyph-name="t" horiz-adv-x="394" d="M60 143v315H5v18h55v129l186 46V476h130v-18H246V121q0-47 9-69t40-22 52 30 30 82l17-2q-8-69-44-109T231-10 104 23 60 143Z"/><glyph unicode="u" glyph-name="u" horiz-adv-x="605" d="M595 0H367l-11 73q-16-40-47-61t-94-22Q60-10 60 157v301H4v18h242V133q0-60 8-79t34-19 46 31 20 86v306h-46v18h232V18h55V0Z"/><glyph unicode="v" glyph-name="v" horiz-adv-x="532" d="M0 458v18h299v-18h-63l120-332 108 332h-67v18h135v-18h-44L340 0H226L41 458H0Z"/><glyph unicode="w" glyph-name="w" horiz-adv-x="834" d="M352 458v18h258v-18h-41l90-337 89 337h-69v18h135v-18h-42L652 0H515l-87 307L334 0H200L52 458H7v18h303v-18h-60l92-340 72 234-25 106h-37Z"/><glyph unicode="x" glyph-name="x" horiz-adv-x="595" d="m367 295 118 163h-72v18h149v-18h-52L380 274 543 18h52V0H261v18h71L222 198 108 18h66V0H17v18h66l127 200L58 458H0v18h338v-18h-70l99-163Z"/><glyph unicode="y" glyph-name="y" horiz-adv-x="532" d="M5 458v18h290v-18h-54l109-332 116 332h-67v18h141v-18h-50L303-81q-33-94-74-131t-100-38-93 27-34 69 22 64 58 22q83 0 83-69 0-15-6-36h-35q-8-23-2-38t27-15q41 0 73 40t61 124l22 62h-88L46 458H5Z"/><glyph unicode="z" glyph-name="z" horiz-adv-x="520" d="M475 476v-18L238 18h13q84 0 132 44t75 143h14L456 0H36v15l241 443h-11q-101 0-140-33T55 284H42l13 192h420Z"/><glyph unicode="{" glyph-name="braceleft" horiz-adv-x="377" d="M24 324q94 2 94 117 0 41-14 111t-15 91q0 137 187 137 57 0 92-13l-5-16q-21 7-40 7-54 0-54-65 0-30 14-119t14-124q0-69-38-97t-132-34v-2q89-7 129-36t41-101q0-31-14-126T269-75q0-61 59-61 22 0 44 8l5-16q-37-16-86-16Q89-160 89-15q0 16 14 91t15 116q0 114-94 116v16Z"/><glyph unicode="|" glyph-name="bar" horiz-adv-x="319" d="M140-127v922h39v-922h-39Z"/><glyph unicode="}" glyph-name="braceright" horiz-adv-x="377" d="M353 324v-16q-94-2-94-116 0-40 14-115t15-92q0-145-202-145-49 0-86 16l5 16q22-8 47-8 56 0 56 67 0 27-14 122T80 180q0 71 40 100t130 37v2q-93 5-131 33t-39 98q0 34 14 123t14 120q0 65-54 65-19 0-40-7l-5 16q35 13 92 13 187 0 187-137 0-20-14-90t-15-112q0-115 94-117Z"/><glyph unicode="~" glyph-name="asciitilde" horiz-adv-x="530" d="M179 398q32 0 117-20t114-20 42 9 26 34l12-3q-26-99-49-130t-65-31-121 20-111 21q-50 0-72-43l-12 5q18 76 44 117t75 41Z"/><glyph glyph-name="uni00A0" horiz-adv-x="180"/><glyph unicode="¡" glyph-name="exclamdown" horiz-adv-x="377" d="M178 212v86h22v-85q0-86 35-203t35-164q0-81-76-81-34 0-57 19t-24 62T145 7t33 205Zm-27 123-20 21-20 54 18 54 56 22 58-21 20-57-21-54-56-19Z"/><glyph unicode="¢" glyph-name="cent" horiz-adv-x="515" d="M312 511q-41 0-60-44t-20-145v-47q0-89 22-128t77-39 88 36 41 84l19-4q-12-54-45-94-43-55-155-55-33 0-57 4L199-26l-28 6 23 105Q54 125 54 296q0 113 66 172t185 60h9l24 107 28-5-23-104q64-7 98-38t35-78q0-85-75-85t-75 75q0 17 5 33h31q6 18 6 36t-17 30-39 12Z"/><glyph unicode="£" glyph-name="sterling" horiz-adv-x="581" d="M36 298v28h77q-20 34-30 54t-22 55-11 68q0 99 71 153t186 55 170-43 57-110q0-40-22-66t-64-27-66 21-25 51 8 51h31q6 16 6 34 0 70-73 70-55 0-69-35t-15-127V326h176v-28H245v-30q0-51-20-83t-72-84l3-5q95 64 146 64 35 0 96-32t82-33 34 19 16 73l21-1q-4-96-41-150t-89-55T315 8L163 80q-6-45-30-68T77-11 35 2 23 33q0 31 30 52t78 23q22 43 22 86t-28 104H36Z"/><glyph unicode="¤" glyph-name="currency" horiz-adv-x="530" d="M127 236q-28 41-28 98t29 102l-77 89 19 18 90-71q46 31 105 31t97-30l90 69 17-16-75-85q28-42 28-96t-30-102l75-98-18-17-94 77q-37-29-95-29t-98 27l-89-74-18 18 72 89Zm73 238-31-38-31-97 29-95 91-37 93 38 32 96-30 96-92 37Z"/><glyph unicode="¥" glyph-name="yen" horiz-adv-x="609" d="m387 391 142 293H428v16h197v-16h-66L411 377h117v-28H408v-73h120v-28H408V19h61V0H152v19h61v229H99v28h114v73H99v28h100L43 684H-4v16h320v-16h-65l136-293Z"/><glyph unicode="¦" glyph-name="brokenbar" horiz-adv-x="319" d="M140 412v383h39V412h-39Zm0-539v437h39v-437h-39Z"/><glyph unicode="§" glyph-name="section" horiz-adv-x="699" d="m70 559 87 76 201 76 168-38 54-105q0-40-22-66t-64-27-66 21-25 51 8 51l36 8q6 16 6 36 0 50-79 50-68 0-94-58-21-50-25-144 86-18 148-41t113-61q103-75 103-219T532-51t-201-76-168 38-54 105q0 40 22 66t64 27 66-21 25-51-8-51l-36-8q-6-16-6-36 0-50 79-50 66 0 90 51t28 151q-86 18-148 41t-113 61Q70 270 70 414Zm364-404q0 125-40 198T255 465v-36q0-125 40-198t139-113v37Z"/><glyph unicode="¨" glyph-name="dieresis" horiz-adv-x="500" d="M291 587v31l19 52 54 21 55-18 21-54-19-55-57-21-55 22Zm-193 0v31l19 52 54 21 55-18 21-54-19-55-57-21-55 22Z"/><glyph unicode="©" glyph-name="copyright" horiz-adv-x="781" d="m544 636 88-85 89-234-91-238-245-90-239 87-86 234 95 236 242 90ZM531 12l82 81 83 223-84 220-219 78-221-82-86-223 80-219 223-78Zm-30 424-28 30-61 30-46-35-14-140 13-143 50-38 65 31 44 76h12l-4-119h-10q-2 2-3 6t-3 6q-4 3-8 3l-35-11q-35-10-66-10-93 0-146 48t-53 145 55 148 148 51q27 0 59-10t35-10 5 1 3 3 3 6 3 5h9l3-119h-14q-16 46-44 76Z"/><glyph unicode="ª" glyph-name="ordfeminine" horiz-adv-x="454" d="M205 568h22v55q0 67-8 88t-31 22q-36 0-36-25 0-9 4-20h20q6-18 6-37t-19-35-49-16q-67 0-67 59 0 88 162 88 92 0 127-29t35-106V472q0-37 22-37 12 0 19 14t10 56l13-2q-2-62-24-85t-74-24q-92 0-107 53-9-27-29-40t-59-13q-115 0-115 86 0 51 44 69t134 19Zm-23-142h12l22 18 11 47v62h-5q-25 0-36-14t-12-47v-11q0-34 4-44Z"/><glyph unicode="«" glyph-name="guillemotleft" horiz-adv-x="494" d="m239 263 177 138 9-7-86-163 85-175-9-7-159 130q-30 26-30 44t13 40Zm-176 0 177 138 9-7-86-163 85-175-9-7L80 179q-30 26-30 44t13 40Z"/><glyph unicode="¬" glyph-name="logicalnot" horiz-adv-x="530" d="M457 167v134H38v33h454V167h-35Z"/><glyph unicode="­" glyph-name="uni00AD" horiz-adv-x="340" d="M47 278v30h252v-30H47Z"/><glyph unicode="®" glyph-name="registered" horiz-adv-x="459" d="m317 662 51-49 51-133-53-136-140-52-137 50-49 134 54 134 139 52Zm-12-348 44 44 45 120-46 119-118 44-118-45-46-121 43-118 119-43Zm-79 168h-3v-87h8v-8h-99v8h22v176h-22v8h104q39 0 57-9t19-36q0-42-64-47v-1q38-2 52-12t14-35v-23q0-16 9-16 14 0 18 34l8-1q-3-26-14-37t-40-12q-49 0-49 37v29q0 19-4 25t-16 7Zm-3 89v-79h3q16 0 21 9t5 31-4 30-20 9h-5Z"/><glyph unicode="¯" glyph-name="overscore" horiz-adv-x="500" d="M114 552v95h272v-95H114Z"/><glyph unicode="°" glyph-name="degree" horiz-adv-x="329" d="M76 668v-41l23-66 65-26 66 26 24 67-24 66-66 25-64-25Zm27-162-31 33-32 86 33 87 93 35 91-32 32-85-33-89-93-35Z"/><glyph unicode="±" glyph-name="plusminus" horiz-adv-x="530" d="M492 301H280V112h-38v189H38v33h204v176h38V334h212v-33Zm0-301H38v33h454V0Z"/><glyph unicode="²" glyph-name="twosuperior" horiz-adv-x="417" d="m50 766 38 28 110 29 114-27 43-82-42-93-168-105-38-20h160q43 0 60 18t26 57h15l-7-177H57v84l64 51q63 50 86 91t23 94-9 71-37 20-41-18-3-44h20q5-15 5-33t-15-32-42-14-42 17-16 43q0 42 38 70Z"/><glyph unicode="³" glyph-name="threesuperior" horiz-adv-x="422" d="M203 819q146 0 146-96 0-39-33-64t-95-36v-1q77-5 113-34t37-82-48-86-134-34q-140 0-140 88 0 25 16 43t42 18 41-13 16-30-6-33h-15q-6-12-6-25t14-22 36-10q36 0 48 26t12 76-11 71-36 33q-17-3-54-8l-2 18q54 5 69 24t16 71-8 71-32 20q-43 0-43-36 0-11 4-22h16q6-16 6-32t-16-30-43-14-40 16-15 42q0 40 38 65t107 26Z"/><glyph unicode="´" glyph-name="acute" horiz-adv-x="500" d="m163 532 63 191 47 10q31 7 47-7t17-39-29-51L174 525l-11 7Z"/><glyph unicode="µ" glyph-name="mu" horiz-adv-x="673" d="M268 501V158q0-95 16-111 9-8 24-8 30 0 54 39t24 103v311l177 9V85q0-43 29-43 34 0 40 103l15-1q-4-88-33-121t-90-33-95 27-43 72q-16-44-49-72t-72-28-68 16-53 69l-4-3 58-142q4-10 12-29t10-26 7-18q7-21 7-38t-20-32-43-9l-91 19v696l188 9Z"/><glyph unicode="¶" glyph-name="paragraph" horiz-adv-x="628" d="M377-82v257h-19q-137 0-210 68T75 433t76 194 220 73h227v-19h-65V-13q0-237-248-237-92 0-130 38t-38 85 26 72 65 26 58-21 20-48-6-50h-29q-21-37-10-60t51-23 62 33 23 116Zm30-11q0-91-38-125Q504-188 504-4v685h-97V-93Z"/><glyph unicode="·" glyph-name="middot" horiz-adv-x="300" d="m113 235-21 25-22 62 22 62 64 25 65-21 24-63-22-66-66-24Z"/><glyph unicode="¸" glyph-name="cedilla" horiz-adv-x="500" d="M244 13h26l-40-68q21 3 33 3 105 0 105-89 0-41-33-72t-103-32q-46 0-74 18t-29 44 12 37 31 12q34 0 46-38l-26-20q0-14 8-25t26-12 27 17 9 54-2 52q-3 36-30 36-14 0-30-4l-3 9 47 78Z"/><glyph unicode="¹" glyph-name="onesuperior" horiz-adv-x="425" d="m160 791-72-8-2 19 144 19h71V413h68v-19H91v19h69v378Z"/><glyph unicode="º" glyph-name="ordmasculine" horiz-adv-x="489" d="M295 541v60q0 66-9 97t-40 31-42-31-10-100v-56q0-70 9-100t42-31 41 27 9 103ZM146 394l-50 45-50 131 52 131 151 46q194 0 194-172 0-181-199-181-98 0-148 45Z"/><glyph unicode="»" glyph-name="guillemotright" horiz-adv-x="494" d="M431 187 254 49l-8 7 85 163-84 174 8 8 159-130q30-26 30-44t-13-40Zm-176 0L78 49l-8 7 85 163-84 174 8 8 159-130q30-26 30-44t-13-40Z"/><glyph unicode="¼" glyph-name="onequarter" horiz-adv-x="820" d="m239 0 321 700h34L274 0h-35ZM118 671l-72-8-2 19 144 19h71V293h68v-19H49v19h69v378ZM523 0v19h58v79H413v21l175 301h127V122h62v52h19V56h-19v42h-62V19h43V0H523Zm-81 122h139v238L442 122Z"/><glyph unicode="½" glyph-name="onehalf" horiz-adv-x="820" d="m228 0 321 700h34L263 0h-35ZM107 671l-72-8-2 19 144 19h71V293h68v-19H38v19h69v378Zm362-299 38 28 110 29 114-27 43-82-42-93-168-105-38-20h160q43 0 60 18t26 57h15L780 0H476v84l64 51q63 50 86 91t23 94-9 71-37 20-41-18-3-44h20q5-15 5-33t-15-32-42-14-42 17-16 43q0 42 38 70Z"/><glyph unicode="¾" glyph-name="threequarters" horiz-adv-x="820" d="m254 0 321 700h34L289 0h-35Zm284 0v19h58v79H428v21l175 301h127V122h62v52h19V56h-19v42h-62V19h43V0H538Zm-81 122h139v238L457 122ZM182 699q146 0 146-96 0-39-33-64t-95-36v-1q77-5 113-34t37-82-48-86-134-34q-140 0-140 88 0 25 16 43t42 18 41-13 16-30-6-33h-15q-6-12-6-25t14-22 36-10q36 0 48 26t12 76-11 71-36 33q-17-3-54-8l-2 18q54 5 69 24t16 71-8 71-32 20q-43 0-43-36 0-11 4-22h16q6-16 6-32t-16-30-43-14-40 16-15 42q0 40 38 65t107 26Z"/><glyph unicode="¿" glyph-name="questiondown" horiz-adv-x="580" d="m526-147-59-44-168-44-169 42L70-69q0 54 26 95t74 85l151 134v58h25V93q0-17-11-28L273 2q-29-29-40-54t-11-67q0-97 90-97 43 0 63 23t20 44-6 37h-32q-8 21-8 50t25 51 66 22 63-26 23-67q0-65-59-109ZM373 486l18-21 19-54-20-54-55-22-56 18-21 55 20 57 57 21Z"/><glyph unicode="À" glyph-name="Agrave" horiz-adv-x="694" d="m432 19-73 216H161L84 19h75V0H6v19h47l255 687h82L642 19h46V0H361v19h71ZM264 519l-94-262h181l-87 262Zm65 386 115-162-8-10-159 65q-44 18-44 58 0 17 11 30t37 15l48 4Z"/><glyph unicode="Á" glyph-name="Aacute" horiz-adv-x="694" d="m432 19-73 216H161L84 19h75V0H6v19h47l255 687h82L642 19h46V0H361v19h71ZM264 519l-94-262h181l-87 262Zm-3 224 115 162 48-4q25-2 36-15t12-30q0-40-44-58l-159-65-8 10Z"/><glyph unicode="Â" glyph-name="Acircumflex" horiz-adv-x="694" d="m432 19-73 216H161L84 19h75V0H6v19h47l255 687h82L642 19h46V0H361v19h71ZM264 519l-94-262h181l-87 262Zm-67 224 106 148q28 16 55 16 47 0 70-40l74-124-9-10-142 68-146-68-8 10Z"/><glyph unicode="Ã" glyph-name="Atilde" horiz-adv-x="694" d="m432 19-73 216H161L84 19h75V0H6v19h47l255 687h82L642 19h46V0H361v19h71ZM264 519l-94-262h181l-87 262Zm238 293-22-30-56-30-86 20-72 20q-38 0-55-41l-12 4q23 72 37 97t31 33 41 8 75-20 68-20q44 0 58 42l13-4q-20-79-42-109Z"/><glyph unicode="Ä" glyph-name="Adieresis" horiz-adv-x="694" d="m432 19-73 216H161L84 19h75V0H6v19h47l255 687h82L642 19h46V0H361v19h71ZM264 519l-94-262h181l-87 262Zm107 271v31l19 52 54 21 55-18 21-54-19-55-57-21-55 22Zm-193 0v31l19 52 54 21 55-18 21-54-19-55-57-21-55 22Z"/><glyph unicode="Å" glyph-name="Aring" horiz-adv-x="694" d="m432 19-73 216H161L84 19h75V0H6v19h47l255 687h82L642 19h46V0H361v19h71ZM264 519l-94-262h181l-87 262Zm13 304q0-73 72-73 35 0 53 20t18 52-18 51-54 21-54-20-17-51Zm20-97-25 26-25 69 26 70 76 27 74-25 26-69-26-71-76-27Z"/><glyph unicode="Æ" glyph-name="AE" horiz-adv-x="1033" d="M376 678v22h574l10-198h-18q-42 99-86 137t-128 39h-44V362h34q47 0 79 35t45 96h15V197h-17q-18 75-48 107t-84 32h-24V22h38q92 0 156 55t89 141h20L979 0H430v22h59v317H279L85 19h75V0H6v19h47l399 659h-76Zm107 0L291 363h198v315h-6Z"/><glyph unicode="Ç" glyph-name="Ccedilla" horiz-adv-x="690" d="M400 691q-155 0-155-299v-79q0-142 41-222t121-81q110 0 202 214h18L620 1h-11q-6 11-11 15t-15 5-67-14T405-9l-29-50q21 3 33 3 105 0 105-89 0-41-33-72t-103-32q-46 0-74 18t-29 44 12 37 31 12q34 0 46-38l-26-20q0-14 8-25t26-12 27 17 9 54-2 52q-3 36-30 36-14 0-30-4l-3 9 35 59Q217-8 129 79T41 343t93 272 252 96q61 0 119-15t69-16 15 4 11 16h11l8-217h-18q-45 101-92 154t-109 54Z"/><glyph unicode="È" glyph-name="Egrave" horiz-adv-x="624" d="M21 700h520l10-198h-18q-42 101-88 138t-135 38h-35V369h34q47 0 79 35t45 96h15V204h-17q-18 75-48 107t-84 32h-24V22h38q92 0 156 55t89 141h20L570 0H21v22h59v656H21v22Zm254 205 115-162-8-10-159 65q-44 18-44 58 0 17 11 30t37 15l48 4Z"/><glyph unicode="É" glyph-name="Eacute" horiz-adv-x="624" d="M21 700h520l10-198h-18q-42 101-88 138t-135 38h-35V369h34q47 0 79 35t45 96h15V204h-17q-18 75-48 107t-84 32h-24V22h38q92 0 156 55t89 141h20L570 0H21v22h59v656H21v22Zm186 43 115 162 48-4q25-2 36-15t12-30q0-40-44-58l-159-65-8 10Z"/><glyph unicode="Ê" glyph-name="Ecircumflex" horiz-adv-x="624" d="M21 700h520l10-198h-18q-42 101-88 138t-135 38h-35V369h34q47 0 79 35t45 96h15V204h-17q-18 75-48 107t-84 32h-24V22h38q92 0 156 55t89 141h20L570 0H21v22h59v656H21v22Zm122 43 106 148q28 16 55 16 47 0 70-40l74-124-9-10-142 68-146-68-8 10Z"/><glyph unicode="Ë" glyph-name="Edieresis" horiz-adv-x="624" d="M21 700h520l10-198h-18q-42 101-88 138t-135 38h-35V369h34q47 0 79 35t45 96h15V204h-17q-18 75-48 107t-84 32h-24V22h38q92 0 156 55t89 141h20L570 0H21v22h59v656H21v22Zm296 90v31l19 52 54 21 55-18 21-54-19-55-57-21-55 22Zm-193 0v31l19 52 54 21 55-18 21-54-19-55-57-21-55 22Z"/><glyph unicode="Ì" glyph-name="Igrave" horiz-adv-x="355" d="M25 700h305v-19h-55V19h55V0H25v19h55v662H25v19Zm132 205 115-162-8-10-159 65q-44 18-44 58 0 17 11 30t37 15l48 4Z"/><glyph unicode="Í" glyph-name="Iacute" horiz-adv-x="355" d="M25 700h305v-19h-55V19h55V0H25v19h55v662H25v19Zm64 43 115 162 48-4q25-2 36-15t12-30q0-40-44-58L97 733l-8 10Z"/><glyph unicode="Î" glyph-name="Icircumflex" horiz-adv-x="355" d="M25 700h305v-19h-55V19h55V0H25v19h55v662H25v19Zm0 43 106 148q28 16 55 16 47 0 70-40l74-124-9-10-142 68-146-68-8 10Z"/><glyph unicode="Ï" glyph-name="Idieresis" horiz-adv-x="355" d="M25 700h305v-19h-55V19h55V0H25v19h55v662H25v19Zm174 90v31l19 52 54 21 55-18 21-54-19-55-57-21-55 22ZM6 790v31l19 52 54 21 55-18 21-54-19-55-57-21-55 22Z"/><glyph unicode="Ð" glyph-name="Eth" horiz-adv-x="763" d="M19 359v26h76v296H29v19h309q192 0 288-78t96-260q0-206-116-287Q499 0 312 0H29v19h66v340H19ZM290 19h38q101 0 144 71t44 240v58q0 225-86 271-41 22-116 22h-24V385h129v-26H290V19Z"/><glyph unicode="Ñ" glyph-name="Ntilde" horiz-adv-x="670" d="M590 681V0H450L107 647V19h55V0H25v19h55v662H25v19h276l262-502v483h-55v19h137v-19h-55Zm-95 131-22-30-56-30-86 20-72 20q-38 0-55-41l-12 4q23 72 37 97t31 33 41 8 75-20 68-20q44 0 58 42l13-4q-20-79-42-109Z"/><glyph unicode="Ò" glyph-name="Ograve" horiz-adv-x="748" d="M501 309v74q0 183-18 231-20 55-57 68-21 8-51 8t-51-8-36-28-22-42-14-62q-6-58-6-171v-72q0-122 9-173t24-74q31-49 96-49 79 0 102 66t24 232ZM206-10l-82 90-83 262 88 270 251 99 244-93 83-266-83-267-251-95Zm150 915 115-162-8-10-159 65q-44 18-44 58 0 17 11 30t37 15l48 4Z"/><glyph unicode="Ó" glyph-name="Oacute" horiz-adv-x="748" d="M501 309v74q0 183-18 231-20 55-57 68-21 8-51 8t-51-8-36-28-22-42-14-62q-6-58-6-171v-72q0-122 9-173t24-74q31-49 96-49 79 0 102 66t24 232ZM206-10l-82 90-83 262 88 270 251 99 244-93 83-266-83-267-251-95Zm82 753 115 162 48-4q25-2 36-15t12-30q0-40-44-58l-159-65-8 10Z"/><glyph unicode="Ô" glyph-name="Ocircumflex" horiz-adv-x="748" d="M501 309v74q0 183-18 231-20 55-57 68-21 8-51 8t-51-8-36-28-22-42-14-62q-6-58-6-171v-72q0-122 9-173t24-74q31-49 96-49 79 0 102 66t24 232ZM206-10l-82 90-83 262 88 270 251 99 244-93 83-266-83-267-251-95Zm18 753 106 148q28 16 55 16 47 0 70-40l74-124-9-10-142 68-146-68-8 10Z"/><glyph unicode="Õ" glyph-name="Otilde" horiz-adv-x="748" d="M501 309v74q0 183-18 231-20 55-57 68-21 8-51 8t-51-8-36-28-22-42-14-62q-6-58-6-171v-72q0-122 9-173t24-74q31-49 96-49 79 0 102 66t24 232ZM206-10l-82 90-83 262 88 270 251 99 244-93 83-266-83-267-251-95Zm323 822-22-30-56-30-86 20-72 20q-38 0-55-41l-12 4q23 72 37 97t31 33 41 8 75-20 68-20q44 0 58 42l13-4q-20-79-42-109Z"/><glyph unicode="Ö" glyph-name="Odieresis" horiz-adv-x="748" d="M501 309v74q0 183-18 231-20 55-57 68-21 8-51 8t-51-8-36-28-22-42-14-62q-6-58-6-171v-72q0-122 9-173t24-74q31-49 96-49 79 0 102 66t24 232ZM206-10l-82 90-83 262 88 270 251 99 244-93 83-266-83-267-251-95Zm192 800v31l19 52 54 21 55-18 21-54-19-55-57-21-55 22Zm-193 0v31l19 52 54 21 55-18 21-54-19-55-57-21-55 22Z"/><glyph unicode="×" glyph-name="multiply" horiz-adv-x="530" d="M437 464 287 315l148-148-24-23-147 147-148-148-24 24 148 148L93 463l23 24 148-148 149 149 24-24Z"/><glyph unicode="Ø" glyph-name="Oslash" horiz-adv-x="748" d="M41 339q0 175 88 273t254 99q59 0 105-13l27 71 25-10-26-69q193-68 193-338 0-172-83-267T371-10q-63 0-117 14l-29-78-25 10 29 76Q41 80 41 339Zm460-30v74q0 169-17 227L277 64q29-53 103-53t97 66 24 232Zm-255-2q0-149 16-206l206 544q-27 45-93 45-62 0-87-36-28-41-34-92-8-70-8-183v-72Z"/><glyph unicode="Ù" glyph-name="Ugrave" horiz-adv-x="683" d="m271 121 31-49 114-49 126 51 44 155v452h-65v19h146v-19h-55V236q0-124-55-185T363-10 150 48 76 247v434H21v19h315v-19h-65V213q0-92 31-141Zm79 784 115-162-8-10-159 65q-44 18-44 58 0 17 11 30t37 15l48 4Z"/><glyph unicode="Ú" glyph-name="Uacute" horiz-adv-x="683" d="m271 121 31-49 114-49 126 51 44 155v452h-65v19h146v-19h-55V236q0-124-55-185T363-10 150 48 76 247v434H21v19h315v-19h-65V213q0-92 31-141Zm11 622 115 162 48-4q25-2 36-15t12-30q0-40-44-58l-159-65-8 10Z"/><glyph unicode="Û" glyph-name="Ucircumflex" horiz-adv-x="683" d="m271 121 31-49 114-49 126 51 44 155v452h-65v19h146v-19h-55V236q0-124-55-185T363-10 150 48 76 247v434H21v19h315v-19h-65V213q0-92 31-141Zm-53 622 106 148q28 16 55 16 47 0 70-40l74-124-9-10-142 68-146-68-8 10Z"/><glyph unicode="Ü" glyph-name="Udieresis" horiz-adv-x="683" d="m271 121 31-49 114-49 126 51 44 155v452h-65v19h146v-19h-55V236q0-124-55-185T363-10 150 48 76 247v434H21v19h315v-19h-65V213q0-92 31-141Zm121 669v31l19 52 54 21 55-18 21-54-19-55-57-21-55 22Zm-193 0v31l19 52 54 21 55-18 21-54-19-55-57-21-55 22Z"/><glyph unicode="Ý" glyph-name="Yacute" horiz-adv-x="641" d="m397 371 142 313H438v16h197v-16h-66L418 350V19h61V0H162v19h61v312L53 684H6v16h320v-16h-65l136-313ZM261 743l115 162 48-4q25-2 36-15t12-30q0-40-44-58l-159-65-8 10Z"/><glyph unicode="Þ" glyph-name="Thorn" horiz-adv-x="634" d="M275 681V566h34q151 0 225-43t74-156q0-124-90-171-84-43-235-43h-8V19h125V0H15v19h65v662H15v19h385v-19H275Zm0-134V172h21q60 0 83 41t23 133v48q0 85-21 119t-79 34h-27Z"/><glyph unicode="ß" glyph-name="germandbls" horiz-adv-x="674" d="M307-10v179h12Q369 12 480 12q92 0 92 66 0 31-26 51t-63 33-75 31-64 55-26 85 18 83 45 62 53 51q63 61 63 114t-34 81-99 27-89-39-24-108V0H-11v18h76v451q0 165 76 234t212 70q94 0 133-36t40-88q0-36-18-69t-40-54-40-46-19-49 18-40 47-27 60-26 60-34 46-56 19-87q0-76-50-123T495-10 381 19q-21 12-31 12-22 0-31-41h-12Z"/><glyph unicode="à" glyph-name="agrave" horiz-adv-x="549" d="M250 235h29v77q0 95-10 127t-41 33q-18 0-32-9t-15-26 6-34h25q8-21 8-50t-25-51-63-22q-86 0-86 83 0 123 209 123 119 0 164-40t46-149V94q0-52 29-52 34 0 40 103l15-1q-4-88-33-121t-95-33q-120 0-138 74-13-38-39-56t-76-18Q20-10 20 111q0 71 56 97t174 27ZM210 60l5-15 21-15 29 25 14 71v93h-7q-62 0-62-91v-16q0-52 5-67Zm53 678 63-191-11-7-134 111q-29 26-29 50t16 39 48 8l47-10Z"/><glyph unicode="á" glyph-name="aacute" horiz-adv-x="549" d="M250 235h29v77q0 95-10 127t-41 33q-18 0-32-9t-15-26 6-34h25q8-21 8-50t-25-51-63-22q-86 0-86 83 0 123 209 123 119 0 164-40t46-149V94q0-52 29-52 34 0 40 103l15-1q-4-88-33-121t-95-33q-120 0-138 74-13-38-39-56t-76-18Q20-10 20 111q0 71 56 97t174 27ZM210 60l5-15 21-15 29 25 14 71v93h-7q-62 0-62-91v-16q0-52 5-67Zm-22 487 63 191 47 10q31 7 47-7t17-39-29-51L199 540l-11 7Z"/><glyph unicode="â" glyph-name="acircumflex" horiz-adv-x="549" d="M250 235h29v77q0 95-10 127t-41 33q-18 0-32-9t-15-26 6-34h25q8-21 8-50t-25-51-63-22q-86 0-86 83 0 123 209 123 119 0 164-40t46-149V94q0-52 29-52 34 0 40 103l15-1q-4-88-33-121t-95-33q-120 0-138 74-13-38-39-56t-76-18Q20-10 20 111q0 71 56 97t174 27ZM210 60l5-15 21-15 29 25 14 71v93h-7q-62 0-62-91v-16q0-52 5-67Zm-89 472 89 190q30 16 59 16 45 0 64-48l61-159-11-7-125 104-125-105-12 9Z"/><glyph unicode="ã" glyph-name="atilde" horiz-adv-x="549" d="M250 235h29v77q0 95-10 127t-41 33q-18 0-32-9t-15-26 6-34h25q8-21 8-50t-25-51-63-22q-86 0-86 83 0 123 209 123 119 0 164-40t46-149V94q0-52 29-52 34 0 40 103l15-1q-4-88-33-121t-95-33q-120 0-138 74-13-38-39-56t-76-18Q20-10 20 111q0 71 56 97t174 27ZM210 60l5-15 21-15 29 25 14 71v93h-7q-62 0-62-91v-16q0-52 5-67Zm223 650q-38-147-107-147-34 0-87 20t-72 20q-38 0-55-41l-12 4q23 75 48 110t69 36q27 0 77-20t68-20q44 0 58 42l13-4Z"/><glyph unicode="ä" glyph-name="adieresis" horiz-adv-x="549" d="M250 235h29v77q0 95-10 127t-41 33q-18 0-32-9t-15-26 6-34h25q8-21 8-50t-25-51-63-22q-86 0-86 83 0 123 209 123 119 0 164-40t46-149V94q0-52 29-52 34 0 40 103l15-1q-4-88-33-121t-95-33q-120 0-138 74-13-38-39-56t-76-18Q20-10 20 111q0 71 56 97t174 27ZM210 60l5-15 21-15 29 25 14 71v93h-7q-62 0-62-91v-16q0-52 5-67Zm325 542v31l19 52 54 21 55-18 21-54-19-55-57-21-55 22Zm-193 0v31l19 52 54 21 55-18 21-54-19-55-57-21-55 22Z"/><glyph unicode="å" glyph-name="aring" horiz-adv-x="549" d="M250 235h29v77q0 95-10 127t-41 33q-18 0-32-9t-15-26 6-34h25q8-21 8-50t-25-51-63-22q-86 0-86 83 0 123 209 123 119 0 164-40t46-149V94q0-52 29-52 34 0 40 103l15-1q-4-88-33-121t-95-33q-120 0-138 74-13-38-39-56t-76-18Q20-10 20 111q0 71 56 97t174 27ZM210 60l5-15 21-15 29 25 14 71v93h-7q-62 0-62-91v-16q0-52 5-67Zm-24 572q0-73 72-73 35 0 53 20t18 52-18 51-54 21-54-20-17-51Zm20-97-25 26-25 69 26 70 76 27 74-25 26-69-26-71-76-27Z"/><glyph unicode="æ" glyph-name="ae" horiz-adv-x="772" d="M279 235v77q0 95-10 127t-41 33q-18 0-32-9t-15-26 6-34h25q8-21 8-50t-25-51-63-22q-86 0-86 83 0 61 52 92t139 31q109 0 152-63 47 63 152 63 214 0 205-228H464v-39q0-98 25-148t87-50q116 0 152 124l18-3q-19-72-68-112T529-10q-139 0-201 80-34-80-155-80Q20-10 20 111q0 71 56 97t174 27h29Zm186 43h103v49q0 81-9 110t-38 30-42-31-14-109v-49ZM210 62l9-16 28-16 38 14 29 45q-32 52-35 129v1h-7q-62 0-62-91v-16q0-50 9-66Z"/><glyph unicode="ç" glyph-name="ccedilla" horiz-adv-x="483" d="M290 468q-44 0-63-48t-19-159v-52q0-99 22-142t81-43 94 40 45 91l18-2q-19-82-62-119Q361-3 281-9l-27-46q21 3 33 3 105 0 105-89 0-41-33-72t-103-32q-46 0-74 18t-29 44 12 37 31 12q34 0 46-38l-26-20q0-14 8-25t26-12 27 17 9 54-2 52q-3 36-30 36-14 0-30-4l-3 9 33 55Q138-9 77 53T15 235t70 186 197 65q89 0 136-34t47-87-22-76-62-24-64 21-24 62q0 18 5 36h33q7 20 7 36 0 48-48 48Z"/><glyph unicode="è" glyph-name="egrave" horiz-adv-x="516" d="M144-10 80 56 15 241l72 182 185 63q227 0 218-228H208v-39q0-98 25-148t87-50q116 0 152 124l18-3q-19-72-68-112T273-10Q144-10 80 56Zm65 288h103v49q0 81-9 110t-38 30-42-31-14-109v-49Zm64 460 63-191-11-7-134 111q-29 26-29 50t16 39 48 8l47-10Z"/><glyph unicode="é" glyph-name="eacute" horiz-adv-x="516" d="M144-10 80 56 15 241l72 182 185 63q227 0 218-228H208v-39q0-98 25-148t87-50q116 0 152 124l18-3q-19-72-68-112T273-10Q144-10 80 56Zm168 288v49q0 81-9 110t-38 30-42-31-14-109v-49h103ZM198 547l63 191 47 10q31 7 47-7t17-39-29-51L209 540l-11 7Z"/><glyph unicode="ê" glyph-name="ecircumflex" horiz-adv-x="516" d="M144-10 80 56 15 241l72 182 185 63q227 0 218-228H208v-39q0-98 25-148t87-50q116 0 152 124l18-3q-19-72-68-112T273-10Q144-10 80 56Zm65 288h103v49q0 81-9 110t-38 30-42-31-14-109v-49Zm-78 254 89 190q30 16 59 16 45 0 64-48l61-159-11-7-125 104-125-105-12 9Z"/><glyph unicode="ë" glyph-name="edieresis" horiz-adv-x="516" d="M144-10 80 56 15 241l72 182 185 63q227 0 218-228H208v-39q0-98 25-148t87-50q116 0 152 124l18-3q-19-72-68-112T273-10Q144-10 80 56Zm65 288h103v49q0 81-9 110t-38 30-42-31-14-109v-49Zm80 324v31l19 52 54 21 55-18 21-54-19-55-57-21-55 22Zm-193 0v31l19 52 54 21 55-18 21-54-19-55-57-21-55 22Z"/><glyph unicode="ì" glyph-name="igrave" horiz-adv-x="317" d="m147 738 63-191-11-7L65 651q-29 26-29 50t16 39 48 8l47-10ZM6 476h245V18h56V0H10v18h55v440H6v18Z"/><glyph unicode="í" glyph-name="iacute" horiz-adv-x="317" d="m85 547 63 191 47 10q31 7 47-7t17-39-29-51L96 540l-11 7ZM6 476h245V18h56V0H10v18h55v440H6v18Z"/><glyph unicode="î" glyph-name="icircumflex" horiz-adv-x="317" d="M6 476h245V18h56V0H10v18h55v440H6v18Zm-2 56 89 190q30 16 59 16 45 0 64-48l61-159-11-7-125 104L16 523l-12 9Z"/><glyph unicode="ï" glyph-name="idieresis" horiz-adv-x="317" d="M169 602v31l19 52 54 21 55-18 21-54-19-55-57-21-55 22Zm-193 0v31l19 52 54 21 55-18 21-54-19-55-57-21-55 22ZM6 476h245V18h56V0H10v18h55v440H6v18Z"/><glyph unicode="ð" glyph-name="eth" horiz-adv-x="560" d="m195 575-8 25 106 69q-66 81-204 80l2 16q170 13 276-47l106 70 8-25-91-60q150-105 150-371 0-190-74-272-28-31-76-50T278-10Q150-10 85 53T20 237t61 189 168 68q83 0 111-63-8 148-53 218l-112-74Zm149-378v85q0 94-12 140t-52 46-54-46-13-145v-78q0-100 12-145t54-46 53 41 12 148Z"/><glyph unicode="ñ" glyph-name="ntilde" horiz-adv-x="616" d="M10 476h241v-92q16 46 49 74t100 28q155 0 155-167V18h56V0H328v18h41v325q0 60-8 77t-29 18q-32 0-56-42t-25-102V18h43V0H10v18h55v440H10v18Zm471 234q-38-147-107-147-34 0-87 20t-72 20q-38 0-55-41l-12 4q23 75 48 110t69 36q27 0 77-20t68-20q44 0 58 42l13-4Z"/><glyph unicode="ò" glyph-name="ograve" horiz-adv-x="543" d="M333 197v85q0 97-10 141t-49 45q-22 0-35-12t-20-42q-9-45-9-137v-78q0-109 6-131t14-36q11-24 43-24 39 0 51 45 9 32 9 144ZM146-10 82 54 18 237l68 184 193 65 185-59 61-182q0-255-254-255-125 0-189 64Zm134 748 63-191-11-7-134 111q-29 26-29 50t16 39 48 8l47-10Z"/><glyph unicode="ó" glyph-name="oacute" horiz-adv-x="543" d="M333 197v85q0 97-10 141t-49 45q-22 0-35-12t-20-42q-9-45-9-137v-78q0-109 6-131t14-36q11-24 43-24 39 0 51 45 9 32 9 144ZM146-10 82 54 18 237l68 184 193 65 185-59 61-182q0-255-254-255-125 0-189 64Zm59 557 63 191 47 10q31 7 47-7t17-39-29-51L216 540l-11 7Z"/><glyph unicode="ô" glyph-name="ocircumflex" horiz-adv-x="543" d="M333 197v85q0 97-10 141t-49 45q-22 0-35-12t-20-42q-9-45-9-137v-78q0-109 6-131t14-36q11-24 43-24 39 0 51 45 9 32 9 144ZM146-10 82 54 18 237l68 184 193 65 185-59 61-182q0-255-254-255-125 0-189 64Zm-8 542 89 190q30 16 59 16 45 0 64-48l61-159-11-7-125 104-125-105-12 9Z"/><glyph unicode="õ" glyph-name="otilde" horiz-adv-x="543" d="M333 197v85q0 97-10 141t-49 45q-22 0-35-12t-20-42q-9-45-9-137v-78q0-109 6-131t14-36q11-24 43-24 39 0 51 45 9 32 9 144ZM146-10 82 54 18 237l68 184 193 65 185-59 61-182q0-255-254-255-125 0-189 64Zm304 720q-38-147-108-147-33 0-86 20t-72 20q-38 0-55-41l-12 4q23 75 48 110t69 36q27 0 77-20t68-20q44 0 58 42l13-4Z"/><glyph unicode="ö" glyph-name="odieresis" horiz-adv-x="543" d="M333 197v85q0 97-10 141t-49 45q-22 0-35-12t-20-42q-9-45-9-137v-78q0-109 6-131t14-36q11-24 43-24 39 0 51 45 9 32 9 144ZM146-10 82 54 18 237l68 184 193 65 185-59 61-182q0-255-254-255-125 0-189 64Zm150 612v31l19 52 54 21 55-18 21-54-19-55-57-21-55 22Zm-193 0v31l19 52 54 21 55-18 21-54-19-55-57-21-55 22Z"/><glyph unicode="÷" glyph-name="divide" horiz-adv-x="530" d="M213 422v24l14 39 41 16 41-13 16-40-14-42-43-16-41 16Zm0-254v24l14 39 41 16 41-13 16-40-14-42-43-16-41 16Zm279 133H38v33h454v-33Z"/><glyph unicode="ø" glyph-name="oslash" horiz-adv-x="546" d="M15 236q0 123 67 186t197 64q32 0 65-5l26 69 22-8-25-65q164-38 164-232 0-255-258-255-48 0-87 9l-28-74-22 8 27 72Q15 53 15 236Zm324-39v85q0 70-5 107L215 75q12-67 60-67 40 0 52 41t12 148Zm-131 2q0-51 1-72l115 302q-16 39-48 39-42 0-55-46t-13-145v-78Z"/><glyph unicode="ù" glyph-name="ugrave" horiz-adv-x="605" d="M595 0H367l-11 73q-16-40-47-61t-94-22Q60-10 60 157v301H4v18h242V133q0-60 8-79t34-19 46 31 20 86v306h-46v18h232V18h55V0ZM289 738l63-191-11-7-134 111q-29 26-29 50t16 39 48 8l47-10Z"/><glyph unicode="ú" glyph-name="uacute" horiz-adv-x="605" d="M595 0H367l-11 73q-16-40-47-61t-94-22Q60-10 60 157v301H4v18h242V133q0-60 8-79t34-19 46 31 20 86v306h-46v18h232V18h55V0ZM223 547l63 191 47 10q31 7 47-7t17-39-29-51L234 540l-11 7Z"/><glyph unicode="û" glyph-name="ucircumflex" horiz-adv-x="605" d="M595 0H367l-11 73q-16-40-47-61t-94-22Q60-10 60 157v301H4v18h242V133q0-60 8-79t34-19 46 31 20 86v306h-46v18h232V18h55V0ZM156 532l89 190q30 16 59 16 45 0 64-48l61-159-11-7-125 104-125-105-12 9Z"/><glyph unicode="ü" glyph-name="udieresis" horiz-adv-x="605" d="M595 0H367l-11 73q-16-40-47-61t-94-22Q60-10 60 157v301H4v18h242V133q0-60 8-79t34-19 46 31 20 86v306h-46v18h232V18h55V0ZM314 602v31l19 52 54 21 55-18 21-54-19-55-57-21-55 22Zm-193 0v31l19 52 54 21 55-18 21-54-19-55-57-21-55 22Z"/><glyph unicode="ý" glyph-name="yacute" horiz-adv-x="532" d="M5 458v18h290v-18h-54l109-332 116 332h-67v18h141v-18h-50L303-81q-33-94-74-131t-100-38-93 27-34 69 22 64 58 22q83 0 83-69 0-15-6-36h-35q-8-23-2-38t27-15q41 0 73 40t61 124l22 62h-88L46 458H5Zm226 89 63 191 47 10q31 7 47-7t17-39-29-51L242 540l-11 7Z"/><glyph unicode="þ" glyph-name="thorn" horiz-adv-x="588" d="m375 372-10 35-39 36-52-36-23-99V122q0-43 17-73t50-30 45 44 12 154v52q0 103-10 138ZM65-220v952H16v18h235V400q38 86 130 86 187 0 187-249 0-127-51-187T362-10q-48 0-72 12t-39 37v-259h129v-18H10v18h55Z"/><glyph unicode="ÿ" glyph-name="ydieresis" horiz-adv-x="532" d="M5 458v18h290v-18h-54l109-332 116 332h-67v18h141v-18h-50L303-81q-33-94-74-131t-100-38-93 27-34 69 22 64 58 22q83 0 83-69 0-15-6-36h-35q-8-23-2-38t27-15q41 0 73 40t61 124l22 62h-88L46 458H5Zm317 144v31l19 52 54 21 55-18 21-54-19-55-57-21-55 22Zm-193 0v31l19 52 54 21 55-18 21-54-19-55-57-21-55 22Z"/><glyph unicode="–" glyph-name="endash" horiz-adv-x="500" d="M20 272v27h460v-27H20Z"/><glyph unicode="—" glyph-name="emdash" horiz-adv-x="1000" d="M20 272v27h960v-27H20Z"/><glyph unicode="‘" glyph-name="quoteleft" horiz-adv-x="260" d="m177 755 9-14q-93-61-93-122 0-31 27-36l42 39q20-7 36-25t17-48-23-49-60-21-62 25-25 71q0 98 132 180Z"/><glyph unicode="’" glyph-name="quoteright" horiz-adv-x="260" d="m83 452-9 14q93 61 93 122 0 32-27 36l-42-39q-20 7-36 25t-17 48 23 49 60 21 62-25 25-71q0-98-132-180Z"/><glyph unicode="‚" glyph-name="quotesinglbase" horiz-adv-x="260" d="m83-147-9 14q93 61 93 122 0 31-27 36L98-14Q78-7 62 11T45 59t23 49 60 21 62-25 25-71q0-98-132-180Z"/><glyph unicode="“" glyph-name="quotedblleft" horiz-adv-x="448" d="m365 755 9-14q-93-61-93-122 0-31 27-36l42 39q20-7 36-25t17-48-23-49-60-21-62 25-25 71q0 98 132 180Zm-188 0 9-14q-93-61-93-122 0-31 27-36l42 39q20-7 36-25t17-48-23-49-60-21-62 25-25 71q0 98 132 180Z"/><glyph unicode="”" glyph-name="quotedblright" horiz-adv-x="445" d="m268 452-9 14q93 61 93 122 0 32-27 36l-42-39q-20 7-36 25t-17 48 23 49 60 21 62-25 25-71q0-98-132-180Zm-185 0-9 14q93 61 93 122 0 32-27 36l-42-39q-20 7-36 25t-17 48 23 49 60 21 62-25 25-71q0-98-132-180Z"/><glyph unicode="„" glyph-name="quotedblbase" horiz-adv-x="445" d="m268-147-9 14q93 61 93 122 0 31-27 36l-42-39q-20 7-36 25t-17 48 23 49 60 21 62-25 25-71q0-98-132-180Zm-185 0-9 14q93 61 93 122 0 31-27 36L98-14Q78-7 62 11T45 59t23 49 60 21 62-25 25-71q0-98-132-180Z"/><glyph unicode="•" glyph-name="bullet" horiz-adv-x="400" d="m138 151-31 37-31 93 34 91 94 37 95-32 36-93-33-97-99-36Z"/><glyph unicode="‹" glyph-name="guilsinglleft" horiz-adv-x="318" d="m63 263 177 138 9-7-86-163 85-175-9-7L80 179q-30 26-30 44t13 40Z"/><glyph unicode="›" glyph-name="guilsinglright" horiz-adv-x="318" d="M255 187 78 49l-8 7 85 163-84 174 8 8 159-130q30-26 30-44t-13-40Z"/></font>
</defs>
</svg>
