<svg xmlns="http://www.w3.org/2000/svg" viewBox="0 0 53.492 41.428"><defs><style>path{fill:#282826}@media (prefers-color-scheme:dark){path{fill:#fff}}</style></defs><path d="M35.41 0a5.468 5.468 0 0 0-2.195 1.09 5.728 5.728 0 0 0-.806.834c-1.085 1.404-1.613 3.466-1.613 6.304v32.755a.685.685 0 0 0 .164.445H20.098a8.825 8.825 0 0 0 2.374-.936c1.914-1.18 2.976-4.075 2.711-7.381V20.33a2.803 2.803 0 0 0-.173-.121 3.048 3.048 0 0 0-1.353-.459 1.923 1.923 0 0 0 1.399-.47 1.417 1.417 0 0 0 .127-.145V8.233a11.053 11.053 0 0 0-.825-4.335A6.267 6.267 0 0 0 22.392.95 5.763 5.763 0 0 0 20.327 0H35.41ZM13.469.017A7.715 7.715 0 0 0 9.94 2.092C7.844 4.307 7.887 7.191 7.887 9.178c0 6.654 2.844 10.219 8.456 10.61a14.823 14.823 0 0 0-3.348.659 8.685 8.685 0 0 0-4.078 2.975 11.147 11.147 0 0 0-2.191 7.204c0 3.493.907 6.243 2.695 8.174a8.93 8.93 0 0 0 4.754 2.628 20.86 20.86 0 0 1-7.621-1.284 10.835 10.835 0 0 1-4.875-3.567A8.858 8.858 0 0 1 0 31.207a9.395 9.395 0 0 1 .762-3.823c1.11-2.526 3.067-3.814 4.889-5.006a19.576 19.576 0 0 1 5.981-2.6 32.456 32.456 0 0 1-4.57-2.23 13.368 13.368 0 0 1-2.58-1.789 8.635 8.635 0 0 1-2.585-3.805 7.543 7.543 0 0 1-.357-2.287 8.743 8.743 0 0 1 .944-3.993 9.505 9.505 0 0 1 2.683-3.19A10.897 10.897 0 0 1 9.041.694a16.47 16.47 0 0 1 4.428-.678ZM53.492 25.37v16.058H42.16a9.73 9.73 0 0 0 3.061-1.323 13.87 13.87 0 0 0 4.122-4.278 35.56 35.56 0 0 0 1.788-3.281 28.767 28.767 0 0 0 1.482-3.957c.296-.975.59-2.052.88-3.219"/></svg>