<svg xmlns="http://www.w3.org/2000/svg" viewBox="0 0 365.85 134.57"><defs><style>.cls-1{fill:#fff}.cls-2{fill:#ce3e3e}</style></defs><g id="Ebene_2" data-name="Ebene 2"><g id="Ebene_1-2" data-name="Ebene 1"><path class="cls-1" d="M39.73 124.64a2.52 2.52 0 0 1 1.8 4.3 24.83 24.83 0 0 1-15.9 5.63 24.34 24.34 0 0 1-17.88-7.42 25.24 25.24 0 0 1 0-35.75A24.34 24.34 0 0 1 25.63 84a24.66 24.66 0 0 1 16.09 5.79 2.52 2.52 0 0 1 .73 1.8 2.53 2.53 0 0 1-4.34 1.77A19.29 19.29 0 0 0 25.63 89a19.5 19.5 0 0 0-14.31 6 20.22 20.22 0 0 0 0 28.61 19.5 19.5 0 0 0 14.31 5.93 19.36 19.36 0 0 0 12.64-4.43 2.52 2.52 0 0 1 1.46-.47ZM109.6 109.27a25.33 25.33 0 0 1-25.3 25.3 25.32 25.32 0 0 1-25.3-25.3A25.32 25.32 0 0 1 84.3 84a25.33 25.33 0 0 1 25.3 25.29ZM84.3 89A20.23 20.23 0 0 0 70 123.58a20.22 20.22 0 0 0 28.61 0A20.24 20.24 0 0 0 84.3 89ZM133.05 132a2.54 2.54 0 0 1-2.53 2.53A2.56 2.56 0 0 1 128 132V86.51a2.54 2.54 0 0 1 2.52-2.51 2.56 2.56 0 0 1 2 .92l30.92 39.77V86.51a2.54 2.54 0 0 1 2.49-2.51 2.53 2.53 0 0 1 2.53 2.53V132a2.54 2.54 0 0 1-2.53 2.53 2.54 2.54 0 0 1-1.89-.82l-31-39.84ZM192.36 104.88A12.72 12.72 0 0 1 202 84a12.64 12.64 0 0 1 9.61 4.52 14.17 14.17 0 0 1 1.23 1.71 2.51 2.51 0 0 1 .38 1.36 2.53 2.53 0 0 1-2.53 2.53 2.06 2.06 0 0 1-1.77-.76l-1.17-1.55a7.59 7.59 0 0 0-13.34 4.27 7.28 7.28 0 0 0 1.8 5.53 12.25 12.25 0 0 0 5.44 2.59q6.6 1.45 10.05 5.38a14.5 14.5 0 0 1 3.57 9.61c0 .49 0 1-.06 1.45a15.2 15.2 0 0 1-15 13.95 15.27 15.27 0 0 1-11.7-5.38 10.53 10.53 0 0 1-1.2-1.55 2.42 2.42 0 0 1-.51-1.51 2.46 2.46 0 0 1 .74-1.79 2.42 2.42 0 0 1 1.79-.74 2.47 2.47 0 0 1 2.15 1.17 7.3 7.3 0 0 0 .88 1.13 9.69 9.69 0 0 0 6.9 3.58 9.84 9.84 0 0 0 7.36-2.39 10.16 10.16 0 0 0 1.2-14.27q-2.34-2.62-7.3-3.93a15.86 15.86 0 0 1-8.16-4.03ZM233.71 86.51a2.54 2.54 0 0 1 2.53-2.51 2.53 2.53 0 0 1 2.53 2.53v30.35a12.65 12.65 0 1 0 25.29 0V86.51a2.54 2.54 0 0 1 2.53-2.51 2.53 2.53 0 0 1 2.53 2.53v30.35a17.71 17.71 0 0 1-35.41 0ZM287.52 86.51a2.53 2.53 0 1 1 5.06 0v43h25.29a2.52 2.52 0 0 1 1.79 4.31 2.43 2.43 0 0 1-1.79.75h-27.82a2.54 2.54 0 0 1-2.53-2.53ZM329.82 89a2.53 2.53 0 1 1 0-5.06h32.88a2.53 2.53 0 1 1 0 5.06h-13.91v43a2.53 2.53 0 0 1-5.06 0V89Z"/><path class="cls-2" d="M354.34 13.3v42.22h-16.15V13.3h-11.51V0h39.17v13.3Z"/><path class="cls-1" d="M60.36 0v55.52H44.54v-39.7l-10.27 39.7H23.45l-10.68-39.7v39.7H0V0h22.27l8.05 29.49L38 0ZM109.27 42.26v13.26H67.5V0h41.77v12.81h-25v8.06h20.25v12.32h-20.3v9.07Z"/><path class="cls-2" d="M261.76 42.26v13.26H220V0h41.77v12.81h-25v8.06H257v12.32h-20.29v9.07ZM317.3 55.52h-13.86L288.23 31a93.51 93.51 0 0 1-5.9-11.47 38.91 38.91 0 0 1 1.34 9.11v26.88h-13.83V0H286l12.93 20.33A79.21 79.21 0 0 1 304.74 31a80.54 80.54 0 0 1-1.3-14.56V0h13.86ZM207.91 8.66Q201 .37 187 .37h-21.51v55.51H188q11.91 0 19.38-7.78t7.46-20.24a29 29 0 0 0-6.93-19.2Zm-7.14 36.1a28.86 28.86 0 0 0 2.57-16.92 22.9 22.9 0 0 0-4-10.08 21.56 21.56 0 0 0-4.48-4.53 22.65 22.65 0 0 0-7.17-3.54 69.39 69.39 0 0 0-14.39-2.95h13.87A20.16 20.16 0 0 1 199.79 11a19.84 19.84 0 0 1 5.33 7 23.15 23.15 0 0 1 1.94 16.44 22.4 22.4 0 0 1-6.29 10.32Z"/><path class="cls-1" d="M139 .37q-14 0-21 8.29a29 29 0 0 0-7 19.2q0 12.45 7.47 20.24t19.38 7.78h22.53V.37Zm-14.16 11.32a28.8 28.8 0 0 0-2.56 16.92 22.85 22.85 0 0 0 4 10.08 21.56 21.56 0 0 0 4.48 4.53 22.65 22.65 0 0 0 7.17 3.54 69.39 69.39 0 0 0 14.37 3h-13.86a20.14 20.14 0 0 1-12.61-4.29 19.7 19.7 0 0 1-5.34-6.94 23.16 23.16 0 0 1-1.94-16.43 22.48 22.48 0 0 1 6.29-10.41ZM0 70.54h365.85M0 69.04h365.85v3H0z"/></g></g></svg>