<svg xmlns="http://www.w3.org/2000/svg" viewBox="0 0 2075.91 950.84"><defs><style>.cls-1{font-size:222.54px;font-family:Cinzel-Regular, Cinzel;}.cls-1,.cls-5,.cls-9{fill:#fff;}.cls-2{letter-spacing:-0.02em;}.cls-3{letter-spacing:0em;}.cls-4{letter-spacing:0em;}.cls-5{font-size:281.53px;font-family:CinzelDecorative-Bold, Cinzel Decorative;font-weight:700;}.cls-6{letter-spacing:-0.01em;}.cls-7{letter-spacing:0em;}.cls-8{letter-spacing:0em;}</style></defs><g id="Ebene_2" data-name="Ebene 2"><g id="Ebene_1-2" data-name="Ebene 1"><text class="cls-1" transform="translate(624.07 815.06)"><tspan class="cls-2">D</tspan><tspan x="175.14" y="0">res. La</tspan><tspan class="cls-3" x="907.05" y="0">n</tspan><tspan class="cls-4" x="1079.3" y="0">g</tspan></text><text class="cls-5" transform="translate(773.84 547.33)">Kanz<tspan class="cls-6" x="845.15" y="0">l</tspan><tspan class="cls-7" x="1016.88" y="0">e</tspan><tspan class="cls-8" x="1193.4" y="0">i</tspan></text><path class="cls-9" d="M450.65,229c-3.75-2.5-7.69-4.74-11.36-7.35-2.09-1.49-3.75-3-6.17-.54-2,2.07-1.28,3.82.27,5.5,3.07,3.34,4.64,6.43-.73,9.06-.49.24-1.15.92-1.1,1.32,1.37,12.18-9.81,17.46-14.42,26.33-1.64,3.18-2,5.81,2.44,6.76.58.13,1.16.32,1.75.42,4.44.79,6.21,8,11.34,5.76,4.66-2,3.64-7.81,4.95-12,1.22-3.92,3.62-2.88,6.41-1.89,6.94,2.45,8.41-.54,5.9-6.55-1.69-4.08-3.85-8-6-12.36,1.91-.3,3.37-.46,4.81-.76,4.44-.93,9.85-1.56,10.37-7C459.59,230.61,453.7,231.05,450.65,229Z"/><path class="cls-9" d="M418.21,223.35a8.66,8.66,0,0,1,4-6.72,16.33,16.33,0,0,0,5.84-8.92c1-4.53,2.45-10.7-1.59-12.54-5-2.27-10.27,3.23-15.84,3.92-.37,0-1.06,2-.76,2.33,5.51,6.26-2.09,8.64-3.34,12.89-2.17,7.34-7.12,8.19-13,8.36a14.81,14.81,0,0,0-11.8,5.62,16.87,16.87,0,0,1-4.24,3.27c-1.93,1.22-6.46-3-6.14,1.95.26,4,5.13,5.61,8.25,7.82,3.59,2.55,4.84-1.05,5.81-3.31,1.94-4.55,3.9-2.89,6.75-.86,10.39,7.41,10.49,7.31,12.74-4.69,5-1.76,7,7.24,11.77,3.69C420.87,233,418.21,227.71,418.21,223.35Z"/><path class="cls-9" d="M311.39,55.48a22.59,22.59,0,0,1,9,4.19c6.35,4.56,12.56,2.25,17.84-1.62a13.4,13.4,0,0,0,3.79-16.22c-2.27-6.42-8-8.25-14.32-8.39-4.24.94-8.45.86-10.31,6.5-1.05,3.17-4.91,5.47-7.67,8C305.78,51.51,305.08,54.29,311.39,55.48Zm21.74-13.6c5,3.36,6.06,6.58,3.72,10.68l-.15.31a7.38,7.38,0,0,1-10,3C329,51.52,332.71,47.91,333.13,41.88Z"/><path class="cls-9" d="M285.7,200.44a76.45,76.45,0,0,0,8.36,5.29c2.32,1.14,5.39,2.87,7.57.82s-.6-4.42-1.58-6.36a18.81,18.81,0,0,1-.7-14c1.6-6.06-.69-8.83-7.1-6.82-1.35.42-2.81,2.29-4,1-7.85-8.38-16.68,1.61-24.87-1.43-1.69-.62-3,1.57-2.44,5.21,1.08,3.81,6.31,6.16,8.85,10.62C272.21,199,274.33,205,281,199,282.78,197.47,284.25,199.47,285.7,200.44Z"/><path class="cls-9" d="M398.41,268.05c-1,.6-2.59,1.8-3.2,1.47-10.33-5.8-17.21,5.67-26.46,5.18-4.44-.24-4.15,3-2.89,5.55a40.57,40.57,0,0,0,12.47,12.91c2.4,1.91,3.88.58,3.89-2.31a43.73,43.73,0,0,1,0-8.09c.55-2.74,2.38-4.57,4.95-1.51,3.23,3.87,6.3,10.49,11.32,8.73,5.23-1.83,4.38-9.83,7.05-14.74a8,8,0,0,0,.38-2.73C405.5,267.59,403.68,265,398.41,268.05Z"/><path class="cls-9" d="M342.45,190.57c1.67-.77,3.37-1.51,3.47-3.64.08-1.82-1.42-2.64-2.8-3.13a27.37,27.37,0,0,1-13.66-12.63c-1.95-3.16-4.12-6.76-8.09-6.25-5,.65-1.17,6.64-1.9,6.87-5.15,1.65-3.66,9.3-9.65,10-2.1.24-4.94.6-5.82,4.12,5.65,2.85,11.69,5.16,14.93,11.72,1.77,3.58,4.48.37,4.67-1.87.64-7.66,4.95-6.61,10-4.93A11.69,11.69,0,0,0,342.45,190.57Z"/><path class="cls-9" d="M269.3,134.61c-.64-1.84-.87-3.85-2.08-4.15a2.68,2.68,0,0,0-1.55.26c-2.56,1.17-2.13,3.62-1.19,5.48,1.91,3.76,4.22,7.33,6.39,11,1.83,3.09,4.27,1.89,6.17.42,4.26-3.29,6.59-1.58,9.48,2.18s6.72,10.6,10.35,8.16a22.61,22.61,0,0,0,9.45-17.45c-.43-1.17-.6-3.32-1.75-4.34-.44-.39-.79-.64-1.2-.59-1.39.19-1,3.87-2.93,7-1.73,2.81-5.41,5.3-7.66,4.44-1.79-.68-1.33-3-4.45-8.65-2.3-4.17-3.39-4.46-3.95-4.45-1.13,0-1.5,1.23-3.47,3.22s-4.23,4.28-6.42,3.95C271.43,140.57,269.41,134.91,269.3,134.61Z"/><path class="cls-9" d="M312.56,224.56a2.82,2.82,0,0,0-4.84-2.79c-4.52,7.41-12.09,5.89-18.85,6.49-3.34.3-6.72,0-8.26,3.8a8.62,8.62,0,0,0,.58,1.78c2.87,4.65,28,15.85,33.29,15,3.68-.62,3.66-3.18,2.27-5.26A28,28,0,0,1,312.56,224.56Z"/><path class="cls-9" d="M349.64,270c-4.67,1.48-10.67-3.18-16.66.16-3,1.68-4.12,3.56-1.87,5.11,3.7,2.54,2,15.65,12.17,6.77.31-.27,3.47,2.84,5.38,4.27s3.09,5.18,6.46,4.06c3.65-1.22,3.07-4.77,3.25-7.72.1-1.51,0-3,0-5.19C360.56,269.85,359.4,266.89,349.64,270Z"/><path class="cls-9" d="M262.15,50a2.49,2.49,0,0,0,3.23,1.37c5.27-1.23,6.89-6.66,9-10.07s-2.95-7.73-6.37-10.63A11.91,11.91,0,0,0,257.72,28c-1.63.32-1.49,1.9-1.28,4.25,1.68,5.27,3.6,11.51,5.69,17.7A.14.14,0,0,1,262.15,50Z"/><path class="cls-9" d="M335,226.7c-2.58,2,1.28,4.75,3.86,5.22a48.49,48.49,0,0,1,13.78,5.65c1.86-8.64-4.21-14.63-5.32-21.76-.06-.43-.86-1.13-1.22-1.07C339.52,215.87,339.46,223.2,335,226.7Z"/><path class="cls-9" d="M711.65,298.7q-6.61-13.41-13.26-26.9c-1.7-3.49-3.92-6.76-1.09-10.94.87-1.31,1.4-2.75-2.57-3.84-8.37-2.27-17-1.4-25.11-4.45H692.2c-24.46-3.18-49,3.75-73.38-1.22,10.6-4.84,21.58,2.53,31.7-1.18-10.25-.78-20.93-1.83-31.65-2.31-5.8-.26-8.2-2.44-7.72-8.32q1.74-21.24,3.05-42.56c.65-11.42,11.81-16.7,15.17-26.55.22-.61,2.18-.65,3.32-1,14-3.44,17.91-15.91,8.5-26.73-1.36-1.57-4.58-2.61-3.62-4.75,3.75-8.24-3.05-12.9-5.8-18.88-3.53-7.58-9.76-8.41-15.56-3.57a9,9,0,0,1-11.12.91c-.23-.1-.46-.21-.7-.3a17.54,17.54,0,0,0-22.93,9.46,16.42,16.42,0,0,1-14.08,10.86,16.69,16.69,0,0,0-15.13,14.6,13.79,13.79,0,0,1-7.07,10.07,649.25,649.25,0,0,0-66,43.38A19.59,19.59,0,0,1,463,209.15c1.92-9,10.25-10.86,17.75-14.87A91.19,91.19,0,0,1,470,189.57c-2.53-1.53-4.62-4.32,0-5.67,12.25-3.49,11.64-13.12,11.29-22.67-.08-1.7.53-3.88-1.78-4.58-2.05-.65-3.54.79-4.67,2.14-10.46,12.69-22.89,9-36.75,4.4,4-4.4,7.41-8.15,10.76-12,1.23-1.39,2.27-3.36.92-4.84-.7-.78-2.92-.7-4.23-.3a28.72,28.72,0,0,1-15.3.78c-13-3.4-23.76,1.35-34,8.59a13.28,13.28,0,0,1-10,4.14V146.85c-14.39,8.06-28.91,5.71-35.19-5.59,4.84-.78,9.64.31,14.48-.48,6.45-1.09,13.73,2.18,20.27-2.39.26-.18,1.09.35,1.62.65,4.57,2.62,6.67.79,7.28-3.92.48-3.62,1.17-7.2,1.57-10.82.65-6-4.76-14,1.17-17.7,5.28-3.35,12.95.35,19.58.87a25.89,25.89,0,0,1,3.62.53c25.77,5.06,41.59-.57,40.46-31.66a12.61,12.61,0,0,1,6.1-13.25c2-1,5.06-1.61,4.19-5-.7-2.7-3.27-3.18-5.62-3.92-13.7-4.5-23,.87-29.17,19.18-4.62,13.73-13.43,19.1-27.17,19.23a10.4,10.4,0,0,1-7.12-1.44c-1-.94-1-1.94-1.81-6.59-1.27-7.43-1.59-7.65-1.17-8.78,1.26-3.34,4.54-2.51,7-6.35A9.53,9.53,0,0,0,408,60.26a22.88,22.88,0,0,1-1.22-10.69c.95-6.62-2.14-9.85-8.68-9.5a27.15,27.15,0,0,1-22-9c-12.16-13.17-26.94-15-43.34-11.56a32.18,32.18,0,0,1-22.89-3.18A168.41,168.41,0,0,0,271.86,0h-1.79c-4,3.92-1.66,7.72.22,11.47,2.18,4.49,1.13,6.19-3.93,5.23-5.36-1-10.72-2-16.13-2.66-9.2-1-10.42.57-7.28,9.07,4.8,13.21-.39,21.8-13.91,21.06-9.15-.48-9,3.44-6.76,9.68,1.05,2.83,2.49,5.53,3.71,8.28.7,1.57,2.44,3.84.13,4.67-8.67,3.22-4.88,8-1.09,11.51,11.21,10.33,9.6,21,1.84,32.22-3.62,5.14-2.53,8.8,2.57,12.07,2.35,1.49,6.71,1.88,5.8,5.89-.79,3.31-4.58,3.57-7.46,4.23-10.9,2.44-12.08,5.58-5.1,14.65a36,36,0,0,0,4.19,4.79,5.67,5.67,0,0,1,1,.92,5.4,5.4,0,0,1-.48,7.63c-5.93,7.54-3.79,20.32,5,22,12.72,2.4,8.8,9.07,6.93,16.35a45.61,45.61,0,0,1-4.54,11.82c-1.35,2.22-2.22,4.62-.3,6.71a6.39,6.39,0,0,0,6.8,1.22c2-.61,4-1.52,6-2.09,2.4-.65,4.93-3.84,7.28-.87,1.84,2.31.62,5.23-.48,7.8-2.09,5-5.31,9.51-5,15.35.26,4.71.83,8.68,7.28,7.06,4.54-1.17,6,1.53,6.06,5.45.09,3.36,0,6.67.22,10s-.57,7.41,2.92,8.94c2.84,1.22,4.32-2.62,6.63-3.93s4.58-3.83,7.37-1.92c2.62,1.83,1.66,5,1.44,7.63a39.45,39.45,0,0,1-4.49,13.74c-3.32,6.49.3,7.8,5.45,6.67a81.34,81.34,0,0,0,13-5.28c-3.92,13.39-6.36,25.81,2.05,38.11,1.09-1.74,1.83-2.4,1.92-3.18,0,0,0-.06,0-.09a8.12,8.12,0,0,1,9-7.19c5.1.3,3.4,5.4,4,8.63a13,13,0,0,0,6.5,10.33,13.78,13.78,0,0,1,6.62,9.2,307.34,307.34,0,0,1,10.47,52.45c.56,3.75.56,7.06-4,8.85a11.07,11.07,0,0,0-6.41,11.16,120.7,120.7,0,0,0,.26,18.14,5.72,5.72,0,0,1-3.62,7.06c-3.35,1.66-6.58,3.49-9.81,5.36-.56.35-1.13.66-1.7,1-.78.48-1.57.91-2.35,1.39H308c-22.67,13.91-41.77,32.4-61.17,50.58-13.69,12.82-25,28.16-41.29,38.15a55.65,55.65,0,0,1-34.31,9.9c-12.43-1.09-24.33-3.88-31.66-17.66-2,16.91,6,27.42,15.7,37s22.37,13.17,37.5,14.34a109.69,109.69,0,0,1-55.64,24.73,46.08,46.08,0,0,1-20.66-1.84A292.12,292.12,0,0,1,76.8,588.2c-6-3.09-16.52-5.93-15.78-11.25,1.13-7.93,11.51-9.5,19.22-11a74,74,0,0,0,44-26.9,73.23,73.23,0,0,1,17.22-16c26.86-16.87,37.14-42.72,39.54-72.85a31,31,0,0,0-11.42-26.51c-3-2.7-6.32-5.49-10.46-3.49-3.88,1.88-3.32,6.15-3,9.68a90.19,90.19,0,0,1-10,47.44,36.08,36.08,0,0,1-42.81,19.75c.78-4.19,4.66-5.23,7.45-7.19,22.63-15.92,33.71-37.28,32.05-65.23C141,394,127,376.57,100.3,373.47a170.69,170.69,0,0,0-24.46-.26c-3.14.09-7.76.13-8.46,3.8-.65,3.44,3.18,5.45,6.19,7a42.63,42.63,0,0,1,22.5,30.26c2.31,9.81.09,13.91-9.11,17.74-12.3,5.06-24.72,9.86-36.76,15.53A82.58,82.58,0,0,0,.63,516.39c-2.83,24,4.67,46.83,7.5,70.2,3,25.2,9.46,48.4,34.1,61.21a10,10,0,0,1-7.2,4.93l-.26.46,45.81,7.3C64.79,667,33.35,683,14.84,716.84-13.45,768.57.1,840.77,50.84,894.75c3.3,6.12,5.58,13.11,2.9,18.75-3.44,7.28-12.57,7-12.81,9.43C40,932.27,170.46,969,228,934.09c14-8.49,49.45-39.13,54.61-45.7,2.41-3.07,3.91-7.93,9.52-7.63,6.36.35,6.31,5.75,8.17,9.24,4.76,9.15,8.46,18.62,13.53,27.66a45.63,45.63,0,0,0,14.66,16.93,42.19,42.19,0,0,1,1.53-6.1,39,39,0,0,1-.14-9.29c8,7.9,18.89,15.07,28.48,19.75,7.56,3.69,28.58,14,52.6,11.51,16.22-1.66,37.07-9.45,42.91-19.12a13.45,13.45,0,0,1,7.68-6.59c3.54-1.16,7.87-.89,13.54.16,18.61,3.84,37.59,3.65,54.69-.55,7.5-2,14.74-5.73,28.75-14.06,26.65-15.84,28-24.12,44.58-26.1,12.77-1.53,26.66,1.65,27.18-.93.28-1.37-2.87-3.3-5.83-5.09a47.53,47.53,0,0,0-13.59-5.51c-13.24-3-46.34-5.38-66.34,1.1a94.31,94.31,0,0,1-16.89,3.77c-6.86.76-8.29-.08-11.88,1.19-.94.34-3,1.15-4.39.45A85.44,85.44,0,0,0,507,868.93c-3-5.77-4.49-8.75-7.27-11.71-5.1-5.43-14-10.39-24.51-11.76-9.76-1.27-16,1.22-24.33,4.54-2.23.89-4.29,1.93-4.1,3.39.13,1.06,1.53,2.22,4.65,3.48a11.7,11.7,0,0,1,7.47,5.9c1.19,6.46-2.47,12.41-9.45,15.36-7.46,2.72-13.35-.47-18.78-4.85a34,34,0,0,1-9.77-13.19c-2.45-5.57-19.7-44.8-45-59.49-8.15-4.74-23.74-13-55.45-10.75a59.78,59.78,0,0,1-22.34-2.61,169,169,0,0,0-44.75-7.12c-29.81-1.27-50.05,10.76-65.08,29-13.1,15.87-15.48,25.12-32.66,41.76-3.95,3.82-7.4,6.73-9.67,8.57-6.9-4.47-33.77-23-39.17-55.84-1.36-8.24-4-24.37,5.65-39.25,0,0,7.51-11.57,38.94-22.12,1.38-.46,3.9-1.15,5.36,0,.86.69,1.27,2.09,1.1,4.64A62.28,62.28,0,0,0,159,762.21c2.66,13.91,5.36,27.51-13.39,32.7l-.24.07a4.51,4.51,0,0,0-2.93,3l6.41,4.25c19.11-.53,33.22-9.77,43.89-25.39,7.46-10.91,8.31-10,11.84-13.35,15-14.35,28.21-9.48,45.56-18.66,23.55-12.45,18-31.31,34.93-35.83,20.56-5.48,48.38,16.93,61.89,35.75,7.75,10.81,10.4,19.89,23.32,30.91,5.94,5.06,13.64,11.63,25.11,14,5.79,1.18,12.88,1.34,24.38,1.62,4.9.11,7.35.17,9.74.08,10.37-.41,19.44-2.34,30.5-4.75l2.93-.64a37.24,37.24,0,0,0-2.73-10.53,38.07,38.07,0,0,0-6.61-10.24,34.58,34.58,0,0,0-5.34-4.69c-4.14-3-8.11-15.1-9-51.16a41.48,41.48,0,0,0-2-17.06,35.16,35.16,0,0,1-3-6.4,75.37,75.37,0,0,1-2.13-8.1,12.28,12.28,0,0,0-1.28-4.27c-1.06-1.78-1.85-1.81-2.56-3.41a7.45,7.45,0,0,1-.21-5.12c.8-2.39,2.35-2.25,3.19-4.05,1.66-3.51-3.19-6.19-3.19-12.37,0-4.41,2.47-5.66,1.28-8.32-1.46-3.23-5.84-3-6.19-5.54-.19-1.42,1-2.72,3.2-5.12,2.67-2.91,4.4-3.4,4.48-5.12.06-1.43-1.11-1.69-1.28-3.62-.2-2.23,1.25-3,1.06-4.27-.52-3.6-12.44-4.81-12.36-5.33a16.48,16.48,0,0,0,3.83-.43c2.61-.87,5-3.42,4.48-4.9-.33-1-1.76-.81-5.54-2.35-2.93-1.18-4.61-1.89-4.91-3.2-.37-1.63,1.87-2.21,2.35-4.47.85-4.07-5.47-6.57-4.7-10.45.5-2.5,3.65-4.17,4.14-6.5a11.58,11.58,0,0,0,.16-3.22c0-.14,0-.27-.05-.41-1.33-7.37-11.71-10.48-23.34-15.25-13.13-5.38-56.41-24.58-64.83-29.86a8.71,8.71,0,0,0-6.45-1.54,5.11,5.11,0,0,0-3.76,3.18,4.47,4.47,0,0,0,.29,2.58,68,68,0,0,0,2.31,6.8s.13.34,1.87,5.67a195,195,0,0,1,9.15,81,102.4,102.4,0,0,1-13.65,40.94,93.67,93.67,0,0,1-10.78,14.36,69.59,69.59,0,0,1,7.8,1.85,76.92,76.92,0,0,1,41.38,32c9.3,15.08,11.67,31.66,9.79,32.43-1.67.69-5.34-11.69-18.13-26a109.72,109.72,0,0,0-33.45-25.11,78.71,78.71,0,0,0-27.72-6.11c-22.55-.65-35.32,9.29-39,4.84-4.84-5.84,17.22-22.8,25.59-57.42a82.23,82.23,0,0,0,2.88-32.79c-3.62-26-23-38.63-17.66-55.94a26.14,26.14,0,0,1,6.8-10.81,42.36,42.36,0,0,0-13.34,13.95,45.85,45.85,0,0,0-3.71,35.23,47,47,0,0,1-4.44-8.89,40.7,40.7,0,0,1-1.18-24.81,63.4,63.4,0,0,1,17-27.08c23.46-23.8,53.67-27.77,83.15-34.92,17.52-4.23,34.57-9.15,47-23.46,4.19-4.79,4.71,1,6.76,2.93,1.57-2.84,3-5.41,4.84-8.68,3.49,6,.57,10.64-2.44,16a111,111,0,0,0,23.28-10.9A120.1,120.1,0,0,1,442,460.72c15.56-5.58,21.67-3,29.12,11.77.44-1.53.87-2.88,1.4-4.58A29.87,29.87,0,0,0,498,487.8c-11.7-16.8-15.41-25.16-16.48-29.7a42,42,0,0,0-3.09-11.33,40.4,40.4,0,0,1-2.27-6.59s0,0-.09,0a23.12,23.12,0,0,1,1.66-16.44c4.1-8.63,1.26-13.69-7.19-15.82-8.2-2.1-8.77-6.67-6.63-13.61,1.74-5.62,5.71-6.71,10.46-9.41,9.33-5.37,11.73-1.57,15.22,5.36,1.13,2.18,3.57,6.58,6.84,3.14,7.55-7.89,8.94-1.62,11.34,4,1.22,2.83,2.92,7.28,6.84,3,4.89-5.23,7.29-3.53,11.17,1.4,2.79,3.53,7.58,14,12.29.22,1.35-4,6.54-3.71,10.46-3.1,1.23.18,3.19,1.75,3.23,2.7.09,4.28-4,3.75-6.54,4.67-6.32,2.35-7.41,7.37-3.57,11.38,7.06,7.32,12.86,15.56,19.66,23a13.18,13.18,0,0,0,4.71,2.66,6,6,0,0,0,6.84-.31c1.88-1.78.61-3.83-.17-5.84-1.79-4.71-1.92-8.24,4.88-8.37,8.72-.18,11.25-5.32,6.89-13.13-1.09-1.87-4-3.05-2.53-6.32,6.85.09,13,.65,16.53,8.2,2.13,4.75,8,7.24,11.29,3.66,7.93-8.76,13.56-5.54,20.27,1,3.88,3.75,5.67,1.18,5.76-3.35a26.43,26.43,0,0,0-7.42-19c-1.79-1.91-4.76-3.48-3.14-6.71,1.48-3.05,4.66-2.31,7.28-2,2.4.27,4.71,1.05,7.11,1.49,3.31.65,7,5.14,9.72,1.91,3.14-3.61-.7-7.84-2.31-11.64a11.75,11.75,0,0,0-7-6.71,9.48,9.48,0,0,1-5.67-5.45c-4.14-9.64-10.6-12.43-20.8-9.55-2.4.7-4.75,2.88-7.85.87,2.05-5.58,6.63-4.05,10.6-4.05,1.7,0,3.88.78,4.8-1.4a4.77,4.77,0,0,0-1.79-5.62,21.88,21.88,0,0,0-14.17-5.32c-2.7,0-6,.74-8-.52-9.72-6.2-17.31-2-24.5,4.36-6.63,5.84-14.3,8.85-22.63,5.53a156.28,156.28,0,0,1-71.55-56.28,18.2,18.2,0,0,1-3-7.59c-.53-3.31-6.63-10,4.1-8.11,2,.35,2.57-2.35,2.18-4.19a8.09,8.09,0,0,1,2.13-7.49c6.67-7.77,13.34-15.44,22-25.47-2.88,7.76,6.93,8.11,3.44,14.74-5.36,10.11-7.76,21.58-14.43,31.22a19.38,19.38,0,0,0-1.38,2.68,21,21,0,0,0,11,27.53,35.36,35.36,0,0,0,20.58,1.31,20,20,0,0,0,13.82-28.91c-5.18-10.64-10-21.4-15.56-31.82-3.75-7-1.22-8.11,5.4-7.68,40.81,2.62,81.67,4.84,122.43,7.76,11.3.79,22.63.53,34,1a11,11,0,0,1-.39,2.79q-9.27,15.14-18.62,30.17c-8.37,13.6-6,25.33,6.89,34.53a27.39,27.39,0,0,0,34.4-1.61C717.23,321.07,718.41,312.35,711.65,298.7ZM366.78,693.76c-6.57-5.69-16.38-11.39-31.08-16.45a52.43,52.43,0,0,1,25.16,3.23,51.39,51.39,0,0,1,24.31,19.8c6,9.7,3.16,13.45,11.52,30.71a69.71,69.71,0,0,0,8.53,14.5,58.92,58.92,0,0,0,21.9,16.84,49.81,49.81,0,0,1-24.46-8.73,52.25,52.25,0,0,1-15.36-17.49c-6.62-11.34-6.64-19.15-8.95-26C376.66,705.13,373.34,699.45,366.78,693.76ZM142.55,508.55a247,247,0,0,0-35.36,34.13,51.23,51.23,0,0,1-37.28,16.44,27,27,0,0,1,1.48-5c3.67-9.15,10.42-10.9,16.18-20.66,2.22-3.8,4.14-7.11,2.88-9-2.4-3.53-16-1.35-24.42,6.15-13.17,11.77-9,33-11.38,33.09-2.61.13-13-26.25-2-49.92s38.24-33.4,40.55-30.65-16.35,18.88-12.65,24.07c2,2.88,8.55-3.23,22.41-.35A98.37,98.37,0,0,0,142.55,508.55ZM96.77,431.81a28.63,28.63,0,0,0,8.15-12.34c4-14.08-7.11-30.65-19.44-36.54-4.54-2.18-7.42-2.22-7.33-2.83.22-1.92,27-5.58,40.85,8.37l.25.21a20.18,20.18,0,0,1,1.89,28.48c-10.68,15.52-34.92,23.46-42.55,25.68A43.24,43.24,0,0,0,96.77,431.81ZM29,501.48c3.92-25.5,28.78-40.59,39.15-46.87,3.27-2-.13-2.83,14.65-7.45,18.8-5.93,36.19-14,45.7-33a3.73,3.73,0,0,1,3.35-2.57,30.07,30.07,0,0,1,2.53,28.56c-4.23,8.76-13.17,11.33-26.33,16.52-12,4.71-23.5,9.27-33.58,14.36s-18.68,10.73-24.72,17.6c-6.84,7.76-14.3,21.54-13.34,47.44A52.79,52.79,0,0,1,29,501.48Zm330.3,416.06c18.48,15.05,38.16,27.1,65.42,23.85C402,953.68,372.78,943.1,359.27,917.54Zm26.36-2.43a133.17,133.17,0,0,0,53,8.38C421.84,929.19,400.74,925.86,385.63,915.11Zm126.44-28.44a24.18,24.18,0,0,1,5.68.29c9.64,1.07,19-.55,26.32-4.55,11.69-5.78,26.25-7.94,41.11-6.1-11.12,2.31-19.6,7.68-28.49,12.56-12.19,6.7-27.81,9.41-43.88,7.59-3.39-.34-9.18.43-9.6-3.18C503.56,889.59,507.2,886.87,512.07,886.67Zm-98.5,12.45c17.59-4.86,33.84-11.18,45.15-22.58,6-6.13,11.22-12.66,4.33-21.55-1.81-2.34-.42-2.8,2.11-3.25,11.91-1.93,25,3.39,30.71,12.46-7.28-1.46-14.79-3.78-19.92,1.28-1.05,1.06-2.74,2.23-1.21,3.7a7.62,7.62,0,0,0,4.36.87c6.8-.4,13.63.92,17,5.8,3.86,5.65-1.68,9.36-5.88,12.84a79.71,79.71,0,0,1-31.21,14.66c28.12-1.37,57.31,9.41,84.85,3-15.37,12.11-35.31,16.65-58.09,11.18-18.9-4.53-37.08-9.92-56.48-7.82,2.32-1.24,4.74-2.45,7-3.73,11.79-6.55,23.63-13.09,35.26-19.79,2-1.1,5.17-2.91,1.8-5a3.09,3.09,0,0,0-1.68-.56c-1.69,0-2.8,1.83-3.84,2.87-9.1,8.13-20.6,14.48-33.76,18.65-10.87,3.69-23.64,4.07-36,1.08C404.56,901.52,409.1,900.37,413.57,899.12Zm-63.53-74c2.21-1.18,1.35-2.79,3.66-3.79s4.11.46,8.52-.34c2.5-.46,2.35-1,5.16-1.5a21.25,21.25,0,0,1,6.66-.07,27.52,27.52,0,0,1,6.71,1.87c5.09,3.07,8.66,7.36,10.12,12.19a136.08,136.08,0,0,1,5.33,12.79l-.29-.07c.22.44.45.88.68,1.32l.07.22.07.06c.61,1.13,1.54,2.78,2.72,4.73,5.33,8.84,7.82,10.52,7.71,14.13a9.59,9.59,0,0,1-4.35,7.57c-1.25.75-3.19,1.38-15.33-.69-5.89-1-6.3-1.3-7.33-.81-5.16,2.46-1,12.86-6.85,18-4.38,3.92-8.84-.11-14.63,3.48-8.54,5.29-6.32,18.65-10.44,19.31-3.5.55-4.58-9.21-14.09-20.35-2.78-3.26-16.85-19.74-30.14-21.81-1.4-.22-5.26-.83-6.39-3.08-.62-1.23,0-2.86,1.88-5.16,9.17-11,19.19-21.5,29.46-31.88a17,17,0,0,1,11.12-6.13C344.08,824.86,347.18,826.59,350,825.09Zm-174,10.12A279.91,279.91,0,0,1,209.6,796.7c4.07-4.7,10.7-7.76,18-8.31-32.92,23.52-48.7,55.48-72.6,83.41a76.93,76.93,0,0,0,12.08-11.5c16.83-18.89,31-39,49.55-57.16,17.28-16.9,49.3-19.66,69.84-12.8,6.76,2.26,12.37,4.1,5.61,11,25.75-6.67,25.75-6.67,34.72-2.57-4.21,1.26-8.11,2.26-11.92,3.52-19.14,6.29-36,14.68-47.8,28.47-15,17.47-26.9,37-52.71,47.66,12.59-1.23,23.92-6.46,31.22-14.4a254.6,254.6,0,0,0,23.9-28c9.87-14,26.93-24.31,47.09-28.35,7.72-1.49,15.78-3.49,24.7-.88a48.64,48.64,0,0,1-3.56,3.64A739.74,739.74,0,0,0,249.08,892c-11,12.43-26.16,22.35-43.94,28.69-38.07,13-77.6,11.65-117.68,7.51,1-2.49,3.3-2.41,5.21-2.72C115.11,922,135,912.21,148.48,898c10.87-11,21.44-22.3,32-33.52,14.83-15.75,27.76-32.53,44.69-47.17,10.88-9.38,23.9-13.44,40.14-10,2.2.46,4.2,2.11,6.71.73-8-9.92-19.39-12.49-32.62-7.12-11.72,4.75-19.34,12.68-26.85,20.76-24.95,26.59-49.45,53.41-75.8,79.23-17.89,17.51-42.84,21.42-69.35,22.8,45-20.38,51.71-24.48,73.15-46.28A468.81,468.81,0,0,0,176.09,835.21Zm72.14-112.85a6.65,6.65,0,0,1-4.49,3.66c-18.88,6.54-37.27,13.87-50.92,29.74a45.09,45.09,0,0,1,2.92-8.24,50.32,50.32,0,0,1,6.5-10.51,74.5,74.5,0,0,0-19.67,26.77,46.59,46.59,0,0,1-7.67,13.3,42,42,0,0,1-5.93,5.84c-.88-9.13-3.21-18-3.21-26.68,0-9,2.52-17.61,11.84-25.81-8-.11-19.26,0-32.66,1.13-21.85,1.81-32.95,2.83-41.4,8.76-17.12,12-19,35.74-19.05,36.88-2.12,32.91,28.79,72.87,45,84.75,1.85,1.36,8.12,6,7.91,11.2-.12,2.83-3.23,5.55-9.51,11.06a97,97,0,0,1-7.82,6.44c-10.88,7.56-26.47,8.65-30.44,8.67-21.06.11-48.5-28.38-61-59.87C7,785.51,26,714.5,70.76,685.42a89.14,89.14,0,0,1,18.86-9.28s40.46-21.84,127.27,2.36a40.54,40.54,0,0,1,16.65,7.1c5.1,3.93,13,12.34,11.56,19.67a15.47,15.47,0,0,0-.7,5.19,14.4,14.4,0,0,0,3.44,8A6.53,6.53,0,0,1,248.23,722.36Zm-1.16-125.57a3.39,3.39,0,0,0,.55,0c5-.74,8.9-11.82,8.55-27.86a34,34,0,0,1,5.19,14.17s-.79,11.68-.92,13c-1,10.38-17.31,25.25-41.07,33-36.32,11.91-67.93.05-68.23,1.7s27.29,14.26,60.56,9.38a113.68,113.68,0,0,0,58-27.73c.47,16.3-1.66,36.27-14.92,46.08-17.35,12.82-42.38-.17-81.88-7.23A306.84,306.84,0,0,0,76,649.81a54.06,54.06,0,0,1-26.51-8.5c-1.87-1.31-8.94-6.24-8.15-11.08a11.44,11.44,0,0,0,.65-4.14c-.3-2.83-2.39-4.8-5.84-8-3.84-3.57-5.06-3.66-5.45-5.45-.61-2.92,2.18-4.71,1.13-6.84-.95-2-3.74-1.4-4.44-3.4-.48-1.4.78-2,.87-4.28.09-3.4-2.79-5.32-2.14-6.19.26-.39,1.18-.56,5.85,1.18,5.4,2,7.06,3.31,7.41,3,1.13-1.13-17.88-16.83-26.86-36-4.88-10.5-8.72-26.24-4.23-49.39a7.24,7.24,0,0,1,3.62,6.49c3.66,15.83,9.2,30.87,20.75,42.73,27.82,28.56,60.52,49.27,100.54,53.85C170.5,618.07,209,621.64,235,583.62,235.82,585.27,241.64,596.79,247.07,596.79ZM626.81,156.43a7.73,7.73,0,0,1-8.89-2.83,8.15,8.15,0,0,1,9.11,0,1.39,1.39,0,0,1,.35.41A1.77,1.77,0,0,1,626.81,156.43Zm6.45-12.56a7.44,7.44,0,0,1,7.67,7.2c.57,3.93-1.43,6.85-5.79,9.42-1.79-3.93-3.75-7.63-5.19-11.56-.92-2.61.13-5,3.22-5.05Zm-11.38-24a4.71,4.71,0,0,1,6,2.75c1.7,3.4,5.06,6.28,4.1,10.64-.13.65-1.22,1.09-2,1.74a70.1,70.1,0,0,1-11.9-9.55C615.82,122.64,619.14,120.73,621.88,119.85Zm-2.35,17.84c1-.83,3.18.3,3.23,1.57a8.5,8.5,0,0,1-6,9.06A9.58,9.58,0,0,1,619.53,137.69ZM399.87,97.31a89.37,89.37,0,0,0,16.83.57,32.06,32.06,0,0,0,17.17-4.52A28,28,0,0,0,444,78.74a114.44,114.44,0,0,1,3.49-11.16c2-4.41,4.71-8.5,11.51-7.24A40.35,40.35,0,0,0,454,82.27a20.7,20.7,0,0,1-5.78,15.2c-1.71,1.58-5.06,4-15.62,4.6a102.36,102.36,0,0,1-25.88-2.53A130.39,130.39,0,0,0,384.11,98c-6.21.22-12.4.43-18.57.89-7.34.54-13.58,1.51-18.42,2.3a88.5,88.5,0,0,1,14.42-3.72A151.3,151.3,0,0,1,399.87,97.31Zm-23.29,10.16a5.11,5.11,0,0,1-1.47,2.64c-2,1.52-3.25,0-4-1.57-2.89-5.69-4.82-3.2-6.91.56-2.54,4.57-7.26,5.18-11.68,5.89a3.81,3.81,0,0,1-.59.07,4.54,4.54,0,0,1-4.79-4.29,14.13,14.13,0,0,1,1.27-2.44c2.54-3.25,22.45-7,26.21-5.08A3.32,3.32,0,0,1,376.58,107.47ZM353.19,85.21c1.1-1.88,4.25-2,6.27-2,2.19,0,5.72-.06,7.27,2.14.89,1.25.35,2.09,1.37,3.25,1.64,1.86,4.61,1.43,4.62,1.7a38.37,38.37,0,0,1-9.66,1.24h-.55c-3.15-1.37-8.48,1-9.55-3.81A3.3,3.3,0,0,1,353.19,85.21ZM337.31,417.42a51.33,51.33,0,0,1,0,8.94c-.22,3,1.35,7.81-3.23,7.85-4,0-3.62-4.58-4-7.76-.08-1.18,0-2.35,0-4.88,0-.48.05-2.27.18-4.06.3-3,.65-6.63,4.58-6.45,2.19.11,2.65,1.29,2.65,2.71C337.52,415,337.19,416.36,337.31,417.42ZM352,428.54c-.61,4.71-3.53,4-6.62,2.7-4.36-1.87-3-5.71-2.18-8.58,1.17-4,.13-9.47,5.58-11.43a2.34,2.34,0,0,1,3.27,2c.34,2.4.61,4.75.87,6.85C352.61,423.18,352.35,425.88,352,428.54Zm34.44-14.26q-.53,4.91-1.44,9.81c-1,5.41-3.92,7.72-8.76,4.1-4.32-3.22-7.37-3.31-10.16,1.57a4.16,4.16,0,0,1-4.53,2.36c-2.53-.7-2.49-3.1-2.57-5.19-.09-1.79-.14-3.62-.05-5.41,0-.26,0-.52,0-.79,0-4.22-.76-9,4.66-10.63,5.84-1.79,4.4,5.45,8.06,7.1,2.57-1.22,1.92-3.35,2.36-5,1-3.84,3-7.06,7.37-6.23C385.48,406.74,386.92,410.23,386.44,414.28Zm26.3,9.25c-2,4.58-5.8.87-8.77.56a11.06,11.06,0,0,0-7.54,2,6.83,6.83,0,0,1-3.49,1.41c-2.14,0-2.91-2.58-2.66-7.39a78.36,78.36,0,0,1,2.1-10.5c.82-2.66,3.66-5.59,5.62-1.49,3.71,7.72,6.89,3.93,9.24-.17,3.75-6.54,6.15-3,7.72.83A19.17,19.17,0,0,1,412.74,423.53Zm-9.23-26.44c-9.15-2-24.29-2-50.59,6.73,13-10.68,15.69-19.23,15.56-25.25-.17-8.5-6-11.64-6.19-24.72,0-5.79,1-9.85-1.74-12.55-3.18-3.1-7.67-.83-11.08-4.49a8.12,8.12,0,0,1-2-8.37c1.79-3.36,7.15-1.79,10-6,1.4-2.09.79-3.53,2.23-4.36,2.18-1.26,5.11.95,9.07,2.7A34.89,34.89,0,0,0,389,323.3c6.27-1.54,8.07-5.11,11.09-3.84,3.81,1.61,2.15,7.81,6.4,10.24,4,2.3,7.31-2.23,12.79-.43,4.56,1.5,7,6.18,9.81,11.52,3.79,7.22,2.49,9.54,6,12.79s5.51,1.68,10.24,5.12,8.8,9.34,7.25,12.37c-1.38,2.7-6.14.85-8.1,3.84-2.54,3.87,3.7,9.74,1.22,13.55-1.35,2.07-3.81,1.24-9.75,3.24a51.32,51.32,0,0,0-9.81,5C417.71,401,407.89,398.05,403.51,397.09Zm42.36,17.15c-1.09,3.14-2.53,6.15-3.44,9.33-3.58,12.51-14.48-3.31-19.23,5-.57,1-2.31,0-2.92-1.09a10.13,10.13,0,0,1-1.61-4.1,21.54,21.54,0,0,1,.74-7.1c1.48-4.89,3.22-11.34,8.76-11.3,3.2,0,3.74,1.73,3.74,4,0,2.39-.63,5.35.75,7.34,3-1.49,2.71-4,3.66-5.76,1.53-2.75,2.45-7,7-4.84C446.92,407.35,447.09,410.8,445.87,414.24Zm19.62-2.09c.87.65,2.31.56,3.45.87,3.53.91,7.45,1.66,6.58,6.76a23.59,23.59,0,0,1-2.41,7.67,10.09,10.09,0,0,1-6.27,4.88c-5.71,1.62-3.83-5-6.45-6.67-2.57.13-3.4,2.53-5.14,3.58-5,2.92-8.51-.09-8.11-4.23a23.91,23.91,0,0,1,7.76-16.7C459.39,404.73,462.27,409.75,465.49,412.15ZM568,429.33c-.13,1.87.39,5.1-2.79,4.4h0a7.11,7.11,0,0,1-5.22-7.15c.56-1.88,1.65-3.58,4.27-3.31C567.91,423.66,568.26,426.49,568,429.33Zm62.08-16.92c-2.79-1.35-5-2.31-7.06-3.45-3-1.61-4-2.83-4-3.73,0-1.7,3.75-2.27,5.74-2.15C629.12,403.3,631,407,630.08,412.41Zm4.75-33.53c3.36.48,7.2,1.88,7.55,5.19.43,3.88-3.45,1.48-5.58,2.05h0c-2.61-1.44-7.84,1.57-8.15-3.84C628.52,379.27,632,378.49,634.83,378.88ZM481,310c3.84,3.4,7.37,7.15,10.9,10.9a146.81,146.81,0,0,0,48.88,37c13.64,5.89,27,6.63,38.76-4.79a16.69,16.69,0,0,1,3.75-2.53,8.72,8.72,0,0,1,11.94,2.88c3.79,4.44,1.44,6.62-2.7,8.67a4.75,4.75,0,0,0-2.31,5.5c.61,2.87,2.92,3.66,5.41,4A25.6,25.6,0,0,0,608,369.42a25.82,25.82,0,0,1,14.12-2.35c1.7.35,3.88.35,4.45,2.48.61,2.53-1.22,4-3.19,4.89-6.36,2.7-12.68,5.66-20,4.18a14.88,14.88,0,0,0-13,2.57c-1.52,1.31-4,2.31-3.4,4.84.57,2.23,3,1.44,4.58,2.05,7.06,2.57,14.39,1.09,21.62,1.31,2.14,0,4.54.13,5.63,2.22,1.3,2.4-.61,4-2.27,5.28a33.83,33.83,0,0,0-9.16,13.34c-10-10.33-22-7.76-33.26-8.11a5.7,5.7,0,0,0-4.93,3.62c-1.44,3,1.61,3.18,3.18,4.27,2.09,1.49,4.31,3,4,6.41-5.5.61-8.55-4.23-13.25-4-4.28.17-8.55,5.32-13.08.48,1.26-2.53,3.7-2.31,5.53-3.05,7.89-3.32,8.9-9.68,2.1-15a20.14,20.14,0,0,0-17.32-2.74,59.24,59.24,0,0,1-8.63.39c3.1-4.32,3-6.5,2.36-7.67-1.44-2.75-6.2-.88-10.6-4.8-2.23-2-1.92-3.23-4.71-5.32-2.44-1.83-3.14-1.26-5.93-3-3.79-2.36-3.66-4.19-7.06-6.46a28.73,28.73,0,0,0-7.46-2.7c-5.53-2.18-4.92-5.14-11.51-10.64a50.69,50.69,0,0,0-16.74-9.76,15.29,15.29,0,0,1-6.41-3.36c-2.05-1.88-1.87-2.88-3.35-4.66-4.27-5.15-10.77-2.66-17-8.46a6.3,6.3,0,0,1-2-2.79c-1-3.14,1.44-6.63,3-9.51,2.7-4.92,4.54-.56,6.72,1.09A19.44,19.44,0,0,0,467.86,318c.95-4.44-7-8-.88-12.25S477.1,306.51,481,310Zm14-89.12c-.35,2.09-3.05,2.83-5.23,2.79-4.62-.05-5.67,2.53-7.81,6.45-3.35,6.06-1.61,14.39-5.8,18.14-4.92,4.36-3.92,6.89-2,11.29a13.9,13.9,0,0,1,1.3,5.34,5.28,5.28,0,0,1-4.05,5.43c-4.71,1.53-5.23,4.49-5.32,8.16-.17,10.5-7.45,18.22-9.63,29.51-5.89-12.6-5.89-12.6-15-3.4-5.93,5.93-9.9,5.93-14.7-1-4.23-6.15-7.67-7.68-11.86-.35a9,9,0,0,1-5.66,4c-7.81,2.45-16.4-6.23-23.68,1.84a13.48,13.48,0,0,1-2.83-1.84c-10.12-7.1-10.12-7.1-13,5.11-3.44-.35-4.71-3.49-6.93-5.37-5.67-4.75-8.2-3.83-9.37,3.45-.31,2.09-.4,5.1-2.36,5.45a6.86,6.86,0,0,1-7.11-4.76c-3.44-11.11-8.15-5.71-13-1.48-1.09,1-2.18,2.1-3.93,1.66-3.79-9.9-8.72-11.6-19.44-7-2.31,1-4.45,4.71-7.06,2.36-2.45-2.23.61-4.93,1.43-7.33,4-11.59-1.78-23.24-11.9-23.58a111,111,0,0,0-.13-15.26c-.87-6.63-4.49-10.73-11.86-7.68-7.72,3.27-8.76.31-8-6.89,1.31-12.29.91-12.34-10.73-9.81.35-9.33,2.84-18.57,1.05-27.86-2-10.46-3.88-11.2-13.21-4a54,54,0,0,0,2.35-28.56c-1-4.71-3-9.9-8.54-3-1.14,1.39-2.09,3.53-4.14,2a8.46,8.46,0,0,1-2.79-4.4,15.76,15.76,0,0,1,2.57-10.38c1.79-4.4,3-9.07-.79-12.73-5.66-5.28-2.87-8,1.79-12a26.07,26.07,0,0,0,10.6-22.46c-4.63,1.48-7.72,8.94-11.86,4.67-3.58-3.75.26-9.07,2.66-13.26.3-.52.65-1,.91-1.57,4-7.67,5.23-14.86-3.09-20.84-2.1-1.48-4.41-3.35-3.75-6.62,2.35-1.66,4.75-.35,7.1-.48,2-.13,4.71,1,5.71-1.36,1.4-3.22-1.83-4.09-3.74-5.18A26.25,26.25,0,0,1,231,57.6c-1.35-2.62-2-5.72,2.13-6.24,7.72-1,15.92-9.85,23.11,2.57C254.29,45.26,252,38.15,250,31c-1.79-6.46,0-9.77,7.59-9a47.53,47.53,0,0,1,25.24,9.12c1.57,1.22,3.62,4.53,5.8,1.39,6.67-9.76,16.57-7.93,25.51-6.54a66.46,66.46,0,0,0,25.94-1,29.83,29.83,0,0,1,30.6,9.2c6.5,7.24,13.43,13.21,24.12,11.77,1.91-.26,3.92.4,4.09,2.58.31,3-2.31,3.22-4.36,3.18-5.71-.09-11.46-.74-17.22-.61-4.62.09-12.25-.74-11.94,4.75.3,7.06,7.23,3.4,11.64,2.84a8.3,8.3,0,0,1,1.78-.31c2.71.35,5.93-1.61,7.37,3,1.22,3.7,3,6.76-.35,10.38a19.76,19.76,0,0,1-19.83,6,74.91,74.91,0,0,0-14.35-2.22,13,13,0,0,0-14.39,10.81,33.32,33.32,0,0,0-.32,23.78,20,20,0,0,0,5.62,8.16,24.16,24.16,0,0,0,15.08,4.38,78.72,78.72,0,0,0,22.2-1c1.41-.33,5.39-1.35,7.21.63a3.42,3.42,0,0,1,.86,1.91c.4,2.56-4.92,4.49-6.7,5.18-15,5.82-38.29,1-53.58-2.2a5,5,0,0,1-2.8-1.26c-2.3-2.38-.47-7.31-2.48-10-1.05-1.44-2.53-2.53-3.49-4-3.35-5.32-1.65-13.43-9-16.74,0-.18.87-2.14,1.09-3.27.26-1.44.83-3.84.26-4.19-6.62-4.23-5-10.24-4.05-16.22.22-1.48.13-3.27-1.57-3.88-1.88-.65-2.53,1-3.18,2.4-3.19,6.5-11,12.43-2.31,20.45.91.83-.18,3.53.3,5.23,1.88,6.89.44,15.52,6.58,20.19s12,8,9.73,17c-.26.92,1.26,3,2.39,3.45,4.45,2,6.33,6.36,9.55,9.28,3.45,3.19,7.76,11.91,13.43,1.44,1.53-2.83,3.62-1,5.19.44a38.94,38.94,0,0,0,22,9.85c7,.79,7.72,4.06,3,8.64-5.8,5.62-4.36,10.46.74,15.52,7.63,7.5,8,11.2,1.27,19.09-3.23,3.84-4.06,6.41,1.79,7.2a33.79,33.79,0,0,1,15.6,6.76c1.31.91,3,2.87,4.71,1.09s.35-3.67-.74-4.89c-6.58-7.45-3.66-11.6,4.49-14.47,1.88-.66,4.58-1.44,4.28-4s-3-2.58-5-3.23a60.07,60.07,0,0,1-20.89-10.73c-4.93-4.31-4.93-8.54,2-10.42a87.51,87.51,0,0,0,22.58-11.46,41.73,41.73,0,0,1,21.58-6.11c2,0,4.49,0,5.41,2.36s-.92,4-2.22,5.58a37.3,37.3,0,0,1-11.51,7l-.08,0a7.56,7.56,0,0,0-3.76,10c2,4.36,5.71,3.13,9.33,1.52,6.93-3.14,14.3-6.76,21.76-5.67a45.87,45.87,0,0,0,28.12-2.35,11.52,11.52,0,0,1-8.94,7.72c-7,1.39-8.5,8.89-14.91,11.77-5.93,2.66-1.4,21.23,5.1,24.68a23.42,23.42,0,0,0,17.53,2.57,28.15,28.15,0,0,1,19.53,1.13C492.13,217.56,495.53,217.87,495.05,220.92Zm8.81,65.7c-.52.26-.7.44-.83.35-.43-.26-.3-1.79,3.27-11.51a43.45,43.45,0,0,1,5.41-11.81,27.75,27.75,0,0,1,2.74-3.27c-.39,12-.56,20.49-.39,22.62a2,2,0,0,1-.35,1.57c-.56.74-1.52.53-3.7.7A14.66,14.66,0,0,0,503.86,286.62Zm32.92,21.46a16.72,16.72,0,0,1-30.56,5.43,16.6,16.6,0,0,0,11.94.85c3.45-1.22,4.56-3.32,8.53-5A20.45,20.45,0,0,1,536.78,308.08Zm-4.93-19a37.33,37.33,0,0,0-7-2.66,38.81,38.81,0,0,0-6.24-1.09,76.55,76.55,0,0,1-.61-10.6,74.89,74.89,0,0,1,1.17-13C525.92,276.33,531.33,288,531.85,289.11Zm67.49-83.5a260,260,0,0,1-3.66,33.4,6.79,6.79,0,0,1-.15,1.2,7.28,7.28,0,0,1-8.61,5.65c-25.86-1.18-51.71-2.18-77.57-3.23,14.61-6,29.83-11,42.25-23.5,4.23,8.07,6.85,5.36,9.33-1.92,1.44-4.14,3.8-8.11,9.2-3.4,3.1,2.7,4.54,0,4.67-2.57.43-7.5,3.62-10.25,11.2-8.11a12.21,12.21,0,0,0,7.89-1.53C598.91,199.07,599.52,201.39,599.34,205.61Zm-13-14.25a58.64,58.64,0,0,1-9.06-.79,37.11,37.11,0,0,0-31,8.2c-6.06,5.1-11.95,11.9-20.27,12.9A20.62,20.62,0,0,0,508,223.79c-5.41-7.89-13.95-10.89-21.81-16.65,2.49-2,4.1-3.27,5.8-4.54A436.26,436.26,0,0,1,534.55,175c10-5.75,21.28-10.77,23.2-24.76.52-3.93,15-10.82,18.66-9.42,6.1,2.44,1.65,8,3,12,.39,1.13.35,2.4.65,3.57,1.14,4.67-.52,6.59-5.14,4.84-6.58-2.52-9.51,0-10.64,6.5a104.35,104.35,0,0,1-3.31,10.38c-1.09,3.66-3.27,8.28,2.92,9.2,5.62.83,6.19-3.36,6.14-7.72-.12-7.41,3.06-10.51,10.73-8.55,3,.79,6.84,2.23,7.93-3,.57-2.44,1.44-4.93,4.76-4.14a9,9,0,0,1,6.49,4.4,15.68,15.68,0,0,1-13.56,23.07Zm5.59-54.63c-2.83-.35-4.62-2-4-4.84a12.08,12.08,0,0,1,12.86-10.25c2.22.44,5.1-.39,5.76,2.92A54.46,54.46,0,0,1,591.93,136.73Zm15,.65a9.38,9.38,0,0,1,4.49,11.16c-4.58-1.87-7.67-4.49-7.93-9.2C603.36,137.9,605.75,136.64,606.93,137.38Zm-1.18,103.11q2.71-38.28,5.33-76.47c1.43.13,2.87.22,4.27.35q-3.45,38.17-7,76.3C607.5,240.58,606.62,240.54,605.75,240.49Zm87.94,28.61h0c6.58,13.77,12.94,27.07,13.12,27.38a31.08,31.08,0,0,0-6.37-2.49,29.72,29.72,0,0,0-6.76-1.09,86.06,86.06,0,0,1-.74-10.64A91.86,91.86,0,0,1,693.69,269.1Zm-24,29c2.58-5,5.54-10.33,9-15.91,3.36-5.32,6.71-10.16,10-14.48.26,8.5.52,12.78.74,15.13a59,59,0,0,0,.26,6.37c.22,1.26.56,2.35-.05,3.09-.39.44-.87.61-3.27,1-1.57.26-2.4.39-2.74.43A85.08,85.08,0,0,0,669.71,298.09Zm37.81,26.12a20.87,20.87,0,0,1-9.47,7.64,23.34,23.34,0,0,1-18.38-1.28c8.82.71,12.74-1.49,14.67-3.77s2.16-5.21,5.8-8a12.61,12.61,0,0,1,5.81-2.35c1.63-.33,2.68-.25,3.34.36a1.65,1.65,0,0,1,.49.82C710.57,320.19,708.82,322.29,707.52,324.21Z"/><path class="cls-9" d="M504.87,600.51a61.66,61.66,0,0,1,17.47-6.09,28.37,28.37,0,0,0-7.66-4.43s-1.18-.45-2.36-.78c-3.6-1-19.73,5.38-36.75,30.65,0,0-18.3,27.16-22.41,70.54a21,21,0,0,0,.61,8.46,26.69,26.69,0,0,0,5.84,10.25s3.44,4.4,11,15.13a68.88,68.88,0,0,1,9.81,16.65,39.93,39.93,0,0,1,.83,21.46,38.21,38.21,0,0,0-1.7-14.64,41.89,41.89,0,0,0-4.18-8.82,82.58,82.58,0,0,0-13.59-15.21,82.31,82.31,0,0,1-11.24-15.07c-.31,1.41-.81,3.79-1.25,6.77a108.92,108.92,0,0,0,.3,30,21.61,21.61,0,0,0,1.95,8.18,42.26,42.26,0,0,0,4.75,7A64,64,0,0,1,462,770.72a35.71,35.71,0,0,1,2.8,14.82A28.46,28.46,0,0,0,487,763.26a9.49,9.49,0,0,1,.43-1.41,69.49,69.49,0,0,0,1.34-18c-1.06-18.76-10.17-42.35-21.22-48.5,0,0-7.89-4.4-8.29-8.8l-.26-3.44a131.65,131.65,0,0,1,14.5-46.63C480,624.31,487.83,609.55,504.87,600.51Z"/><path class="cls-9" d="M278.52,672.32a9.52,9.52,0,0,0-3.27,5.2,37.4,37.4,0,0,0,22.22-4.77c12.16-7.35,15.8-20.58,18.76-31.35,1.49-5.45,3.56-14.89,2.61-39.48,0,0-2.28-58.57-18.81-69.93a5,5,0,0,0-3.62-1c-2.05.43-3.18,2.78-3.65,3.93,2.59,4.22,7.51,3.7,10.73,7.62a30.1,30.1,0,0,1-13.71-3.43c-1.66-.74-3.2-.55-4,1.22-1.05,2.39,1.11,3,2.21,3.9a67.39,67.39,0,0,0,17.12,9.36,29.31,29.31,0,0,1-20.9-6.78c-1.5-1.13-3.37-3-4.74-1.08-2,2.82.9,4.15,2.25,5.5a81.57,81.57,0,0,0,19,13.06C290,565.4,282.41,557.42,274,551.43c1.6,7.26,6.59,10.72,11.12,14.33s9.65,6.37,15.33,10c-8.61.88-14.48-4.2-20.7-8.32,1.18,6.6,1.18,6.6,21.5,20.68a74,74,0,0,1-8.84-2,80.59,80.59,0,0,1-8.42-4.08c.53,5.33.53,5.33,15.86,16.72-3.2,1.34-5.91-1-8.83-1.27-1.47-.14-3.4-3-4.3.58a4.7,4.7,0,0,0,2.27,5.24c3.35,2.06,6.79,4,10.85,6.3a7.16,7.16,0,0,1-6,.17c-1.77-.47-4.12-2.6-5.14.68a5.32,5.32,0,0,0,2.75,5.89c2.2,1.4,4.52,2.58,7,4-2.26,3.88-8-2.91-8.38,3.35-.34,5.86,5.44,5.2,8.34,7.75-.2.42-.32,1.15-.65,1.32-2.54,1.35-7.21-3.38-7.67,1.53-.56,6,6.4,4.43,8.88,8.17a6.14,6.14,0,0,1-1.14.73c-3.06,1.2-7.88-4.29-8.8.18-1.23,6,6,4.56,8.53,8.3-3.58,2.76-7.11-2.45-10.65-.15a16.86,16.86,0,0,0,7.36,7.6c-3,2.26-6.28-1.38-9.94.12,1.61,4.92,5.88,4,8.1,7-3.4,2.75-6.93-1.93-10.37-.2a5.24,5.24,0,0,0,1,2.54,5.42,5.42,0,0,0,3.05,1.94A9.75,9.75,0,0,0,278.52,672.32Z"/><path class="cls-9" d="M428.47,543.56c27.45,11.6,56.44,13.5,85.54,14.64,4.26.16,4.6-2.1,3.65-5.48a21.4,21.4,0,0,0-5-9c-6.73-6.64-45.44-44.19-51.12-54.74-1.71-3.18-4.25-5.89-5.75-9.17a7.17,7.17,0,0,0-3.2-4.05,6.29,6.29,0,0,0-4.69.21c-9.24,3.47-18.82,6.11-27.77,10.25A193.43,193.43,0,0,1,399,493.4c-10.57,3.25-20.69,5.88-30.24,8,9.4,4.09,17.73,7.7,26,11.37,5.14,2.26,10.2,4.74,15.37,6.94,5.44,2.32,9.75,4.9,9.29,12.48C419.07,538.17,423.6,541.49,428.47,543.56Z"/><path class="cls-9" d="M447,643.53a43.75,43.75,0,0,0,1.4,7.61c.95,6.37.06,10.55.5,10.63,1.06.18,3-18,12.11-38.48a151.75,151.75,0,0,1,12-20.43,35,35,0,0,1,8.9-9.89c2.95-2.09,4.91-2.62,4.77-3.46-.28-1.7-8.69-3.47-15,.33a15.35,15.35,0,0,0-5.52,5.93c-3.39,6.58.45,11.3-2.72,14.83-2.86,3.18-6.84.33-9.56,3.3-3.81,4.16,2.28,10.4-1.32,19C450.51,637.75,447.23,638.62,447,643.53Z"/><path class="cls-9" d="M554.36,576.36c-5-12.65-22.92-32.31-38-38.5a95.18,95.18,0,0,1,32.28,39.36c-18.38-1.16-33.79-2.89-45.29-4.41a395.73,395.73,0,0,1-87.15-25,19,19,0,0,1-8.39-5.83c-4.12-5.31-1.63-9.17-4.83-14.36-1.69-2.74-7.25-5.15-18.29-9.88-1.83-.78-7.19-3.08-15.9-6.37-7.88-3-11.82-4.46-12.85-4.69-12.55-2.93-25,.09-29.12,5.54a4.71,4.71,0,0,0-1.23,3.86c.62,2,3.78,2.62,5.63,3.44,21.56,9.55,43,19.34,64.89,28.14,35.95,14.44,72.26,27.85,111,32.87a401.22,401.22,0,0,0,42.57,2.83C555.49,583.46,556.35,581.45,554.36,576.36Z"/></g></g></svg>