<svg xmlns="http://www.w3.org/2000/svg" viewBox="0 0 1518.261 1252.699"><defs><clipPath id="a" transform="translate(45.261 9.194)"><path class="a" d="M919.695 77.568c-46.25-13.413-275.38-74.32-504.783 51.652-166.093 91.207-241.687 230.604-274.695 293.478C86.063 525.852 9.532 671.629 62.739 781.915c97.478 202.051 560.736 140.55 664.434 126.783 166.151-22.058 622.56-82.65 669.13-321.652 39.15-200.916-228.912-437.644-476.608-509.478Z"/></clipPath><clipPath id="b" transform="translate(45.261 9.194)"><path class="a" d="M919.695 76.002c-46.25-13.412-275.38-74.32-504.783 51.653-166.093 91.207-241.687 230.603-274.695 293.478C86.063 524.287 9.532 670.064 62.739 780.35c97.478 202.051 560.736 140.55 664.434 126.783 166.151-22.058 622.56-82.65 669.13-321.652 39.15-200.916-228.912-437.644-476.608-509.479Z"/></clipPath><style>.a{fill:none}.b,.e{fill:#fff}.b{opacity:.12}.f{fill:#e07352}.g{fill:#e1e1e1}.i{fill:#1c263d}.k{fill:#f9fbfc}.l{opacity:.21}.n{opacity:.18}.o{fill:#dc8a76}.p{fill:#9b5c53}.q{fill:#1a2e35}.u{fill:#f1f2f2}</style></defs><path class="b" d="M964.957 85.197c-46.25-13.413-275.38-74.32-504.783 51.652-166.094 91.207-241.687 230.604-274.696 293.478C131.324 533.481 54.793 679.26 108 789.544c97.478 202.052 560.736 140.55 664.435 126.783 166.15-22.058 622.559-82.65 669.13-321.652 39.15-200.916-228.913-437.644-476.608-509.478Z"/><g style="opacity:.03"><g style="clip-path:url(#a)"><path class="e" d="M1517.315 436.002s-1.086.29-3.316.814l-4.184.966c-1.673.37-3.633.549-5.849.887a57.272 57.272 0 0 1-7.48.664 70.568 70.568 0 0 1-9.072.017 36.375 36.375 0 0 1-5.092-.391c-1.75-.22-3.573-.396-5.44-.674a102.783 102.783 0 0 1-11.695-2.78c-16.27-4.765-34.585-15.55-50.432-32.702-1.979-2.14-4.004-4.31-5.861-6.666-1.936-2.298-3.846-4.677-5.654-7.188-3.613-5.016-6.95-10.408-10.308-15.975-6.748-11.06-13.458-23.21-24.027-33.307-10.526-10.096-24.928-17.225-40.802-21.273-15.908-4.137-33.178-5.559-50.982-5.815-17.83-.317-36.368.27-55.414-1.477a156.711 156.711 0 0 1-28.586-5.034 107.124 107.124 0 0 1-13.958-4.886 88.757 88.757 0 0 1-12.99-7.22 77.125 77.125 0 0 1-21.2-20.678 58.37 58.37 0 0 1-6.825-13.204 48.192 48.192 0 0 1-2.705-14.643 44.862 44.862 0 0 1 10.026-28.286 69.113 69.113 0 0 1 25.698-18.8 130.876 130.876 0 0 1 31.701-9.344c11.014-1.944 22.314-2.477 33.57-2.962 11.275-.514 22.629-.953 33.93-2.302a127.621 127.621 0 0 0 33.102-7.822 74.47 74.47 0 0 0 27.985-19.777c7.5-8.488 13.256-18.125 18.867-27.7 5.633-9.567 11.062-19.268 18.084-27.94 6.835-8.822 15.457-16.185 24.67-22.418 18.485-12.55 40.065-19.935 61.604-23.016a154.036 154.036 0 0 1 32.29-.869 133.29 133.29 0 0 1 30.687 6.638l.603.21v.612l-.437 270.162-.26 76.88-.124 20.351-.062 5.212c-.02 1.165-.063 1.736-.063 1.736s-.041-.63-.062-1.824l-.062-5.297-.125-20.5-.258-77.043-.437-269.677.602.821a131.38 131.38 0 0 0-30.183-6.488 152.091 152.091 0 0 0-31.823.89c-21.239 3.057-42.53 10.367-60.706 22.729-9.06 6.138-17.527 13.376-24.217 22.024-6.892 8.515-12.285 18.145-17.918 27.726-5.617 9.587-11.42 19.332-19.082 28.01a76.537 76.537 0 0 1-28.745 20.314 129.67 129.67 0 0 1-33.67 7.966c-11.42 1.36-22.82 1.795-34.09 2.307-11.284.483-22.439 1.008-33.3 2.92a128.837 128.837 0 0 0-31.189 9.17 67.173 67.173 0 0 0-24.979 18.22 43.1 43.1 0 0 0-9.654 27.143 46.477 46.477 0 0 0 2.59 14.096 56.622 56.622 0 0 0 6.606 12.807 75.3 75.3 0 0 0 20.673 20.206 86.867 86.867 0 0 0 12.688 7.075 105.203 105.203 0 0 0 13.685 4.808 154.88 154.88 0 0 0 28.231 5.013c18.878 1.762 37.384 1.214 55.264 1.565 17.878.293 35.285 1.755 51.38 5.98 16.055 4.133 30.718 11.423 41.418 21.753 10.734 10.33 17.427 22.594 24.127 33.659 3.331 5.573 6.629 10.947 10.189 15.933 1.778 2.491 3.661 4.858 5.574 7.149 1.833 2.348 3.833 4.508 5.786 6.64 15.648 17.09 33.724 27.862 49.81 32.695a102.777 102.777 0 0 0 11.572 2.842c1.849.29 3.655.478 5.39.711a36.134 36.134 0 0 0 5.05.433 71.098 71.098 0 0 0 9.015.075 58.149 58.149 0 0 0 7.45-.569 85.373 85.373 0 0 0 9.962-1.628c2.236-.447 3.439-.654 3.439-.654Z"/><path class="e" d="M1517.53 756.368s-4.307.017-12.46-.682a194.238 194.238 0 0 1-35.168-6.182c-14.855-4.087-33.026-10.647-50.534-23.473a106.11 106.11 0 0 1-24.052-24.203 104.053 104.053 0 0 1-15.575-34.03c-6.52-25.488-4.686-54.452-.166-84.565 2.19-15.122 5.135-30.641 6.881-46.764.915-8.056 1.488-16.255 1.77-24.57a201.152 201.152 0 0 0-.998-25.23 138.766 138.766 0 0 0-5.358-25.316 104.362 104.362 0 0 0-11.645-23.955c-9.942-15.223-25.27-27.391-42.746-36.09-17.518-8.777-37.036-14.493-57.115-18.563-20.128-4.045-40.908-6.596-61.784-10.191-20.853-3.573-41.471-8.259-60.392-16.346a171.667 171.667 0 0 1-50.052-32.544c-28.503-26.5-46.106-61.017-49.954-95.344a124.203 124.203 0 0 1 4.597-49.926c4.959-15.662 13.366-30.016 24.92-41.028 11.423-11.183 25.48-18.701 39.241-24.622 13.83-5.944 27.615-10.39 40.52-15.14 25.892-9.34 48.757-19.115 68.026-29.1a307.25 307.25 0 0 0 46.698-29.57 231.676 231.676 0 0 0 25.534-23.264l5.922-6.686c1.336-1.507 2.063-2.25 2.063-2.25s-.614.822-1.896 2.37c-1.3 1.536-3.168 3.873-5.773 6.817a220.4 220.4 0 0 1-25.332 23.586 303.16 303.16 0 0 1-46.652 29.935c-19.274 10.105-42.16 19.994-68.058 29.43-12.916 4.799-26.668 9.281-40.383 15.22-13.653 5.916-27.498 13.382-38.677 24.38-11.316 10.834-19.553 24.955-24.41 40.396a122.692 122.692 0 0 0-4.448 49.27c3.846 33.88 21.29 68.014 49.49 94.19a169.806 169.806 0 0 0 49.473 32.134c18.69 7.984 39.134 12.637 59.919 16.197 20.805 3.584 41.6 6.139 61.843 10.212 20.202 4.103 39.892 9.87 57.64 18.775 17.7 8.82 33.331 21.235 43.459 36.777a106.033 106.033 0 0 1 11.826 24.4 140.244 140.244 0 0 1 5.396 25.66c3.672 34.461-3.319 66.942-7.85 96.967-4.586 30.042-6.47 58.804-.109 84.031a102.95 102.95 0 0 0 15.252 33.674 105.134 105.134 0 0 0 23.67 24.031c17.273 12.787 35.29 19.42 50.045 23.598a201.402 201.402 0 0 0 34.983 6.515c4.053.504 7.173.593 9.26.783a77.94 77.94 0 0 1 3.158.286Z"/><path class="e" d="M840.561 952.93s-1.278.02-3.779-.085a53.857 53.857 0 0 1-10.855-2.123 50.131 50.131 0 0 1-15.852-7.964 29.956 29.956 0 0 1-7.583-8.114 19.332 19.332 0 0 1-3.133-11.874c2.766-17.368 16.279-36.17 37.078-51.2a201.956 201.956 0 0 1 36.023-20.394 355.261 355.261 0 0 1 44.18-15.605c15.828-4.544 32.62-8.59 50.06-12.908 17.448-4.288 35.519-9.023 53.681-15.404 18.096-6.443 36.404-14.432 53.224-25.586 16.839-11.022 31.874-25.68 42.028-43.608 10.123-17.96 15.161-38.66 16.659-59.83 1.52-21.247-.527-43.013-3.765-64.957-3.189-21.966-7.478-44.24-9.62-67.146-2.128-22.815-2.27-46.593 4.442-69.561a100.465 100.465 0 0 1 15.607-32.105 88.115 88.115 0 0 1 12.293-13.285 98.294 98.294 0 0 1 14.91-10.497c21.385-12.018 46.531-16.126 70.352-14.838 23.884 1.349 47.167 8.091 66.318 20.2a101.025 101.025 0 0 1 24.796 21.882 106.472 106.472 0 0 1 15.835 27.396c7.662 19.316 10.219 39.468 10.588 58.805.38 19.406-1.659 38.149-3.363 56.204-1.767 18.058-3.255 35.522-3.031 52.323.348 16.763 2.25 32.93 7.15 47.61a146.038 146.038 0 0 0 20.06 39.42c8.22 11.558 17.917 21.1 27.472 29.417a173.322 173.322 0 0 0 98.72 40.311c4.85.231 8.564.215 11.055.31 2.494.066 3.775.149 3.775.149s-1.276.049-3.773.048c-2.495-.031-6.217.05-11.085-.12a176.316 176.316 0 0 1-41.681-7.96 179.732 179.732 0 0 1-57.782-31.936c-9.656-8.333-19.461-17.91-27.79-29.533a147.074 147.074 0 0 1-20.37-39.716c-4.995-14.823-6.953-31.113-7.345-47.977-.267-16.896 1.188-34.422 2.92-52.487 1.668-18.068 3.662-36.755 3.251-56.031-.395-19.215-2.974-39.183-10.554-58.215a104.797 104.797 0 0 0-15.601-26.928 99.17 99.17 0 0 0-24.355-21.45c-18.82-11.88-41.777-18.524-65.33-19.839-23.482-1.262-48.247 2.82-69.168 14.593a96.29 96.29 0 0 0-14.57 10.264 86.183 86.183 0 0 0-12.006 12.978 98.647 98.647 0 0 0-15.308 31.514c-6.616 22.629-6.5 46.18-4.387 68.887 2.123 22.79 6.395 45.042 9.578 67.059 3.232 21.992 5.282 43.907 3.728 65.331-1.53 21.353-6.64 42.309-16.943 60.537-10.336 18.201-25.629 33.052-42.66 44.162-17.018 11.246-35.47 19.255-53.671 25.7-18.262 6.378-36.414 11.095-53.877 15.346-17.463 4.282-34.241 8.283-50.04 12.773a355.605 355.605 0 0 0-44.048 15.41 201.593 201.593 0 0 0-35.874 20.136c-20.7 14.8-34.162 33.451-36.985 50.402a18.681 18.681 0 0 0 2.948 11.494 29.394 29.394 0 0 0 7.358 8.002 50.147 50.147 0 0 0 15.592 8.036 56.766 56.766 0 0 0 10.744 2.295c2.481.17 3.76.281 3.76.281Z"/><path class="e" d="M868.85 952.93s-.23-1.114-.577-3.309c-.161-1.098-.414-2.46-.605-4.094l-.3-5.714c-.068-2.164.186-4.586.288-7.26.162-1.33.42-2.712.642-4.16a27.244 27.244 0 0 1 .95-4.485 58.666 58.666 0 0 1 9.25-20.038 83.72 83.72 0 0 1 20.13-19.86 141.133 141.133 0 0 1 30.398-15.962c11.575-4.536 24.582-7.856 38.518-10.38 13.946-2.55 28.851-4.233 44.455-6.065 15.593-1.869 31.962-3.78 48.564-7.73 16.541-3.931 33.543-9.619 48.864-19.135 15.337-9.396 28.265-23.289 35.703-40.226 7.742-16.825 11.082-35.65 13.39-54.853a1024.59 1024.59 0 0 0 6.662-121.468q-.189-31.65-2.359-64.32c-.751-10.881-1.726-21.795-2.718-32.839-.876-11.032-1.426-22.32.594-33.535 1.934-11.122 7.216-22.214 16.705-29.486 9.365-7.384 21.758-10.337 33.551-10.18a85.463 85.463 0 0 1 33.953 7.869 115.969 115.969 0 0 1 27.852 18.893c16.303 14.98 27.683 33.56 35.26 52.666 7.612 19.172 11.507 39.02 13.146 58.405 3.16 38.883-.761 75.792-.753 110.25-.11 17.228.746 33.903 3.758 49.624 2.988 15.693 8.241 30.437 16.283 42.969 8.012 12.55 18.727 22.587 30.074 30.355a153.132 153.132 0 0 0 35.032 17.53c5.828 2.044 11.54 3.824 17.144 5.194 2.785.707 5.551 1.496 8.226 2.26 2.623.923 5.245 1.707 7.694 2.74 9.911 3.889 18.478 8.354 26.227 12.228 7.742 3.89 14.67 7.258 20.905 9.699a102.045 102.045 0 0 0 16.184 5.06 67.722 67.722 0 0 0 10.37 1.53c2.362.168 3.576.303 3.576.303s-1.215-.003-3.592-.106a63.11 63.11 0 0 1-10.446-1.348 99.996 99.996 0 0 1-16.33-4.911c-6.29-2.397-13.27-5.724-21.046-9.566-7.78-3.825-16.361-8.23-26.224-12.04-9.747-4.064-21.418-5.66-33.098-10.038a154.027 154.027 0 0 1-35.396-17.546c-11.492-7.806-22.387-17.938-30.553-30.645-8.193-12.681-13.545-27.59-16.598-43.404-3.079-15.845-3.976-32.618-3.902-49.89-.078-34.552 3.768-71.445.569-110.104-1.658-19.28-5.544-38.927-13.099-57.907-7.518-18.91-18.785-37.24-34.828-51.961a114.07 114.07 0 0 0-27.338-18.533 83.338 83.338 0 0 0-33.076-7.66c-11.445-.146-23.303 2.718-32.198 9.736-9.026 6.922-14.102 17.488-15.998 28.34-1.971 10.93-1.446 22.087-.572 33.063.986 10.996 1.964 21.978 2.712 32.864q2.182 32.683 2.331 64.433a1020.251 1020.251 0 0 1-6.794 121.673c-2.344 19.264-5.724 38.25-13.612 55.324-7.572 17.187-20.832 31.393-36.421 40.887-15.579 9.632-32.764 15.326-49.427 19.248-16.728 3.94-33.17 5.814-48.77 7.64-15.617 1.789-30.494 3.424-44.388 5.916-13.885 2.467-26.82 5.72-38.327 10.173a140.79 140.79 0 0 0-30.241 15.697 83.35 83.35 0 0 0-20.055 19.54 58.496 58.496 0 0 0-9.326 19.762 27.04 27.04 0 0 0-.988 4.437c-.236 1.434-.51 2.803-.686 4.121-.133 2.653-.42 5.057-.387 7.21l.198 5.692q.297 2.421.5 4.092c.28 2.198.37 3.335.37 3.335Z"/><path class="e" d="M1264.84 626.167s.16.504.403 1.508l1.044 4.484c.856 3.966 2.329 9.81 3.809 17.495 3.09 15.344 7.01 37.924 10.056 66.727 6.11 57.48 7.948 140.467-9.171 236.693l-.13.727h-.791l-260.012.091c-11.924 0-23.768 0-34.809-.002h-.742l-.229-.637a40.124 40.124 0 0 1-2.383-14.161 46.086 46.086 0 0 1 2.922-13.941 60.25 60.25 0 0 1 6.892-12.51 71.327 71.327 0 0 1 9.716-10.58 72.368 72.368 0 0 1 24.996-14.305 128.293 128.293 0 0 1 28.055-6.092c18.922-2.107 37.578-1.347 55.669-1.852 18.04-.542 35.907-2.336 51.839-8.41a75.574 75.574 0 0 0 37.384-29.735c8.554-12.907 13.561-27.116 17.026-40.974 3.465-13.904 5.405-27.604 7.236-40.752 1.808-13.154 3.203-25.806 4.322-37.891a864.8 864.8 0 0 0 3.536-65.3c.266-9.595-.255-18.579 1.064-26.812 1.232-8.15 4.89-15.652 10.986-19.696 5.82-4.18 12.985-5.44 18.388-3.68a16.737 16.737 0 0 1 9.776 9.19 39.538 39.538 0 0 1 2.595 7.715c.418 1.776.553 2.7.553 2.7s-.269-.897-.75-2.656a42.879 42.879 0 0 0-2.763-7.603 16.413 16.413 0 0 0-9.604-8.823c-5.19-1.632-12.106-.37-17.724 3.733-5.858 3.958-9.342 11.21-10.514 19.25-1.244 8.093-.678 17.078-.887 26.695a846.185 846.185 0 0 1-3.241 65.398c-1.074 12.105-2.427 24.781-4.196 37.96-1.792 13.165-3.696 26.912-7.148 40.923-3.455 13.963-8.466 28.34-17.147 41.5a77.294 77.294 0 0 1-38.184 30.47c-16.263 6.222-34.347 8.04-52.485 8.609-18.193.524-36.784-.21-55.49 1.893a126.261 126.261 0 0 0-27.585 6.006 70.282 70.282 0 0 0-24.302 13.92 69.414 69.414 0 0 0-9.427 10.273 58.428 58.428 0 0 0-6.654 12.083 44.315 44.315 0 0 0-2.796 13.347 38.347 38.347 0 0 0 2.265 13.46l-.969-.637 34.81-.002 260.01.092-.92.726c17.25-96.015 15.68-178.867 9.899-236.304-2.881-28.781-6.623-51.363-9.526-66.727-1.386-7.694-2.764-13.554-3.522-17.537l-.897-4.511c-.193-1.014-.254-1.538-.254-1.538ZM1409.505 899.976c.071-.002.113.498.127 1.465a16.327 16.327 0 0 1-.432 4.21c-.743 3.61-3.187 8.727-8.356 13.354-5.132 4.411-13.379 8.572-23.052 7.434a23.758 23.758 0 0 1-13.268-6.09 27.616 27.616 0 0 1-7.716-12.927 25.562 25.562 0 0 1 .466-14.792 20.689 20.689 0 0 1 8.929-11 25.898 25.898 0 0 1 12.82-3.559 31.536 31.536 0 0 1 11.44 1.87c6.659 2.496 10.878 6.6 12.74 9.847l1.146 2.211a15.884 15.884 0 0 1 .561 1.715c.27.934.375 1.425.306 1.442s-.31-.443-.7-1.318c-.21-.432-.393-.993-.728-1.605l-1.27-2.055c-2-3.009-6.175-6.745-12.568-8.962-6.25-2.095-15.213-2.673-22.697 1.893a18.962 18.962 0 0 0-8.057 10.11 24.024 24.024 0 0 0-.383 13.742 26.004 26.004 0 0 0 7.133 12.044 21.89 21.89 0 0 0 12.111 5.675c8.876 1.158 16.781-2.585 21.803-6.682a26.4 26.4 0 0 0 8.56-12.526 21.438 21.438 0 0 0 .798-4.052 4.15 4.15 0 0 1 .287-1.444ZM16.679 718.004s1.762.174 5.196.61a49.09 49.09 0 0 1 6.347 1.082 78.525 78.525 0 0 1 8.626 2.145c12.996 3.56 31.03 12.215 51.28 26.973 20.497 14.412 42.977 35.216 74.037 53.048a324.833 324.833 0 0 0 114.718 40.703c22.59 3.167 46.76 4.33 71.54 1.357 6.215-.566 12.397-1.742 18.666-2.756 3.117-.59 6.217-1.332 9.349-1.995 3.143-.627 6.256-1.42 9.357-2.308a243.117 243.117 0 0 0 37.045-12.958 223.843 223.843 0 0 0 35.344-19.244 200.536 200.536 0 0 0 31.882-25.8 196.644 196.644 0 0 0 26.282-32.269c7.705-11.716 14.554-24.131 21.68-36.626 7.178-12.459 14.53-25.128 23.716-36.92 9.169-11.73 20.046-22.843 33.622-30.876a119.038 119.038 0 0 1 45.062-15.828 177.693 177.693 0 0 1 49.166.344 242.479 242.479 0 0 1 48.283 12.295c15.734 5.674 30.828 12.962 45.76 20.658 29.871 15.385 58.811 33.22 90.478 46.992 31.355 14.097 65.82 22.221 99.749 19.908a155.405 155.405 0 0 0 24.956-3.603c8.05-2.153 16.055-4.556 23.386-8.237 7.526-3.34 14.208-7.981 20.571-12.838 2.871-2.75 6.015-5.25 8.65-8.185a93.072 93.072 0 0 0 7.484-9.07c9.215-12.644 14.873-27.133 18.54-41.733a227.744 227.744 0 0 0 6.082-44.304 427.442 427.442 0 0 0-4.199-86.52 438.555 438.555 0 0 0-52.825-151.791 449.998 449.998 0 0 0-41.914-61.205c-15.036-18.652-30.45-35.863-44.553-52.757-14.125-16.867-26.99-33.432-37.478-50.098-10.522-16.627-18.784-33.274-24.22-49.557a151.05 151.05 0 0 1-8.364-46.706 124.041 124.041 0 0 1 6.22-39.378c7.807-22.967 20.464-38.283 30.417-46.703l3.51-3.014 3.276-2.394 2.791-2.034 2.44-1.488c2.909-1.759 4.423-2.616 4.423-2.616s-1.441.97-4.304 2.779L916.35 6.61l-2.751 2.067-3.233 2.421-3.462 3.038c-9.82 8.475-22.292 23.78-29.936 46.642a123.656 123.656 0 0 0-6.004 39.149 150.51 150.51 0 0 0 8.481 46.389c5.457 16.176 13.725 32.72 24.25 49.259 10.491 16.575 23.354 33.063 37.498 49.882 14.121 16.845 29.573 34.032 44.676 52.702a450.79 450.79 0 0 1 42.152 61.348 439.598 439.598 0 0 1 53.198 152.292 428.633 428.633 0 0 1 4.284 86.864 229.287 229.287 0 0 1-6.104 44.634c-3.698 14.755-9.42 29.465-18.81 42.364a94.942 94.942 0 0 1-7.633 9.258c-2.69 2.996-5.897 5.557-8.832 8.363-6.493 4.968-13.323 9.704-20.99 13.113-7.478 3.753-15.62 6.204-23.805 8.392a157.596 157.596 0 0 1-25.32 3.664c-34.338 2.358-69.237-5.898-100.765-20.075-31.85-13.855-60.82-31.72-90.6-47.062-14.882-7.674-29.918-14.934-45.506-20.56a240.446 240.446 0 0 0-47.845-12.203 175.606 175.606 0 0 0-48.553-.367 116.993 116.993 0 0 0-44.294 15.526c-13.327 7.87-24.044 18.795-33.128 30.396-9.101 11.661-16.431 24.26-23.609 36.695-7.128 12.47-14.007 24.916-21.773 36.7a198.33 198.33 0 0 1-26.548 32.522 202.204 202.204 0 0 1-32.181 25.981 225.475 225.475 0 0 1-35.636 19.346 244.764 244.764 0 0 1-37.323 12.998c-3.123.888-6.258 1.682-9.423 2.309-3.155.663-6.276 1.404-9.415 1.994-6.312 1.012-12.536 2.185-18.794 2.747-24.953 2.952-49.258 1.739-71.962-1.488a325.29 325.29 0 0 1-115.1-41.135c-31.124-17.995-53.55-38.91-73.915-53.368-20.133-14.815-38.01-23.53-50.917-27.196a80.251 80.251 0 0 0-8.568-2.228 51.19 51.19 0 0 0-6.31-1.174c-3.417-.5-5.164-.805-5.164-.805Z"/><path class="e" d="M293.823 2.308s-1.771.07-5.207.103c-3.48.02-8.573.052-15.234.093l-58.434.158c-50.709.045-123.888.11-213.975.192l.777-.725.195 253.809-.096-.392c4.789 9.06 12.142 16.977 20.328 24a142.043 142.043 0 0 0 27.505 18.267 116.564 116.564 0 0 0 32.136 11.194c11.232 1.986 23.594 1.743 33.58-4.12 10.258-5.3 18.47-13.656 25.165-22.886 6.753-9.258 12.23-19.404 18.09-29.45 5.86-10.031 12.071-20.15 20.364-28.96l3.13-3.282 3.484-2.979a52.33 52.33 0 0 1 7.448-5.453c2.495-1.84 5.435-3.033 8.196-4.49a76.051 76.051 0 0 1 8.913-3.15c14.303-4.16 29.482-3.554 43.756-1.15 14.354 2.463 28.121 6.755 41.457 11.57 26.64 9.683 52.5 20.115 77.553 31.081 25.051 10.963 49.267 22.528 72.602 34.456 11.682 5.903 23.305 11.647 35.36 16.05 12.034 4.386 24.535 7.454 37.127 7.855 12.536.417 25.138-1.597 36.045-6.727a51.395 51.395 0 0 0 14.538-9.964c2.247-1.879 3.9-4.233 5.775-6.39.864-1.132 1.563-2.366 2.352-3.54a23.486 23.486 0 0 0 2.109-3.65c2.747-4.92 4.22-10.305 5.5-15.621a78.981 78.981 0 0 0 1.356-16.223 104.014 104.014 0 0 0-5.551-31.384c-3.223-10.047-7.975-19.401-13.11-28.327a214.783 214.783 0 0 0-17.079-25.192 263.683 263.683 0 0 0-19.512-22.128c-6.891-6.794-13.82-13.29-21.037-19.18a350.608 350.608 0 0 0-43.586-30.766c-14.556-8.67-28.773-16.207-41.913-23.43-26.362-14.346-49.52-25.965-68.795-34.804-19.299-8.798-34.678-14.85-45.2-18.71-5.252-1.968-9.294-3.332-12.01-4.274-2.715-.946-4.101-1.48-4.101-1.48s5.684 1.623 16.262 5.392c10.58 3.745 26.026 9.694 45.401 18.398 19.35 8.745 42.59 20.28 69.022 34.546 13.185 7.189 27.394 14.662 42.045 23.332a351.025 351.025 0 0 1 43.845 30.779c7.264 5.9 14.244 12.411 21.19 19.228a264.896 264.896 0 0 1 19.675 22.22 216.083 216.083 0 0 1 17.247 25.333c5.184 8.969 10.01 18.423 13.292 28.594a105.482 105.482 0 0 1 5.681 31.83 80.503 80.503 0 0 1-1.362 16.554c-1.299 5.45-2.807 10.974-5.628 16.055a24.64 24.64 0 0 1-2.17 3.768c-.811 1.213-1.534 2.486-2.425 3.655-1.93 2.237-3.643 4.665-5.958 6.614a53.218 53.218 0 0 1-15.012 10.314c-11.249 5.305-24.159 7.364-36.955 6.952-12.862-.397-25.599-3.519-37.764-7.943-12.198-4.444-23.895-10.217-35.594-16.117-23.33-11.904-47.5-23.43-72.522-34.366-25.016-10.935-50.849-21.346-77.433-31.002-13.274-4.79-26.933-9.038-41.086-11.464-14.078-2.371-28.93-2.938-42.782 1.098a73.844 73.844 0 0 0-8.632 3.048c-2.668 1.416-5.516 2.56-7.93 4.348a50.397 50.397 0 0 0-7.221 5.288l-3.388 2.893-3.056 3.207c-8.107 8.605-14.264 18.604-20.105 28.604-5.847 10.014-11.347 20.208-18.203 29.607-6.797 9.362-15.232 17.979-25.867 23.47a41.063 41.063 0 0 1-17.126 5.226 66.581 66.581 0 0 1-17.816-.913 118.583 118.583 0 0 1-32.725-11.41 143.946 143.946 0 0 1-27.878-18.543C12.54 273.76 5.052 265.72.096 256.331L0 256.15v-.211L.195 2.129v-.727l.778.001 214.08.455 58.398.23c6.647.05 11.73.087 15.201.112 3.425.036 5.171.108 5.171.108Z"/><path class="e" d="M13.246 416.754s.668 1.602 1.873 4.757l5.301 14.019c5.05 12.18 12.275 30.265 23.878 52.603a607.298 607.298 0 0 0 48.038 78.407c10.608 14.574 22.527 29.798 36.052 45.287 13.632 15.4 28.674 31.203 45.52 46.846 8.546 7.699 17.262 15.62 26.652 23.233 9.193 7.815 19.022 15.345 29.3 22.707 20.57 14.645 43.546 28.294 69.613 37.604a187.388 187.388 0 0 0 41.023 9.828 163.746 163.746 0 0 0 43.623-.65 136.4 136.4 0 0 0 42.38-13.517 105.186 105.186 0 0 0 34.207-28.437c18.583-23.528 27.912-53.389 49.275-77.41 21.31-23.81 51.718-40.664 84.85-49.062 33.162-8.827 69.121-8.93 103.88-2.616 34.89 6.235 68.74 18.485 101.25 33.58 16.322 7.498 31.97 15.95 47.874 23.585 15.883 7.633 32.228 14.368 49.344 18.134a115.161 115.161 0 0 0 51.62-.058c16.596-4.034 31.84-13.275 40.773-26.72a59.129 59.129 0 0 0 9.435-21.637 82.237 82.237 0 0 0 1.75-23.242c-1.028-15.53-5.43-30.626-11.705-44.718-13.141-28.035-32.19-52.706-52.374-75.039-20.302-22.364-42.233-42.41-63.754-61.616-21.511-19.231-42.819-37.524-62.321-56.288a527.548 527.548 0 0 1-52.574-57.5 296.318 296.318 0 0 1-36.848-60.61c-8.971-20.61-14.496-41.448-15.942-61.475a118.416 118.416 0 0 1 9.652-55.478c7.09-16.436 16.976-30.292 27.217-42.006a245.34 245.34 0 0 1 31.587-28.984c5.171-3.912 10.229-7.41 14.952-10.708 4.899-3.075 9.412-6.046 13.724-8.629l12.121-6.87L824.8 8.813c6.101-3.224 11.05-5.146 14.247-6.668C842.285.697 843.965 0 843.965 0s-1.62.817-4.826 2.322c-3.166 1.58-8.08 3.558-14.142 6.832l-10.245 5.335-12.049 6.937c-4.286 2.604-8.772 5.593-13.64 8.684-4.694 3.315-9.72 6.826-14.856 10.75a245.71 245.71 0 0 0-31.34 28.991c-10.147 11.691-19.921 25.495-26.904 41.82a117.436 117.436 0 0 0-9.413 54.999c1.481 19.847 7.02 40.572 15.983 61.037a295.472 295.472 0 0 0 36.788 60.257 527.247 527.247 0 0 0 52.51 57.256c19.481 18.695 40.802 36.957 62.348 56.177 21.556 19.197 43.553 39.262 63.95 61.694 20.291 22.427 39.427 47.13 52.743 75.479 6.352 14.244 10.826 29.516 11.882 45.32a83.968 83.968 0 0 1-1.78 23.74 60.921 60.921 0 0 1-9.701 22.266c-9.205 13.873-24.974 23.42-41.947 27.538a117.308 117.308 0 0 1-52.618.084c-17.364-3.819-33.864-10.626-49.813-18.288-15.98-7.671-31.594-16.104-47.854-23.573-32.397-15.043-66.077-27.226-100.717-33.421-34.522-6.274-70.116-6.174-102.952 2.551-32.809 8.302-62.852 24.96-83.874 48.419-21.069 23.602-30.422 53.41-49.258 77.285a107.052 107.052 0 0 1-34.83 28.901 138.308 138.308 0 0 1-43.001 13.674 165.595 165.595 0 0 1-44.134.614 189.117 189.117 0 0 1-41.414-9.97c-26.27-9.422-49.346-23.185-69.969-37.916-10.304-7.405-20.148-14.973-29.347-22.821-9.397-7.647-18.118-15.602-26.667-23.333-16.852-15.71-31.89-31.578-45.51-47.038-13.512-15.55-25.41-30.832-35.991-45.46a600.86 600.86 0 0 1-47.805-78.687c-11.506-22.415-18.617-40.561-23.543-52.792l-5.11-14.089a187.406 187.406 0 0 1-1.673-4.82Z"/><path class="e" d="M558.324 0s-.54 1.078-1.687 3.133c-1.152 2.051-2.909 5.083-4.92 9.192q-1.619 3.034-3.278 6.92c-1.208 2.55-2.324 5.41-3.457 8.536a93.47 93.47 0 0 0-5.348 22.139 80.324 80.324 0 0 0 1.928 28.246c2.45 10.154 7.189 20.684 13.57 31.27 12.91 21.183 31.27 43.128 50.408 68.111 9.53 12.523 19.185 25.93 27.603 40.804 8.393 14.79 15.762 31.29 18.224 49.37a114.99 114.99 0 0 1 1.105 27.624 93.328 93.328 0 0 1-6.15 27.96 76.226 76.226 0 0 1-15.875 25.4 70.862 70.862 0 0 1-26.944 16.728c-10.366 3.543-21.693 4.661-32.887 4.103a169.404 169.404 0 0 1-33.432-5.446c-11.043-2.768-21.945-6.306-32.945-9.78l-33.321-10.558c-22.425-7.025-45.212-14.51-68.399-21.499-11.543-3.178-24.01-5.416-35.782-2.347-11.757 2.988-21.205 11.635-26.41 22.02a58.061 58.061 0 0 0-5.729 33.514c1.476 11.374 5.639 22.242 10.699 32.543 10.151 20.59 23.88 39.57 30.484 61.132 3.338 10.664 4.894 21.922 3.126 32.844a57.175 57.175 0 0 1-14.487 29.332 81.443 81.443 0 0 1-27.297 18.842 105.832 105.832 0 0 1-32.01 8.179 102.86 102.86 0 0 1-32.303-1.935 139.824 139.824 0 0 1-29.53-10.237c-18.522-8.783-34.42-20.57-48.617-32.85-14.243-12.3-26.861-25.208-38.963-37.6-12.072-12.428-23.23-24.709-33.736-36.536A1034.497 1034.497 0 0 1 31.75 320.601c-19.093-29.378-28.295-46.34-28.295-46.34s.68 1.006 1.915 3.015l5.44 8.943a1164.258 1164.258 0 0 0 21.625 33.99 1061.252 1061.252 0 0 0 90.657 118.08c10.53 11.783 21.705 24.02 33.79 36.405 12.118 12.35 24.747 25.213 38.944 37.424 14.153 12.197 29.958 23.86 48.274 32.512 18.198 8.576 39.265 14.247 60.82 11.917 21.274-2.101 43.128-10.552 58.003-26.452a55.368 55.368 0 0 0 14.007-28.41c1.706-10.585.198-21.558-3.09-32.043-6.49-21.198-20.132-40.071-30.41-60.86-5.11-10.398-9.361-21.452-10.877-33.108a59.836 59.836 0 0 1 5.915-34.58 47.413 47.413 0 0 1 11.194-14.374 41.9 41.9 0 0 1 16.522-8.665c12.411-3.219 25.251-.844 36.92 2.362 23.341 7.041 46.011 14.502 68.467 21.55l33.313 10.579c11.007 3.483 21.86 7.014 32.818 9.77a167.471 167.471 0 0 0 33.016 5.414c11 .558 22.051-.53 32.14-3.965a68.999 68.999 0 0 0 26.216-16.23 74.597 74.597 0 0 0 15.543-24.805 91.83 91.83 0 0 0 6.095-27.504 113.576 113.576 0 0 0-1.04-27.28c-2.396-17.871-9.621-34.154-17.938-48.902-8.328-14.8-17.91-28.184-27.385-40.71-19.031-24.997-37.341-47.03-50.224-68.373-6.374-10.678-11.103-21.32-13.522-31.59a80.75 80.75 0 0 1-1.766-28.53 93.186 93.186 0 0 1 5.565-22.246c1.169-3.13 2.32-5.99 3.562-8.536q1.712-3.877 3.378-6.901c2.077-4.092 3.896-7.096 5.11-9.12C557.66 1.014 558.324 0 558.324 0Z"/><path class="e" d="M4.986 305.702s.703 1.325 1.982 3.951l5.625 11.673a1243.643 1243.643 0 0 0 22.742 44.393 1164.18 1164.18 0 0 0 99.978 154.83c11.959 15.495 24.72 31.578 38.628 47.893 14.014 16.215 28.398 33.332 45.615 48.966a188.366 188.366 0 0 0 28.355 21.445 125.236 125.236 0 0 0 34.118 14.456 118.848 118.848 0 0 0 38.395 2.787 154.044 154.044 0 0 0 38.588-8.723c25.169-9.055 48.632-23.346 70.459-40.038 21.804-16.815 42.445-35.816 65.12-53.457 22.586-17.573 47.681-34.053 76.816-43.277 29.138-8.977 60.994-10.446 91.944-5.88 31.044 4.485 60.657 13.682 88.733 24.697 14.079 5.45 27.783 11.49 41.27 17.554 13.473 5.98 27.215 11.516 41.675 13.52 14.282 1.983 29.5.02 41.414-7.256a37.779 37.779 0 0 0 13.79-14.538 41.449 41.449 0 0 0 4.614-18.886 55.253 55.253 0 0 0-3.175-19.11 77.994 77.994 0 0 0-8.927-17.35c-7.313-10.893-16.572-20.36-25.595-29.758-36.205-37.551-70.594-73.434-98.948-109.868-28.423-36.313-50.655-73.25-64.411-109.369a295.801 295.801 0 0 1-14.604-52.823 289.503 289.503 0 0 1-3.8-48.537c.778-30.435 6.88-56.375 15.008-76.374a188.917 188.917 0 0 1 24.86-43.319C722.715 4.455 726.88.001 726.88.001s-.94 1.193-2.852 3.458c-1.874 2.29-4.852 5.563-8.436 10.072a192.058 192.058 0 0 0-24.445 43.354c-7.981 19.964-13.94 45.818-14.605 76.128a289.591 289.591 0 0 0 3.941 48.326 295.48 295.48 0 0 0 14.683 52.56c13.784 35.93 36.007 72.705 64.42 108.887 28.346 36.306 62.733 72.1 98.98 109.622 9.027 9.387 18.372 18.91 25.824 29.984a79.73 79.73 0 0 1 9.142 17.745 56.97 56.97 0 0 1 3.288 19.705 43.182 43.182 0 0 1-4.804 19.673 39.684 39.684 0 0 1-14.469 15.276c-12.465 7.607-28.129 9.59-42.815 7.568-14.813-2.051-28.737-7.678-42.252-13.667-13.515-6.07-27.147-12.074-41.189-17.507-27.982-10.972-57.447-20.111-88.248-24.56-30.714-4.53-62.203-3.063-90.98 5.79-28.768 9.1-53.667 25.413-76.176 42.912-22.602 17.565-43.248 36.55-65.164 53.429-21.957 16.764-45.583 31.143-71.031 40.274a155.958 155.958 0 0 1-39.099 8.794 120.783 120.783 0 0 1-39.03-2.878 127.014 127.014 0 0 1-34.611-14.71 189.895 189.895 0 0 1-28.589-21.682c-17.308-15.768-31.674-32.934-45.671-49.19-13.892-16.36-26.634-32.487-38.569-48.027a1143.053 1143.053 0 0 1-99.507-155.283c-10.16-19.162-17.53-34.275-22.403-44.569l-5.44-11.753a140.829 140.829 0 0 1-1.787-4.03Z"/><path class="e" d="M441.024 2.308s.602.713 1.69 2.156l4.785 6.43c4.196 5.659 10.549 13.897 19.01 24.307 8.528 10.364 19.32 22.782 32.197 36.936 12.83 14.188 27.767 30.114 43.2 48.561a686.328 686.328 0 0 1 46.698 62.89c7.653 11.758 14.982 24.372 20.32 38.247 5.401 13.805 8.46 29.083 7.254 44.67a81.133 81.133 0 0 1-5.083 23.151 66.969 66.969 0 0 1-13.022 20.926c-11.497 12.562-28.534 20.368-46.393 23.274-17.937 2.996-36.743 1.912-54.968-1.998-18.23-4.002-36.01-10.4-53.367-17.935-34.729-15.146-66.462-33.764-99.607-46.876-16.524-6.566-33.301-11.96-50.267-14.952a186.56 186.56 0 0 0-25.38-2.808 144.242 144.242 0 0 0-24.886 1.358 128.363 128.363 0 0 0-23.579 5.522 110.82 110.82 0 0 0-21.339 9.479c-13.276 7.55-24.218 17.874-31.337 29.75-7.2 11.854-10.594 25.01-17.526 36.215a45.883 45.883 0 0 1-30.7 22.037c-12.431 2.751-24.853 1.185-35.59-2.142a69.87 69.87 0 0 1-27.083-15.65 194.536 194.536 0 0 1-18.347-19.474c-5.258-6.276-9.769-12.213-13.74-17.603C8.16 277.157.973 264.305.973 264.305s.55.747 1.534 2.253l4.384 6.673c3.896 5.838 9.716 14.414 17.733 25.121 4.016 5.348 8.567 11.24 13.854 17.464a195.805 195.805 0 0 0 18.37 19.261 68.797 68.797 0 0 0 26.704 15.267c10.56 3.226 22.758 4.702 34.832 1.98a44.373 44.373 0 0 0 29.656-21.45c6.765-10.978 10.11-24.12 17.415-36.258 7.238-12.15 18.388-22.705 31.877-30.411A112.55 112.55 0 0 1 219 254.53a130.188 130.188 0 0 1 23.915-5.64 146.144 146.144 0 0 1 25.248-1.413 188.37 188.37 0 0 1 25.68 2.81c17.15 3.006 34.066 8.432 50.69 15.023 33.342 13.169 65.115 31.796 99.683 46.866 17.274 7.5 34.93 13.85 52.961 17.814 17.989 3.869 36.547 4.937 54.142 2.008 17.53-2.845 34.087-10.443 45.261-22.619a65.236 65.236 0 0 0 12.693-20.344 79.523 79.523 0 0 0 5.007-22.654c1.208-15.309-1.755-30.315-7.067-43.978-5.245-13.724-12.483-26.261-20.073-37.987a691.774 691.774 0 0 0-46.386-62.883c-15.328-18.463-30.179-34.444-42.93-48.704-12.8-14.227-23.517-26.73-31.956-37.176-16.766-20.977-24.844-33.346-24.844-33.346ZM663.95 410.674a17.433 17.433 0 0 1 3.374-4.337 27.73 27.73 0 0 1 14.407-7.244 27.1 27.1 0 0 1 11.96.546 26.807 26.807 0 0 1 11.943 7.234 24.121 24.121 0 0 1 6.71 13.911 26.001 26.001 0 0 1-4.334 16.608 40.986 40.986 0 0 1-14.328 13.28 73.133 73.133 0 0 1-20.414 7.335c-7.36 1.626-15.075 2.608-22.96 3.77l-24.362 3.513-52.318 7.513-27.675 3.959c-9.374 1.253-18.836 2.982-28.687 3.455-9.748.452-19.994-.659-28.416-5.428a32.56 32.56 0 0 1-10.65-9.106 22.04 22.04 0 0 1-4.434-12.653c-.09-9.041 5.157-17.194 12.067-22.563 7.087-5.38 15.732-8.066 24.1-9.408 16.91-2.487 33.133-.962 48 .759 14.9 1.79 28.694 3.859 41.394 4.54 25.403 1.554 46.062-3.667 58.14-10.578 12.245-6.871 16.402-13.627 16.689-13.304a7.141 7.141 0 0 1-.847 1.107c-.608.695-1.432 1.804-2.703 3.101a57.868 57.868 0 0 1-12.724 9.738c-12.104 7.202-32.985 12.693-58.637 11.296-12.8-.6-26.659-2.6-41.522-4.315-14.818-1.652-30.937-3.08-47.465-.595-8.164 1.328-16.483 3.973-23.168 9.076-6.527 5.08-11.418 12.827-11.3 21.111.076 8.335 6.164 15.884 14.106 20.144 7.962 4.506 17.716 5.591 27.274 5.154 9.612-.457 19.093-2.175 28.474-3.425l27.68-3.93 52.335-7.402 24.375-3.433c7.902-1.134 15.59-2.082 22.845-3.651a71.737 71.737 0 0 0 19.982-7.053 39.675 39.675 0 0 0 13.897-12.707 24.852 24.852 0 0 0 4.28-15.793 23.04 23.04 0 0 0-6.268-13.313 25.793 25.793 0 0 0-11.37-7.07 26.357 26.357 0 0 0-11.525-.685 27.983 27.983 0 0 0-14.253 6.779 44.855 44.855 0 0 0-3.672 4.064ZM786.621 825.976s-.415.582-1.309 1.66l-4.009 4.757c-1.768 2.087-3.933 4.69-6.741 7.568-2.802 2.88-5.822 6.39-9.676 9.947a321.097 321.097 0 0 1-28.933 25.054 334.793 334.793 0 0 1-100.844 51.93c-5.417 1.661-10.977 3.224-16.636 4.76-5.733 1.274-11.469 2.933-17.453 3.95a214.768 214.768 0 0 1-37.154 4.781c-12.826.323-26.375-1.154-38.76-6.523-12.239-5.24-23.619-14.322-28.852-26.816-5.428-12.42-4.162-26.678.367-39.44 4.498-12.913 11.855-24.921 19.9-36.474a388.734 388.734 0 0 1 54.306-62.546c19.852-18.267 40.633-34.562 62.867-46.67 22.14-12.08 46.083-19.59 69.09-19.976 22.907-.574 44.439 5.318 60.388 15.857a77.538 77.538 0 0 1 19.603 18.258 112.558 112.558 0 0 1 12.122 20.085c6.281 13.176 8.973 25.567 9.254 35.7.342 10.18-2.263 18.008-5.08 22.626a23.824 23.824 0 0 1-3.583 5.045c-.9 1.077-1.398 1.594-1.398 1.594s.392-.605 1.232-1.716a25.621 25.621 0 0 0 3.38-5.102c2.666-4.625 5.105-12.365 4.645-22.427-.4-10.015-3.18-22.267-9.505-35.283-6.327-12.823-15.53-27.482-31.509-37.664-15.713-10.28-36.929-16.01-59.506-15.376-22.65.448-46.263 7.9-68.175 19.912-21.998 12.031-42.66 28.274-62.397 46.472a388.564 388.564 0 0 0-54 62.258c-8.014 11.503-15.263 23.356-19.68 36.017-4.448 12.521-5.625 26.267-.444 38.149 4.975 11.939 15.905 20.733 27.801 25.847 12.01 5.23 25.242 6.713 37.884 6.419a213.607 213.607 0 0 0 36.824-4.664c5.953-.995 11.659-2.631 17.365-3.882 5.631-1.512 11.166-3.05 16.56-4.686a337.11 337.11 0 0 0 100.661-51.252 332.231 332.231 0 0 0 29.08-24.737c3.89-3.507 6.948-6.97 9.794-9.805 2.851-2.832 5.063-5.391 6.88-7.436l4.165-4.632c.949-1.038 1.476-1.539 1.476-1.539ZM2.278 754.007a6.706 6.706 0 0 1 1.318.097c.863.119 2.172.208 3.847.529a49.418 49.418 0 0 1 13.89 5.104c11.363 5.973 24.65 19.748 33.035 40.07 4.21 10.116 7.456 21.592 11.354 33.72 3.935 12.07 8.646 25.046 17.348 36.66 8.521 11.7 20.91 21.603 35.318 29.08 14.476 7.435 30.96 12.488 48.236 15.298 17.32 2.716 34.591 3.02 51.167 2.413 16.596-.621 32.568-2.12 47.798-3.46 15.229-1.359 29.736-2.53 43.367-2.979a309.154 309.154 0 0 1 37.907 1.041c23.13 2.172 41.277 7.683 52.93 12.961 11.707 5.267 17.329 9.513 17.329 9.513a6.54 6.54 0 0 1-1.173-.58l-3.32-1.857c-1.426-.866-3.284-1.787-5.482-2.868-2.16-1.146-4.754-2.283-7.691-3.527-11.687-5.037-29.74-10.3-52.738-12.287a313.756 313.756 0 0 0-37.7-.8c-13.563.516-28.029 1.743-43.247 3.15-15.22 1.388-31.22 2.928-47.9 3.578-16.66.634-34.06.349-51.597-2.4-17.476-2.842-34.17-7.968-48.867-15.545-14.627-7.618-27.242-17.746-35.903-29.724-8.85-11.906-13.541-25.08-17.422-37.207-3.84-12.196-6.992-23.64-11.078-33.694-8.116-20.142-21.03-33.84-32.084-39.912-11.127-6.209-18.807-5.978-18.642-6.374ZM1047.379 3.522s-.595.303-1.792.804l-5.329 2.174a174.906 174.906 0 0 0-19.671 9.835 169.66 169.66 0 0 0-27.562 20.482 160.572 160.572 0 0 0-28.338 34.468 145.102 145.102 0 0 0-11.238 23.017c-1.736 4.1-2.907 8.464-4.293 12.85-.6 2.217-1.06 4.487-1.605 6.759a59.85 59.85 0 0 0-1.317 6.935 127.697 127.697 0 0 0-1.5 29.284 136.069 136.069 0 0 0 5.155 30.71 148.855 148.855 0 0 0 32.428 59.01c1.89 2.304 4.092 4.37 6.21 6.521a87.51 87.51 0 0 0 6.681 6.207c4.505 4.102 9.382 8.072 15.194 10.127a15.94 15.94 0 0 0 8.928.634 13.287 13.287 0 0 0 7.283-4.78 19.907 19.907 0 0 0 3.31-16.836c-1.273-5.921-4.2-11.44-6.8-17.063-2.295-5.762-4.817-11.464-6.08-17.44a102.133 102.133 0 0 1-2.815-35.622 121.918 121.918 0 0 1 8.115-33.647 130.599 130.599 0 0 1 16.696-29.17 118.76 118.76 0 0 1 50.537-38c19.068-7.322 38-10.442 54.916-13.942 16.97-3.38 32.216-7.073 44.713-12.493 12.507-5.314 22.426-11.627 29.32-17.95a62.75 62.75 0 0 0 13.352-16.51c2.339-4.225 3.116-6.65 3.271-6.592 0 0-.181.604-.635 1.754a37.392 37.392 0 0 1-2.264 5.012 60.843 60.843 0 0 1-13.163 16.87c-6.88 6.473-16.833 12.942-29.402 18.395-12.56 5.56-27.915 9.376-44.878 12.844-16.923 3.585-35.766 6.786-54.566 14.083a117.176 117.176 0 0 0-49.655 37.562 129.101 129.101 0 0 0-16.396 28.782 120.401 120.401 0 0 0-7.945 33.156 100.518 100.518 0 0 0 2.797 35.02c1.241 5.875 3.721 11.453 5.976 17.125 2.566 5.567 5.576 11.187 6.93 17.448a21.72 21.72 0 0 1-3.678 18.358 15.36 15.36 0 0 1-8.424 5.495 18.132 18.132 0 0 1-10.15-.694c-6.341-2.257-11.342-6.415-15.883-10.537a89.075 89.075 0 0 1-6.764-6.296c-2.145-2.181-4.373-4.279-6.286-6.613a150.215 150.215 0 0 1-32.714-59.769 137.277 137.277 0 0 1-5.128-31.072 128.839 128.839 0 0 1 1.621-29.613 60.78 60.78 0 0 1 1.36-7.01c.56-2.295 1.036-4.59 1.653-6.827 1.418-4.43 2.624-8.834 4.396-12.97a145.796 145.796 0 0 1 11.466-23.184 160.542 160.542 0 0 1 28.801-34.566 167.206 167.206 0 0 1 27.945-20.348 160.799 160.799 0 0 1 19.93-9.555l5.418-2.002c1.224-.44 1.869-.62 1.869-.62ZM1515.886 34.1s-1.031-.333-2.999-1.071c-1.98-.708-4.858-1.92-8.734-3.25a129.892 129.892 0 0 0-35.224-6.734c-3.906-.37-8.04.079-12.378.155-4.295.564-8.865.845-13.478 1.984a125.561 125.561 0 0 0-29.075 9.772 233.497 233.497 0 0 0-30.4 17.33c-10.237 6.91-20.94 14.425-31.104 23.428-10.234 8.948-20.25 19.015-31.127 29.14-10.863 10.094-22.718 20.347-36.978 28.415a106.687 106.687 0 0 1-23.108 9.724 136.835 136.835 0 0 1-25.712 4.445c-17.61 1.57-35.81.878-54.155 3.065-9.131 1.136-18.36 2.947-26.976 6.455a73.168 73.168 0 0 0-23.512 14.703c-3.58 3.013-6.483 6.638-9.554 10.148a95.92 95.92 0 0 0-7.543 11.706 82.271 82.271 0 0 0-9.184 26.258 80.247 80.247 0 0 0 .253 28.066 70.459 70.459 0 0 0 11.606 26.276 92.98 92.98 0 0 0 21.389 21.023 139.685 139.685 0 0 0 27.356 14.855c19.513 8.127 40.21 12.69 60.715 16.155 20.506 3.56 40.923 6.467 60.532 11.444a205.115 205.115 0 0 1 28.5 9.281 162.685 162.685 0 0 1 25.753 13.675 173.193 173.193 0 0 1 22.148 17.473 185.892 185.892 0 0 1 18.382 20.11 217.73 217.73 0 0 1 26.914 44.107 265.165 265.165 0 0 1 16.176 45.43c7.929 30.034 11.461 58.693 14.459 84.752 2.946 26.08 5.198 49.726 8.462 70.301 1.724 10.26 4.114 19.717 7.68 27.956a64.04 64.04 0 0 0 13.575 20.51c10.837 10.658 23.088 14.626 31.173 15.322 8.245.778 12.494-.893 12.51-.612 0 0-1.05.26-3.132.674a38.303 38.303 0 0 1-9.417.325c-8.185-.58-20.646-4.473-31.716-15.191a64.653 64.653 0 0 1-13.905-20.683c-3.66-8.308-6.122-17.832-7.908-28.13-3.384-20.633-5.734-44.263-8.774-70.326-3.088-26.034-6.701-54.627-14.668-84.513a264.38 264.38 0 0 0-16.18-45.14 216.5 216.5 0 0 0-26.778-43.727 184.366 184.366 0 0 0-18.227-19.888 171.541 171.541 0 0 0-21.909-17.245 160.866 160.866 0 0 0-25.43-13.475 203.32 203.32 0 0 0-28.22-9.165c-19.46-4.928-39.823-7.822-60.376-11.38-20.544-3.467-41.444-8.059-61.18-16.28a141.656 141.656 0 0 1-27.769-15.088 94.92 94.92 0 0 1-21.84-21.482 72.271 72.271 0 0 1-11.906-26.988 81.975 81.975 0 0 1-.246-28.72 84.04 84.04 0 0 1 9.4-26.806 97.66 97.66 0 0 1 7.72-11.95c3.14-3.591 6.116-7.29 9.784-10.376a75.114 75.114 0 0 1 24.134-15.052c8.846-3.585 18.238-5.409 27.485-6.548 18.57-2.183 36.775-1.458 54.232-2.99a135.123 135.123 0 0 0 25.365-4.335 104.974 104.974 0 0 0 22.74-9.519c14.077-7.92 25.877-18.06 36.737-28.1 10.874-10.064 20.94-20.122 31.254-29.08 10.265-9.03 21.045-16.542 31.34-23.432a233.55 233.55 0 0 1 30.652-17.298 126.17 126.17 0 0 1 29.375-9.702c4.661-1.121 9.28-1.38 13.616-1.919 4.38-.051 8.548-.471 12.484-.072a127.128 127.128 0 0 1 35.332 7.12c7.67 2.922 11.589 4.685 11.589 4.685Z"/><path class="e" d="M.972 148.896s.013.782-.065 2.29L.75 153.99c.003 1.114.148 2.408.229 3.874.48 5.835 2.464 14.46 7.773 24.485a113.209 113.209 0 0 0 26.35 32.11A92.868 92.868 0 0 0 57.345 228.8a82.114 82.114 0 0 0 29.332 6.58 85.485 85.485 0 0 0 32.714-4.97c10.924-3.798 20.844-10.563 29.544-19.016 8.841-8.294 17.143-17.971 28.413-25.244 11.276-7.237 25.343-10.964 39.663-11.185a124.222 124.222 0 0 1 43.028 7.195c14.075 4.751 27.613 11.355 41.254 18.106 13.611 6.83 27.56 13.52 42.266 19.22a398.44 398.44 0 0 0 45.72 14.728 396.987 396.987 0 0 0 47.371 9.179 115.702 115.702 0 0 0 23.462 1.178c7.684-.559 15.363-2.278 21.538-6.275a25.278 25.278 0 0 0 11.2-17.169c1.122-6.818-.326-13.782-2.628-20.235a86.051 86.051 0 0 0-9.548-18.284 177.13 177.13 0 0 0-12.075-16.524c-17.26-20.963-38.123-37.287-58.433-51.123-20.43-13.798-40.59-25.13-58.934-35.538-18.375-10.373-34.937-19.889-49.058-28.859a387.721 387.721 0 0 1-34.934-24.647 260.907 260.907 0 0 1-20.093-17.761l-4.81-4.998a40.785 40.785 0 0 1-1.584-1.746s.616.526 1.74 1.614l4.954 4.861c4.5 4.134 11.072 10.312 20.313 17.459a400.845 400.845 0 0 0 35.06 24.326c14.153 8.866 30.743 18.287 49.166 28.584 18.393 10.334 38.634 21.618 59.185 35.41 20.43 13.835 41.467 30.203 58.935 51.334a178.646 178.646 0 0 1 12.23 16.674 87.726 87.726 0 0 1 9.754 18.628c2.371 6.63 3.913 13.846 2.736 21.103a27.142 27.142 0 0 1-12.01 18.433c-6.616 4.285-14.651 6.048-22.553 6.631a117.73 117.73 0 0 1-23.9-1.18 397.902 397.902 0 0 1-47.632-9.218 399.152 399.152 0 0 1-45.966-14.819c-14.778-5.734-28.829-12.485-42.42-19.32-13.628-6.76-27.075-13.332-40.98-18.044a122.313 122.313 0 0 0-42.307-7.149c-14.038.195-27.716 3.808-38.685 10.81-10.993 7.046-19.283 16.62-28.22 24.97-8.787 8.5-19.039 15.456-30.186 19.277a86.97 86.97 0 0 1-33.358 4.944 83.346 83.346 0 0 1-29.824-6.831 93.603 93.603 0 0 1-22.463-14.656A112.785 112.785 0 0 1 8.03 182.679C2.786 172.52.91 163.78.563 157.891c-.049-1.48-.16-2.784-.129-3.905l.262-2.817a37.58 37.58 0 0 1 .276-2.273Z"/><path class="e" d="M145.512 1.25a9.137 9.137 0 0 1 1.432.605l4.11 1.946c3.592 1.745 8.855 4.386 15.538 7.946a541.782 541.782 0 0 1 54.441 33.412c5.505 3.856 11.224 7.959 17.049 12.39 5.783 4.444 11.998 8.969 17.515 14.605 5.527 5.55 10.68 12.052 13.564 19.867a24.353 24.353 0 0 1 1.231 12.462 22.659 22.659 0 0 1-6.013 11.595 27.494 27.494 0 0 1-11.964 7.005 49.387 49.387 0 0 1-14.217 1.916c-9.673.037-19.437-2.094-28.785-5.062-9.398-2.738-19.064-5.55-29.112-5.998a40.228 40.228 0 0 0-14.77 1.914 28.266 28.266 0 0 0-12.138 8.114c-13.134 14.945-11.896 37.04-27.044 50.81a28.27 28.27 0 0 1-13.291 6.56 36.279 36.279 0 0 1-14.732-.226c-9.597-1.951-17.794-7.288-23.963-13.619-6.27-6.334-10.946-13.516-15.168-20.53-4.165-7.054-8.083-13.966-11.573-20.788a384.25 384.25 0 0 1-17.44-38.745 368.157 368.157 0 0 1-17.117-58.65c-1.43-7.055-2.36-12.564-2.88-16.312l-.59-4.263a7.708 7.708 0 0 1-.13-1.461 7.807 7.807 0 0 1 .34 1.433l.791 4.232c.653 3.725 1.71 9.206 3.258 16.225a388.794 388.794 0 0 0 17.701 58.332 391.225 391.225 0 0 0 17.606 38.51c3.51 6.78 7.443 13.65 11.616 20.657 4.223 6.958 8.865 14.014 14.978 20.151 6.033 6.148 13.863 11.19 23.004 13.034 8.961 1.988 19.32.47 26.214-5.924a34.177 34.177 0 0 0 8.304-11.075 107.694 107.694 0 0 0 5.403-13.127c3.256-8.943 6.173-18.626 13.136-26.467a30.33 30.33 0 0 1 12.99-8.672 42.364 42.364 0 0 1 15.582-2.027c10.434.478 20.213 3.361 29.635 6.112 9.344 2.979 18.76 5.029 28.173 5.022 9.237.048 18.854-2.107 24.771-8.272a20.98 20.98 0 0 0 5.59-10.69 22.765 22.765 0 0 0-1.123-11.655c-2.71-7.445-7.69-13.837-13.096-19.305-5.375-5.547-11.5-10.059-17.264-14.536-5.78-4.45-11.457-8.574-16.919-12.455a580.472 580.472 0 0 0-53.968-33.852 795.326 795.326 0 0 0-15.332-8.252l-4.01-2.113a8.985 8.985 0 0 1-1.333-.779ZM371.035 160.134c.069.018-.017.462-.252 1.309a12.24 12.24 0 0 1-1.871 3.394 19.316 19.316 0 0 1-12.904 6.805c-6.475.836-14.237-1.524-20.983-6.155a43.49 43.49 0 0 1-9.55-8.473c-2.748-3.416-4.89-7.89-4.481-12.657a12.8 12.8 0 0 1 7.696-11.186c4.547-1.85 9.337-1.181 13.346-.124 8.048 2.33 14.619 6.29 18.85 10.744a49.457 49.457 0 0 1 8.079 11.655c1.504 2.948 2.187 4.636 2.07 4.688-.14.064-1.07-1.517-2.782-4.339a56.563 56.563 0 0 0-8.434-11.074c-4.173-4.147-10.573-7.823-18.306-9.968-3.808-.97-8.196-1.458-11.99.137a10.933 10.933 0 0 0-6.47 9.598c-.363 4.189 1.497 8.175 4.048 11.404a42.538 42.538 0 0 0 9.045 8.16c6.438 4.535 13.681 6.84 19.692 6.237a19.203 19.203 0 0 0 12.438-5.911c2.17-2.47 2.555-4.318 2.759-4.244Z"/></g></g><path class="f" d="M405.23 170.837c-100.94 69.96-161.01 156.06-196.24 216.63-6.39 11-11.97 21.17-16.83 30.23q-3.6 6.735-6.68 12.63c-14.4 27.43-30.39 57.88-45.1 89.88-35.13-1.14-73.33-14.8-89.9-63.32 0 0-14.51-69.77 4.86-115.65 0 0 87.92 105.74 106.59 88.16 18.66-17.57-106.47-110.75-106.47-110.75s33.5-135.29 68.59-170.23c0 0 52.03 144.14 65.8 122.51 13.76-21.63-33.42-174.13-33.42-174.13s63.71-114.44 135.69-81.72c71.98 32.71 80.1 82.76 71.61 100.5-8.48 17.74-87.73 111.06-73.45 118.74 14.27 7.69 86.57-39.81 104.93-84.45 0 0 4.38 8.12 10.02 20.97Z"/><path class="g" d="M272.98 75.667c-46.6 147.15-62.88 245.74-63.99 311.8-6.39 11-11.97 21.17-16.83 30.23-.19-136.6 79.24-338.04 80.82-342.03Z"/><g style="clip-path:url(#b)"><rect class="i" x="452.718" y="139.533" width="404.481" height="377.531" rx="19.964"/><path class="e" d="M807.633 151.03v23.54h-395.85v-23.54a16.216 16.216 0 0 1 16.037-16.387h363.775a16.216 16.216 0 0 1 16.038 16.388Z" transform="translate(45.261 9.194)" style="opacity:.12"/><path class="k" d="M765.462 164.254a7.32 7.32 0 1 1-7.319-7.32 7.319 7.319 0 0 1 7.32 7.32Z"/><path class="i" d="M796.023 164.254a7.32 7.32 0 1 1-7.32-7.32 7.319 7.319 0 0 1 7.32 7.32Z"/><path class="f" d="M824.4 165.024a7.32 7.32 0 1 1-7.319-7.318 7.32 7.32 0 0 1 7.32 7.318Z"/><path class="k" d="M487.146 211.953h6.163v6.164h-6.163zM493.31 438.093h-6.164v-12.568h6.163Zm0-31.425h-6.164V394.1h6.163Zm0-31.426h-6.164v-12.57h6.163Zm0-31.425h-6.164v-12.57h6.163Zm0-31.425h-6.164v-12.57h6.163Zm0-31.425h-6.164v-12.57h6.163Zm0-31.425h-6.164v-12.57h6.163ZM487.146 456.95h6.163v6.164h-6.163z"/><path class="f" d="M524.234 214.191h67.8v4.815h-67.8z"/><g class="l"><path class="e" d="M525.387 241.294h34.621v4.815h-34.621z"/></g><g class="l"><path class="e" d="M710.495 267.051h45.385v4.815h-45.385z"/></g><path class="f" d="M547.012 301.363h39.811v4.815h-39.811zM521.063 335.097h39.811v4.815h-39.811z"/><g class="l"><path class="e" d="M573.538 335.097h66.625v4.815h-66.625z"/></g><path class="f" d="M648.216 335.097h66.625v4.815h-66.625zM521.351 365.948h66.625v4.815h-66.625zM668.976 397.088h40.387v4.815h-40.387zM522.504 427.843h96.516v4.815h-96.516zM522.504 456.676h27.701v4.815h-27.701zM718.184 397.088h62.3v4.815h-62.3z"/><g class="l"><path class="e" d="M521.351 397.473h139.188v4.815H521.351z"/></g><path class="f" d="M598.335 365.948h166.387v4.815H598.335zM546.051 267.051h152.067v4.815H546.051z"/><g><path class="i" d="M1028.105 702.534c-.073 4.02-25.959 546.887-25.959 546.887l-67.343.644-21.91-461.703s-28.146 242.593-28.146 247.954-7.977 216.383-7.977 216.383h-71.1V749.494l45.57-73.716Z"/><g style="opacity:.16"><g class="n"><path class="e" d="M841.941 1252.7a7.21 7.21 0 0 0 .079-1.23l.072-3.602.128-13.85c.192-12.026.539-29.427 1.174-50.924 1.284-42.995 3.742-102.37 6.766-167.932l8.17-167.908 2.443-50.886.583-13.84.112-3.6a7.089 7.089 0 0 0-.015-1.23 7.173 7.173 0 0 0-.145 1.221l-.267 3.593-.877 13.824-2.941 50.86a18690.64 18690.64 0 0 0-8.628 167.894c-3.025 65.568-5.308 124.96-6.31 167.974-.492 21.507-.67 38.919-.675 50.95l.167 13.856.082 3.602a7.034 7.034 0 0 0 .082 1.227Z"/></g><g class="n"><path class="e" d="M966.065 777.736c-.432.002-.395 105.677.085 236.001.48 130.37 1.219 236.02 1.652 236.018s.395-105.654-.085-236.024c-.48-130.324-1.22-235.996-1.652-235.995Z"/></g><g class="n"><path class="e" d="M907.507 762.423a14.133 14.133 0 0 0 3.215 1.422c2.103.81 5.16 1.928 8.942 3.271l.72.256.051-.784c.44-6.676.94-15.6 1.404-25.382.504-10.606.872-20.21 1.06-27.165.095-3.478.144-6.293.142-8.24a11.377 11.377 0 0 0-.16-3.032 11.356 11.356 0 0 0-.449 3.003c-.186 1.938-.404 4.746-.64 8.216-.471 6.943-1.015 16.538-1.519 27.143-.464 9.782-.814 18.715-1.008 25.402l.77-.528c-3.826-1.207-6.94-2.158-9.105-2.78a14.097 14.097 0 0 0-3.423-.802Z"/></g></g><path class="o" d="M968 396.61c-.274-8.681-.462-15.536-.396-15.539a27.178 27.178 0 0 0 14.913-5.827c9.618-8.076 9.374-21.655 9.83-40.395 1.007-41.267 4.832-43.884 2.433-58.05-2.179-12.87-3.72-21.968-10.65-30.971-13.775-17.896-36.987-20.006-43.724-20.383l-2.855-.033c-30.808 1.44-46.797 28.41-44.505 59.167l3.13 112.584 17.55 42.849c17.503 19.167 55.27-17.465 54.273-43.402Z"/><path class="p" d="M967.774 381.062s-18.665.877-38.397-11.84c0 0 8.849 22.662 38.407 20.34Z"/><path class="q" d="M983.354 303.137a4.226 4.226 0 0 1-4.124 4.216 4.042 4.042 0 0 1-4.312-3.861 4.227 4.227 0 0 1 4.12-4.219 4.045 4.045 0 0 1 4.316 3.864ZM988.481 288.974c-.53.545-3.704-1.862-8.252-1.902-4.541-.106-7.906 2.194-8.392 1.632-.24-.25.305-1.24 1.77-2.28a11.594 11.594 0 0 1 6.728-1.988 11.143 11.143 0 0 1 6.56 2.202c1.386 1.09 1.848 2.091 1.587 2.336ZM943.234 305.323a4.226 4.226 0 0 1-4.125 4.216 4.04 4.04 0 0 1-4.311-3.86 4.229 4.229 0 0 1 4.12-4.22 4.045 4.045 0 0 1 4.316 3.864ZM943.917 290.295c-.532.545-3.71-1.86-8.254-1.902-4.541-.105-7.906 2.195-8.393 1.632-.239-.25.3-1.237 1.772-2.278a11.586 11.586 0 0 1 6.727-1.989 11.144 11.144 0 0 1 6.56 2.202c1.383 1.09 1.847 2.092 1.588 2.335ZM959.823 325.428c-.018-.259 2.813-.714 7.4-1.247 1.164-.106 2.266-.324 2.47-1.114.284-.836-.188-2.094-.734-3.451q-1.59-4.235-3.331-8.882c-4.623-12.645-7.955-23.036-7.444-23.219s4.673 9.92 9.294 22.565l3.187 8.934c.423 1.324 1.162 2.83.549 4.564a2.912 2.912 0 0 1-1.93 1.676 7.834 7.834 0 0 1-1.974.25c-4.613.195-7.472.182-7.487-.076Z"/><path d="M967.959 237.948c1.845-6.014-.988-11.596-1.409-12.397-3.133-5.96-8.873-8.089-10.707-8.735-8.891-3.132-18.317.262-18.314.282a25.484 25.484 0 0 0 7.748-1.831c2.692-1.11 5.199-2.753 5.03-3.143-.2-.461-3.988 1.17-10.162 2.638a72.008 72.008 0 0 1-13.886 2.054 17.541 17.541 0 0 0 5.635-1.268c3.53-1.455 6.582-4.18 6.199-4.93-.415-.811-4.59 1.178-14.793 3.24-5.323 1.076-7.64 1.232-10.143.634-1.037-.248-2.376-.69-4.874-1.162-.648-.122-2.562-.44-5.1-.724a47.71 47.71 0 0 0-3.671-.257c-6.568-.234-21.369-.762-33.831 7.285-4.99 3.221-6.14 5.58-19.723 15.496-4.355 3.179-3.878 2.675-4.419 3.175-3.75 3.47-8.887 11.254-3.752 50.078.665 5.03 1.7 12.07 3.287 20.49l2.749-3.745 4.391-5.549c-.729 2.214.002 2.05 1.848 3.104a3.776 3.776 0 0 0 5.219-1.94 4.86 4.86 0 0 0 2.858.15c1.26-.352 2.076-1.236 3.752-3.865 1.87-2.936 3.2-5.515 4.568-8.182 1.198-2.337 1.797-3.505 1.816-3.547 2.706-6.103-.146-9.121 1.162-17.954a64.842 64.842 0 0 1 2.442-9.768 87.283 87.283 0 0 1 1.91-5.469l1.356-2.012a16.828 16.828 0 0 0 5.469 1.658 17.361 17.361 0 0 0 5.635-.281c8.338-1.593 12.507-2.39 17.09-3.834 5.536-1.746 5.941-2.292 8.293-2.313 3.567-.033 4.793 1.205 8.71 1.075 2.925-.097 3.246-.821 7.325-1.69 5.417-1.155 9.826-2.094 12.679 0 .738.54 1.72 3.556 3.653 9.566 1.163 3.613 3.474 6.937 3.855 10.713.159 1.568.516 3.709 1.846 3.742a1.96 1.96 0 0 0 1.015-.358c5.88-3.499 7.81-10.748 7.81-10.748 1.885-5.169.855-4.918 2.326-8.456 2.638-6.339 5.616-6.358 7.108-11.222Z" transform="translate(45.261 9.194)" style="fill:#5c4344"/><g><path class="o" d="M895.379 306.509c-.502-.224-20.263-6.251-19.853 13.987s20.645 15.651 20.669 15.07-.816-29.057-.816-29.057Z"/><path class="p" d="M889.857 328.024c-.09-.062-.348.254-.938.54a3.525 3.525 0 0 1-2.634.108c-2.154-.742-4.023-4.1-4.196-7.746a11.655 11.655 0 0 1 .885-5.067 4.076 4.076 0 0 1 2.597-2.76 1.795 1.795 0 0 1 2.1.925c.283.56.162.966.27.999.058.05.428-.348.248-1.18a2.248 2.248 0 0 0-.822-1.252 2.663 2.663 0 0 0-1.96-.476c-1.558.14-2.934 1.604-3.619 3.212a11.973 11.973 0 0 0-1.108 5.666c.212 4.076 2.377 7.85 5.32 8.636a3.777 3.777 0 0 0 3.214-.601c.616-.514.714-.968.643-1.004Z"/></g><g><path d="m843.642 383.838 6.763-14.223s5.721 31.979 18.315 44.943l14.92 16.26 5.52-9.727c6.982-3.81 33.215-19.003 33.436-40.667a27.348 27.348 0 0 0-.35-4.633l16.092 21.358 30.022 27.04-43.708 242.395-2.846 31.297-90.298-12.166-24.276-159.292s-7.647-83.713-6.972-82.602 8.805-32.967 8.805-32.967l28.891-15.467Z" transform="translate(45.261 9.194)" style="fill:#fafafa"/><path class="f" d="M808.04 426.974s-16.89 13.783-22.9 44.382-27.868 142.735-27.868 152.571c0 0 10.091 47.407 22.736 76.708 11.375 26.36 24.44 50.104 25.662 48.86l29.024-35.36-20.384-99.191 1.709-8 5.475-14.632 9.19-46.896Z"/><path class="f" d="m818.941 663.143 4.804-59.3-1.674-14.47-9.213-86.233-4.817-76.166 62.592-22.786 6.047-2.2 12.117-12.348 3.839 122.833s1.806 99.647.602 107.776-12.644 124.032-52.985 161.664c0 0-16.074 19.465-22.396 15.25s-21.859-74.257-21.859-74.257Z"/><path class="q" d="M878.003 400.639a7.144 7.144 0 0 1-.83 1.311l-2.602 3.652-9.962 13.565-.078.108-.134.049-8.606 3.176.343-.609 16.062 78.721 15.442 77.957 4.508 23.659 1.15 6.447a12.794 12.794 0 0 1 .298 2.27 12.814 12.814 0 0 1-.602-2.209l-1.431-6.39-4.986-23.563-15.883-77.869-15.608-78.812-.09-.457.435-.153 8.655-3.038-.212.157 10.303-13.308 2.796-3.506a7.185 7.185 0 0 1 1.032-1.158Z"/><path class="f" d="m970.516 388.977 17.312 16.118 60.622 32.675-17.714 75.057-6.038 92.204 8.47 58.112 20.904 109.561s-73.378 19.891-81.959 15.42-7.397-17.195-7.693-18.083-13.314-110.954-13.314-110.954l-2.663-42.606s-1.184-73.082 3.846-89.355 12.427-69.532 15.09-84.326 5.667-24.765 7.462-32.251c.548-2.29 3.497-7.09 2.084-12.604a16.933 16.933 0 0 0-6.41-8.968Z"/><path class="f" d="M999.354 670.794c.668 8.226 1.765 19.66 3.976 27.611a215.419 215.419 0 0 0 42.293-9.392l-7.108-19.27c-.538-1.459-1.164-3.026-2.496-3.828-1.387-.834-3.14-.6-4.737-.34l-31.928 5.22"/><path class="i" d="M999.354 670.794a30.562 30.562 0 0 1 4.735-1.064l13.061-2.376 9.073-1.578 5.071-.868a12.481 12.481 0 0 1 2.831-.231 4.7 4.7 0 0 1 2.942 1.165c1.626 1.568 2.011 3.591 2.754 5.363l2.102 5.637 4.417 11.906.279.75-.756.24-4.264 1.359a207.734 207.734 0 0 1-38.195 7.926l-.545.06-.128-.512a122.826 122.826 0 0 1-3.046-20.166 145.755 145.755 0 0 1-.351-5.623 7.976 7.976 0 0 1 .02-1.988 8.135 8.135 0 0 1 .35 1.957l.688 5.582a144.002 144.002 0 0 0 3.539 19.905l-.673-.452a225.75 225.75 0 0 0 37.89-8.154l4.235-1.346-.477.99-4.373-11.922-2.061-5.652c-.707-1.824-1.185-3.772-2.335-4.838-1.121-1.085-2.94-.933-4.633-.66l-5.081.791-9.103 1.393-13.139 1.908a30.541 30.541 0 0 1-4.827.498Z"/><path class="q" d="M812.381 785.595c-.303.087-3.483-10.13-5.266-16.074-3.371-11.245-7.646-26.893-11.703-46.46l-.05-.187.07-.185 22.811-59.814-.047.207 2.942-36.549 1.85-22.752v.128c-3.592-40.184-7.523-75.64-9.93-101.105-1.229-12.73-2.15-22.957-2.714-30.005l-.606-8.1-.12-2.102a.361.361 0 1 1 .143-.012l.259 2.089.87 8.075 3.174 29.953c2.675 25.434 6.79 60.863 10.437 101.074l.006.063-.006.065-1.835 22.753-2.98 36.547-.009.108-.038.1-23.074 59.713.02-.37c4.948 19.498 8.928 35.033 11.687 45.764 2.244 8.721 4.38 17 4.11 17.076Z"/><path class="q" d="M777.605 608.635c-.023-.187 2.077-.673 5.55-.894a54.81 54.81 0 0 1 13.535.924 58.03 58.03 0 0 1 12.931 4.099c3.157 1.453 4.956 2.633 4.869 2.802-.207.454-7.848-3.455-18.089-5.395-10.228-2.033-18.763-1.044-18.796-1.536ZM948.58 610.944a12.803 12.803 0 0 1 .487-2.233l1.68-6.323 6.457-23.172 21.856-76.289 22.285-76.147.133.528-13.55-14.104-.051-.053-.024-.06-3.667-9.227-.9-2.39a.437.437 0 1 1 .176-.074l1.069 2.32 3.981 9.096-.074-.112 13.812 13.848.22.221-.087.307-21.85 76.273-22.288 76.164-6.924 23.037-1.957 6.242a12.745 12.745 0 0 1-.783 2.148Z"/><path class="f" d="M1048.45 437.77a97.315 97.315 0 0 1 15.553 21.569c9.433 17.99 8.537 31.142 13.176 72.7a1116.203 1116.203 0 0 0 3.092 25.123 235.546 235.546 0 0 0 18.886-24.6 238.129 238.129 0 0 0 28.984-60.551 21.053 21.053 0 0 1 2.452-1.306c14.637-6.594 33.004 5.437 39.4 10.023a631.361 631.361 0 0 0-10.261 26.757c-5.067 14.159-7.473 22.473-9.688 29.277-6.66 20.454-13.175 40.466-27.392 59.087-7.002 9.17-25.186 32.987-45 30.521-7.39-.92-15.797-5.595-17.709-6.658-3.425-1.905-11.241-5.752-17.42-14.174-6.26-8.534-9.035-16.328-13.242-30.712a181.306 181.306 0 0 1-3.672-14.847l12.847-110.359Z"/><path class="q" d="M1080.4 557.297c-.112-.1-2.207 1.514-5.053 4.573a58.222 58.222 0 0 0-9.082 13.074 49.967 49.967 0 0 0-4.75 14.385c-.58 3.744-.45 6.03-.28 6.016.497.018.918-9.295 6.386-19.992 5.327-10.734 13.16-17.81 12.78-18.056Z"/><path class="q" d="M1045.125 587.923c.258.037 1.024-2.412 3.054-6.112a49.678 49.678 0 0 1 10.613-13.069 55.833 55.833 0 0 1 14.83-9.274c4.186-1.758 6.949-2.407 6.91-2.637a5.812 5.812 0 0 0-1.973.255 34.464 34.464 0 0 0-5.26 1.53 50.082 50.082 0 0 0-15.49 9.24 43.918 43.918 0 0 0-10.583 13.655 26.006 26.006 0 0 0-1.788 4.66c-.298 1.12-.413 1.74-.313 1.752Z"/><path class="q" d="M1170.13 480.805a53.489 53.489 0 0 0-14.907-9.07 41.126 41.126 0 0 0-14.056-3.185 30.17 30.17 0 0 0-13.664 2.72l-.203.094-.072.197a237.144 237.144 0 0 1-46.957 85.601l-.932 1.521a200.743 200.743 0 0 0 12.116-14.004 209.732 209.732 0 0 0 36.686-72.668 29.076 29.076 0 0 1 12.916-2.481 40.207 40.207 0 0 1 13.657 3.115 53.533 53.533 0 0 1 7.656 3.83 55.964 55.964 0 0 1 6.522 4.493 855.397 855.397 0 0 0-11.952 33.318c-5.805 17.285-10.25 32.317-10.125 32.356.132.042 5.378-16.62 10.905-32.136.825-2.317 3.012-8.412 3.802-10.614 2.921-8.143 3.522-9.787 4.174-11.543 1.02-2.746 2.52-6.718 4.435-11.543Z"/><path class="q" d="M1127.507 471.238c-.207.192.16.923.57 1.649a18.32 18.32 0 0 0 2.738 3.966c5.704 5.843 14.866 7.74 14.866 7.74a36.305 36.305 0 0 0 9.492.604 34.322 34.322 0 0 0 7.905-1.178 32.237 32.237 0 0 0 4.998-1.955 7.332 7.332 0 0 0 1.686-.985c-.087-.184-2.565 1.141-6.87 2.268a30.849 30.849 0 0 1-7.65.934 41.849 41.849 0 0 1-13.505-2.082 23.439 23.439 0 0 1-6.144-2.6 20.229 20.229 0 0 1-7.063-8.036c-.39-.24-.86-.476-1.023-.325Z"/><path d="m817.617 631.033-13.209 49.543-4.553 32.286 19.086-49.719 1.64-20.249-2.964-11.861z" style="opacity:.3"/><path class="q" d="M928.901 440.012c-.102.08-.925-1.02-2.872-2.527-1.914-1.555-5.067-3.269-8.85-5.78l.84-.378c-.327 3.447-.434 7.485-.423 11.975a137.704 137.704 0 0 1-.514 14.685l-.248 2.338-1.16-2.056a366.782 366.782 0 0 0-4.7-8.097c-7.185-11.935-13.597-22.897-17.192-31.362a82.224 82.224 0 0 1-3.712-10.216 17.657 17.657 0 0 1-.802-3.906 22.588 22.588 0 0 1 1.371 3.727 114.708 114.708 0 0 0 4.131 9.947c3.815 8.276 10.324 19.068 17.523 31.027a302.92 302.92 0 0 1 4.7 8.15l-1.408.283c.575-5.125.581-10.036.663-14.533a110.958 110.958 0 0 1 .708-12.08l.114-.894.726.516c3.626 2.573 6.765 4.47 8.61 6.203a15.145 15.145 0 0 1 1.98 2.11c.39.534.554.839.515.868ZM971.404 424.486a6.144 6.144 0 0 1-1.209 2.398 54.023 54.023 0 0 1-4.56 5.679c-5.02 5.686-1.64 2.79-16.84 16.995a747.964 747.964 0 0 1-10.754 9.856l-1.037-.484c-.115-2.633-.31-6.556-.633-11.317-.75-11.035-1.487-16.254-1.212-16.293.318-.046 1.907 6.865 2.55 14.884a94.226 94.226 0 0 1 .22 11.437c2.798-2.616 6.102-5.71 9.814-9.197 0 0 9.317-8.575 17.098-16.619 2.116-2.188 3.81-3.983 4.874-5.297 1.113-1.278 1.55-2.103 1.69-2.042Z"/><path class="q" d="M931.501 518.677c-.118.261-3-.34-5.246-2.307a8.571 8.571 0 0 1-2.435-6.511c-.007-2.463.088-4.997.14-7.716l.486-17.615c.387-12.499.823-23.81 1.215-31.995l.544-9.69a15.98 15.98 0 0 1 .409-3.546 16.012 16.012 0 0 1 .188 3.565l-.057 9.705c-.115 8.194-.38 19.51-.767 32.009l-.606 17.61c-.181 5.27-1.298 10.099 1.636 13.406 1.883 2.121 4.608 2.831 4.493 3.085ZM1028.465 626.96l-3.088-22.617.006.127c.77-33.634 3.08-62.916 5.704-87.012 2.343-21.514 5.061-40.02 4.891-40.044-.193-.026-4.344 23.916-7.42 53.863-3.3 32.135-4.26 60.673-4.693 73.142l-.002.064.01.065q1.488 11.255 3.072 22.619 2.68 19.219 5.54 38.069l1.162-.212c-1.011-7.445-4.167-30.62-5.182-38.064Z"/><path class="q" d="M931.229 501.288c-.332-.137-1.96 1.661-1.972 3.757-.021 3.428 4.292 5.753 4.508 5.54.177-.174-2.503-1.981-2.912-5.26-.282-2.257.678-3.913.376-4.037ZM931.229 471.891c-.332-.137-1.96 1.662-1.972 3.757-.021 3.428 4.292 5.753 4.508 5.541.177-.174-2.503-1.982-2.912-5.26-.282-2.258.678-3.913.376-4.038Z"/><g><path class="f" d="M845.583 667.542c-1.332 8.137-3.327 19.434-5.932 27.175a158.21 158.21 0 0 1-34.686-12.701l7.784-18.623c.59-1.409 1.263-2.92 2.458-3.612 1.244-.722 2.697-.35 4.016.037l26.36 7.724"/><path class="i" d="M845.583 667.542a22.531 22.531 0 0 0-3.881-1.435c-2.735-.863-6.36-2.009-10.762-3.4l-7.482-2.29-4.183-1.266a8.952 8.952 0 0 0-2.36-.454 3.654 3.654 0 0 0-2.582.927c-1.515 1.433-2.028 3.416-2.819 5.122l-2.297 5.445-4.831 11.503-.305.726.614.3 3.458 1.69a151.948 151.948 0 0 0 31.378 10.917l.453.102.156-.5a144.02 144.02 0 0 0 4.452-19.835c.39-2.402.66-4.285.823-5.57a9.423 9.423 0 0 0 .169-1.982 9.47 9.47 0 0 0-.477 1.92l-1.102 5.504a168.271 168.271 0 0 1-4.843 19.537l.608-.396a165.422 165.422 0 0 1-31.1-11.12l-3.434-1.675.308 1.024 4.795-11.524 2.264-5.463c.765-1.76 1.35-3.661 2.417-4.632 1.045-.992 2.56-.696 3.958-.29l4.2 1.19 7.524 2.109 10.87 2.939a21.913 21.913 0 0 0 4.011.877Z"/></g></g><g><path class="o" d="M1137.55 472.885a172.824 172.824 0 0 1-9.79-15.717c-2.955-5.362-4.432-8.043-5.175-10.46-2.126-6.914-.754-13.643 1.99-27.101 1.343-6.583 2.357-9.569 4.168-9.866 1.592-.26 3.445 1.61 4.345 3.31 2.148 4.058-1.136 7.142-.062 14.912a20.735 20.735 0 0 0 .85 4.076 3.265 3.265 0 0 0 .051-1.153 362.149 362.149 0 0 0 10.684-38.753c1.837-8.553 4.207-21.252 8.522-21.492a3.014 3.014 0 0 1 1.958.719c3.642 2.797.337 11.065-1.331 22.645a100.283 100.283 0 0 0-.992 16.265 248.584 248.584 0 0 0 5.063-19.916c2.766-13.17 3.696-23.033 7.7-23.602a2.56 2.56 0 0 1 1.394.194c2.966 1.339 2.49 8.35.522 23.671a859.1 859.1 0 0 1-2.896 20.574 156.13 156.13 0 0 0 5.681-20.96c1.027-5.233 2.36-13.517 5.316-13.907a3.41 3.41 0 0 1 2.354.637 4.302 4.302 0 0 1 1.35 3.078c.436 5.037-3.083 35.826-2.97 35.86.05.015 3.148-5.531 5.466-14.65.657-2.586 1.463-6.291 3.637-6.785a3.284 3.284 0 0 1 2.428.622c2.78 1.94-5.963 35.688-5.963 35.688-4.92 19.008-4.735 25.998-12.295 34.172a39.106 39.106 0 0 1-6.852 5.863l-6.25 13.463a37.14 37.14 0 0 1-17.133-2.801 34.81 34.81 0 0 1-3.727-1.873l1.957-6.713Z"/><path class="p" d="M1138.945 442.63a25.32 25.32 0 0 1 9.008 16.724 51.374 51.374 0 0 0 9.027-3.785c9.745-5.233 15.106-12.21 14.932-12.4-.201-.218-7.653 8.826-21.122 13.167-.794.256-1.48.455-2.012.6a16.583 16.583 0 0 0-2.225-7.525 16.817 16.817 0 0 0-7.608-6.78Z"/></g><path class="q" d="M946.014 335.401c1.2-.416 3.05 6.094 11.299 8.666 8.241 2.591 16.685-.694 17.006.198.227.375-1.57 1.834-5.2 2.992a24.449 24.449 0 0 1-14.09.203c-5.037-1.585-7.925-4.83-8.955-7.42-1.077-2.632-.626-4.513-.06-4.639Z"/><path class="b" d="M894.13 247.1c-.034.25 5.055.073 10.94 2.603 5.868 2.521 8.72 6.095 8.921 5.928.22-.18-2.78-4.666-8.584-7.085-5.567-2.32-11.24-1.707-11.277-1.446ZM973.717 224.15c-.038-.2-5.47 2.142-12.574 2.823-7.08.68-11.223-.733-11.39-.521-.183.23 4.394 2.253 11.373 1.526 6.697-.698 12.63-3.618 12.59-3.828ZM986.527 240.93c-.114-.169-4.159 4.15-10.398 7.612-6.219 3.451-10.581 3.812-10.65 4.073-.076.283 4.928.31 11.036-3.145 5.86-3.316 10.132-8.363 10.012-8.54ZM992.497 228.14c-.115-.168-4.16 4.15-10.398 7.612-6.22 3.451-10.582 3.812-10.651 4.073-.075.283 4.929.31 11.036-3.145 5.86-3.316 10.133-8.363 10.013-8.54ZM963.498 235.07c-.143-.22-5.26 4.973-13.14 8.95-7.852 3.965-13.351 4.149-13.44 4.474-.096.352 6.21.697 13.922-3.28 7.4-3.816 12.809-9.914 12.658-10.144Z"/></g><g><path class="g" d="M345.069 847.774c.312 0 .583-78.272.605-174.803.021-96.565-.214-174.82-.527-174.82s-.583 78.255-.605 174.82c-.021 96.53.214 174.803.527 174.803Z"/><path class="g" d="M276.966 633.884a16.72 16.72 0 0 0 2.943 1.105l8.099 2.733c6.83 2.326 16.21 5.695 26.392 9.867 10.08 4.325 19.589 7.836 25.003 12.527a18.374 18.374 0 0 1 5.024 6.647c.776 1.838.915 2.962 1.019 2.942a2.277 2.277 0 0 0-.034-.82 12.464 12.464 0 0 0-.575-2.282 17.667 17.667 0 0 0-4.903-7.085 43.945 43.945 0 0 0-10.849-6.739 334.749 334.749 0 0 0-14.256-6.236c-10.213-4.185-19.667-7.446-26.573-9.582a213.837 213.837 0 0 0-8.22-2.393 16.753 16.753 0 0 0-3.07-.684ZM416.151 668.837a17.901 17.901 0 0 1-3.069 1.104l-8.447 2.733c-7.123 2.326-16.908 5.695-27.528 9.868-10.515 4.324-20.432 7.836-26.08 12.527a18.447 18.447 0 0 0-5.24 6.647c-.81 1.837-.954 2.962-1.062 2.942-.04-.006-.027-.287.035-.821a12.056 12.056 0 0 1 .6-2.281 17.65 17.65 0 0 1 5.114-7.086 46.175 46.175 0 0 1 11.316-6.739 356.778 356.778 0 0 1 14.87-6.236c10.652-4.185 20.513-7.445 27.716-9.582 3.6-1.076 6.537-1.87 8.574-2.393a18.107 18.107 0 0 1 3.202-.683ZM259.615 560.923a4.838 4.838 0 0 0 .824.88l2.512 2.36 9.376 8.517 31.209 27.788c12.182 10.844 22.71 21.206 30.006 29.007a348.92 348.92 0 0 1 8.493 9.376l2.268 2.59a4.847 4.847 0 0 0 .847.86 4.835 4.835 0 0 0-.67-1.003c-.474-.63-1.164-1.567-2.107-2.729-1.863-2.344-4.655-5.66-8.243-9.636a395.435 395.435 0 0 0-29.84-29.308 4162.587 4162.587 0 0 0-31.433-27.544l-9.615-8.249-2.652-2.2a4.876 4.876 0 0 0-.975-.708Z"/><path class="g" d="M317.018 611.758c.32-.142-2.226-6.018-4.761-13.45-2.56-7.43-3.764-13.702-4.088-13.649-.295.03.425 6.485 3.016 14.011a91.436 91.436 0 0 0 3.79 9.407c1.108 2.346 1.905 3.743 2.043 3.681ZM344.997 656.187a14.053 14.053 0 0 0 1.878-2.179l4.809-6.167c4.04-5.221 9.624-12.429 15.883-20.317 6.264-7.889 12.016-14.964 16.185-20.084l4.914-6.083a13.996 13.996 0 0 0 1.696-2.323 14.069 14.069 0 0 0-2.03 2.037c-1.254 1.358-3.028 3.358-5.192 5.855-4.33 4.991-10.187 11.996-16.459 19.894-6.267 7.898-11.758 15.192-15.637 20.54-1.94 2.674-3.485 4.857-4.524 6.386a14.044 14.044 0 0 0-1.523 2.441Z"/><path class="g" d="M359.995 636.933c.184.199 4.186-4.549 6.283-11.762a33.59 33.59 0 0 0 1.425-11.86l-.5.04c.223.907.387 1.385.476 1.37s.094-.518.02-1.45l-.5.04a54.044 54.044 0 0 1-2.006 11.537c-2.024 6.99-5.501 11.894-5.198 12.085ZM379.357 612.577c.146.157 1.433-1.466 4.387-2.548 2.93-1.134 7.34-1.383 12.18-.968a75.221 75.221 0 0 1 12.264 1.979c3.096.767 4.988 1.37 5.047 1.21.051-.133-1.75-1.005-4.832-1.98a56.038 56.038 0 0 0-12.395-2.338c-4.893-.422-9.535-.045-12.564 1.355-3.07 1.36-4.188 3.263-4.087 3.29ZM383.947 606.674c.086.176 2.555-1.024 6.72-2.447a67.64 67.64 0 0 1 33.87-2.582c4.332.775 6.954 1.587 7.013 1.4a6.396 6.396 0 0 0-1.782-.76 41.908 41.908 0 0 0-5.075-1.425 59.771 59.771 0 0 0-34.299 2.615 41.896 41.896 0 0 0-4.801 2.178 6.392 6.392 0 0 0-1.646 1.021ZM345.147 581.713c.303.077 2.498-7.546 4.901-17.024 2.405-9.482 4.109-17.228 3.806-17.305s-2.497 7.545-4.902 17.027c-2.404 9.478-4.108 17.226-3.805 17.302Z"/><path class="g" d="M344.835 581.713c.337.11 1.748-4.984 5.433-10.192 3.586-5.32 8.163-7.988 7.995-8.252-.059-.118-1.322.346-3.085 1.592a24.857 24.857 0 0 0-5.836 6.01c-3.825 5.42-4.78 10.823-4.507 10.842ZM345.069 806.049c.122.016.352-1.63 1.234-4.507a59.171 59.171 0 0 1 5.23-11.733c5.408-9.568 15.248-21.699 27.752-33.85 6.196-6.129 12.207-11.91 17.309-17.446a123.656 123.656 0 0 0 12.377-15.456 70.113 70.113 0 0 0 6.249-11.47c.574-1.413.996-2.516 1.227-3.28a4.893 4.893 0 0 0 .322-1.17c-.102-.027-.67 1.551-1.96 4.314a80.028 80.028 0 0 1-6.528 11.257 131.5 131.5 0 0 1-12.498 15.239c-5.123 5.478-11.143 11.228-17.35 17.368-12.536 12.183-22.353 24.468-27.62 34.193a53.57 53.57 0 0 0-4.937 11.943 29.047 29.047 0 0 0-.692 3.399 4.787 4.787 0 0 0-.115 1.199ZM283.26 736.235a28.538 28.538 0 0 0 3.239 1.819 70.796 70.796 0 0 1 8.402 5.554 96.465 96.465 0 0 1 11.035 10.064c3.873 4.092 7.862 8.843 11.935 13.935 8.14 10.214 15.755 19.253 20.314 26.468a108.188 108.188 0 0 1 5.1 8.712 27.853 27.853 0 0 0 1.783 3.262 3.145 3.145 0 0 0-.3-.92c-.241-.581-.568-1.456-1.088-2.537a82.505 82.505 0 0 0-4.82-8.944c-4.426-7.39-11.98-16.552-20.108-26.75-4.08-5.1-8.118-9.861-12.064-13.947a89.628 89.628 0 0 0-11.307-9.984 59.027 59.027 0 0 0-8.678-5.303c-1.073-.54-1.95-.87-2.529-1.12a3.1 3.1 0 0 0-.914-.309Z"/><path class="g" d="M282.05 758.884c-.014.164 2.614.483 6.847.994a90.36 90.36 0 0 1 16.238 3.198 48.824 48.824 0 0 1 14.54 7.63c3.352 2.59 4.932 4.733 5.087 4.608a5.23 5.23 0 0 0-1.014-1.576 25.788 25.788 0 0 0-3.567-3.651A44.027 44.027 0 0 0 305.483 762a73.328 73.328 0 0 0-16.506-2.918c-4.27-.31-6.915-.345-6.927-.198Z"/><path class="g" d="M322.764 772.826c.357-.203-2.73-4.916-5.122-11.255-2.246-6.397-2.772-12.007-3.175-11.942-.146.018-.14 1.42.114 3.674a39.397 39.397 0 0 0 1.997 8.654 41.888 41.888 0 0 0 3.971 7.937c1.22 1.908 2.088 3.01 2.215 2.932ZM233.742 655.662a7.247 7.247 0 0 0 1.49.718l4.38 1.805a97.55 97.55 0 0 1 6.867 2.944c2.632 1.231 5.703 2.5 8.9 4.24l5.083 2.62c1.762.92 3.506 2.01 5.36 3.063 3.747 2.06 7.5 4.598 11.506 7.189a211.535 211.535 0 0 1 24.017 19.15 201.619 201.619 0 0 1 20.296 22.422c2.72 3.72 5.39 7.207 7.532 10.672 1.098 1.718 2.24 3.335 3.193 4.962l2.715 4.696c1.81 2.956 3.102 5.782 4.37 8.21a80.349 80.349 0 0 1 3.01 6.322l1.84 4.028a6.162 6.162 0 0 0 .74 1.376 5.775 5.775 0 0 0-.448-1.47l-1.573-4.13a67.095 67.095 0 0 0-2.78-6.438c-1.198-2.469-2.429-5.34-4.187-8.342l-2.642-4.765c-.931-1.651-2.056-3.293-3.137-5.034-2.11-3.514-4.757-7.05-7.465-10.817a192.714 192.714 0 0 0-20.356-22.661 202.646 202.646 0 0 0-24.28-19.215c-4.059-2.581-7.866-5.1-11.667-7.133-1.883-1.039-3.653-2.113-5.442-3.013l-5.162-2.558c-3.25-1.695-6.372-2.909-9.052-4.078a82.72 82.72 0 0 0-7.003-2.74l-4.5-1.566a7.448 7.448 0 0 0-1.605-.457Z"/><path class="g" d="M312.16 708.207c.1-.016-.445-1.916-2.69-4.006a16.978 16.978 0 0 0-10.839-4.158 29.63 29.63 0 0 0-11.404 2.228c-2.762 1.085-4.367 1.964-4.312 2.095.064.158 1.784-.462 4.575-1.34a34.45 34.45 0 0 1 11.106-1.852 17.65 17.65 0 0 1 10.352 3.633c2.24 1.805 3.03 3.51 3.211 3.4ZM290.45 686.63c.31-.172-2.448-4.217-3.077-10.012-.722-5.785 1.032-10.355.69-10.452-.124-.051-.74 1.012-1.27 2.916a20.698 20.698 0 0 0 1.75 15.003c.954 1.73 1.798 2.623 1.907 2.545Z"/><g><path class="g" d="M247.556 727.71c.17-1.987 16.335-4.055 32.798.745 8.53 2.487 21.747 8.161 21.17 12.97-.34 2.815-5.362 4.985-9.542 5.218-7.334.41-10.769-5.217-19.827-10.585-13.497-7.998-24.74-6.69-24.599-8.348ZM427.643 696.701c-.05-1.987-4.78-4.055-9.6.745-2.496 2.488-6.364 8.162-6.195 12.97.099 2.815 1.569 4.985 2.792 5.218 2.147.41 3.152-5.216 5.804-10.584 3.95-7.998 7.24-6.69 7.199-8.349ZM359.209 505.494c1.989-.855 5.82 2.13 2.875 8.284-1.526 3.19-5.696 8.95-10.529 10.98-2.829 1.187-5.534.948-6.226.04-1.214-1.592 3.987-4.962 8.312-9.578 6.443-6.877 3.908-9.012 5.568-9.726ZM401.988 720.654c-.347-1.957-5.335-3.29-9.378 2.18-2.095 2.833-5.067 9.024-4.177 13.753.52 2.768 2.3 4.692 3.544 4.739 2.184.082 2.333-5.631 4.148-11.336 2.704-8.5 6.154-7.702 5.863-9.336ZM403.394 754.591c.62 1.124-5.622 6.722-14.386 8.679-4.54 1.014-12.211 1.599-13.638-1.168-.836-1.62.572-4.187 2.29-5.47 3.017-2.253 6.457-.155 12.23.246 8.6.598 12.988-3.225 13.504-2.287ZM296.901 758.57c-.165-4.978-29.395-12.89-48.301-1.343-3.88 2.37-8.485 6.269-8.05 7.007.477.81 6.118-3.73 14.162-4.621 11.266-1.248 15.043 6.016 26.685 5.367 7.178-.4 15.594-3.71 15.505-6.41ZM255.01 659.58c-.143-4.977-25.38-12.89-41.703-1.341-3.35 2.37-7.325 6.268-6.95 7.006.412.811 5.282-3.73 12.228-4.621 9.727-1.248 12.987 6.016 23.04 5.367 6.195-.4 13.462-3.71 13.385-6.41ZM344.478 520.117c2.726-4.166-7.31-20.606-23.205-17.479-3.262.642-7.745 2.3-7.946 3.057-.22.831 5.14-1.007 9.633.984 6.293 2.789 4.068 10.066 10.21 13.476 3.787 2.102 9.83 2.222 11.308-.038ZM313.748 721.448c-2.652.013-4.492 8.547-4.77 9.84-1.963 9.1-.975 21.728 4.174 23.256 2.174.646 4.58-.84 5.814-2.087 3.288-3.323 2.193-8.93.596-16.548-1.074-5.123-3.035-14.474-5.814-14.46ZM285.92 645.914c-2.652.013-4.492 8.547-4.77 9.84-1.962 9.1-.975 21.728 4.174 23.256 2.175.646 4.58-.84 5.814-2.087 3.288-3.322 2.194-8.93.596-16.548-1.075-5.123-3.035-14.474-5.814-14.46ZM235.431 621.466c.17-1.988 16.335-4.055 32.798.745 8.53 2.487 21.747 8.161 21.17 12.97-.339 2.815-5.362 4.985-9.542 5.218-7.334.409-10.769-5.217-19.827-10.585-13.497-7.998-24.74-6.69-24.599-8.348ZM351.2 566.975c-1.642-4.234 17.762-20.271 36.23-16.645 3.792.744 8.675 2.539 8.607 3.299-.075.834-5.974-1.168-12.404.668-9.005 2.572-9.296 9.886-18.375 13.082-5.596 1.97-13.168 1.893-14.059-.404ZM366.522 524.961c-1.59-1.462-8.637 2.145-13.001 7.824-6.293 8.189-6.957 20.574-2.942 23.362 1.663 1.154 4.115.318 5.507-.576 3.77-2.42 2.876-7.33 5.115-15.747 2.61-9.804 6.697-13.597 5.321-14.863ZM357.875 474.87c-1.59-1.462-8.637 2.145-13.001 7.824-6.293 8.189-6.957 20.574-2.942 23.362 1.663 1.154 4.115.318 5.508-.576 3.77-2.42 2.875-7.33 5.115-15.746 2.609-9.805 6.697-13.598 5.32-14.863ZM248.233 559.457c.162-1.89 7.406-2.716 14.12-.652 9.681 2.977 18.155 11.908 17.161 16-.412 1.696-2.662 2.297-4.21 2.325-4.193.076-6.745-4.044-13.75-9.218-8.16-6.028-13.462-6.82-13.321-8.455ZM362.745 594.631a25.97 25.97 0 0 0-1.987 12.125c.236 3.025.579 7.407 3.379 8.746a5.62 5.62 0 0 0 5.764-.795c4.453-3.917-3.09-13.2.795-25.84.925-3.008 2.127-5 1.59-5.367-.954-.65-6.598 4.409-9.54 11.131ZM310.313 578.105a13.7 13.7 0 0 1 4.248 8.005c.296 2.192.723 5.367-1.96 7.054a8.511 8.511 0 0 1-6.16.973c-5.35-1.572.86-10.112-5.462-17.974-1.505-1.872-3.117-2.955-2.622-3.355.88-.712 7.678 1.348 11.955 5.297ZM435.099 600.396a28.087 28.087 0 0 0-12.42-5.171c-3.283-.499-8.04-1.221-10.174 1.47a6.307 6.307 0 0 0-.61 6.427c3.048 5.788 14.85-.048 27.337 7.302 2.972 1.75 4.792 3.545 5.317 3.056.935-.87-3.03-8.229-9.45-13.084ZM422.263 612.729a22.187 22.187 0 0 0-9.581-3.939c-2.53-.39-6.192-.954-7.823 1.055a4.615 4.615 0 0 0-.438 4.817c2.374 4.356 11.426.035 21.07 5.608 2.296 1.327 3.705 2.682 4.107 2.318.715-.647-2.371-6.187-7.335-9.86ZM309.202 621.453a22.765 22.765 0 0 0 8.742 1.573c2.201-.037 5.39-.092 6.437-1.693a2.81 2.81 0 0 0-.421-3.413c-2.721-2.747-9.66 1.375-18.725-1.331-2.158-.644-3.571-1.417-3.85-1.114-.499.54 3.019 4.025 7.817 5.978ZM375.765 682.688c.79-2.654 9.699-2.35 15.206-1.491 5.514.859 13.01 2.026 16.995 8.05 2.268 3.427 3.369 8.38 1.79 9.54-1.862 1.37-5.096-4.26-13.716-7.155-7.865-2.642-13.14-.632-18.188-5.367-.863-.809-2.464-2.31-2.087-3.577ZM292.187 700.776c-.507-2.653-6.218-2.349-9.749-1.49-3.535.858-8.341 2.026-10.896 8.05-1.454 3.426-2.16 8.38-1.147 9.54 1.193 1.369 3.267-4.26 8.793-7.156 5.043-2.641 8.424-.631 11.661-5.367.553-.809 1.58-2.31 1.338-3.577ZM413.082 669.941c2.745-1.318 9.307-4.469 17.544-2.758 12.292 2.553 18.763 13.95 18.188 14.61-.347.398-3.261-3.078-8.945-4.174-4.302-.83-6.118.49-10.734.894-9.588.842-19.421-3.298-19.38-5.963.005-.287.131-1.074 3.327-2.609Z"/></g><g><path class="f" d="M278.863 824.313a299.577 299.577 0 0 0 28.32 103.838l63.246.472a199.105 199.105 0 0 0 30.68-103.838Z"/><path class="i" d="m295.933 901.313 88.28 1.367-1.143 2.484-86.317-1.391-.82-2.46ZM289.82 883.2l101.747.05-1.987 6.112-97.822.1-1.938-6.262Z"/></g></g><g><path class="i" d="M655.044 515.632h10.565v111.522h-10.565zM655.044 674.762h10.565v111.522h-10.565zM655.044 838.806h10.565v93.957h-10.565z"/><circle class="i" cx="660.522" cy="650.762" r="14.087"/><circle class="i" cx="660.522" cy="813.153" r="14.087"/><path class="i" d="M489.391 628.327h62.087v14.087h-62.087zM489.391 649.197h116.87v8.348h-116.87zM489.391 663.284h116.87v8.348h-116.87z"/><g><path class="i" d="M489.391 794.24h62.087v14.087h-62.087zM489.391 815.11h116.87v8.348h-116.87zM489.391 829.197h116.87v8.348h-116.87z"/></g></g></g><rect class="f" x="1110.785" y="181.353" width="132.81" height="97.17" rx="23.478"/><path class="u" d="M1166.64 203.91c-4.141 0-5.521 1.118-5.521 4.207v13.802c0 5.39-2.235 7.034-5.982 8.085 3.747.986 5.982 2.63 5.982 7.952v13.803c0 3.09 1.446 4.207 5.52 4.207v6.047c-10.45 0-13.409-3.352-13.409-10.32v-13.079c0-3.746-.985-5.192-4.402-5.192v-6.901c3.417 0 4.402-1.512 4.402-5.259v-13.08c0-7.033 2.959-10.318 13.41-10.318ZM1201.082 208.183v13.079c0 3.747.986 5.258 4.47 5.258v6.902c-3.483 0-4.47 1.445-4.47 5.192v13.08c0 6.967-2.957 10.32-13.407 10.32v-6.048c4.075 0 5.52-1.117 5.52-4.207v-13.803c0-5.323 2.235-6.966 5.981-7.952-3.746-1.051-5.981-2.695-5.981-8.085v-13.802c0-3.09-1.38-4.207-5.52-4.207v-6.046c10.45 0 13.408 3.285 13.408 10.319Z"/><g><path class="i" d="M1345.885 640.297c21.855-2.65 38.388-44.66 40.7-70.204s-7.962-17.284-23.382-7.924-20.79 37.322-27.744 43.92-7.811-6.463-1.58-22.038 25.339-18.405 35.898-43.412-33.876-60.334-33.876-60.334c.233 19.6-19.906 48.37-26.683 47.616s8.53-47.858 8.896-55.825-10.983-25.627-44.161-27.161-39.013 51.2-39.013 51.2 43.25 50.447 41.482 60.672-45.523-36.337-45.523-36.337c-7.824 18.449 1.433 74.516 1.433 74.516s63.635 16.365 59.308 25.797-55.646-17.255-55.646-17.255c.041 20.214 17.094 44.357 17.094 44.357 29.791 32.806 70.942-4.937 70.942-4.937Z"/><path class="f" d="M1345.885 640.297c2.192 8.76 30.621 32.39 30.621 32.39l-9.594-2.975c-20.945-20.635-42.882-26.764-42.882-26.764-44.04-29.817-47.53-172.309-47.53-172.309 18.218 185.44 69.385 169.658 69.385 169.658Z"/></g><g><rect class="f" x="1274.308" y="654.131" width="192.82" height="97.17" rx="23.478"/><path class="k" d="m1345.534 694.966-15.557 6.639a2.747 2.747 0 0 0 .014 5.059l15.544 6.536a2.747 2.747 0 0 1 1.455 3.624l-.943 2.179a2.747 2.747 0 0 1-3.642 1.416l-24.715-11.041a2.747 2.747 0 0 1-1.626-2.508V701.5a2.747 2.747 0 0 1 1.62-2.505l24.738-11.116a2.747 2.747 0 0 1 3.638 1.395l.908 2.053a2.747 2.747 0 0 1-1.434 3.638ZM1382.866 672.837l-16.088 61.8a2.747 2.747 0 0 1-3.285 1.983l-2.971-.696a2.747 2.747 0 0 1-2.031-3.37l16.166-61.761a2.747 2.747 0 0 1 3.266-1.984l2.894.658a2.747 2.747 0 0 1 2.05 3.37ZM1425.372 701.501v5.368a2.747 2.747 0 0 1-1.627 2.509l-24.716 11.041a2.747 2.747 0 0 1-3.642-1.417l-.944-2.181a2.747 2.747 0 0 1 1.454-3.622l15.493-6.536a2.747 2.747 0 0 0 .014-5.057l-15.507-6.64a2.747 2.747 0 0 1-1.432-3.635l.909-2.056a2.747 2.747 0 0 1 3.638-1.395l24.739 11.115a2.747 2.747 0 0 1 1.621 2.506Z"/></g></svg>