<svg xmlns="http://www.w3.org/2000/svg" viewBox="0 0 432.558 517.442"><defs><style>.svg-element__primeContrastClr{fill:#2d3e52}</style></defs><path class="svg-element__primeContrastClr" d="m236.426 360.712-118.779-25.436L0 438.476v42.338a36.628 36.628 0 0 0 36.628 36.628H395.93a36.628 36.628 0 0 0 36.628-36.628V337.077l-71.32-64.328Zm165.132 120.102a5.634 5.634 0 0 1-5.628 5.628H36.628A5.634 5.634 0 0 1 31 480.814V452.52l95.383-83.67 103.552 22.175 13.263 2.84 11.086-7.814 104.575-73.7 42.7 38.513ZM142.918 87.045a65.283 65.283 0 0 0-46.81 20.403c-12.018 12.567-18.226 28.657-17.48 45.306 1.58 35.29 29.82 62.934 64.29 62.934a65.284 65.284 0 0 0 46.81-20.402c12.018-12.567 18.226-28.658 17.48-45.306-1.58-35.29-29.82-62.935-64.29-62.935Zm0 97.643c-18.68 0-32.513-15.268-33.321-33.321-.806-17.995 15.891-33.322 33.321-33.322 18.681 0 32.513 15.268 33.322 33.322.806 17.995-15.892 33.321-33.322 33.321Z"/><path class="svg-element__primeContrastClr" d="M432.558 145.132c0-.1-.007-.2-.008-.3-.004-.425-.01-.85-.031-1.273-.017-.333-.047-.663-.074-.994-.016-.19-.024-.38-.043-.568a31.802 31.802 0 0 0-9.158-19.345L309.904 9.312a31.783 31.783 0 0 0-11.76-7.448c-.047-.017-.097-.03-.145-.048a31.795 31.795 0 0 0-1.322-.437c-.092-.028-.187-.051-.28-.079a32.192 32.192 0 0 0-1.21-.335c-.137-.035-.277-.062-.416-.095-.363-.087-.726-.173-1.092-.247-.18-.036-.362-.063-.543-.096-.329-.06-.657-.123-.988-.172-.2-.03-.401-.05-.602-.077-.315-.04-.63-.086-.946-.117-.212-.022-.426-.033-.64-.05-.306-.025-.612-.053-.92-.068-.224-.012-.45-.013-.675-.02-.28-.008-.557-.022-.836-.023v.003c-.038 0-.075-.003-.113-.003H36.628A36.628 36.628 0 0 0 0 36.628v338.887l105.085-94.625 118.335 25.37 141.808-99.94 67.33 60.73V145.142Zm-31 52.21-15.567-14.041-18.384-16.582-20.237 14.262-130.717 92.124-105.07-22.526-15.478-3.319-11.764 10.593L31 305.884V36.629A5.634 5.634 0 0 1 36.628 31h250.788a.767.767 0 0 1 .113.022v77.482a36.628 36.628 0 0 0 36.628 36.628h77.4l.001.01Z"/></svg>