<svg id="e1dZN5EXSYv1" xmlns="http://www.w3.org/2000/svg" height="auto" width="auto"
     viewBox="0 0 1900 1050" shape-rendering="geometricPrecision" text-rendering="geometricPrecision">
    <style>
        .svg-element__textClr{fill:rgb(255,255,255)}
        <![CDATA[#e1dZN5EXSYv5_tr {
        animation: e1dZN5EXSYv5_tr__tr 20000ms linear infinite normal forwards}
        @keyframes e1dZN5EXSYv5_tr__tr {
        0% {transform: translate(919px,525px) rotate(0deg);
        animation-timing-function: cubic-bezier(0.645,0.045,0.355,1)}
        46% {
        transform: translate(919px,525px) rotate(-1deg);
        animation-timing-function: cubic-bezier(0.645,0.045,0.355,1)}
        100% {
        transform: translate(919px,525px) rotate(0deg)}}
        #e1dZN5EXSYv5_ts {animation: e1dZN5EXSYv5_ts__ts 20000ms linear infinite normal forwards}
        @keyframes e1dZN5EXSYv5_ts__ts {
        0% {transform: scale(1,1);animation-timing-function: cubic-bezier(0.42,0,0.58,1)}
        24% {transform: scale(1.010667,0.99);animation-timing-function: cubic-bezier(0.42,0,0.58,1)}
        46% {transform: scale(1.02,1);animation-timing-function: cubic-bezier(0.42,0,0.58,1)}
        78% {transform: scale(1.009333,1.04);animation-timing-function: cubic-bezier(0.42,0,0.58,1)}
        100% {transform: scale(1,1)}}
        #e1dZN5EXSYv6_to {animation: e1dZN5EXSYv6_to__to 20000ms linear infinite normal forwards}
        @keyframes e1dZN5EXSYv6_to__to {
        0% {offset-distance: 0%;animation-timing-function: cubic-bezier(0.465,0.495,0.395,0.765)}
        42% {offset-distance: 44.64531%;animation-timing-function: cubic-bezier(0.535,0.37,0.515,0.735)}
        100% {offset-distance: 100%}}
        #e1dZN5EXSYv7_to {animation: e1dZN5EXSYv7_to__to 20000ms linear infinite normal forwards}
        @keyframes e1dZN5EXSYv7_to__to { 0% {transform: translate(1631.971497px,428.850029px);
        animation-timing-function: cubic-bezier(0.32,0.22,0.58,1)}
        42% {transform: translate(1650.248368px,420.852442px);
        animation-timing-function: cubic-bezier(0.34,0.26,0.625,0.735)}
        100% {transform: translate(1631.971497px,428.850029px)}}
        #e1dZN5EXSYv8_ts {animation: e1dZN5EXSYv8_ts__ts 20000ms linear infinite normal forwards}
        @keyframes e1dZN5EXSYv8_ts__ts {
        0% {transform: translate(1468.710022px,771.516449px) scale(1.000892,1)}
        46% {transform: translate(1468.710022px,771.516449px) scale(1.093337,1.09183)}
        100% {transform: translate(1468.710022px,771.516449px) scale(1.000892,1)}}
        #e1dZN5EXSYv11_tr {animation: e1dZN5EXSYv11_tr__tr 20000ms linear infinite normal forwards}
        @keyframes e1dZN5EXSYv11_tr__tr {
        0% {transform: translate(1761.130737px,1028.238892px) rotate(0deg)}
        48% {transform: translate(1761.130737px,1028.238892px) rotate(11deg)}
        100% {transform: translate(1761.130737px,1028.238892px) rotate(0deg)}} #e1dZN5EXSYv11_ts {animation: e1dZN5EXSYv11_ts__ts 20000ms linear infinite normal forwards}@keyframes e1dZN5EXSYv11_ts__ts { 0% {transform: scale(1,1)} 20% {transform: scale(1.041194,1.353972)} 60% {transform: scale(1.617969,1.144958)} 100% {transform: scale(1,1)}} #e1dZN5EXSYv12 {animation: e1dZN5EXSYv12_c_o 20000ms linear infinite normal forwards}@keyframes e1dZN5EXSYv12_c_o { 0% {opacity: 1} 76% {opacity: 0.67} 100% {opacity: 1}} #e1dZN5EXSYv14_ts {animation: e1dZN5EXSYv14_ts__ts 20000ms linear infinite normal forwards}@keyframes e1dZN5EXSYv14_ts__ts { 0% {transform: translate(634.769104px,424.107838px) scale(1,1)} 46% {transform: translate(634.769104px,424.107838px) scale(1.109942,1.104393)} 100% {transform: translate(634.769104px,424.107838px) scale(1,1)}} #e1dZN5EXSYv14 {animation: e1dZN5EXSYv14_c_o 20000ms linear infinite normal forwards}@keyframes e1dZN5EXSYv14_c_o { 0% {opacity: 1} 68% {opacity: 0.54} 100% {opacity: 1}} #e1dZN5EXSYv16_ts {animation: e1dZN5EXSYv16_ts__ts 20000ms linear infinite normal forwards}@keyframes e1dZN5EXSYv16_ts__ts { 0% {transform: translate(561.102514px,368.520537px) scale(1,1);animation-timing-function: cubic-bezier(0.42,0,0.58,1)} 68% {transform: translate(561.102514px,368.520537px) scale(1,1.115042);animation-timing-function: cubic-bezier(0.42,0,0.58,1)} 100% {transform: translate(561.102514px,368.520537px) scale(1,1)}} #e1dZN5EXSYv16 {animation: e1dZN5EXSYv16_c_o 20000ms linear infinite normal forwards}@keyframes e1dZN5EXSYv16_c_o { 0% {opacity: 1} 62% {opacity: 0.62} 100% {opacity: 1}} #e1dZN5EXSYv19_to {animation: e1dZN5EXSYv19_to__to 20000ms linear infinite normal forwards}@keyframes e1dZN5EXSYv19_to__to { 0% {offset-distance: 0%;animation-timing-function: cubic-bezier(0.42,0,0.58,1)} 54% {offset-distance: 67.594493%;animation-timing-function: cubic-bezier(0.42,0,0.58,1)} 100% {offset-distance: 100%}} #e1dZN5EXSYv19_ts {animation: e1dZN5EXSYv19_ts__ts 20000ms linear infinite normal forwards}@keyframes e1dZN5EXSYv19_ts__ts { 0% {transform: scale(1,1);animation-timing-function: cubic-bezier(0.39,0.575,0.84,0.56)} 34% {transform: scale(1.244326,0.849554);animation-timing-function: cubic-bezier(0.39,0.575,0.84,0.56)} 100% {transform: scale(1,1)}} #e1dZN5EXSYv21_ts {animation: e1dZN5EXSYv21_ts__ts 20000ms linear infinite normal forwards}@keyframes e1dZN5EXSYv21_ts__ts { 0% {transform: translate(1382.697144px,144.389613px) scale(1,1)} 40% {transform: translate(1382.697144px,144.389613px) scale(1.079146,0.827118)} 100% {transform: translate(1382.697144px,144.389613px) scale(1,1)}} #e1dZN5EXSYv22_to {animation: e1dZN5EXSYv22_to__to 20000ms linear infinite normal forwards}@keyframes e1dZN5EXSYv22_to__to { 0% {offset-distance: 0%} 42% {offset-distance: 51.317381%} 100% {offset-distance: 100%}} #e1dZN5EXSYv22_ts {animation: e1dZN5EXSYv22_ts__ts 20000ms linear infinite normal forwards}@keyframes e1dZN5EXSYv22_ts__ts { 0% {transform: scale(1,1)} 46.6% {transform: scale(1.082919,1.026432)} 100% {transform: scale(1,1)}} #e1dZN5EXSYv25_ts {animation: e1dZN5EXSYv25_ts__ts 20000ms linear infinite normal forwards}@keyframes e1dZN5EXSYv25_ts__ts { 0% {transform: translate(426.033997px,164.487007px) rotate(0.377717deg) scale(1,1);animation-timing-function: cubic-bezier(0.445,0.05,0.55,0.95)} 22% {transform: translate(426.033997px,164.487007px) rotate(0.377717deg) scale(0.571275,0.701021)} 58% {transform: translate(426.033997px,164.487007px) rotate(0.377717deg) scale(1.411895,1.265971);animation-timing-function: cubic-bezier(0.445,0.05,0.55,0.95)} 100% {transform: translate(426.033997px,164.487007px) rotate(0.377717deg) scale(1,1)}}]]>
    </style>
    <g id="e1dZN5EXSYv2" opacity="0.7">
        <g id="e1dZN5EXSYv3" clip-path="url(#e1dZN5EXSYv26)">
            <g id="e1dZN5EXSYv4">
                <g id="e1dZN5EXSYv5_tr" transform="translate(919,525) rotate(0)">
                    <g id="e1dZN5EXSYv5_ts" transform="scale(1,1)">
                        <g id="e1dZN5EXSYv5" transform="translate(-925,-538.600005)">
                            <g id="e1dZN5EXSYv6_to"
                               style="offset-path:path('M1773.933944,247.226173Q1764.002985,253.994543,1744.764293,248.93279L1773.933944,247.226173');offset-rotate:0deg">
                                <path id="e1dZN5EXSYv6"
                                      d="M1934.4,491.5L1930.1,492.4L1924.7,493.6C1922.6,494,1920,494.2,1917.2,494.6C1913.981646,495.007984,1910.743586,495.241659,1907.5,495.3C1903.637764,495.536783,1899.765744,495.570162,1895.9,495.4C1893.691384,495.379,1891.486573,495.211969,1889.3,494.9C1887.1,494.7,1884.7,494.5,1882.3,494.1C1877.199938,493.376913,1872.154962,492.307779,1867.2,490.9C1846.3,485.4,1822.7,473,1802.3,453.3C1799.8,450.8,1797.1,448.3,1794.8,445.6C1792.5,442.9,1789.8,440.2,1787.5,437.3C1782.8,431.6,1778.5,425.4,1774.2,419C1765.5,406.2,1756.9,392.2,1743.3,380.6C1729.7,369,1711.2,360.8,1690.7,356.1C1670.2,351.4,1648,349.7,1625.1,349.4C1602.2,349.1,1578.2,349.8,1553.7,347.7C1541.287652,346.843644,1528.974032,344.902911,1516.9,341.9C1510.784127,340.428488,1504.771246,338.557814,1498.9,336.3C1493.113968,333.998606,1487.528251,331.222471,1482.2,328C1471.6,321.6,1462,313.7,1454.9,304.2C1451.303591,299.547337,1448.344139,294.435556,1446.1,289C1443.95417,283.649484,1442.769337,277.962285,1442.6,272.2C1442.5,260.6,1447.1,249,1455.5,239.6C1463.9,230.2,1475.8,223,1488.6,218C1501.745381,212.861197,1515.433765,209.237801,1529.4,207.2C1543.6,205,1558.2,204.4,1572.7,203.8C1587.2,203.2,1601.8,202.7,1616.4,201.1C1631,199.5,1645.4,197,1659,192.1C1672.550222,187.328266,1684.853797,179.570179,1695,169.4C1704.7,159.6,1712.1,148.5,1719.3,137.5C1726.5,126.5,1733.6,115.3,1742.6,105.3C1751.6,95.3,1762.5,86.7,1774.4,79.5C1798.2,65.1,1826,56.6,1853.7,53C1867.508644,51.420173,1881.431396,51.085492,1895.3,52C1908.704244,53.145978,1921.946762,55.727431,1934.8,59.7L1935.6,59.9L1935.6,60.6C1935.4,187.7,1935.2,295.5,1935,371.6C1934.9,409.5,1934.8,439.5,1934.7,460.1C1934.6,470.3,1934.6,478.1,1934.5,483.5C1934.5,486.1,1934.5,488.1,1934.4,489.5L1934.4,491.5C1934.322328,490.802816,1934.288928,490.10141,1934.3,489.4C1934.3,488,1934.2,486,1934.2,483.3C1934.2,477.9,1934.1,470,1934,459.7C1934,439.1,1933.9,409,1933.7,371C1933.6,295.1,1933.4,187.5,1933.2,60.6L1933.9,61.6C1921.264283,57.751031,1908.259881,55.237294,1895.1,54.1C1881.431365,53.1856,1867.707804,53.520321,1854.1,55.1C1826.7,58.6,1799.3,67.1,1775.9,81.3C1764.2,88.4,1753.3,96.7,1744.7,106.6C1736.1,116.5,1728.9,127.5,1721.6,138.6C1714.3,149.7,1706.9,160.8,1697.1,170.8C1686.63602,181.224115,1674.002998,189.213648,1660.1,194.2C1646.2,199.2,1631.4,201.9,1616.7,203.3C1602,204.7,1587.3,205.4,1572.8,206C1558.3,206.6,1543.9,207.2,1529.9,209.4C1516.164739,211.299909,1502.703773,214.824601,1489.8,219.9C1477.2,224.8,1465.9,231.9,1457.6,240.9C1449.3,249.9,1445,261.1,1445.2,272.1C1445.349285,277.683266,1446.465833,283.198335,1448.5,288.4C1450.665689,293.656846,1453.524335,298.600623,1457,303.1C1463.9,312.4,1473.3,320.1,1483.6,326.4C1488.872032,329.477386,1494.351951,332.183932,1500,334.5C1505.73236,336.738298,1511.613157,338.576047,1517.6,340C1529.513203,342.961324,1541.65717,344.901683,1553.9,345.8C1578.2,347.8,1602.1,347.2,1625.1,347.6C1648.1,348,1670.5,349.6,1691.3,354.5C1712.1,359.4,1730.8,367.6,1744.6,379.5C1758.4,391.4,1767,405.5,1775.7,418.3C1780,424.7,1784.2,430.9,1788.8,436.6C1791.1,439.5,1793.5,442.2,1796,444.8C1798.5,447.4,1800.9,450,1803.4,452.5C1823.6,472.1,1846.8,484.5,1867.6,490.1C1872.497816,491.490605,1877.47304,492.5925,1882.5,493.4L1889.4,494.2C1891.553067,494.511662,1893.724598,494.678703,1895.9,494.7C1899.762446,494.930692,1903.634151,494.964068,1907.5,494.8C1910.71054,494.745652,1913.915535,494.511954,1917.1,494.1C1922.9,493.6,1927.1,492.8,1929.9,492.3Z"
                                      transform="translate(-1724.062719,-261.675067)" class="svg-element__textClr"
                                      stroke="none" stroke-width="1"/>
                            </g>
                            <g id="e1dZN5EXSYv7_to" transform="translate(1631.971497,428.850029)">
                                <path id="e1dZN5EXSYv7"
                                      d="M1934.6,860.3C1934.6,860.3,1929.1,860.3,1918.6,859.5C1903.334708,858.34614,1888.186307,855.971888,1873.3,852.4C1854.2,847.6,1830.8,840.1,1808.2,825.3C1796.458524,817.77303,1786.021808,808.383363,1777.3,797.5C1768.09321,785.878504,1761.263449,772.55877,1757.2,758.3C1748.8,729,1751.2,695.6,1757,661C1759.8,643.6,1763.6,625.7,1765.9,607.1C1767,597.9,1767.8,588.4,1768.1,578.9C1768.395189,569.183791,1767.994163,559.458916,1766.9,549.8C1765.563458,539.896527,1763.252245,530.149234,1760,520.7C1756.253472,510.872114,1751.208707,501.589745,1745,493.1C1732.2,475.6,1712.4,461.6,1689.9,451.6C1667.4,441.6,1642.2,434.9,1616.4,430.2C1590.6,425.5,1563.7,422.6,1536.8,418.5C1509.9,414.4,1483.4,409,1459,399.7C1435.614863,390.831435,1413.855295,378.160879,1394.6,362.2C1357.9,331.7,1335.2,292,1330.3,252.5C1328,232.7,1329.8,213.1,1336.2,195C1342.551775,176.711887,1353.625999,160.428294,1368.3,147.8C1383,134.9,1401.1,126.2,1418.8,119.4C1436.5,112.6,1454.4,107.5,1471,102C1504.3,91.2,1533.8,80,1558.6,68.5C1583.4,57,1603.4,45.2,1618.7,34.5C1630.295994,26.368294,1641.291118,17.41178,1651.6,7.7L1659.2,0L1661.9,-2.6C1661.9,-2.6,1661.1,-1.6,1659.4,0.1C1657.7,1.8,1655.3,4.6,1652,8C1641.852195,17.864673,1630.952675,26.925317,1619.4,35.1C1604.1,46,1584.1,57.9,1559.3,69.6C1534.5,81.3,1505,92.6,1471.7,103.5C1455,109,1437.3,114.1,1419.7,121C1402.1,127.9,1384.2,136.4,1369.8,149C1355.486265,161.522052,1344.666987,177.54423,1338.4,195.5C1332.243183,213.727174,1330.294438,233.112057,1332.7,252.2C1337.6,291.2,1360.1,330.5,1396.4,360.7C1415.463728,376.438655,1436.983639,388.938446,1460.1,397.7C1484.2,406.8,1510.5,412.2,1537.3,416.3C1564.1,420.4,1590.9,423.4,1616.9,428C1642.9,432.6,1668.3,439.4,1691.1,449.7C1713.9,460,1734.1,474.1,1747.1,492C1753.469579,500.601009,1758.587199,510.061872,1762.3,520.1C1765.679437,529.65534,1768.026144,539.545031,1769.3,549.6C1774,589.3,1765,626.7,1759.2,661.2C1753.4,695.7,1750.8,728.9,1759,757.9C1763.0098,771.980098,1769.698729,785.154231,1778.7,796.7C1787.311881,807.512522,1797.610694,816.86587,1809.2,824.4C1831.4,839.1,1854.6,846.7,1873.6,851.5C1888.403845,855.224782,1903.487411,857.733136,1918.7,859C1923.9,859.6,1927.9,859.7,1930.6,859.9Z"
                                      transform="translate(-1600.377143,-435.301336)" class="svg-element__textClr"
                                      stroke="none" stroke-width="1"/>
                            </g>
                            <g id="e1dZN5EXSYv8_ts" transform="translate(1468.710022,771.516449) scale(1.000892,1)">
                                <path id="e1dZN5EXSYv8"
                                      d="M1062.9,1086.5L1058,1086.5C1053.272251,1086.109978,1048.58771,1085.306914,1044,1084.1C1036.750632,1082.147169,1029.86263,1079.040815,1023.6,1074.9C1019.827516,1072.4163,1016.54027,1069.264611,1013.9,1065.6C1011.2,1061.7,1009.3,1057,1009.8,1051.9C1013.4,1031.9,1030.8,1010.3,1057.6,993C1072.245964,983.641856,1087.789731,975.769474,1104,969.5C1121.4,962.6,1140.5,956.8,1160.9,951.5C1181.3,946.2,1202.9,941.6,1225.3,936.7C1247.7,931.8,1271.1,926.3,1294.5,918.9C1317.9,911.5,1341.3,902.3,1363,889.5C1384.7,876.7,1404,859.9,1417.1,839.3C1430.2,818.7,1436.6,794.8,1438.6,770.4C1440.6,746,1437.9,720.9,1433.7,695.7C1429.5,670.5,1424.1,644.7,1421.3,618.4C1418.5,592.1,1418.4,564.7,1427,538.3C1431.329212,524.819071,1438.146928,512.269048,1447.1,501.3C1451.843541,495.651618,1457.173418,490.522869,1463,486C1469.010138,481.378864,1475.437942,477.328008,1482.2,473.9C1509.7,460,1542.1,455.3,1572.8,456.8C1603.5,458.3,1633.5,466.1,1658.2,480C1670.09652,486.663998,1680.863101,495.169259,1690.1,505.2C1698.51877,514.595529,1705.40332,525.259831,1710.5,536.8C1720.4,559,1723.6,582.2,1724.1,604.5C1724.6,626.8,1722,648.4,1719.8,669.1C1717.6,689.8,1715.6,710,1715.9,729.4C1716.2,748.8,1718.8,767.3,1725.1,784.2C1731.185206,800.599809,1739.899131,815.89984,1750.9,829.5C1761.5,842.8,1774,853.8,1786.3,863.4C1808.572589,879.888954,1833.545284,892.375301,1860.1,900.3C1882.5,906.9,1901,908.7,1913.4,909.8C1919.7,910.1,1924.5,910,1927.7,910.2L1927.7,910.2C1924.5,910.1,1919.7,910.2,1913.4,910C1900.9,909.1,1882.3,907.5,1859.7,900.9C1832.95612,893.034194,1807.781895,880.582427,1785.3,864.1C1772.9,854.5,1760.3,843.5,1749.5,830.1C1738.7,816.7,1729.5,801.5,1723.3,784.4C1717.1,767.3,1714.3,748.6,1713.8,729.2C1713.3,709.8,1715.4,689.6,1717.6,668.8C1719.8,648,1722.3,626.5,1721.8,604.3C1721.3,582.1,1718,559.2,1708.2,537.3C1703.16344,525.978541,1696.380883,515.517882,1688.1,506.3C1679.048082,496.411846,1668.441771,488.068665,1656.7,481.6C1632.5,467.9,1602.9,460.3,1572.6,458.8C1542.3,457.3,1510.5,462,1483.5,475.6C1476.917634,478.950919,1470.657866,482.900933,1464.8,487.4C1459.134319,491.819999,1453.940115,496.813137,1449.3,502.3C1440.498285,513.046282,1433.813599,525.363749,1429.6,538.6C1421.1,564.6,1421.2,591.7,1424,617.9C1426.8,644.1,1432.2,669.7,1436.3,695.1C1440.4,720.5,1443.1,745.6,1441.1,770.3C1439.1,795,1432.5,819,1419.3,839.9C1406.1,860.8,1386.3,878,1364.3,890.8C1342.3,903.6,1318.7,912.9,1295.2,920.4C1271.7,927.9,1248.3,933.1,1225.8,938C1203.3,942.9,1181.8,947.5,1161.4,952.7C1142.154252,957.46994,1123.218788,963.414407,1104.7,970.5C1088.585547,976.679516,1073.112284,984.416147,1058.5,993.6C1031.8,1010.7,1014.5,1032.1,1010.9,1051.6C1010.3,1056.5,1012.1,1061.1,1014.7,1064.9C1017.263635,1068.499265,1020.446442,1071.614353,1024.1,1074.1C1030.249812,1078.248775,1037.040584,1081.356989,1044.2,1083.3C1048.739351,1084.630039,1053.392823,1085.533951,1058.1,1086Z"
                                      transform="translate(-1468.710022,-771.516449)" class="svg-element__textClr"
                                      stroke="none" stroke-width="1"/>
                            </g>
                            <path id="e1dZN5EXSYv9"
                                  d="M1099.3,1086.5C1099.3,1086.5,1099,1085.2,1098.6,1082.7C1098.2,1080.2,1098,1079.9,1097.8,1078C1097.6,1076.1,1097.6,1073.9,1097.4,1071.4C1097.2,1068.9,1097.7,1066.1,1097.8,1063C1098,1061.5,1098.3,1059.9,1098.6,1058.3C1098.867839,1056.538798,1099.268992,1054.80047,1099.8,1053.1C1102.201664,1044.689464,1106.246233,1036.838241,1111.7,1030C1119.05888,1021.026758,1127.842629,1013.324086,1137.7,1007.2C1149.988676,999.595055,1163.107374,993.421551,1176.8,988.8C1191.7,983.6,1208.5,979.8,1226.4,976.9C1244.3,974,1263.6,972,1283.7,969.9C1303.8,967.8,1324.8,965.5,1346.2,961C1367.6,956.5,1389.4,949.9,1409.1,939C1428.8,928.1,1445.5,912.1,1455.1,892.6C1464.7,873.1,1469.4,851.6,1472.3,829.5C1478.282158,783.144031,1481.155245,736.439672,1480.9,689.7Q1480.7,653.2,1477.9,615.7C1476.9,603.1,1475.7,590.6,1474.4,577.9C1473.1,565.2,1472.5,552.2,1475.1,539.3C1477.7,526.4,1484.4,513.7,1496.7,505.3C1509,496.9,1524.7,493.4,1539.9,493.6C1554.906013,493.887656,1569.726489,496.973842,1583.6,502.7C1596.504963,508.193265,1608.559846,515.500275,1619.4,524.4C1640.4,541.7,1655.1,563,1664.9,585C1674.7,607,1679.7,629.9,1681.8,652.3C1685.9,697,1680.8,739.5,1680.8,779.2C1680.7,799,1681.8,818.2,1685.7,836.3C1689.6,854.4,1696.3,871.3,1706.6,885.7C1716.9,900.1,1730.7,911.7,1745.3,920.7C1759.50475,929.216473,1774.67982,935.998253,1790.5,940.9C1798,943.2,1805.3,945.3,1812.5,946.8L1823.1,949.4C1826.5,950.5,1829.9,951.4,1833,952.6C1845.8,957.1,1856.8,962.2,1866.8,966.7C1876.8,971.2,1885.7,975,1893.7,977.8C1900.501012,980.287079,1907.489932,982.226588,1914.6,983.6C1918.98541,984.512475,1923.429808,985.113972,1927.9,985.4L1932.5,985.8L1927.9,985.6C1923.400781,985.453951,1918.920152,984.952388,1914.5,984.1C1907.32504,982.769573,1900.268893,980.86341,1893.4,978.4C1885.3,975.7,1876.3,971.8,1866.3,967.4C1856.3,963,1845.3,957.9,1832.6,953.6C1819.9,949.3,1805,947,1789.9,942C1774.8,937,1759.2,930.8,1744.4,921.8C1729.6,912.8,1715.5,901.2,1705,886.5C1694.5,871.8,1687.6,854.8,1683.6,836.6C1679.6,818.4,1678.5,799,1678.6,779.2C1678.5,739.4,1683.5,696.9,1679.3,652.4C1677.2,630.2,1672.2,607.6,1662.5,585.8C1652.8,564,1638.3,542.9,1617.6,526C1606.9089,517.278639,1595.06344,510.077138,1582.4,504.6C1568.863303,499.067593,1554.420839,496.084173,1539.8,495.8C1525.1,495.6,1509.8,498.9,1498.4,507C1487,515.1,1480.2,527.2,1477.8,539.6C1475.4,552,1475.9,565.1,1477,577.7C1478.1,590.3,1479.6,603,1480.5,615.5C1482.4,640.6,1483.4,665.4,1483.5,689.7C1483.726229,736.508489,1480.819735,783.279653,1474.8,829.7C1471.8,851.9,1467.4,873.8,1457.2,893.4C1447,913,1430.4,929.6,1410.3,940.5C1390.2,951.4,1368.2,958.1,1346.7,962.6C1325.2,967.1,1304,969.3,1283.9,971.4C1263.8,973.5,1244.6,975.4,1226.7,978.2C1208.8,981,1192.2,984.8,1177.4,989.9C1163.759566,994.444654,1150.676521,1000.516529,1138.4,1008C1128.616207,1014.023398,1119.898128,1021.626373,1112.6,1030.5C1107.093402,1037.206381,1103.010418,1044.964051,1100.6,1053.3C1100.02649,1054.961158,1099.591667,1056.666999,1099.3,1058.4L1098.4,1063.1C1098.3,1066.2,1097.9,1068.9,1097.9,1071.4C1097.9,1073.9,1098.1,1076.1,1098.2,1078C1098.3,1079.9,1098.7,1081.4,1098.8,1082.7C1098.9,1084,1099.3,1086.5,1099.3,1086.5Z"
                                  class="svg-element__textClr" stroke="none" stroke-width="1"/>
                            <path id="e1dZN5EXSYv10"
                                  d="M1609.2,710.4C1609.450274,710.947649,1609.651074,711.516581,1609.8,712.1C1610.1,713.3,1610.5,715.1,1611.1,717.3C1612.2,721.9,1614.1,728.6,1616,737.4C1621.625218,762.764484,1625.964093,788.397221,1629,814.2C1636.8,880.4,1639.2,975.9,1617.2,1086.7L1617,1087.5L1235.4,1087.5L1235.1,1086.8C1232.995623,1081.626103,1231.941827,1076.085179,1232,1070.5C1232.323373,1064.953567,1233.609211,1059.505676,1235.8,1054.4C1238.114678,1049.248284,1241.071461,1044.409912,1244.6,1040C1248.397403,1035.537139,1252.616996,1031.451502,1257.2,1027.8C1266.764556,1020.34934,1277.657756,1014.783966,1289.3,1011.4C1301.094401,1007.830277,1313.225045,1005.484572,1325.5,1004.4C1349.8,1001.9,1373.9,1002.8,1397.2,1002.2C1420.5,1001.6,1443.4,999.6,1463.9,992.6C1473.814859,989.305199,1483.184158,984.553145,1491.7,978.5C1499.473217,972.860082,1506.321765,966.045271,1512,958.3C1523.1,943.5,1529.5,927.1,1534,911.2C1538.5,895.3,1540.9,879.4,1543.3,864.3C1545.7,849.2,1547.4,834.6,1548.9,820.7C1551.7,792.8,1553,767.6,1553.4,745.5C1553.8,734.4,1553.1,724.1,1554.8,714.6C1556.5,705.1,1561.1,696.6,1568.9,692C1576.7,687.4,1585.6,685.7,1592.6,687.7C1598.073531,689.360321,1602.627424,693.191374,1605.2,698.3C1606.688002,701.108009,1607.797646,704.100683,1608.5,707.2C1608.825817,708.210253,1609.060094,709.247767,1609.2,710.3L1608.3,707.2C1607.364011,704.197662,1606.159129,701.285866,1604.7,698.5C1602.166822,693.561468,1597.722011,689.875528,1592.4,688.3C1585.7,686.4,1576.8,687.9,1569.5,692.6C1562.2,697.3,1557.5,705.5,1556,714.8C1554.5,724.1,1555.1,734.4,1554.9,745.5C1554.6,767.7,1553.4,792.9,1550.7,820.8C1549.3,834.7,1547.6,849.3,1545.3,864.5C1543,879.7,1540.5,895.5,1536.1,911.6C1531.7,927.7,1525.2,944.2,1514,959.3C1508.180634,967.235653,1501.163605,974.218945,1493.2,980C1484.505312,986.190899,1474.932473,991.044733,1464.8,994.4C1443.9,1001.6,1420.6,1003.7,1397.2,1004.3C1373.8,1004.9,1349.9,1004.1,1325.8,1006.5C1313.8,1007.8,1301.7,1009.8,1290.3,1013.4C1278.959563,1016.733214,1268.343369,1022.160022,1259,1029.4C1254.525697,1032.926061,1250.436345,1036.914855,1246.8,1041.3C1243.372292,1045.542596,1240.514684,1050.215626,1238.3,1055.2C1236.176652,1060.03767,1234.956554,1065.223085,1234.7,1070.5C1234.615056,1075.809066,1235.601373,1081.080763,1237.6,1086L1236.3,1085.3L1616,1085.3L1614.8,1086.1C1637,975.6,1635,880.3,1627.5,814.1C1623.8,781,1619,755,1615.3,737.3C1613.5,728.5,1611.7,721.7,1610.7,717.2C1610.2,714.9,1609.8,713.2,1609.6,712C1609.4,710.8,1609.2,710.4,1609.2,710.4Z"
                                  class="svg-element__textClr" stroke="none" stroke-width="1"/>
                            <g id="e1dZN5EXSYv11_tr" transform="translate(1761.130737,1028.238892) rotate(0)">
                                <g id="e1dZN5EXSYv11_ts" transform="scale(1,1)">
                                    <path id="e1dZN5EXSYv11"
                                          d="M1795.5,1025.5C1795.6,1025.5,1795.7,1026.1,1795.7,1027.2C1795.74838,1028.854251,1795.546089,1030.506296,1795.1,1032.1C1794.2,1036.2,1791,1042.1,1784.4,1047.5C1775.916677,1053.958461,1765.315725,1056.992403,1754.7,1056C1748.446973,1055.353546,1742.511427,1052.92379,1737.6,1049C1732.937966,1045.086778,1729.501095,1039.914114,1727.7,1034.1C1725.988187,1028.526356,1726.199502,1022.539092,1728.3,1017.1C1730.479972,1011.620609,1734.563154,1007.111356,1739.8,1004.4C1744.901923,1001.757115,1750.554419,1000.352556,1756.3,1000.3C1761.288073,1000.213422,1766.255825,1000.956895,1771,1002.5C1779.6,1005.4,1785,1010.1,1787.4,1013.8C1788,1014.7,1788.4,1015.6,1788.9,1016.4C1789.189228,1017.011316,1789.423486,1017.647157,1789.6,1018.3C1790,1019.4,1790.1,1020,1790,1020C1789.9,1020,1789.6,1019.5,1789.1,1018.5C1788.6,1017.5,1788.6,1017.3,1788.2,1016.6L1786.5,1014.3C1784,1010.8,1778.6,1006.5,1770.4,1004C1762.2,1001.5,1750.8,1000.9,1741.1,1006.1C1736.365321,1008.626808,1732.70626,1012.783216,1730.8,1017.8C1728.884637,1022.865259,1728.708735,1028.423772,1730.3,1033.6C1731.95933,1038.999953,1735.114477,1043.819353,1739.4,1047.5C1743.894955,1051.074205,1749.297016,1053.325064,1755,1054C1764.995924,1054.988795,1775.004426,1052.246251,1783.1,1046.3C1789.6,1041.4,1792.9,1035.8,1794.1,1031.9C1794.606255,1030.369317,1794.974392,1028.796366,1795.2,1027.2C1795.194184,1026.619671,1795.295899,1026.043285,1795.5,1025.5Z"
                                          transform="translate(-1761.130737,-1028.238892)" class="svg-element__textClr"
                                          stroke="none" stroke-width="1"/>
                                </g>
                            </g>
                            <path id="e1dZN5EXSYv12"
                                  d="M2,816.1L8.6,816.8C10.9,817,13.6,817.4,16.8,818C20,818.6,23.8,819.3,27.9,820.5C44.7,824.6,67.9,834.6,94,851.6C120.1,868.6,149.3,892.1,189.3,912.6C235.44769,936.664285,285.423222,952.533292,337,959.5C366.1,963.1,397.2,964.5,429.2,961C437.2,960.4,445.1,959,453.2,957.9L465.2,955.6C469.3,954.8,473.3,953.9,477.3,952.9C493.538538,949.090224,509.480155,944.110558,525,938C540.776384,931.921138,555.9994,924.493644,570.5,915.8C585.134204,907.309413,598.870952,897.358647,611.5,886.1C624.102885,874.990034,635.468811,862.551218,645.4,849C655.3,835.5,664.1,821.2,673.3,806.8C682.5,792.4,692,777.9,703.9,764.3C715.8,750.7,729.7,738.1,747.1,728.8C765.172728,719.188297,784.873501,713.016971,805.2,710.6C826.236373,708.133518,847.496478,708.267863,868.5,711C889.627885,713.748827,910.452062,718.469421,930.7,725.1C950.9,731.7,970.4,740.1,989.6,748.9C1028.1,766.6,1065.3,787.2,1106.1,803C1146.9,818.8,1190.9,828.6,1234.6,825.9C1245.38835,825.347767,1256.119195,823.97716,1266.7,821.8C1277.1,819.3,1287.4,816.5,1296.8,812.3C1306.2,808.1,1315.1,803.1,1323.3,797.5C1327,794.3,1331,791.5,1334.4,788.1C1337.838969,784.830994,1341.078154,781.358054,1344.1,777.7C1355.9,763.1,1363.2,746.4,1367.9,729.6C1372.396101,712.941247,1375.045379,695.838316,1375.8,678.6C1377.744255,645.302554,1375.932843,611.892061,1370.4,579C1359.6,514.6,1334.9,455.3,1302.3,404.3C1286.364405,379.345785,1268.332584,355.79402,1248.4,333.9C1229,312.4,1209.2,292.6,1191,273.1C1172.8,253.6,1156.2,234.7,1142.7,215.5C1129.2,196.3,1118.5,177.2,1111.5,158.4C1104.5,139.6,1101,121.5,1100.8,104.7C1100.698102,89.239855,1103.40888,73.890076,1108.8,59.4C1118.8,32.9,1135.1,15.3,1148,5.6L1152.5,2.1L1156.7,-0.6L1160.3,-3L1163.4,-4.7L1169.1,-7.7L1163.6,-4.5L1160.5,-2.7L1156.9,-0.4L1152.8,2.4L1148.3,5.9C1135.7,15.7,1119.6,33.3,1109.8,59.6C1104.534615,74.04878,1101.893112,89.322091,1102,104.7C1102.3,121.4,1105.8,139.5,1113,158.1C1120.2,176.7,1130.6,195.7,1144.2,214.8C1157.8,233.9,1174.3,252.8,1192.5,272.2C1210.7,291.6,1230.6,311.4,1250,332.8C1270.064327,354.790749,1288.229299,378.442011,1304.3,403.5C1337,454.6,1361.9,514.1,1372.8,578.7C1378.413468,611.717594,1380.258628,645.26594,1378.3,678.7C1377.4,695.8,1375.2,713.1,1370.5,730.1C1365.8,747.1,1358.3,764,1346.2,778.9C1343.199201,782.670169,1339.923595,786.213171,1336.4,789.5C1332.9,793,1328.8,795.9,1325,799.2C1316.7,804.9,1307.9,810.3,1298,814.2C1288.1,818.1,1277.9,821.4,1267.3,823.9C1256.7,826.4,1245.8,827.7,1234.7,828.1C1190.5,830.8,1145.6,821.3,1105,805C1064.4,788.7,1026.7,768.5,988.3,750.8C969.1,742,949.8,733.7,929.7,727.2C909.643377,720.617778,889.022858,715.897821,868.1,713.1C847.364341,710.368427,826.368923,710.234057,805.6,712.7C785.629008,715.109895,766.272738,721.177797,748.5,730.6C731.4,739.6,717.6,752.2,705.9,765.6C694.2,779,684.7,793.5,675.5,807.8C666.3,822.1,657.4,836.5,647.4,850C637.430797,863.702818,625.996493,876.277199,613.3,887.5C600.456942,898.773717,586.559664,908.786455,571.8,917.4C557.152708,926.107867,541.798519,933.567528,525.9,939.7C510.27808,945.811499,494.236661,950.791022,477.9,954.6C473.8,955.6,469.8,956.6,465.7,957.3L453.6,959.6C445.5,960.7,437.5,962.1,429.4,962.7C397.3,966.1,366,964.7,336.7,961C284.936298,953.922659,234.79281,937.918698,188.5,913.7C148.4,893,119.6,868.9,93.3,852.2C67,835.5,44.4,825.2,27.8,820.9C24.145214,819.877285,20.44034,819.042854,16.7,818.4C14.03008,817.773472,11.325323,817.305983,8.6,817Z"
                                  class="svg-element__textClr" stroke="none" stroke-width="1"/>
                            <path id="e1dZN5EXSYv13"
                                  d="M358.8,-7.7L332.5,-7.7L257.3,-7.5L-18.3,-7.3L-17.3,-8.1C-17.2,75.6,-17.1,175,-17,284L-17,283.6C-11,294.2,-1.5,303.3,9,311.4C20.006516,319.7119,31.915059,326.75639,44.5,332.4C57.609051,338.575922,71.506324,342.916717,85.8,345.3C100.3,347.6,116.2,347.3,129.1,340.6C142,333.9,152.9,324.9,161.5,314.2C170.1,303.5,177.2,291.9,184.8,280.3C192.4,268.7,200.3,257.2,211,247L215,243.2L219.5,239.8C222.543759,237.471062,225.752147,235.365557,229.1,233.5C232.3,231.4,236.1,230,239.7,228.4C243.433999,226.971884,247.239033,225.736917,251.1,224.7C269.6,219.9,289.1,220.6,307.5,223.4C325.9,226.2,343.7,231.2,360.9,236.7Q412.4,253.5,460.7,272.5Q509,291.5,554.2,312.2C569.3,319,584.2,325.6,599.8,330.6C615.4,335.6,631.4,339.2,647.6,339.7C663.8,340.2,679.9,337.8,694,331.9C700.83239,329.183298,707.155178,325.328764,712.7,320.5C715.6,318.3,717.7,315.6,720.2,313.1C722.7,310.6,722.2,310.4,723.2,309C724.249104,307.701664,725.154391,306.29344,725.9,304.8C729.4,299.2,731.3,293,733,286.9C734.304319,280.755849,734.874975,274.478632,734.7,268.2C734.419446,255.848721,732.017809,243.637581,727.6,232.1C723.4,220.5,717.3,209.7,710.7,199.5C704.1,189.3,696.5,179.6,688.7,170.5C680.817771,161.536383,672.437885,153.022952,663.6,145C654.7,137.2,645.8,129.7,636.5,122.9C618.664868,109.782036,599.917361,97.952058,580.4,87.5C561.6,77.5,543.3,68.8,526.4,60.5C492.4,44,462.6,30.6,437.8,20.5C413,10.4,393.1,3.4,379.6,-1.1L364.1,-6L358.8,-7.7C358.8,-7.7,366.2,-5.8,379.8,-1.5C393.4,2.8,413.3,9.7,438.2,19.7C463.1,29.7,493.1,43,527.1,59.5C544.1,67.7,562.4,76.3,581.3,86.3C600.915339,96.748202,619.762873,108.578037,637.7,121.7C647.1,128.5,656.1,136,665,143.9C673.911459,151.945048,682.39003,160.456999,690.4,169.4C698.491365,178.587792,705.910554,188.346366,712.6,198.6C719.2,208.9,725.5,219.8,729.7,231.5C734.183346,243.234764,736.651427,255.642788,737,268.2C737.145253,274.581938,736.541122,280.958876,735.2,287.2C733.6,293.5,731.6,299.8,728,305.7C727.196929,307.214061,726.259851,308.653145,725.2,310C724.2,311.4,723.2,312.9,722.1,314.2C721,315.5,717.4,319.6,714.4,321.8C708.711054,326.863427,702.17897,330.890982,695.1,333.7C680.6,339.8,664,342.2,647.5,341.7C631,341.2,614.5,337.7,598.9,332.6C583.3,327.5,568.1,320.8,553,314Q508,293.5,459.6,274.5C427.4,261.9,394.2,249.9,359.9,238.8C342.8,233.3,325.2,228.4,307,225.6C288.8,222.8,269.8,222.2,251.9,226.9C248.127751,227.823779,244.419861,228.992934,240.8,230.4C237.4,232,233.7,233.3,230.6,235.4C227.330909,237.163047,224.219452,239.203896,221.3,241.5L216.9,244.8L213,248.5C202.6,258.4,194.6,269.9,187.1,281.4C179.6,292.9,172.5,304.7,163.7,315.5C154.9,326.3,144.1,336.2,130.4,342.5C123.8,346,116,347.8,108.3,348.5C100.653972,349.072915,92.966982,348.737238,85.4,347.5C70.4,345.1,56.3,340.2,43.2,334.3C30.479371,328.555401,18.43842,321.411327,7.3,313C-3.4,304.8,-13,295.5,-19.4,284.7L-19.4,284.2C-19.3,175.2,-19.2,75.8,-19.2,-7.9L-19.2,-8.7L-18.2,-8.7L257.5,-8.2L332.7,-7.9L358.9,-7.9Z"
                                  class="svg-element__textClr" stroke="none" stroke-width="1"/>
                            <g id="e1dZN5EXSYv14_ts" transform="translate(634.769104,424.107838) scale(1,1)">
                                <path id="e1dZN5EXSYv14"
                                      d="M-2.5,469.4C-2.5,469.4,-1.6,471.2,-0.1,474.8L6.8,491C13.3,505,22.6,525.8,37.5,551.5C55.763548,583.157699,76.459159,613.348551,99.4,641.8C113,658.5,128.4,676.1,145.8,693.9C163.2,711.7,182.7,729.8,204.4,747.8C215.4,756.7,226.7,765.8,238.7,774.5C250.7,783.2,263.2,792.2,276.5,800.7C303,817.5,332.6,833.2,366.1,844C383.271508,849.546525,400.962492,853.332663,418.9,855.3C437.597967,857.280689,456.465988,857.012105,475.1,854.5C493.970979,852.084354,512.37455,846.859897,529.7,839C546.7,830.9,562,819.9,573.7,806.2C597.7,779.2,609.7,744.8,637.2,717.1C664.7,689.4,703.8,670.3,746.5,660.7C789.2,651.1,835.5,650.4,880.2,657.7C924.9,665,968.7,678.9,1010.6,696.3C1031.6,704.9,1051.8,714.7,1072.3,723.5C1092.8,732.3,1113.8,740,1135.8,744.3C1157.738355,748.799293,1180.361645,748.799293,1202.3,744.3C1223.6,739.6,1243.3,729,1254.8,713.5C1260.561343,706.156901,1264.686811,697.667302,1266.9,688.6C1269.109967,679.849668,1269.886709,670.798927,1269.2,661.8C1267.9,644,1262.2,626.6,1254.1,610.4C1237.2,578.1,1212.7,549.7,1186.7,524C1160.7,498.3,1132.3,475.2,1104.6,453.1C1076.9,431,1049.4,409.9,1024.3,388.3C999.2,366.7,976.3,344.7,956.6,322.1C936.9,299.5,921,276,909.2,252.3C897.4,228.6,890.5,204.6,888.6,181.6C886.995347,159.566512,891.31104,137.50469,901.1,117.7C910.2,98.8,922.9,82.9,936.1,69.4C948.695613,57.133369,962.311311,45.959799,976.8,36C983.4,31.5,990,27.5,996,23.7C1002,19.9,1008.2,16.7,1013.7,13.8L1029.3,5.9L1042.6,-0.2C1050.5,-3.9,1056.8,-6.1,1060.9,-7.9L1067.3,-10.3L1061.1,-7.7C1057,-5.9,1050.7,-3.6,1042.9,0.2L1029.7,6.3L1014.1,14.3C1008.6,17.3,1002.8,20.8,996.6,24.3C990.4,27.8,984.1,32.2,977.4,36.7C963.062505,46.694947,949.582559,57.866912,937.1,70.1C924,83.5,911.4,99.4,902.4,118.2C892.789221,137.841841,888.611302,159.698228,890.3,181.5C892.2,204.3,899.4,228.2,910.9,251.8C922.4,275.4,938.7,298.6,958.3,321.1C977.9,343.6,1000.7,365.6,1025.9,387C1051.1,408.4,1078.4,429.5,1106.2,451.7C1134,473.9,1162.3,496.9,1188.5,522.7C1214.7,548.5,1239.3,576.9,1256.5,609.6C1264.6,626,1270.4,643.5,1271.8,661.7C1272.478784,670.897454,1271.70258,680.144413,1269.5,689.1C1267.190519,698.42126,1262.930091,707.146617,1257,714.7C1245.1,730.6,1224.8,741.6,1203,746.4C1180.63569,750.982691,1157.577731,751.0167,1135.2,746.5C1112.8,742.1,1091.6,734.2,1071,725.4C1050.4,716.6,1030.4,706.9,1009.4,698.3C967.7,681,924.3,667,879.7,659.8C835.1,652.6,789.4,652.7,747.2,662.8C705,672.9,666.2,691.5,639.1,718.5C612,745.5,600,780,575.7,807.4C563.8,821.3,548.2,832.5,530.9,840.7C513.304842,848.646117,494.639656,853.969401,475.5,856.5C456.657406,858.928544,437.596721,859.163447,418.7,857.2C400.565746,855.128324,382.679488,851.276414,365.3,845.7C331.5,834.8,301.8,819,275.2,802C262,793.5,249.3,784.8,237.4,775.8C225.5,766.8,214.1,757.8,203.1,748.9C181.4,730.8,162,712.6,144.5,694.8C127,677,111.8,659.3,98.1,642.4C75.207154,613.930709,54.640864,583.666494,36.6,551.9C21.8,526.1,12.6,505.2,6.3,491.1L-0.3,474.9Z"
                                      transform="translate(-634.769104,-424.107838)" class="svg-element__textClr"
                                      stroke="none" stroke-width="1"/>
                            </g>
                            <path id="e1dZN5EXSYv15"
                                  d="M699.4,-10.3C699.4,-10.3,698.8,-9.1,697.3,-6.7C695.8,-4.3,693.5,-0.9,690.9,3.8C689.5,6.2,688.1,8.8,686.7,11.8C685.06171,14.98687,683.592995,18.258099,682.3,21.6C678.840728,29.743092,676.518933,38.323639,675.4,47.1C674.052773,57.991539,674.902858,69.042644,677.9,79.6C681,91.3,687.1,103.4,695.3,115.6C712,140,735.6,165.3,760.2,194C772.5,208.4,785,223.9,795.8,241C806.6,258.1,816.1,277,819.3,297.8C821.173152,308.291196,821.643938,318.984781,820.7,329.6C819.912653,340.703812,817.241174,351.592624,812.8,361.8C808.062323,372.847838,801.08155,382.791183,792.3,391C783,399.6,770.9,406,757.6,410.3C744.3,414.6,729.7,415.6,715.3,415C700.76836,414.248104,686.338873,412.138921,672.2,408.7C658,405.5,644,401.5,629.8,397.5L586.9,385.3C558,377.2,528.7,368.6,498.8,360.6C483.9,356.9,467.9,354.3,452.7,357.9C438.3309,361.21534,426.003016,370.388736,418.7,383.2C412.056536,394.903126,409.455693,408.469685,411.3,421.8C413.2,434.9,418.6,447.4,425.1,459.3C438.2,483,455.9,504.8,464.4,529.6C468.7,541.9,470.7,554.9,468.4,567.4C465.805811,580.304913,459.313505,592.102758,449.8,601.2C440,610.6,427.7,617.8,414.6,622.9C401.381021,627.968299,387.509137,631.133244,373.4,632.3C359.498143,633.483168,345.499519,632.742857,331.8,630.1C318.773079,627.437662,306.04362,623.48483,293.8,618.3C269.9,608.2,249.4,594.6,231.2,580.5C213,566.4,196.6,551.5,181,537.2C165.4,522.9,151.1,508.7,137.5,495.1C95.497506,452.551071,56.692133,406.960607,21.4,358.7C-3.2,324.9,-15.1,305.3,-15.1,305.3L-12.6,308.8L-5.6,319.1C0.6,328.1,9.8,341.4,22.2,358.2C57.840839,406.228862,96.873916,451.644917,139,494.1C152.5,507.7,166.9,521.8,182.5,536C198.1,550.2,214.4,565.1,232.6,579.1C250.8,593.1,271.2,606.6,294.8,616.5C318.4,626.4,345.4,632.9,373.1,630.3C400.8,627.7,428.7,618.1,447.8,599.8C457.079545,591.041637,463.405067,579.613759,465.9,567.1C468.1,554.9,466.1,542.3,461.9,530.2C453.5,505.8,436,484.1,422.7,460.2C416.1,448.2,410.7,435.5,408.7,422.1C406.766305,408.358021,409.438806,394.362553,416.3,382.3C420.000319,375.901019,424.887726,370.266924,430.7,365.7C437.031749,360.929032,444.284656,357.523911,452,355.7C468,352,484.5,354.8,499.6,358.5C529.6,366.6,558.8,375.2,587.7,383.3L630.6,395.4C644.8,399.5,658.8,403.5,672.9,406.7C687,409.9,701.2,412.3,715.4,412.9C729.6,413.5,743.8,412.3,756.8,408.4C769.8,404.5,781.4,398,790.6,389.7C799.153428,381.635626,805.96056,371.901428,810.6,361.1C814.96129,351.081183,817.598407,340.397476,818.4,329.5C819.377085,319.022404,818.939828,308.460972,817.1,298.1C814,277.5,804.7,258.8,794,241.8C783.3,224.8,770.9,209.3,758.7,194.9C734.2,166.1,710.6,140.8,694,116.2C685.8,103.9,679.7,91.7,676.6,79.9C673.64103,69.196362,672.892491,58.002308,674.4,47C675.615248,38.188391,678.003065,29.578797,681.5,21.4C682.856326,18.053138,684.391882,14.781736,686.1,11.6C687.6,8.6,689,6,690.5,3.6C693.1,-1.1,695.5,-4.5,697,-6.8Z"
                                  class="svg-element__textClr" stroke="none" stroke-width="1"/>
                            <g id="e1dZN5EXSYv16_ts" transform="translate(561.102514,368.520537) scale(1,1)">
                                <path id="e1dZN5EXSYv16"
                                      d="M-13.1,341.5L-10.6,346.1C-8.9,349.1,-6.5,353.6,-3.3,359.5C3.1,371.3,12.8,388.6,26,410.6C52.4,454.5,93.6,517.1,154.7,588.8C170.1,606.7,186.6,625.2,204.5,643.9C222.4,662.6,241,682.3,263.2,700.3C274.601869,709.610533,286.817706,717.877141,299.7,725C313.529495,732.539157,328.336977,738.125616,343.7,741.6C359.913747,745.132765,376.56598,746.211452,393.1,744.8C409.999066,743.409958,426.678382,740.053958,442.8,734.8C475.2,724.4,505.4,707.9,533.5,688.7C561.6,669.5,588.2,647.5,617.4,627.2C646.6,606.9,678.8,588,716.3,577.4C753.8,566.8,794.8,565.3,834.7,570.6C874.6,575.9,912.8,586.3,949,599C967.1,605.3,984.7,612.3,1002.1,619.2C1019.5,626.1,1037.1,632.5,1055.8,634.8C1074.5,637.1,1093.8,634.8,1109.1,626.4C1116.7,622.2,1123,616.5,1126.9,609.7C1130.739038,603.11066,1132.774019,595.62607,1132.8,588C1132.941326,580.464347,1131.546305,572.978867,1128.7,566C1125.770444,558.852904,1121.903195,552.127253,1117.2,546C1107.8,533.5,1095.9,522.6,1084.3,511.8C1037.6,468.5,993.3,427.2,956.8,385.3C920.3,343.4,891.6,301,873.9,259.4C865.580644,239.825902,859.281321,219.453622,855.1,198.6C851.674666,180.167347,850.033747,161.447479,850.2,142.7C851.2,107.7,859.1,77.8,869.5,54.8C879.9,31.8,892.7,15.6,901.5,5C910.3,-5.6,916.5,-10.3,916.5,-10.3L912.8,-6.4C910.4,-3.7,906.6,0,902,5.2C893.3,15.9,880.7,32.1,870.5,55.1C860.3,78.1,852.5,107.9,851.7,142.8C851.659748,161.451942,853.36721,180.066629,856.8,198.4C860.973981,219.170319,867.308425,239.447243,875.7,258.9C893.4,300.2,922,342.6,958.6,384.2C995.2,425.8,1039.4,467.2,1086.1,510.4C1097.7,521.2,1109.7,532.2,1119.3,544.9C1124.101895,551.159148,1128.068557,558.016767,1131.1,565.3C1133.973541,572.518466,1135.400578,580.231257,1135.3,588C1135.28997,595.970338,1133.186444,603.798214,1129.2,610.7C1125.1,617.8,1118.4,623.8,1110.5,628.2C1094.5,637,1074.3,639.3,1055.4,636.9C1036.5,634.5,1018.4,628.1,1001,621.2C983.6,614.3,966,607.3,947.9,601.1C911.9,588.4,874,577.9,834.3,572.8C794.6,567.7,754.2,569.3,717.1,579.5C680,589.7,648,608.7,619,628.9C590,649.1,563.4,670.9,535.1,690.3C506.8,709.7,476.4,726.2,443.7,736.7C427.345245,741.997239,410.433023,745.386394,393.3,746.8C376.495074,748.124916,359.586868,747.013421,343.1,743.5C327.52214,739.960242,312.511868,734.272493,298.5,726.6C285.485451,719.424517,273.165824,711.055206,261.7,701.6C239.4,683.5,220.9,663.7,202.9,645C184.9,626.3,168.6,607.6,153.2,589.7C92.2,517.8,51.2,455.1,25.1,411C12,388.9,2.5,371.5,-3.8,359.7L-10.8,346.2C-12.4,343.1,-13.1,341.5,-13.1,341.5Z"
                                      transform="translate(-561.102514,-368.520537)" class="svg-element__textClr"
                                      stroke="none" stroke-width="1"/>
                            </g>
                            <path id="e1dZN5EXSYv17"
                                  d="M548.4,-7.7C548.4,-7.7,549.2,-6.9,550.6,-5.2L556.7,2.2C562.1,8.7,570.3,18.2,581.2,30.2C592.1,42.2,606.1,56.4,622.7,72.7C639.3,89,658.4,107.3,678.3,128.6C699.766965,151.506383,719.836545,175.683382,738.4,201C748.3,214.5,757.7,229,764.6,245C771.5,261,775.5,278.5,773.9,296.4C773.197609,305.593921,771.002191,314.612023,767.4,323.1C763.413937,332.116346,757.707378,340.268574,750.6,347.1C735.8,361.6,713.9,370.6,690.9,373.9C667.9,377.2,643.6,376.1,620.1,371.6C596.6,367.1,573.7,359.7,551.4,351C506.7,333.6,465.8,312.1,423.1,297C401.8,289.5,380.2,283.3,358.4,279.8C347.571888,278.095319,336.653162,277.026819,325.7,276.6C315.007688,276.274545,304.30652,276.809603,293.7,278.2C283.401038,279.401438,273.228227,281.50962,263.3,284.5C253.81472,287.271422,244.60827,290.920524,235.8,295.4C218.7,304.1,204.6,316,195.5,329.7C186.4,343.4,181.8,358.4,172.9,371.3C168.493647,377.957697,162.735543,383.613586,156,387.9C149.078047,392.210411,141.414161,395.194579,133.4,396.7C117.4,399.9,101.4,398.1,87.5,394.2C74.723636,390.816103,62.844682,384.671816,52.7,376.2C44.293382,369.288252,36.374514,361.803752,29,353.8C22.3,346.6,16.4,339.8,11.3,333.6C-9,308.7,-18.3,293.9,-18.3,293.9C-18.3,293.9,-17.6,294.7,-16.3,296.5L-10.6,304.2C-5.6,310.9,1.9,320.7,12.2,333.1C17.4,339.2,23.2,346,30,353.2C37.381396,361.1039,45.300267,368.488163,53.7,375.3C63.760669,383.582735,75.496593,389.587161,88.1,392.9C101.7,396.6,117.4,398.3,132.9,395.2C140.670027,393.715804,148.09628,390.799559,154.8,386.6C161.270509,382.396206,166.816647,376.918119,171.1,370.5C179.8,357.9,184.1,342.7,193.5,328.8C202.9,314.9,217.2,302.6,234.6,293.8C243.510575,289.161557,252.855502,285.410189,262.5,282.6C272.570444,279.590008,282.872051,277.415967,293.3,276.1C304.078508,274.759628,314.941957,274.224812,325.8,274.5C336.885878,274.926471,347.937733,275.994929,358.9,277.7C381,281.2,402.7,287.4,424.1,295C467.1,310.2,508,331.6,552.5,349C574.8,357.6,597.5,364.9,620.7,369.5C643.9,374.1,667.8,375.2,690.4,371.8C713,368.4,734.3,359.8,748.7,345.8C755.613011,339.082272,761.179398,331.106048,765.1,322.3C768.621404,314.03515,770.782652,305.255079,771.5,296.3C773.1,278.6,769.2,261.4,762.4,245.6C755.6,229.8,746.3,215.4,736.6,201.9C718.084566,176.629738,698.11764,152.455733,676.8,129.5C657.1,108.3,638,89.9,621.5,73.5C605,57.1,591.3,42.7,580.4,30.7C558.8,6.5,548.4,-7.7,548.4,-7.7Z"
                                  class="svg-element__textClr" stroke="none" stroke-width="1"/>
                            <path id="e1dZN5EXSYv18"
                                  d="M835.5,462.4C836.646787,460.506878,838.099869,458.817247,839.8,457.4C843.1,454.5,849.1,450.6,858.4,449C863.524698,448.217397,868.751726,448.421048,873.8,449.6C879.508792,451.110175,884.761467,453.993997,889.1,458C893.82001,462.121368,896.906624,467.7979,897.8,474C898.5,480.3,896.5,487.1,892.2,493.1C887.339525,499.561101,881.039382,504.799807,873.8,508.4C866,512.4,856.9,515,847.5,516.8C838.1,518.6,828.1,519.8,817.9,521.2L786.5,525.2L719.2,533.9L683.5,538.4C671.4,539.9,659.3,541.9,646.6,542.4C633.9,542.9,620.8,541.6,610,536.1C604.731542,533.670577,600.056257,530.121456,596.3,525.7C592.799209,521.620601,590.789242,516.472264,590.6,511.1C590.4,500.7,597.2,491.3,606.1,485.1C615,478.9,626.4,475.8,637.1,474.3C658.9,471.4,679.8,473.2,698.9,475.2C718,477.2,735.9,479.6,752.2,480.4C785,482.2,811.6,476.2,827.1,468.2C842.6,460.2,848.2,452.5,848.6,452.9C848.281878,453.372181,847.913013,453.808112,847.5,454.2C846.7,455,845.7,456.3,844,457.8C839.038331,462.223839,833.526065,465.988313,827.6,469C812.1,477.3,785.2,483.6,752.1,482C735.7,481.3,717.8,479,698.7,477C679.6,475,658.8,473.5,637.6,476.3C627,477.8,616.3,480.9,607.7,486.8C599.1,492.7,593,501.5,593.2,511.1C593.4,520.7,601.1,529.3,611.3,534.2C621.5,539.1,634.1,540.7,646.5,540.2C658.9,539.7,671,537.7,683.1,536.2L718.8,531.7L786.2,523.2L817.5,519.2C827.7,517.9,837.6,516.8,847,515C856.4,513.2,865.1,510.7,872.7,506.9C879.712545,503.478549,885.838827,498.481694,890.6,492.3C894.612903,487.118085,896.57145,480.637076,896.1,474.1C895.266761,468.211488,892.401543,462.79941,888,458.8C883.877262,454.93527,878.861119,452.152341,873.4,450.7C868.53421,449.45647,863.470966,449.184618,858.5,449.9C851.800971,450.7757,845.470927,453.473752,840.2,457.7C838.473944,459.098729,836.898729,460.673944,835.5,462.4Z"
                                  class="svg-element__textClr" stroke="none" stroke-width="1"/>
                            <g id="e1dZN5EXSYv19_to"
                               style="offset-path:path('M815.514191,934.879456C822.842084,940.515055,861.783685,927.313796,831.772754,921.384616L815.514191,934.879456');offset-rotate:0deg">
                                <g id="e1dZN5EXSYv19_ts" transform="scale(1,1)">
                                    <path id="e1dZN5EXSYv19"
                                          d="M993.4,940.4L991.7,942.3L986.6,947.8C984.3,950.2,981.5,953.2,977.9,956.5C974.3,959.8,970.4,963.8,965.4,967.9C953.579687,978.257191,941.158066,987.907321,928.2,996.8C910.45381,1008.634944,891.909464,1019.22694,872.7,1028.5C848.762176,1039.98088,823.867646,1049.349789,798.3,1056.5C791.4,1058.4,784.2,1060.2,776.9,1062C769.6,1063.8,762.1,1065.4,754.4,1066.6C739.2,1069.3,723.2,1071.6,706.6,1072.1C690,1072.6,672.6,1070.7,656.7,1064.6C640.8,1058.5,626.3,1048.1,619.5,1033.7C612.7,1019.3,614.2,1003,620,988.3C625.8,973.6,635.3,959.6,645.6,946.3C666.275296,919.884305,689.707693,895.747931,715.5,874.3C741.1,853.3,767.9,834.5,796.5,820.6C825.1,806.7,855.8,798,885.5,797.6C915.2,797.2,942.7,803.7,963.2,815.9C972.807588,821.350583,981.373337,828.460493,988.5,836.9C994.520967,844.012517,999.751637,851.757932,1004.1,860C1012.2,875.2,1015.6,889.4,1016,901.1C1016.4,912.8,1013.1,921.8,1009.5,927.1C1008,930,1005.9,931.6,1004.9,932.9L1003.1,934.8L1004.6,932.8C1005.6,931.5,1007.6,929.8,1009,926.9C1012.4,921.6,1015.3,912.5,1014.7,900.9C1014.1,889.3,1010.9,875.5,1002.7,860.5C994.5,845.5,982.7,828.9,962.2,817.1C941.7,805.3,914.6,798.7,885.5,799.4C856.4,800.1,826,808.5,797.7,822.4C769.4,836.3,742.8,854.9,717.4,875.9C691.709333,897.212343,668.376158,921.216011,647.8,947.5C637.5,960.8,628.2,974.4,622.5,989C616.8,1003.6,615.3,1019.2,621.9,1032.9C628.5,1046.6,642.4,1056.7,657.7,1062.6C673,1068.5,690.2,1070.4,706.5,1070C722.417861,1069.45523,738.267497,1067.649575,753.9,1064.6C761.6,1063.5,769,1061.6,776.3,1060.2C783.6,1058.8,790.7,1056.7,797.6,1054.8C823.023013,1047.671938,847.808583,1038.440065,871.7,1027.2C890.941878,1018.040758,909.520431,1007.548554,927.3,995.8C940.283887,986.998619,952.769722,977.484012,964.7,967.3C969.7,963.3,973.6,959.3,977.3,956C981,952.7,983.8,949.8,986.2,947.5L991.5,942.1Z"
                                          transform="translate(-815.514191,-934.879456)" class="svg-element__textClr"
                                          stroke="none" stroke-width="1"/>
                                </g>
                            </g>
                            <path id="e1dZN5EXSYv20"
                                  d="M-16.6,857.5L-14.9,857.5L-9.9,858.2C-3.734032,859.328787,2.252676,861.279512,7.9,864C22.6,870.9,39.7,886.8,50.5,910.2C55.9,921.8,60.1,935,65.1,949C70.1,963,76.2,977.8,87.4,991.2C98.6,1004.6,114.4,1016,132.9,1024.6C151.4,1033.2,172.8,1039,195,1042.2C217.2,1045.4,239.6,1045.7,260.9,1045C282.2,1044.3,302.9,1042.6,322.5,1041C342.1,1039.4,360.8,1038.1,378.3,1037.6C394.57622,1037.064056,410.869794,1037.464717,427.1,1038.8C456.9,1041.3,480.3,1047.6,495.3,1053.7C510.3,1059.8,517.6,1064.7,517.6,1064.7L516.1,1064L511.8,1061.9C510,1060.9,507.6,1059.8,504.8,1058.6C501.575881,1057.056857,498.27111,1055.688214,494.9,1054.5C479.8,1048.7,456.6,1042.7,427,1040.4C410.830007,1039.187962,394.606163,1038.854138,378.4,1039.4C360.9,1040,342.3,1041.5,322.7,1043.1C303.1,1044.7,282.5,1046.4,261,1047.2C239.5,1048,217.2,1047.6,194.6,1044.4C172,1041.2,150.6,1035.3,131.7,1026.5C112.8,1017.7,96.6,1006.1,85.4,992.3C74.2,978.5,68,963.6,63,949.6C58,935.6,54,922.4,48.7,910.8C38.3,887.6,21.7,871.9,7.4,864.9C-6.9,857.9,-16.8,858,-16.6,857.5Z"
                                  class="svg-element__textClr" stroke="none" stroke-width="1"/>
                            <g id="e1dZN5EXSYv21_ts" transform="translate(1382.697144,144.389613) scale(1,1)">
                                <path id="e1dZN5EXSYv21"
                                      d="M1329.2,-6.3C1328.463883,-5.927129,1327.693687,-5.625748,1326.9,-5.4L1320,-2.9C1311.365542,0.436876,1302.919648,4.242536,1294.7,8.5C1282.128614,15.156883,1270.238648,23.027705,1259.2,32C1245.26131,43.487373,1232.978284,56.847267,1222.7,71.7C1217.4,79.9,1212.2,88.6,1208.3,98.2C1206,102.9,1204.5,107.9,1202.7,113C1202,115.5,1201.4,118.2,1200.7,120.8C1199.922559,123.417487,1199.354107,126.092554,1199,128.8C1196.91424,139.903969,1196.242234,151.227276,1197,162.5C1197.697857,174.506838,1199.949974,186.372468,1203.7,197.8C1211.895779,223.476514,1226.206048,246.777887,1245.4,265.7C1247.9,268.4,1250.7,270.8,1253.4,273.2C1256.128727,275.760109,1258.999973,278.163943,1262,280.4C1267.8,285.1,1274.1,289.7,1281.6,292C1285.298819,293.260801,1289.262237,293.536517,1293.1,292.8C1296.718897,291.963124,1299.997453,290.04482,1302.5,287.3C1307.044195,281.936692,1308.619007,274.662558,1306.7,267.9C1305.1,261.1,1301.3,254.7,1298,248.2C1294.7,241.7,1291.8,235,1290.2,228.2C1286.260323,214.913857,1285.002589,200.976807,1286.5,187.2C1287.951146,173.797476,1291.494147,160.705245,1297,148.4C1302.616801,136.311368,1309.849583,125.041685,1318.5,114.9C1335.986562,94.847184,1358.436521,79.742603,1383.6,71.1C1408.1,62.7,1432.5,59.1,1454.3,55.1C1476.1,51.1,1495.8,46.9,1511.9,40.7C1528,34.5,1540.7,27.3,1549.6,20C1556.397575,14.718278,1562.218666,8.288003,1566.8,1C1569.8,-3.8,1570.8,-6.6,1571,-6.6C1570.772703,-5.885629,1570.505619,-5.184534,1570.2,-4.5C1569.373521,-2.531872,1568.404272,-0.626795,1567.3,1.2C1564.5,6.2,1559.3,13.3,1550.3,20.7C1541.3,28.1,1528.7,35.5,1512.5,41.8C1496.3,48.1,1476.5,52.6,1454.7,56.6C1432.9,60.6,1408.6,64.4,1384.4,72.8C1359.704214,81.445272,1337.682807,96.367446,1320.5,116.1C1311.958816,126.096346,1304.856776,137.237461,1299.4,149.2C1293.973913,161.275565,1290.497394,174.135313,1289.1,187.3C1287.5,200.6,1289,214.3,1292.7,227.7C1294.3,234.4,1297.5,240.8,1300.4,247.4C1303.3,254,1307.6,260.2,1309.3,267.4C1311.396368,274.807449,1309.630517,282.772568,1304.6,288.6C1301.784314,291.822731,1297.991238,294.035358,1293.8,294.9C1289.435893,295.744667,1284.928895,295.469431,1280.7,294.1C1272.5,291.5,1266.1,286.7,1260.2,282C1257.2,279.6,1254.2,277.3,1251.5,274.7C1248.8,272.1,1245.9,269.8,1243.4,267.1C1223.994248,247.920689,1209.545497,224.308479,1201.3,198.3C1197.58797,186.729799,1195.369999,174.732593,1194.7,162.6C1193.924376,151.190341,1194.630251,139.728272,1196.8,128.5C1197.202405,125.768117,1197.770113,123.063152,1198.5,120.4C1199.3,117.8,1199.9,115.1,1200.7,112.5C1202.5,107.4,1204.1,102.4,1206.3,97.6C1210.40732,88.266565,1215.361371,79.329189,1221.1,70.9C1231.526234,55.948809,1244.016866,42.549156,1258.2,31.1C1269.420499,22.161734,1281.476215,14.325518,1294.2,7.7C1302.49832,3.508905,1311.047984,-0.164779,1319.8,-3.3L1326.8,-5.6Z"
                                      transform="translate(-1382.697144,-144.389613)" class="svg-element__textClr"
                                      stroke="none" stroke-width="1"/>
                            </g>
                            <g id="e1dZN5EXSYv22_to"
                               style="offset-path:path('M1678.245906,407.847096C1689.663901,408.301314,1689.778589,404.902269,1697.064425,397.982995L1678.245906,407.847096');offset-rotate:0deg">
                                <g id="e1dZN5EXSYv22_ts" transform="scale(1,1)">
                                    <path id="e1dZN5EXSYv22"
                                          d="M1932.5,28.9L1928.7,27.7L1917.4,23.9C1907.4,21.1,1892.3,17,1872.1,16.2C1867,15.8,1861.7,16.3,1856.1,16.4C1850.5,16.5,1844.7,17.3,1838.8,18.6C1825.927699,20.997663,1813.353945,24.786554,1801.3,29.9C1787.818215,35.612694,1774.752938,42.262285,1762.2,49.8C1749,57.8,1735.2,66.4,1722.1,76.8C1709,87.2,1696,98.7,1682,110.3C1668,121.9,1652.8,133.8,1634.4,143C1624.948325,147.828493,1614.986453,151.585158,1604.7,154.2C1593.841017,156.903166,1582.764763,158.643243,1571.6,159.4C1548.9,161.2,1525.4,160.4,1501.8,162.9C1490.1,164.2,1478.2,166.3,1467.1,170.3C1456.072643,174.080547,1445.810876,179.804106,1436.8,187.2C1432.2,190.7,1428.5,194.9,1424.5,198.9C1420.5,202.9,1417.5,207.6,1414.8,212.4C1409.2,221.8,1404.8,232,1403,242.6C1400.949407,253.279339,1401.0514,264.260592,1403.3,274.9C1405.7,285.7,1411,295.9,1418.2,305.2C1426.053617,314.683965,1435.370849,322.853421,1445.8,329.4C1456.917933,336.288297,1468.712967,342.018271,1481,346.5C1506.1,355.8,1532.8,361.1,1559.2,365.1C1585.6,369.1,1611.9,372.5,1637.1,378.2C1649.55666,380.950503,1661.816958,384.525031,1673.8,388.9C1685.304736,393.191988,1696.413448,398.478664,1707,404.7C1717.016919,410.635276,1726.546854,417.356389,1735.5,424.8C1743.954174,431.910173,1751.875426,439.630887,1759.2,447.9C1772.835308,463.301919,1784.461466,480.371538,1793.8,498.7C1802.500594,515.389407,1809.502422,532.910726,1814.7,551C1824.9,585.5,1829.4,618.5,1833.3,648.5C1837.2,678.5,1840,705.8,1844.2,729.4C1846.4,741.3,1849.5,752.1,1854.1,761.6C1858.7,771.1,1864.6,779.2,1871.6,785.2C1885.5,797.5,1901.3,802.1,1911.7,802.9C1922.1,803.7,1927.8,801.8,1927.8,802.2L1923.8,802.9C1919.794487,803.487316,1915.735556,803.621496,1911.7,803.3C1901.1,802.6,1885.1,798.2,1870.8,785.8C1863.286271,779.157844,1857.196984,771.061473,1852.9,762C1848.2,752.5,1845,741.5,1842.7,729.6C1838.4,705.9,1835.3,678.7,1831.4,648.7C1827.5,618.7,1822.8,585.8,1812.5,551.4C1807.308093,533.451949,1800.340324,516.066027,1791.7,499.5C1782.342788,481.329398,1770.75312,464.398403,1757.2,449.1C1749.951701,440.922578,1742.132048,433.270011,1733.8,426.2C1724.885307,418.888087,1715.424377,412.268779,1705.5,406.4C1695.078715,400.278569,1684.136008,395.091659,1672.8,390.9C1660.935867,386.604012,1648.811609,383.063595,1636.5,380.3C1611.4,374.7,1585.2,371.3,1558.7,367.2C1532.2,363.1,1505.3,358,1479.9,348.5C1467.408907,344.000676,1455.439658,338.166924,1444.2,331.1C1433.547959,324.416463,1424.028668,316.078644,1416,306.4C1408.6,296.9,1403.2,286.3,1400.7,275.3C1398.402924,264.42979,1398.300927,253.210175,1400.4,242.3C1402.2,231.4,1406.7,221,1412.5,211.4C1415.2,206.5,1418.9,202.1,1422.4,197.7C1425.9,193.3,1430.3,189.3,1435,185.7C1444.244007,178.113029,1454.778806,172.252836,1466.1,168.4C1477.5,164.3,1489.6,162.2,1501.5,160.9C1525.4,158.3,1548.9,159.2,1571.3,157.4C1582.329534,156.732747,1593.275033,155.059123,1604,152.4C1614.133286,149.840725,1623.957833,146.18586,1633.3,141.5C1651.4,132.4,1666.6,120.7,1680.6,109.1C1694.6,97.5,1707.6,86,1720.8,75.7C1734,65.4,1747.9,56.6,1761.2,48.7C1773.856256,41.098658,1787.059181,34.447057,1800.7,28.8C1812.84305,23.669121,1825.521856,19.912438,1838.5,17.6C1844.5,16.3,1850.4,16,1856,15.4C1861.6,14.8,1867,14.9,1872.1,15.3C1887.558268,16.047066,1902.853486,18.803567,1917.6,23.5C1927.5,26.9,1932.5,28.9,1932.5,28.9Z"
                                          transform="translate(-1665.698792,-409.222649)" class="svg-element__textClr"
                                          stroke="none" stroke-width="1"/>
                                </g>
                            </g>
                            <path id="e1dZN5EXSYv23"
                                  d="M-18.3,161C-18.3,161,-18.3,161.9,-18.4,163.7C-18.5,165.5,-18.5,165.6,-18.6,166.9C-18.7,168.2,-18.4,169.7,-18.3,171.4C-17.6,178.1,-15.1,188,-8.3,199.5C0.614091,213.855352,12.147776,226.406715,25.7,236.5C34.446392,243.263439,44.066809,248.813679,54.3,253C66.385171,257.633373,79.163173,260.202495,92.1,260.6C106.35772,261.156279,120.603507,259.227515,134.2,254.9C148.3,250.5,161.1,242.7,172.3,233C183.5,223.3,194.3,212.3,208.9,203.9C223.5,195.5,241.5,191.3,259.9,191C278.688878,190.826976,297.386778,193.628286,315.3,199.3C333.5,204.8,350.9,212.4,368.5,220.2C386.1,228,404,235.7,422.9,242.3C442.19925,249.038534,461.863944,254.680866,481.8,259.2C501.922342,263.855326,522.28678,267.394065,542.8,269.8C552.805208,271.161578,562.911735,271.630093,573,271.2C582.9,270.5,592.8,268.5,600.7,263.9C608.6,259.3,613.8,252,615.1,244.2C616.4,236.4,614.7,228.3,611.8,220.9C608.9,213.5,604.3,206.5,599.5,199.8C594.635203,193.198716,589.428074,186.856699,583.9,180.8C561.7,156.7,534.8,137.9,508.7,122C482.6,106.1,456.4,93.1,432.8,81.1C409.2,69.1,387.8,58.2,369.6,47.9C354.123165,39.210847,339.103337,29.731667,324.6,19.5C312.8,11.1,304.4,3.9,298.7,-1L292.5,-6.7L290.5,-8.7L292.7,-6.9L299.1,-1.3C304.9,3.5,313.4,10.6,325.3,18.8C339.831942,28.917721,354.886077,38.263969,370.4,46.8C388.7,57,410,67.9,433.7,79.7C457.4,91.5,483.5,104.6,510,120.5C536.5,136.4,563.4,155.3,585.8,179.6C591.471406,185.655912,596.748887,192.069055,601.6,198.8C606.5,205.4,611.1,212.5,614.2,220.2C617.3,227.9,619.2,236.1,617.7,244.5C616.2,252.9,610.7,260.8,602.2,265.7C593.7,270.6,583.3,272.7,573.2,273.3C562.915213,273.817782,552.604576,273.382593,542.4,272C521.78883,269.585967,501.324984,266.047357,481.1,261.4C461.073803,256.767637,441.311811,251.05936,421.9,244.3C402.8,237.7,384.7,230,367.2,222.1C349.7,214.2,332.4,206.7,314.5,201.3C296.875924,195.724832,278.484326,192.957656,260,193.1C241.9,193.3,224.3,197.5,210.2,205.5C196.1,213.5,185.3,224.7,173.8,234.3C162.3,243.9,149.3,252.1,135,256.5C121.108209,260.883983,106.551257,262.779772,92,262.1C78.8503,261.696339,65.86508,259.058716,53.6,254.3C43.240896,250.011267,33.517369,244.325191,24.7,237.4C11.114879,227.173047,-0.391367,214.444898,-9.2,199.9C-15.9,188.2,-18.4,178.2,-18.8,171.4C-18.9,169.7,-19,168.2,-19,166.9C-19,165.6,-18.7,164.6,-18.6,163.7Z"
                                  class="svg-element__textClr" stroke="none" stroke-width="1"/>
                            <path id="e1dZN5EXSYv24"
                                  d="M167.9,-8.9L169.7,-8.2L175,-6C179.6,-4,186.4,-0.9,195,3.2C219.070149,14.671658,242.473996,27.492025,265.1,41.6C272.2,46.1,279.6,50.8,287.1,55.9C294.6,61,302.5,66.2,309.6,72.7C316.7,79.2,323.4,86.6,327.1,95.6C328.978677,100.118475,329.533595,105.078054,328.7,109.9C327.560153,115.070446,324.83306,119.755454,320.9,123.3C316.522118,127.22076,311.225027,129.972495,305.5,131.3C299.523634,132.836737,293.370305,133.576481,287.2,133.5C274.8,133.6,262.2,131.1,250.1,127.7C238,124.3,225.6,121.3,212.7,120.8C206.255395,120.46938,199.800674,121.212856,193.6,123C187.714859,124.771151,182.356887,127.965327,178,132.3C161.1,149.5,162.7,175,143.2,190.8C138.222626,194.719131,132.3444,197.331676,126.1,198.4C119.800807,199.452083,113.362837,199.350431,107.1,198.1C95.524083,195.889604,84.810765,190.446268,76.2,182.4C68.2,175.2,62.1,166.9,56.7,158.8C51.3,150.7,46.3,142.7,41.8,134.9C33.431008,120.487896,25.918003,105.59545,19.3,90.3C9.956447,68.505589,2.593411,45.914457,-2.7,22.8C-4.5,14.7,-5.7,8.3,-6.4,4C-6.7,1.9,-7,0.3,-7.2,-0.9C-7.4,-2.1,-7.4,-2.6,-7.3,-2.6C-7.130647,-2.042417,-6.997043,-1.474597,-6.9,-0.9C-6.6,0.3,-6.3,1.9,-5.9,3.9C-5,8.2,-3.7,14.5,-1.7,22.6C3.979577,45.606328,11.607109,68.087474,21.1,89.8C27.836271,104.977643,35.414732,119.767328,43.8,134.1C48.3,141.9,53.4,149.8,58.7,157.9C64,166,70.2,174,78,181.1C86.339593,188.725412,96.613182,193.914094,107.7,196.1C119.2,198.3,132.5,196.6,141.4,189.2C145.826315,185.772717,149.473575,181.443726,152.1,176.5C154.754209,171.621723,157.092355,166.578008,159.1,161.4C163.3,151.1,167,139.9,176,130.9C180.653177,126.235812,186.391452,122.799719,192.7,120.9C199.229585,119.041549,206.019378,118.264607,212.8,118.6C226.2,119.1,238.8,122.5,250.9,125.6C263,128.7,275.1,131.4,287.2,131.4C299.3,131.4,311.5,129,319.1,121.9C322.736445,118.661374,325.256427,114.356405,326.3,109.6C327.145314,105.092187,326.65882,100.435739,324.9,96.2C321.4,87.6,315,80.2,308,74C301,67.8,293.2,62.4,285.8,57.2C278.4,52,271,47.4,264,42.9C241.503353,28.740474,218.307253,15.723958,194.5,3.9C186,-0.3,179.3,-3.4,174.7,-5.6L169.6,-8Z"
                                  class="svg-element__textClr" stroke="none" stroke-width="1"/>
                            <g id="e1dZN5EXSYv25_ts"
                               transform="translate(426.033997,164.487007) rotate(0.377717) scale(1,1)">
                                <path id="e1dZN5EXSYv25"
                                      d="M458.3,174C458.4,174,458.2,174.5,457.9,175.5C457.319474,176.922913,456.508629,178.240535,455.5,179.4C452.9,182.5,447.2,186.3,438.9,187.2C430.6,188.1,420.6,185.5,411.9,180.1C407.330248,177.511469,403.182464,174.240453,399.6,170.4C396.1,166.5,393.3,161.3,393.8,155.8C394.305221,149.938578,398.168772,144.904254,403.7,142.9C409.6,140.8,415.8,141.6,420.9,142.8C431.3,145.5,439.8,150,445.2,155.2C449.342341,159.098723,452.851186,163.619734,455.6,168.6C457.5,172,458.4,173.9,458.3,174C458.2,174.1,456.9,172.2,454.7,169C451.625416,164.287436,447.962553,159.986091,443.8,156.2C438.5,151.5,430.2,147.2,420.3,144.8C415.4,143.6,409.7,143.1,404.8,144.9C400.080255,146.631136,396.825886,150.983366,396.5,156C396,160.8,398.4,165.4,401.7,169.1C405.121421,172.746037,409.024038,175.908502,413.3,178.5C421.6,183.7,431,186.4,438.7,185.7C446.4,185,452,181.6,454.7,178.9C457.4,176.2,458,173.9,458.3,174Z"
                                      transform="translate(-426.033997,-164.487007)" class="svg-element__textClr"
                                      stroke="none" stroke-width="1"/>
                            </g>
                        </g>
                    </g>
                </g>
            </g>
            <clipPath id="e1dZN5EXSYv26">
                <rect id="e1dZN5EXSYv27" width="1920" height="1080" rx="0" ry="0" fill="none" stroke="none"
                      stroke-width="1"/>
            </clipPath>
        </g>
    </g>
</svg>