<svg width="754" height="754" viewBox="0 0 754 754" fill="none" xmlns="http://www.w3.org/2000/svg">
<circle cx="377" cy="377" r="377" fill="url(#paint0_linear_8_87)" fill-opacity="0.03"/>
<circle cx="377" cy="377" r="375" stroke="#5D75BA" stroke-opacity="0.03" stroke-width="4"/>
<circle cx="377" cy="377" r="293" fill="url(#paint1_linear_8_87)" fill-opacity="0.13"/>
<circle cx="377" cy="377" r="291" stroke="#5D75BA" stroke-opacity="0.5" stroke-width="4"/>
<circle cx="377" cy="377" r="155.833" transform="rotate(-136.701 377 377)" fill="url(#paint2_linear_8_87)" fill-opacity="0.13"/>
<circle cx="377" cy="377" r="153.833" transform="rotate(-136.701 377 377)" stroke="#5D75BA" stroke-opacity="0.5" stroke-width="4"/>
<circle cx="555.833" cy="220.833" r="38.0826" transform="rotate(-136.701 555.833 220.833)" fill="url(#paint3_linear_8_87)" fill-opacity="0.13"/>
<circle cx="555.833" cy="220.833" r="36.0826" transform="rotate(-136.701 555.833 220.833)" stroke="#5D75BA" stroke-opacity="0.5" stroke-width="4"/>
<circle cx="154.554" cy="273.205" r="22.585" transform="rotate(-136.701 154.554 273.205)" fill="url(#paint4_linear_8_87)" fill-opacity="0.13"/>
<circle cx="154.554" cy="273.205" r="20.585" transform="rotate(-136.701 154.554 273.205)" stroke="#5D75BA" stroke-opacity="0.5" stroke-width="4"/>
<circle cx="186.926" cy="696.926" r="22.585" transform="rotate(-136.701 186.926 696.926)" fill="url(#paint5_linear_8_87)" fill-opacity="0.13"/>
<circle cx="186.926" cy="696.926" r="20.585" transform="rotate(-136.701 186.926 696.926)" stroke="#5D75BA" stroke-opacity="0.5" stroke-width="4"/>
<defs>
<linearGradient id="paint0_linear_8_87" x1="572.413" y1="57.1492" x2="294.208" y2="394.002" gradientUnits="userSpaceOnUse">
<stop stop-color="#C4C4C4"/>
<stop offset="1" stop-color="#C4C4C4" stop-opacity="0"/>
</linearGradient>
<linearGradient id="paint1_linear_8_87" x1="528.873" y1="128.416" x2="312.655" y2="390.214" gradientUnits="userSpaceOnUse">
<stop stop-color="#C4C4C4"/>
<stop offset="1" stop-color="#C4C4C4" stop-opacity="0"/>
</linearGradient>
<linearGradient id="paint2_linear_8_87" x1="457.774" y1="244.789" x2="248.599" y2="409.767" gradientUnits="userSpaceOnUse">
<stop stop-color="#C4C4C4"/>
<stop offset="0.641291" stop-color="#C4C4C4" stop-opacity="0"/>
</linearGradient>
<linearGradient id="paint3_linear_8_87" x1="575.573" y1="188.524" x2="524.455" y2="228.841" gradientUnits="userSpaceOnUse">
<stop stop-color="#C4C4C4"/>
<stop offset="0.641291" stop-color="#C4C4C4" stop-opacity="0"/>
</linearGradient>
<linearGradient id="paint4_linear_8_87" x1="166.261" y1="254.043" x2="135.945" y2="277.954" gradientUnits="userSpaceOnUse">
<stop stop-color="#C4C4C4"/>
<stop offset="0.641291" stop-color="#C4C4C4" stop-opacity="0"/>
</linearGradient>
<linearGradient id="paint5_linear_8_87" x1="198.633" y1="677.765" x2="168.317" y2="701.675" gradientUnits="userSpaceOnUse">
<stop stop-color="#C4C4C4"/>
<stop offset="0.641291" stop-color="#C4C4C4" stop-opacity="0"/>
</linearGradient>
</defs>
</svg>
