<svg xmlns="http://www.w3.org/2000/svg" viewBox="0 0 1900 1050">
    <defs>
        <style>
            .cls-1 {
                fill: none;
            }

            .group-fluid-lines {
                opacity: 0.25;
            }

            .mask-fluid-lines {
                clip-path: url(#clip-path);
            }

            .fluid-lines {
                fill: var(--clr-text, #fff);
            }
            .XXfluid-lines { animation: x 3s ease alternate infinite; }

            @keyframes x {
            from { fill: #000; }
            to { fill: #fff; }
            }
        </style>
        <clipPath id="clip-path">
            <rect class="cls-1" width="1920" height="1080"/>
        </clipPath>
    </defs>

    <g class="group-fluid-lines">
        <g class="mask-fluid-lines">
            <g>
                <path class="fluid-lines" d="M1934.4,491.5l-4.3.9-5.4,1.2c-2.1.4-4.7.6-7.5,1a90,90,0,0,1-9.7.7,110.3,110.3,0,0,1-11.6.1,50.1,50.1,0,0,1-6.6-.5c-2.2-.2-4.6-.4-7-.8a113.6,113.6,0,0,1-15.1-3.2c-20.9-5.5-44.5-17.9-64.9-37.6-2.5-2.5-5.2-5-7.5-7.7s-5-5.4-7.3-8.3c-4.7-5.7-9-11.9-13.3-18.3-8.7-12.8-17.3-26.8-30.9-38.4s-32.1-19.8-52.6-24.5-42.7-6.4-65.6-6.7-46.9.4-71.4-1.7a213.3,213.3,0,0,1-36.8-5.8,144,144,0,0,1-18-5.6,112.9,112.9,0,0,1-16.7-8.3c-10.6-6.4-20.2-14.3-27.3-23.8a66.1,66.1,0,0,1-8.8-15.2,49,49,0,0,1-3.5-16.8c-.1-11.6,4.5-23.2,12.9-32.6s20.3-16.6,33.1-21.6a185.7,185.7,0,0,1,40.8-10.8c14.2-2.2,28.8-2.8,43.3-3.4s29.1-1.1,43.7-2.7,29-4.1,42.6-9a95.8,95.8,0,0,0,36-22.7c9.7-9.8,17.1-20.9,24.3-31.9s14.3-22.2,23.3-32.2,19.9-18.6,31.8-25.8c23.8-14.4,51.6-22.9,79.3-26.5a231.8,231.8,0,0,1,41.6-1,188,188,0,0,1,39.5,7.7l.8.2v.7c-.2,127.1-.4,234.9-.6,311-.1,37.9-.2,67.9-.3,88.5-.1,10.2-.1,18-.2,23.4,0,2.6,0,4.6-.1,6v2a16.6,16.6,0,0,1-.1-2.1c0-1.4-.1-3.4-.1-6.1,0-5.4-.1-13.3-.2-23.6,0-20.6-.1-50.7-.3-88.7-.1-75.9-.3-183.5-.5-310.4l.7,1a189,189,0,0,0-38.8-7.5,225.2,225.2,0,0,0-41,1c-27.4,3.5-54.8,12-78.2,26.2-11.7,7.1-22.6,15.4-31.2,25.3s-15.8,20.9-23.1,32-14.7,22.2-24.5,32.2a100.5,100.5,0,0,1-37,23.4c-13.9,5-28.7,7.7-43.4,9.1s-29.4,2.1-43.9,2.7-28.9,1.2-42.9,3.4a175.1,175.1,0,0,0-40.1,10.5c-12.6,4.9-23.9,12-32.2,21s-12.6,20.2-12.4,31.2a48.3,48.3,0,0,0,3.3,16.3,63.8,63.8,0,0,0,8.5,14.7c6.9,9.3,16.3,17,26.6,23.3a131.5,131.5,0,0,0,16.4,8.1,133,133,0,0,0,17.6,5.5,216,216,0,0,0,36.3,5.8c24.3,2,48.2,1.4,71.2,1.8s45.4,2,66.2,6.9,39.5,13.1,53.3,25,22.4,26,31.1,38.8c4.3,6.4,8.5,12.6,13.1,18.3,2.3,2.9,4.7,5.6,7.2,8.2s4.9,5.2,7.4,7.7c20.2,19.6,43.4,32,64.2,37.6a130.1,130.1,0,0,0,14.9,3.3l6.9.8a48.7,48.7,0,0,0,6.5.5,113.7,113.7,0,0,0,11.6.1,86.2,86.2,0,0,0,9.6-.7c5.8-.5,10-1.3,12.8-1.8Z"/>
                <path class="fluid-lines" d="M1934.6,860.3s-5.5,0-16-.8a286.8,286.8,0,0,1-45.3-7.1c-19.1-4.8-42.5-12.3-65.1-27.1a128.4,128.4,0,0,1-30.9-27.8,113,113,0,0,1-20.1-39.2c-8.4-29.3-6-62.7-.2-97.3,2.8-17.4,6.6-35.3,8.9-53.9,1.1-9.2,1.9-18.7,2.2-28.2a203.6,203.6,0,0,0-1.2-29.1,151.8,151.8,0,0,0-6.9-29.1,117.9,117.9,0,0,0-15-27.6c-12.8-17.5-32.6-31.5-55.1-41.5s-47.7-16.7-73.5-21.4-52.7-7.6-79.6-11.7-53.4-9.5-77.8-18.8a227.1,227.1,0,0,1-64.4-37.5c-36.7-30.5-59.4-70.2-64.3-109.7-2.3-19.8-.5-39.4,5.9-57.5a109.8,109.8,0,0,1,32.1-47.2c14.7-12.9,32.8-21.6,50.5-28.4s35.6-11.9,52.2-17.4c33.3-10.8,62.8-22,87.6-33.5s44.8-23.3,60.1-34a294.9,294.9,0,0,0,32.9-26.8l7.6-7.7,2.7-2.6s-.8,1-2.5,2.7-4.1,4.5-7.4,7.9a273,273,0,0,1-32.6,27.1c-15.3,10.9-35.3,22.8-60.1,34.5s-54.3,23-87.6,33.9c-16.7,5.5-34.4,10.6-52,17.5s-35.5,15.4-49.9,28a109.9,109.9,0,0,0-31.4,46.5,127.4,127.4,0,0,0-5.7,56.7c4.9,39,27.4,78.3,63.7,108.5a225.7,225.7,0,0,0,63.7,37c24.1,9.1,50.4,14.5,77.2,18.6s53.6,7.1,79.6,11.7,51.4,11.4,74.2,21.7,43,24.4,56,42.3a113.2,113.2,0,0,1,15.2,28.1,142,142,0,0,1,7,29.5c4.7,39.7-4.3,77.1-10.1,111.6s-8.4,67.7-.2,96.7a113.8,113.8,0,0,0,19.7,38.8,128.6,128.6,0,0,0,30.5,27.7c22.2,14.7,45.4,22.3,64.4,27.1a280.1,280.1,0,0,0,45.1,7.5c5.2.6,9.2.7,11.9.9Z"/>
                <path class="fluid-lines" d="M1062.9,1086.5H1058a81.3,81.3,0,0,1-14-2.4,70,70,0,0,1-20.4-9.2,37.1,37.1,0,0,1-9.7-9.3c-2.7-3.9-4.6-8.6-4.1-13.7,3.6-20,21-41.6,47.8-58.9a261.1,261.1,0,0,1,46.4-23.5c17.4-6.9,36.5-12.7,56.9-18s42-9.9,64.4-14.8,45.8-10.4,69.2-17.8,46.8-16.6,68.5-29.4,41-29.6,54.1-50.2,19.5-44.5,21.5-68.9-.7-49.5-4.9-74.7-9.6-51-12.4-77.3-2.9-53.7,5.7-80.1a113.3,113.3,0,0,1,20.1-37A104.2,104.2,0,0,1,1463,486a122,122,0,0,1,19.2-12.1c27.5-13.9,59.9-18.6,90.6-17.1s60.7,9.3,85.4,23.2a129.2,129.2,0,0,1,31.9,25.2,120,120,0,0,1,20.4,31.6c9.9,22.2,13.1,45.4,13.6,67.7s-2.1,43.9-4.3,64.6-4.2,40.9-3.9,60.3,2.9,37.9,9.2,54.8a161.2,161.2,0,0,0,25.8,45.3c10.6,13.3,23.1,24.3,35.4,33.9a238.8,238.8,0,0,0,73.8,36.9c22.4,6.6,40.9,8.4,53.3,9.5,6.3.3,11.1.2,14.3.4h0c-3.2-.1-8,0-14.3-.2-12.5-.9-31.1-2.5-53.7-9.1a240.7,240.7,0,0,1-74.4-36.8c-12.4-9.6-25-20.6-35.8-34s-20-28.6-26.2-45.7-9-35.8-9.5-55.2,1.6-39.6,3.8-60.4,4.7-42.3,4.2-64.5-3.8-45.1-13.6-67a118.4,118.4,0,0,0-20.1-31,123.1,123.1,0,0,0-31.4-24.7c-24.2-13.7-53.8-21.3-84.1-22.8s-62.1,3.2-89.1,16.8a120.3,120.3,0,0,0-18.7,11.8,104.4,104.4,0,0,0-15.5,14.9,109.9,109.9,0,0,0-19.7,36.3c-8.5,26-8.4,53.1-5.6,79.3s8.2,51.8,12.3,77.2,6.8,50.5,4.8,75.2-8.6,48.7-21.8,69.6-33,38.1-55,50.9-45.6,22.1-69.1,29.6-46.9,12.7-69.4,17.6-44,9.5-64.4,14.7a485.5,485.5,0,0,0-56.7,17.8,265.4,265.4,0,0,0-46.2,23.1c-26.7,17.1-44,38.5-47.6,58-.6,4.9,1.2,9.5,3.8,13.3a37.3,37.3,0,0,0,9.4,9.2,67.6,67.6,0,0,0,20.1,9.2,76.1,76.1,0,0,0,13.9,2.7Z"/>
                <path class="fluid-lines" d="M1099.3,1086.5s-.3-1.3-.7-3.8-.6-2.8-.8-4.7-.2-4.1-.4-6.6.3-5.3.4-8.4c.2-1.5.5-3.1.8-4.7a35.2,35.2,0,0,1,1.2-5.2,66.2,66.2,0,0,1,11.9-23.1,105.9,105.9,0,0,1,26-22.8,189.4,189.4,0,0,1,39.1-18.4c14.9-5.2,31.7-9,49.6-11.9s37.2-4.9,57.3-7,41.1-4.4,62.5-8.9,43.2-11.1,62.9-22,36.4-26.9,46-46.4,14.3-41,17.2-63.1a1047.6,1047.6,0,0,0,8.6-139.8q-.2-36.5-3-74c-1-12.6-2.2-25.1-3.5-37.8s-1.9-25.7.7-38.6,9.3-25.6,21.6-34,28-11.9,43.2-11.7a120.6,120.6,0,0,1,43.7,9.1,147.4,147.4,0,0,1,35.8,21.7c21,17.3,35.7,38.6,45.5,60.6s14.8,44.9,16.9,67.3c4.1,44.7-1,87.2-1,126.9-.1,19.8,1,39,4.9,57.1s10.6,35,20.9,49.4,24.1,26,38.7,35a207.1,207.1,0,0,0,45.2,20.2c7.5,2.3,14.8,4.4,22,5.9l10.6,2.6c3.4,1.1,6.8,2,9.9,3.2,12.8,4.5,23.8,9.6,33.8,14.1s18.9,8.3,26.9,11.1a135.9,135.9,0,0,0,20.9,5.8,95.1,95.1,0,0,0,13.3,1.8l4.6.4-4.6-.2a85.4,85.4,0,0,1-13.4-1.5,135.9,135.9,0,0,1-21.1-5.7c-8.1-2.7-17.1-6.6-27.1-11s-21-9.5-33.7-13.8S1805,947,1789.9,942s-30.7-11.2-45.5-20.2-28.9-20.6-39.4-35.3-17.4-31.7-21.4-49.9-5.1-37.6-5-57.4c-.1-39.8,4.9-82.3.7-126.8-2.1-22.2-7.1-44.8-16.8-66.6s-24.2-42.9-44.9-59.8a149.7,149.7,0,0,0-35.2-21.4,118.7,118.7,0,0,0-42.6-8.8c-14.7-.2-30,3.1-41.4,11.2s-18.2,20.2-20.6,32.6-1.9,25.5-.8,38.1,2.6,25.3,3.5,37.8c1.9,25.1,2.9,49.9,3,74.2a1049.2,1049.2,0,0,1-8.7,140c-3,22.2-7.4,44.1-17.6,63.7s-26.8,36.2-46.9,47.1-42.1,17.6-63.6,22.1-42.7,6.7-62.8,8.8-39.3,4-57.2,6.8-34.5,6.6-49.3,11.7a190.8,190.8,0,0,0-39,18.1,104,104,0,0,0-25.8,22.5,63.9,63.9,0,0,0-12,22.8,31.8,31.8,0,0,0-1.3,5.1l-.9,4.7c-.1,3.1-.5,5.8-.5,8.3s.2,4.7.3,6.6.5,3.4.6,4.7S1099.3,1086.5,1099.3,1086.5Z"/>
                <path class="fluid-lines" d="M1609.2,710.4a10.1,10.1,0,0,1,.6,1.7c.3,1.2.7,3,1.3,5.2,1.1,4.6,3,11.3,4.9,20.1a770.6,770.6,0,0,1,13,76.8c7.8,66.2,10.2,161.7-11.8,272.5l-.2.8H1235.4l-.3-.7a42.1,42.1,0,0,1-3.1-16.3,47.9,47.9,0,0,1,3.8-16.1,67,67,0,0,1,8.8-14.4,91,91,0,0,1,12.6-12.2,95.7,95.7,0,0,1,32.1-16.4,179.5,179.5,0,0,1,36.2-7c24.3-2.5,48.4-1.6,71.7-2.2s46.2-2.6,66.7-9.6a105.3,105.3,0,0,0,27.8-14.1,92.6,92.6,0,0,0,20.3-20.2c11.1-14.8,17.5-31.2,22-47.1s6.9-31.8,9.3-46.9,4.1-29.7,5.6-43.6c2.8-27.9,4.1-53.1,4.5-75.2.4-11.1-.3-21.4,1.4-30.9s6.3-18,14.1-22.6,16.7-6.3,23.7-4.3a20.9,20.9,0,0,1,12.6,10.6,36,36,0,0,1,3.3,8.9,17.7,17.7,0,0,1,.7,3.1l-.9-3.1a52.3,52.3,0,0,0-3.6-8.7,20.3,20.3,0,0,0-12.3-10.2c-6.7-1.9-15.6-.4-22.9,4.3s-12,12.9-13.5,22.2-.9,19.6-1.1,30.7c-.3,22.2-1.5,47.4-4.2,75.3-1.4,13.9-3.1,28.5-5.4,43.7s-4.8,31-9.2,47.1-10.9,32.6-22.1,47.7a95,95,0,0,1-20.8,20.7,106.9,106.9,0,0,1-28.4,14.4c-20.9,7.2-44.2,9.3-67.6,9.9s-47.3-.2-71.4,2.2c-12,1.3-24.1,3.3-35.5,6.9a94.7,94.7,0,0,0-31.3,16,80.9,80.9,0,0,0-12.2,11.9,62.5,62.5,0,0,0-8.5,13.9,43.3,43.3,0,0,0-3.6,15.3,39.5,39.5,0,0,0,2.9,15.5l-1.3-.7H1616l-1.2.8c22.2-110.5,20.2-205.8,12.7-272-3.7-33.1-8.5-59.1-12.2-76.8-1.8-8.8-3.6-15.6-4.6-20.1-.5-2.3-.9-4-1.1-5.2S1609.2,710.4,1609.2,710.4Z"/>
                <path class="fluid-lines" d="M1795.5,1025.5c.1,0,.2.6.2,1.7a16.4,16.4,0,0,1-.6,4.9c-.9,4.1-4.1,10-10.7,15.4a42.5,42.5,0,0,1-29.7,8.5,32.8,32.8,0,0,1-17.1-7,31.7,31.7,0,0,1-9.9-14.9,26,26,0,0,1,.6-17,24.5,24.5,0,0,1,11.5-12.7,36.6,36.6,0,0,1,16.5-4.1,45,45,0,0,1,14.7,2.2c8.6,2.9,14,7.6,16.4,11.3.6.9,1,1.8,1.5,2.6a11.4,11.4,0,0,1,.7,1.9c.4,1.1.5,1.7.4,1.7s-.4-.5-.9-1.5-.5-1.2-.9-1.9l-1.7-2.3c-2.5-3.5-7.9-7.8-16.1-10.3s-19.6-3.1-29.3,2.1a22.2,22.2,0,0,0-10.3,11.7,24.4,24.4,0,0,0-.5,15.8,29.9,29.9,0,0,0,9.1,13.9,30.9,30.9,0,0,0,15.6,6.5,40.7,40.7,0,0,0,28.1-7.7c6.5-4.9,9.8-10.5,11-14.4a27,27,0,0,0,1.1-4.7A4.7,4.7,0,0,1,1795.5,1025.5Z"/>
                <path class="fluid-lines" d="M2,816.1l6.6.7c2.3.2,5,.6,8.2,1.2s7,1.3,11.1,2.5c16.8,4.1,40,14.1,66.1,31.1s55.3,40.5,95.3,61A449.6,449.6,0,0,0,337,959.5c29.1,3.6,60.2,5,92.2,1.5,8-.6,15.9-2,24-3.1l12-2.3c4.1-.8,8.1-1.7,12.1-2.7A345.8,345.8,0,0,0,525,938a294.2,294.2,0,0,0,45.5-22.2,250.6,250.6,0,0,0,41-29.7A233.3,233.3,0,0,0,645.4,849c9.9-13.5,18.7-27.8,27.9-42.2s18.7-28.9,30.6-42.5,25.8-26.2,43.2-35.5a165.3,165.3,0,0,1,58.1-18.2,257.9,257.9,0,0,1,63.3.4,341.4,341.4,0,0,1,62.2,14.1c20.2,6.6,39.7,15,58.9,23.8,38.5,17.7,75.7,38.3,116.5,54.1s84.8,25.6,128.5,22.9a213.4,213.4,0,0,0,32.1-4.1c10.4-2.5,20.7-5.3,30.1-9.5s18.3-9.2,26.5-14.8c3.7-3.2,7.7-6,11.1-9.4a118.3,118.3,0,0,0,9.7-10.4c11.8-14.6,19.1-31.3,23.8-48.1a235.2,235.2,0,0,0,7.9-51,444.3,444.3,0,0,0-5.4-99.6c-10.8-64.4-35.5-123.7-68.1-174.7a521.5,521.5,0,0,0-53.9-70.4c-19.4-21.5-39.2-41.3-57.4-60.8s-34.8-38.4-48.3-57.6-24.2-38.3-31.2-57.1-10.5-36.9-10.7-53.7a127.5,127.5,0,0,1,8-45.3c10-26.5,26.3-44.1,39.2-53.8l4.5-3.5,4.2-2.7,3.6-2.4,3.1-1.7,5.7-3-5.5,3.2-3.1,1.8-3.6,2.3-4.1,2.8-4.5,3.5c-12.6,9.8-28.7,27.4-38.5,53.7a129.1,129.1,0,0,0-7.8,45.1c.3,16.7,3.8,34.8,11,53.4s17.6,37.6,31.2,56.7,30.1,38,48.3,57.4,38.1,39.2,57.5,60.6a527,527,0,0,1,54.3,70.7c32.7,51.1,57.6,110.6,68.5,175.2a442.3,442.3,0,0,1,5.5,100c-.9,17.1-3.1,34.4-7.8,51.4s-12.2,33.9-24.3,48.8a97.7,97.7,0,0,1-9.8,10.6c-3.5,3.5-7.6,6.4-11.4,9.7-8.3,5.7-17.1,11.1-27,15s-20.1,7.2-30.7,9.7-21.5,3.8-32.6,4.2c-44.2,2.7-89.1-6.8-129.7-23.1s-78.3-36.5-116.7-54.2c-19.2-8.8-38.5-17.1-58.6-23.6a343.6,343.6,0,0,0-61.6-14.1,251.5,251.5,0,0,0-62.5-.4,163.8,163.8,0,0,0-57.1,17.9c-17.1,9-30.9,21.6-42.6,35s-21.2,27.9-30.4,42.2-18.1,28.7-28.1,42.2a233,233,0,0,1-34.1,37.5,266.6,266.6,0,0,1-41.5,29.9,303.7,303.7,0,0,1-45.9,22.3,349.7,349.7,0,0,1-48,14.9c-4.1,1-8.1,2-12.2,2.7l-12.1,2.3c-8.1,1.1-16.1,2.5-24.2,3.1-32.1,3.4-63.4,2-92.7-1.7a451.7,451.7,0,0,1-148.2-47.3c-40.1-20.7-68.9-44.8-95.2-61.5s-48.9-27-65.5-31.3a110.9,110.9,0,0,0-11.1-2.5A69.3,69.3,0,0,0,8.6,817Z"/>
                <path class="fluid-lines" d="M358.8-7.7H332.5l-75.2.2-275.6.2,1-.8c.1,83.7.2,183.1.3,292.1v-.4C-11,294.2-1.5,303.3,9,311.4a183.5,183.5,0,0,0,35.5,21,157.8,157.8,0,0,0,41.3,12.9c14.5,2.3,30.4,2,43.3-4.7s23.8-15.7,32.4-26.4,15.7-22.3,23.3-33.9S200.3,257.2,211,247l4-3.8,4.5-3.4a79.4,79.4,0,0,1,9.6-6.3c3.2-2.1,7-3.5,10.6-5.1a116.5,116.5,0,0,1,11.4-3.7c18.5-4.8,38-4.1,56.4-1.3s36.2,7.8,53.4,13.3q51.5,16.8,99.8,35.8t93.5,39.7c15.1,6.8,30,13.4,45.6,18.4s31.6,8.6,47.8,9.1,32.3-1.9,46.4-7.8a65.1,65.1,0,0,0,18.7-11.4c2.9-2.2,5-4.9,7.5-7.4s2-2.7,3-4.1a23.1,23.1,0,0,0,2.7-4.2c3.5-5.6,5.4-11.8,7.1-17.9a79.4,79.4,0,0,0,1.7-18.7,107.8,107.8,0,0,0-7.1-36.1c-4.2-11.6-10.3-22.4-16.9-32.6s-14.2-19.9-22-29A318.5,318.5,0,0,0,663.6,145c-8.9-7.8-17.8-15.3-27.1-22.1a465.9,465.9,0,0,0-56.1-35.4c-18.8-10-37.1-18.7-54-27-34-16.5-63.8-29.9-88.6-40S393.1,3.4,379.6-1.1L364.1-6l-5.3-1.7s7.4,1.9,21,6.2,33.5,11.2,58.4,21.2S493.1,43,527.1,59.5c17,8.2,35.3,16.8,54.2,26.8a468.8,468.8,0,0,1,56.4,35.4c9.4,6.8,18.4,14.3,27.3,22.2a339.6,339.6,0,0,1,25.4,25.5,255,255,0,0,1,22.2,29.2c6.6,10.3,12.9,21.2,17.1,32.9a111.5,111.5,0,0,1,7.3,36.7,81.6,81.6,0,0,1-1.8,19c-1.6,6.3-3.6,12.6-7.2,18.5a28.7,28.7,0,0,1-2.8,4.3c-1,1.4-2,2.9-3.1,4.2s-4.7,5.4-7.7,7.6a65.2,65.2,0,0,1-19.3,11.9c-14.5,6.1-31.1,8.5-47.6,8s-33-4-48.6-9.1S568.1,320.8,553,314q-45-20.5-93.4-39.5c-32.2-12.6-65.4-24.6-99.7-35.7-17.1-5.5-34.7-10.4-52.9-13.2s-37.2-3.4-55.1,1.3a89.2,89.2,0,0,0-11.1,3.5c-3.4,1.6-7.1,2.9-10.2,5a64.8,64.8,0,0,0-9.3,6.1l-4.4,3.3-3.9,3.7c-10.4,9.9-18.4,21.4-25.9,32.9s-14.6,23.3-23.4,34.1-19.6,20.7-33.3,27c-6.6,3.5-14.4,5.3-22.1,6a97,97,0,0,1-22.9-1c-15-2.4-29.1-7.3-42.2-13.2A187.9,187.9,0,0,1,7.3,313c-10.7-8.2-20.3-17.5-26.7-28.3v-.5c.1-109,.2-208.4.2-292.1v-.8h1l275.7.5,75.2.3h26.2Z"/>
                <path class="fluid-lines" d="M-2.5,469.4s.9,1.8,2.4,5.4L6.8,491c6.5,14,15.8,34.8,30.7,60.5a705.6,705.6,0,0,0,61.9,90.3c13.6,16.7,29,34.3,46.4,52.1s36.9,35.9,58.6,53.9c11,8.9,22.3,18,34.3,26.7s24.5,17.7,37.8,26.2c26.5,16.8,56.1,32.5,89.6,43.3a266.2,266.2,0,0,0,52.8,11.3,235.2,235.2,0,0,0,56.2-.8A190.8,190.8,0,0,0,529.7,839c17-8.1,32.3-19.1,44-32.8,24-27,36-61.4,63.5-89.1s66.6-46.8,109.3-56.4,89-10.3,133.7-3,88.5,21.2,130.4,38.6c21,8.6,41.2,18.4,61.7,27.2s41.5,16.5,63.5,20.8a165.5,165.5,0,0,0,66.5,0c21.3-4.7,41-15.3,52.5-30.8a65.5,65.5,0,0,0,12.1-24.9,83.5,83.5,0,0,0,2.3-26.8c-1.3-17.8-7-35.2-15.1-51.4-16.9-32.3-41.4-60.7-67.4-86.4s-54.4-48.8-82.1-70.9-55.2-43.2-80.3-64.8-48-43.6-67.7-66.2S921,276,909.2,252.3s-18.7-47.7-20.6-70.7a123.9,123.9,0,0,1,12.5-63.9c9.1-18.9,21.8-34.8,35-48.3A310.2,310.2,0,0,1,976.8,36c6.6-4.5,13.2-8.5,19.2-12.3s12.2-7,17.7-9.9l15.6-7.9,13.3-6.1c7.9-3.7,14.2-5.9,18.3-7.7l6.4-2.4-6.2,2.6c-4.1,1.8-10.4,4.1-18.2,7.9l-13.2,6.1-15.6,8c-5.5,3-11.3,6.5-17.5,10s-12.5,7.9-19.2,12.4a314.7,314.7,0,0,0-40.3,33.4c-13.1,13.4-25.7,29.3-34.7,48.1a122.5,122.5,0,0,0-12.1,63.3c1.9,22.8,9.1,46.7,20.6,70.3s27.8,46.8,47.4,69.3,42.4,44.5,67.6,65.9,52.5,42.5,80.3,64.7,56.1,45.2,82.3,71,50.8,54.2,68,86.9c8.1,16.4,13.9,33.9,15.3,52.1a87.7,87.7,0,0,1-2.3,27.4,67.9,67.9,0,0,1-12.5,25.6c-11.9,15.9-32.2,26.9-54,31.7a170.1,170.1,0,0,1-67.8.1c-22.4-4.4-43.6-12.3-64.2-21.1s-40.6-18.5-61.6-27.1C967.7,681,924.3,667,879.7,659.8s-90.3-7.1-132.5,3-81,28.7-108.1,55.7S600,780,575.7,807.4c-11.9,13.9-27.5,25.1-44.8,33.3a197.5,197.5,0,0,1-55.4,15.8,245.7,245.7,0,0,1-56.8.7,278.1,278.1,0,0,1-53.4-11.5c-33.8-10.9-63.5-26.7-90.1-43.7-13.2-8.5-25.9-17.2-37.8-26.2s-23.3-18-34.3-26.9c-21.7-18.1-41.1-36.3-58.6-54.1s-32.7-35.5-46.4-52.4a681.4,681.4,0,0,1-61.5-90.5c-14.8-25.8-24-46.7-30.3-60.8L-.3,474.9Z"/>
                <path class="fluid-lines" d="M699.4-10.3s-.6,1.2-2.1,3.6-3.8,5.8-6.4,10.5c-1.4,2.4-2.8,5-4.2,8a101.7,101.7,0,0,0-4.4,9.8,96.4,96.4,0,0,0-6.9,25.5,82.1,82.1,0,0,0,2.5,32.5c3.1,11.7,9.2,23.8,17.4,36C712,140,735.6,165.3,760.2,194c12.3,14.4,24.8,29.9,35.6,47s20.3,36,23.5,56.8a120.3,120.3,0,0,1,1.4,31.8,98.1,98.1,0,0,1-7.9,32.2A86.8,86.8,0,0,1,792.3,391c-9.3,8.6-21.4,15-34.7,19.3s-27.9,5.3-42.3,4.7a233.4,233.4,0,0,1-43.1-6.3c-14.2-3.2-28.2-7.2-42.4-11.2l-42.9-12.2c-28.9-8.1-58.2-16.7-88.1-24.7-14.9-3.7-30.9-6.3-46.1-2.7a52.8,52.8,0,0,0-34,25.3,61.2,61.2,0,0,0-7.4,38.6c1.9,13.1,7.3,25.6,13.8,37.5,13.1,23.7,30.8,45.5,39.3,70.3,4.3,12.3,6.3,25.3,4,37.8a64.3,64.3,0,0,1-18.6,33.8c-9.8,9.4-22.1,16.6-35.2,21.7a149.5,149.5,0,0,1-41.2,9.4,151.7,151.7,0,0,1-41.6-2.2,200.3,200.3,0,0,1-38-11.8c-23.9-10.1-44.4-23.7-62.6-37.8s-34.6-29-50.2-43.3-29.9-28.5-43.5-42.1A1215.3,1215.3,0,0,1,21.4,358.7c-24.6-33.8-36.5-53.4-36.5-53.4l2.5,3.5,7,10.3c6.2,9,15.4,22.3,27.8,39.1A1253.3,1253.3,0,0,0,139,494.1c13.5,13.6,27.9,27.7,43.5,41.9s31.9,29.1,50.1,43.1,38.6,27.5,62.2,37.4,50.6,16.4,78.3,13.8,55.6-12.2,74.7-30.5a61.5,61.5,0,0,0,18.1-32.7c2.2-12.2.2-24.8-4-36.9-8.4-24.4-25.9-46.1-39.2-70-6.6-12-12-24.7-14-38.1a62.8,62.8,0,0,1,7.6-39.8,58.1,58.1,0,0,1,14.4-16.6,57.3,57.3,0,0,1,21.3-10c16-3.7,32.5-.9,47.6,2.8,30,8.1,59.2,16.7,88.1,24.8l42.9,12.1c14.2,4.1,28.2,8.1,42.3,11.3s28.3,5.6,42.5,6.2,28.4-.6,41.4-4.5,24.6-10.4,33.8-18.7a85.9,85.9,0,0,0,20-28.6,97,97,0,0,0,7.8-31.6,117.3,117.3,0,0,0-1.3-31.4c-3.1-20.6-12.4-39.3-23.1-56.3s-23.1-32.5-35.3-46.9c-24.5-28.8-48.1-54.1-64.7-78.7-8.2-12.3-14.3-24.5-17.4-36.3A81.8,81.8,0,0,1,674.4,47a99.8,99.8,0,0,1,7.1-25.6,100.6,100.6,0,0,1,4.6-9.8c1.5-3,2.9-5.6,4.4-8,2.6-4.7,5-8.1,6.5-10.4Z"/>
                <path class="fluid-lines" d="M-13.1,341.5l2.5,4.6c1.7,3,4.1,7.5,7.3,13.4,6.4,11.8,16.1,29.1,29.3,51.1,26.4,43.9,67.6,106.5,128.7,178.2,15.4,17.9,31.9,36.4,49.8,55.1s36.5,38.4,58.7,56.4A245.6,245.6,0,0,0,299.7,725a170.5,170.5,0,0,0,44,16.6,165.8,165.8,0,0,0,49.4,3.2,218.1,218.1,0,0,0,49.7-10c32.4-10.4,62.6-26.9,90.7-46.1s54.7-41.2,83.9-61.5,61.4-39.2,98.9-49.8,78.5-12.1,118.4-6.8S912.8,586.3,949,599c18.1,6.3,35.7,13.3,53.1,20.2s35,13.3,53.7,15.6,38,0,53.3-8.4c7.6-4.2,13.9-9.9,17.8-16.7a43.4,43.4,0,0,0,5.9-21.7,55.5,55.5,0,0,0-4.1-22,87.1,87.1,0,0,0-11.5-20c-9.4-12.5-21.3-23.4-32.9-34.2-46.7-43.3-91-84.6-127.5-126.5S891.6,301,873.9,259.4a312.5,312.5,0,0,1-18.8-60.8,291.8,291.8,0,0,1-4.9-55.9c1-35,8.9-64.9,19.3-87.9s23.2-39.2,32-49.8,15-15.3,15-15.3l-3.7,3.9C910.4-3.7,906.6,0,902,5.2c-8.7,10.7-21.3,26.9-31.5,49.9s-18,52.8-18.8,87.7a298.6,298.6,0,0,0,5.1,55.6,303.9,303.9,0,0,0,18.9,60.5c17.7,41.3,46.3,83.7,82.9,125.3s80.8,83,127.5,126.2c11.6,10.8,23.6,21.8,33.2,34.5a90.9,90.9,0,0,1,11.8,20.4,59.3,59.3,0,0,1,4.2,22.7,45.5,45.5,0,0,1-6.1,22.7c-4.1,7.1-10.8,13.1-18.7,17.5-16,8.8-36.2,11.1-55.1,8.7s-37-8.8-54.4-15.7-35-13.9-53.1-20.1c-36-12.7-73.9-23.2-113.6-28.3s-80.1-3.5-117.2,6.7S648,608.7,619,628.9s-55.6,42-83.9,61.4-58.7,35.9-91.4,46.4a223.1,223.1,0,0,1-50.4,10.1,174.9,174.9,0,0,1-50.2-3.3,172.4,172.4,0,0,1-44.6-16.9,239.9,239.9,0,0,1-36.8-25c-22.3-18.1-40.8-37.9-58.8-56.6s-34.3-37.4-49.7-55.3C92.2,517.8,51.2,455.1,25.1,411,12,388.9,2.5,371.5-3.8,359.7l-7-13.5C-12.4,343.1-13.1,341.5-13.1,341.5Z"/>
                <path class="fluid-lines" d="M548.4-7.7s.8.8,2.2,2.5l6.1,7.4c5.4,6.5,13.6,16,24.5,28s24.9,26.2,41.5,42.5,35.7,34.6,55.6,55.9A782.8,782.8,0,0,1,738.4,201c9.9,13.5,19.3,28,26.2,44s10.9,33.5,9.3,51.4a84.9,84.9,0,0,1-6.5,26.7,75.8,75.8,0,0,1-16.8,24c-14.8,14.5-36.7,23.5-59.7,26.8s-47.3,2.2-70.8-2.3-46.4-11.9-68.7-20.6c-44.7-17.4-85.6-38.9-128.3-54-21.3-7.5-42.9-13.7-64.7-17.2a280.5,280.5,0,0,0-32.7-3.2,199.5,199.5,0,0,0-32,1.6,176.2,176.2,0,0,0-30.4,6.3,159.1,159.1,0,0,0-27.5,10.9c-17.1,8.7-31.2,20.6-40.3,34.3s-13.7,28.7-22.6,41.6A56.9,56.9,0,0,1,156,387.9a65.7,65.7,0,0,1-22.6,8.8c-16,3.2-32,1.4-45.9-2.5a90.4,90.4,0,0,1-34.8-18A236.2,236.2,0,0,1,29,353.8c-6.7-7.2-12.6-14-17.7-20.2C-9,308.7-18.3,293.9-18.3,293.9s.7.8,2,2.6l5.7,7.7c5,6.7,12.5,16.5,22.8,28.9,5.2,6.1,11,12.9,17.8,20.1a234.7,234.7,0,0,0,23.7,22.1,90.2,90.2,0,0,0,34.4,17.6c13.6,3.7,29.3,5.4,44.8,2.3a63.8,63.8,0,0,0,21.9-8.6,56.8,56.8,0,0,0,16.3-16.1c8.7-12.6,13-27.8,22.4-41.7s23.7-26.2,41.1-35a153.3,153.3,0,0,1,27.9-11.2,191.1,191.1,0,0,1,30.8-6.5,218.5,218.5,0,0,1,32.5-1.6,287.2,287.2,0,0,1,33.1,3.2c22.1,3.5,43.8,9.7,65.2,17.3,43,15.2,83.9,36.6,128.4,54,22.3,8.6,45,15.9,68.2,20.5s47.1,5.7,69.7,2.3,43.9-12,58.3-26a75.7,75.7,0,0,0,16.4-23.5,83.3,83.3,0,0,0,6.4-26c1.6-17.7-2.3-34.9-9.1-50.7s-16.1-30.2-25.8-43.7a809.4,809.4,0,0,0-59.8-72.4c-19.7-21.2-38.8-39.6-55.3-56s-30.2-30.8-41.1-42.8C558.8,6.5,548.4-7.7,548.4-7.7Z"/>
                <path class="fluid-lines" d="M835.5,462.4a20,20,0,0,1,4.3-5c3.3-2.9,9.3-6.8,18.6-8.4a40.7,40.7,0,0,1,15.4.6,36.2,36.2,0,0,1,15.3,8.4,26.2,26.2,0,0,1,8.7,16c.7,6.3-1.3,13.1-5.6,19.1a52,52,0,0,1-18.4,15.3c-7.8,4-16.9,6.6-26.3,8.4s-19.4,3-29.6,4.4l-31.4,4-67.3,8.7-35.7,4.5c-12.1,1.5-24.2,3.5-36.9,4s-25.8-.8-36.6-6.3a39.9,39.9,0,0,1-13.7-10.4,23.7,23.7,0,0,1-5.7-14.6c-.2-10.4,6.6-19.8,15.5-26s20.3-9.3,31-10.8c21.8-2.9,42.7-1.1,61.8.9s37,4.4,53.3,5.2c32.8,1.8,59.4-4.2,74.9-12.2s21.1-15.7,21.5-15.3a7.8,7.8,0,0,1-1.1,1.3c-.8.8-1.8,2.1-3.5,3.6A77.2,77.2,0,0,1,827.6,469c-15.5,8.3-42.4,14.6-75.5,13-16.4-.7-34.3-3-53.4-5s-39.9-3.5-61.1-.7c-10.6,1.5-21.3,4.6-29.9,10.5s-14.7,14.7-14.5,24.3,7.9,18.2,18.1,23.1,22.8,6.5,35.2,6,24.5-2.5,36.6-4l35.7-4.5,67.4-8.5,31.3-4c10.2-1.3,20.1-2.4,29.5-4.2s18.1-4.3,25.7-8.1a50.6,50.6,0,0,0,17.9-14.6,26.6,26.6,0,0,0,5.5-18.2,25.5,25.5,0,0,0-8.1-15.3,34.2,34.2,0,0,0-14.6-8.1,38.2,38.2,0,0,0-14.9-.8,36.9,36.9,0,0,0-18.3,7.8A31.9,31.9,0,0,0,835.5,462.4Z"/>
                <path class="fluid-lines" d="M993.4,940.4l-1.7,1.9-5.1,5.5c-2.3,2.4-5.1,5.4-8.7,8.7s-7.5,7.3-12.5,11.4a399.2,399.2,0,0,1-37.2,28.9,462.1,462.1,0,0,1-55.5,31.7,456.1,456.1,0,0,1-74.4,28c-6.9,1.9-14.1,3.7-21.4,5.5s-14.8,3.4-22.5,4.6c-15.2,2.7-31.2,5-47.8,5.5s-34-1.4-49.9-7.5-30.4-16.5-37.2-30.9-5.3-30.7.5-45.4,15.3-28.7,25.6-42a472,472,0,0,1,69.9-72c25.6-21,52.4-39.8,81-53.7s59.3-22.6,89-23,57.2,6.1,77.7,18.3a93.5,93.5,0,0,1,25.3,21,128.7,128.7,0,0,1,15.6,23.1c8.1,15.2,11.5,29.4,11.9,41.1s-2.9,20.7-6.5,26c-1.5,2.9-3.6,4.5-4.6,5.8l-1.8,1.9,1.5-2c1-1.3,3-3,4.4-5.9,3.4-5.3,6.6-14.2,6-25.8s-4.1-25.6-12.3-40.6-20-31.6-40.5-43.4-47.6-18.4-76.7-17.7-59.5,9.1-87.8,23-54.9,32.5-80.3,53.5a467.3,467.3,0,0,0-69.6,71.6c-10.3,13.3-19.6,26.9-25.3,41.5s-7.2,30.2-.6,43.9,20.5,23.8,35.8,29.7,32.5,7.8,48.8,7.4a301.4,301.4,0,0,0,47.4-5.4c7.7-1.1,15.1-3,22.4-4.4s14.4-3.5,21.3-5.4a475.8,475.8,0,0,0,74.1-27.6,457.6,457.6,0,0,0,55.6-31.4,424.3,424.3,0,0,0,37.4-28.5c5-4,8.9-8,12.6-11.3s6.5-6.2,8.9-8.5l5.3-5.4Z"/>
                <path class="fluid-lines" d="M-16.6,857.5h1.7l5,.7a70.1,70.1,0,0,1,17.8,5.8c14.7,6.9,31.8,22.8,42.6,46.2,5.4,11.6,9.6,24.8,14.6,38.8s11.1,28.8,22.3,42.2,27,24.8,45.5,33.4,39.9,14.4,62.1,17.6,44.6,3.5,65.9,2.8,42-2.4,61.6-4,38.3-2.9,55.8-3.4a424.7,424.7,0,0,1,48.8,1.2c29.8,2.5,53.2,8.8,68.2,14.9s22.3,11,22.3,11l-1.5-.7-4.3-2.1c-1.8-1-4.2-2.1-7-3.3a99.7,99.7,0,0,0-9.9-4.1c-15.1-5.8-38.3-11.8-67.9-14.1a448.3,448.3,0,0,0-48.6-1c-17.5.6-36.1,2.1-55.7,3.7s-40.2,3.3-61.7,4.1-43.8.4-66.4-2.8-44-9.1-62.9-17.9-35.1-20.4-46.3-34.2S68,963.6,63,949.6s-9-27.2-14.3-38.8c-10.4-23.2-27-38.9-41.3-45.9S-16.8,858-16.6,857.5Z"/>
                <path class="fluid-lines" d="M1329.2-6.3a12.9,12.9,0,0,1-2.3.9L1320-2.9a254.4,254.4,0,0,0-25.3,11.4A218.1,218.1,0,0,0,1259.2,32a195.9,195.9,0,0,0-36.5,39.7c-5.3,8.2-10.5,16.9-14.4,26.5-2.3,4.7-3.8,9.7-5.6,14.8-.7,2.5-1.3,5.2-2,7.8a51.6,51.6,0,0,0-1.7,8,133.9,133.9,0,0,0-2,33.7,139.1,139.1,0,0,0,6.7,35.3,166.4,166.4,0,0,0,41.7,67.9c2.5,2.7,5.3,5.1,8,7.5a99.3,99.3,0,0,0,8.6,7.2c5.8,4.7,12.1,9.3,19.6,11.6a22.5,22.5,0,0,0,11.5.8,18.3,18.3,0,0,0,9.4-5.5,21.1,21.1,0,0,0,4.2-19.4c-1.6-6.8-5.4-13.2-8.7-19.7s-6.2-13.2-7.8-20a104.5,104.5,0,0,1-3.7-41,129,129,0,0,1,10.5-38.8,147.2,147.2,0,0,1,21.5-33.5,151.8,151.8,0,0,1,65.1-43.8c24.5-8.4,48.9-12,70.7-16s41.5-8.2,57.6-14.4,28.8-13.4,37.7-20.7a73.8,73.8,0,0,0,17.2-19c3-4.8,4-7.6,4.2-7.6a20.1,20.1,0,0,1-.8,2.1,43.8,43.8,0,0,1-2.9,5.7c-2.8,5-8,12.1-17,19.5s-21.6,14.8-37.8,21.1-36,10.8-57.8,14.8-46.1,7.8-70.3,16.2a150.8,150.8,0,0,0-63.9,43.3,141.1,141.1,0,0,0-21.1,33.1,125.2,125.2,0,0,0-10.3,38.1c-1.6,13.3-.1,27,3.6,40.4,1.6,6.7,4.8,13.1,7.7,19.7s7.2,12.8,8.9,20a22.9,22.9,0,0,1-4.7,21.2,19.6,19.6,0,0,1-10.8,6.3,26.3,26.3,0,0,1-13.1-.8c-8.2-2.6-14.6-7.4-20.5-12.1-3-2.4-6-4.7-8.7-7.3s-5.6-4.9-8.1-7.6a168.2,168.2,0,0,1-42.1-68.8,142.6,142.6,0,0,1-6.6-35.7,132.4,132.4,0,0,1,2.1-34.1,68.3,68.3,0,0,1,1.7-8.1c.8-2.6,1.4-5.3,2.2-7.9,1.8-5.1,3.4-10.1,5.6-14.9a166.9,166.9,0,0,1,14.8-26.7,193.1,193.1,0,0,1,37.1-39.8,223.3,223.3,0,0,1,36-23.4,225.4,225.4,0,0,1,25.6-11l7-2.3Z"/>
                <path class="fluid-lines" d="M1932.5,28.9l-3.8-1.2-11.3-3.8c-10-2.8-25.1-6.9-45.3-7.7-5.1-.4-10.4.1-16,.2s-11.4.9-17.3,2.2a180.8,180.8,0,0,0-37.5,11.3,313.7,313.7,0,0,0-39.1,19.9c-13.2,8-27,16.6-40.1,27S1696,98.7,1682,110.3s-29.2,23.5-47.6,32.7a142.4,142.4,0,0,1-29.7,11.2,190.3,190.3,0,0,1-33.1,5.2c-22.7,1.8-46.2,1-69.8,3.5-11.7,1.3-23.6,3.4-34.7,7.4a97.7,97.7,0,0,0-30.3,16.9c-4.6,3.5-8.3,7.7-12.3,11.7s-7,8.7-9.7,13.5c-5.6,9.4-10,19.6-11.8,30.2a81.7,81.7,0,0,0,.3,32.3c2.4,10.8,7.7,21,14.9,30.3a115.7,115.7,0,0,0,27.6,24.2,191.3,191.3,0,0,0,35.2,17.1c25.1,9.3,51.8,14.6,78.2,18.6s52.7,7.4,77.9,13.1a288.2,288.2,0,0,1,36.7,10.7,211.3,211.3,0,0,1,33.2,15.8,220,220,0,0,1,28.5,20.1,225.9,225.9,0,0,1,23.7,23.1,243.2,243.2,0,0,1,34.6,50.8,281,281,0,0,1,20.9,52.3c10.2,34.5,14.7,67.5,18.6,97.5s6.7,57.3,10.9,80.9c2.2,11.9,5.3,22.7,9.9,32.2s10.5,17.6,17.5,23.6c13.9,12.3,29.7,16.9,40.1,17.7s16.1-1.1,16.1-.7l-4,.7a53.9,53.9,0,0,1-12.1.4c-10.6-.7-26.6-5.1-40.9-17.5a74.2,74.2,0,0,1-17.9-23.8c-4.7-9.5-7.9-20.5-10.2-32.4-4.3-23.7-7.4-50.9-11.3-80.9s-8.6-62.9-18.9-97.3a281.2,281.2,0,0,0-20.8-51.9,245.5,245.5,0,0,0-34.5-50.4,230.9,230.9,0,0,0-23.4-22.9,226.1,226.1,0,0,0-28.3-19.8,204.8,204.8,0,0,0-32.7-15.5,298.9,298.9,0,0,0-36.3-10.6c-25.1-5.6-51.3-9-77.8-13.1s-53.4-9.2-78.8-18.7a184.6,184.6,0,0,1-35.7-17.4,118.4,118.4,0,0,1-28.2-24.7c-7.4-9.5-12.8-20.1-15.3-31.1a83.4,83.4,0,0,1-.3-33c1.8-10.9,6.3-21.3,12.1-30.9,2.7-4.9,6.4-9.3,9.9-13.7s7.9-8.4,12.6-12a99.6,99.6,0,0,1,31.1-17.3c11.4-4.1,23.5-6.2,35.4-7.5,23.9-2.6,47.4-1.7,69.8-3.5a181.4,181.4,0,0,0,32.7-5,144,144,0,0,0,29.3-10.9c18.1-9.1,33.3-20.8,47.3-32.4s27-23.1,40.2-33.4,27.1-19.1,40.4-27a298.4,298.4,0,0,1,39.5-19.9,176.8,176.8,0,0,1,37.8-11.2c6-1.3,11.9-1.6,17.5-2.2s11-.5,16.1-.1a178.3,178.3,0,0,1,45.5,8.2C1927.5,26.9,1932.5,28.9,1932.5,28.9Z"/>
                <path class="fluid-lines" d="M-18.3,161s0,.9-.1,2.7-.1,1.9-.2,3.2.2,2.8.3,4.5c.7,6.7,3.2,16.6,10,28.1a134.8,134.8,0,0,0,34,37A122.7,122.7,0,0,0,54.3,253a115.5,115.5,0,0,0,37.8,7.6,123,123,0,0,0,42.1-5.7c14.1-4.4,26.9-12.2,38.1-21.9s22-20.7,36.6-29.1,32.6-12.6,51-12.9a178.1,178.1,0,0,1,55.4,8.3c18.2,5.5,35.6,13.1,53.2,20.9s35.5,15.5,54.4,22.1a542.5,542.5,0,0,0,58.9,16.9,560.1,560.1,0,0,0,61,10.6,170.2,170.2,0,0,0,30.2,1.4c9.9-.7,19.8-2.7,27.7-7.3s13.1-11.9,14.4-19.7-.4-15.9-3.3-23.3-7.5-14.4-12.3-21.1a234.9,234.9,0,0,0-15.6-19c-22.2-24.1-49.1-42.9-75.2-58.8s-52.3-28.9-75.9-40.9-45-22.9-63.2-33.2a517.8,517.8,0,0,1-45-28.4C312.8,11.1,304.4,3.9,298.7-1l-6.2-5.7-2-2,2.2,1.8,6.4,5.6c5.8,4.8,14.3,11.9,26.2,20.1a504.9,504.9,0,0,0,45.1,28C388.7,57,410,67.9,433.7,79.7s49.8,24.9,76.3,40.8,53.4,34.8,75.8,59.1a194.2,194.2,0,0,1,15.8,19.2c4.9,6.6,9.5,13.7,12.6,21.4s5,15.9,3.5,24.3-7,16.3-15.5,21.2-18.9,7-29,7.6a166.9,166.9,0,0,1-30.8-1.3,569.6,569.6,0,0,1-61.3-10.6,572.1,572.1,0,0,1-59.2-17.1c-19.1-6.6-37.2-14.3-54.7-22.2s-34.8-15.4-52.7-20.8a176.2,176.2,0,0,0-54.5-8.2c-18.1.2-35.7,4.4-49.8,12.4s-24.9,19.2-36.4,28.8-24.5,17.8-38.8,22.2a123.7,123.7,0,0,1-43,5.6,116,116,0,0,1-38.4-7.8,122.9,122.9,0,0,1-28.9-16.9A133.5,133.5,0,0,1-9.2,199.9c-6.7-11.7-9.2-21.7-9.6-28.5-.1-1.7-.2-3.2-.2-4.5s.3-2.3.4-3.2Z"/>
                <path class="fluid-lines" d="M167.9-8.9l1.8.7L175-6c4.6,2,11.4,5.1,20,9.2a709,709,0,0,1,70.1,38.4c7.1,4.5,14.5,9.2,22,14.3s15.4,10.3,22.5,16.8,13.8,13.9,17.5,22.9a25.8,25.8,0,0,1,1.6,14.3,25.4,25.4,0,0,1-7.8,13.4,34.9,34.9,0,0,1-15.4,8,70,70,0,0,1-18.3,2.2c-12.4.1-25-2.4-37.1-5.8s-24.5-6.4-37.4-6.9a58.2,58.2,0,0,0-19.1,2.2,37.4,37.4,0,0,0-15.6,9.3c-16.9,17.2-15.3,42.7-34.8,58.5a38,38,0,0,1-17.1,7.6,52.7,52.7,0,0,1-19-.3,62.4,62.4,0,0,1-30.9-15.7c-8-7.2-14.1-15.5-19.5-23.6s-10.4-16.1-14.9-23.9A424.5,424.5,0,0,1,19.3,90.3a395.2,395.2,0,0,1-22-67.5C-4.5,14.7-5.7,8.3-6.4,4-6.7,1.9-7,.3-7.2-.9s-.2-1.7-.1-1.7A13.7,13.7,0,0,1-6.9-.9c.3,1.2.6,2.8,1,4.8C-5,8.2-3.7,14.5-1.7,22.6A417.6,417.6,0,0,0,21.1,89.8a446.1,446.1,0,0,0,22.7,44.3c4.5,7.8,9.6,15.7,14.9,23.8S70.2,174,78,181.1a61.7,61.7,0,0,0,29.7,15c11.5,2.2,24.8.5,33.7-6.9a39.5,39.5,0,0,0,10.7-12.7,129.7,129.7,0,0,0,7-15.1c4.2-10.3,7.9-21.5,16.9-30.5a39.8,39.8,0,0,1,16.7-10,62.2,62.2,0,0,1,20.1-2.3c13.4.5,26,3.9,38.1,7s24.2,5.8,36.3,5.8,24.3-2.4,31.9-9.5a23.1,23.1,0,0,0,7.2-12.3,23.6,23.6,0,0,0-1.4-13.4c-3.5-8.6-9.9-16-16.9-22.2s-14.8-11.6-22.2-16.8S271,47.4,264,42.9a791,791,0,0,0-69.5-39C186-.3,179.3-3.4,174.7-5.6L169.6-8Z"/>
                <path class="fluid-lines" d="M458.3,174c.1,0-.1.5-.4,1.5a14,14,0,0,1-2.4,3.9c-2.6,3.1-8.3,6.9-16.6,7.8s-18.3-1.7-27-7.1a51.6,51.6,0,0,1-12.3-9.7c-3.5-3.9-6.3-9.1-5.8-14.6a15.1,15.1,0,0,1,9.9-12.9c5.9-2.1,12.1-1.3,17.2-.1,10.4,2.7,18.9,7.2,24.3,12.4a54.7,54.7,0,0,1,10.4,13.4c1.9,3.4,2.8,5.3,2.7,5.4s-1.4-1.8-3.6-5a66.2,66.2,0,0,0-10.9-12.8c-5.3-4.7-13.6-9-23.5-11.4-4.9-1.2-10.6-1.7-15.5.1a12.7,12.7,0,0,0-8.3,11.1c-.5,4.8,1.9,9.4,5.2,13.1a55,55,0,0,0,11.6,9.4c8.3,5.2,17.7,7.9,25.4,7.2s13.3-4.1,16-6.8S458,173.9,458.3,174Z"/>
            </g>
        </g>
    </g>
</svg>
